<svg xmlns="http://www.w3.org/2000/svg" xmlns:xlink="http://www.w3.org/1999/xlink" xmlns:inkscape="http://www.inkscape.org/namespaces/inkscape" version="1.1" width="149" height="114" viewBox="0 0 149 114">
<defs>
<path id="font_1_2" d="M.33399964 .30233766C.33999635 .32835389 .36299134 .42037965 .43299867 .42037965 .43798829 .42037965 .46199037 .42037965 .48298646 .40734864 .45498658 .402359 .43499757 .37734986 .43499757 .35334779 .43499757 .33735658 .44599916 .31835938 .47299195 .31835938 .49499513 .31835938 .5269928 .3363495 .5269928 .37635804 .5269928 .42837525 .46798707 .4423828 .43399049 .4423828 .37599183 .4423828 .34098817 .38935853 .32899476 .36634828 .3039856 .43237306 .25 .4423828 .22099304 .4423828 .116989139 .4423828 .05999756 .3133545 .05999756 .28834535 .05999756 .27833558 .069992069 .27833558 .07199097 .27833558 .07998657 .27833558 .08299255 .28033448 .084991458 .28933717 .11898804 .39535523 .18499756 .42037965 .21899414 .42037965 .23799134 .42037965 .272995 .4113617 .272995 .35334779 .272995 .32235719 .2559967 .25532533 .21899414 .11528015 .20298767 .053268434 .16799927 .011245728 .12399292 .011245728 .117996219 .011245728 .09498596 .011245728 .07398987 .024276734 .09899902 .029266358 .12098694 .05027771 .12098694 .07827759 .12098694 .105270389 .09899902 .11328125 .083999637 .11328125 .053985597 .11328125 .0289917 .08728027 .0289917 .055267335 .0289917 .009246826 .07899475-.0107421879 .12298584-.0107421879 .18899536-.0107421879 .22499085 .059280397 .22799683 .0652771 .23999024 .028274537 .27598573-.0107421879 .33599855-.0107421879 .43899537-.0107421879 .49598695 .118270877 .49598695 .14328003 .49598695 .1532898 .4869995 .1532898 .48399354 .1532898 .47499085 .1532898 .47299195 .14929199 .47099305 .14228821 .43798829 .03527832 .36999513 .011245728 .33799745 .011245728 .29899598 .011245728 .2829895 .043273927 .2829895 .07727051 .2829895 .09927368 .2889862 .121276859 .2999878 .16529846L.33399964 .30233766Z"/>
<path id="font_1_3" d="M.48599244 .38136292C.48999024 .39537049 .48999024 .39736939 .48999024 .40437318 .48999024 .42237855 .47599793 .43138124 .46099855 .43138124 .45098878 .43138124 .43499757 .42536927 .42599488 .41036988 .42399598 .405365 .41600038 .37435914 .4119873 .35635377 .40499879 .33035279 .397995 .30334474 .3919983 .27633668L.34700013 .09628296C.34298707 .08126831 .2999878 .011245728 .23399353 .011245728 .18299866 .011245728 .17199707 .055267335 .17199707 .0922699 .17199707 .1382904 .18899536 .20030213 .22299195 .28833009 .23899842 .3293457 .24299622 .3403473 .24299622 .36035157 .24299622 .405365 .21099854 .4423828 .16099549 .4423828 .06599426 .4423828 .0289917 .29733277 .0289917 .28833009 .0289917 .27833558 .038986207 .27833558 .040985109 .27833558 .050994874 .27833558 .051986696 .28033448 .056991579 .29634095 .083999637 .3903656 .12399292 .42037965 .1579895 .42037965 .1659851 .42037965 .18299866 .42037965 .18299866 .3883667 .18299866 .36335755 .17298889 .3373413 .1659851 .31834413 .12599182 .21231079 .10798645 .1552887 .10798645 .10827637 .10798645 .019256592 .17098999-.0107421879 .22999573-.0107421879 .2689972-.0107421879 .30299378 .0062561037 .33099366 .03425598 .31799317-.017745972 .30599977-.06674194 .2659912-.11973572 .23999024-.15385437 .20199585-.18309021 .1559906-.18309021 .14199829-.18309021 .09700012-.18005371 .07998657-.14074707 .09599304-.14074707 .10899353-.14074707 .12298584-.1287384 .1329956-.11973572 .14299011-.10673523 .14299011-.08773804 .14299011-.056747438 .115997318-.052734376 .10598755-.052734376 .08299255-.052734376 .049987794-.068740848 .049987794-.11773682 .049987794-.16796875 .09399414-.20507813 .1559906-.20507813 .25898744-.20507813 .3619995-.11373901 .3899994-.00074768069L.48599244 .38136292Z"/>
<path id="font_1_1" d="M.2869873 .68333438C.2869873 .6843262 .2869873 .69433596 .27398683 .69433596 .25099183 .69433596 .17799378 .6863251 .1519928 .6843262 .14399719 .68333438 .1329956 .6823273 .1329956 .6643219 .1329956 .6523285 .14199829 .6523285 .15699768 .6523285 .20498657 .6523285 .20698548 .6453247 .20698548 .6353302L.20399475 .6153412 .05899048 .039260866C.054992677 .025253296 .054992677 .023254395 .054992677 .01725769 .054992677-.0057525637 .07499695-.0107421879 .083999637-.0107421879 .099990848-.0107421879 .115997318 .0012512207 .12098694 .015258789L.13999939 .091278079 .1619873 .18130493C.16799927 .2033081 .17399597 .22531128 .1789856 .24832154 .18099976 .25431825 .18899536 .28733827 .18998719 .29333497 .19299317 .30233766 .22399903 .35835267 .2579956 .38536073 .27999879 .4013672 .31098939 .42037965 .35398866 .42037965 .39698792 .42037965 .4079895 .3863678 .4079895 .35035707 .4079895 .29634095 .36999513 .18730164 .34599305 .12628174 .33799745 .103271488 .33299256 .091278079 .33299256 .0712738 .33299256 .024261475 .36799623-.0107421879 .4149933-.0107421879 .5089874-.0107421879 .54599 .13528443 .54599 .14329529 .54599 .1532898 .5369873 .1532898 .5339966 .1532898 .5239868 .1532898 .5239868 .15029907 .5189972 .13528443 .5039978 .08227539 .47200013 .011245728 .4169922 .011245728 .3999939 .011245728 .3929901 .021255494 .3929901 .044265748 .3929901 .0692749 .4019928 .09327698 .41099549 .11528015 .4269867 .15829468 .47200013 .2773285 .47200013 .3353424 .47200013 .4003601 .43199159 .4423828 .35699464 .4423828 .2939911 .4423828 .24598694 .41137696 .20899964 .36535646L.2869873 .68333438Z"/>
<path id="font_2_1" d="M.33099366-.2400055C.33099366-.23701477 .33099366-.23500061 .31399537-.21800232 .18899536-.0920105 .15699768 .09700012 .15699768 .25 .15699768 .42399598 .19499207 .59799197 .31799317 .72299197 .33099366 .73498538 .33099366 .7369995 .33099366 .73999026 .33099366 .746994 .32699586 .75 .32099916 .75 .31098939 .75 .22099304 .6819916 .1619873 .5549927 .11099243 .44499208 .09899902 .33399964 .09899902 .25 .09899902 .17199707 .10998535 .050994874 .16499329-.06201172 .22499085-.18501282 .31098939-.25 .32099916-.25 .32699586-.25 .33099366-.24700928 .33099366-.2400055Z"/>
<path id="font_2_2" d="M.2889862 .25C.2889862 .32798768 .27799989 .44898988 .22299195 .56199648 .16299439 .68499758 .07699585 .75 .066986087 .75 .06098938 .75 .056991579 .74598696 .056991579 .73999026 .056991579 .7369995 .056991579 .73498538 .07598877 .71699526 .17399597 .6179962 .23098755 .45899964 .23098755 .25 .23098755 .07899475 .19400025-.09700012 .069992069-.2230072 .056991579-.23500061 .056991579-.23701477 .056991579-.2400055 .056991579-.2460022 .06098938-.25 .066986087-.25 .07699585-.25 .16699219-.18200684 .22599793-.055007936 .2769928 .054992677 .2889862 .16600037 .2889862 .25Z"/>
<path id="font_3_1" d="M.6589966 .23046875C.6759949 .23046875 .69400027 .23046875 .69400027 .25045777 .69400027 .27046205 .6759949 .27046205 .6589966 .27046205H.117996219C.100997928 .27046205 .08299255 .27046205 .08299255 .25045777 .08299255 .23046875 .100997928 .23046875 .117996219 .23046875H.6589966Z"/>
<path id="font_2_4" d="M.1269989 .07699585 .23298645 .18003845C.3889923 .31811524 .44898988 .3721466 .44898988 .47216798 .44898988 .5860901 .35899354 .6660156 .23699951 .6660156 .12399292 .6660156 .049987794 .57411196 .049987794 .48516847 .049987794 .4291687 .099990848 .4291687 .102996829 .4291687 .11999512 .4291687 .15499878 .44117738 .15499878 .48217774 .15499878 .5081787 .13699341 .5341797 .101989749 .5341797 .09399414 .5341797 .09199524 .5341797 .08898926 .5331726 .11199951 .59806826 .1659851 .63500979 .22399903 .63500979 .31498719 .63500979 .35798646 .5541382 .35798646 .47216798 .35798646 .39215089 .30799867 .31311036 .25299073 .25108338L.06098938 .036987306C.049987794 .025985718 .049987794 .023986817 .049987794 0H.42099L.44898988 .17404175H.42399598C.4189911 .14402771 .4119873 .1000061 .4019928 .084991458 .394989 .07699585 .32899476 .07699585 .30699159 .07699585H.1269989Z"/>
<path id="font_2_3" d="M.2939911 .64004519C.2939911 .66400149 .2939911 .6660156 .2709961 .6660156 .20899964 .60227969 .12098694 .60227969 .08898926 .60227969V.57128909C.10899353 .57128909 .16799927 .57128909 .21998596 .5972748V.07902527C.21998596 .042999269 .21699524 .0309906 .1269989 .0309906H.09498596V0C.12998963 .0029907227 .21699524 .0029907227 .25698854 .0029907227 .29699708 .0029907227 .38398744 .0029907227 .4189911 0V.0309906H.3869934C.29699708 .0309906 .2939911 .041992189 .2939911 .07902527V.64004519Z"/>
</defs>
<path transform="matrix(1.00008,0,0,-1.00003,74.58545,50.201028)" stroke-width=".79701" stroke-linecap="butt" stroke-miterlimit="10" stroke-linejoin="miter" fill="none" stroke="#bfbfbf" d="M-72.28487-48.18991H72.28487M-72.28487-24.09494H72.28487M-72.28487 0H72.28487M-72.28487 24.09494H72.28487M-72.28487 48.18144H72.28487M-72.28487-60.23738V48.18991M-48.18991-60.23738V48.18991M-24.09494-60.23738V48.18991M0-60.23738V48.18991M24.09494-60.23738V48.18991M48.18991-60.23738V48.18991M72.2764-60.23738V48.18991M72.28487 48.18991"/>
<path transform="matrix(1.00008,0,0,-1.00003,74.58545,50.201028)" stroke-width=".29887" stroke-linecap="butt" stroke-miterlimit="10" stroke-linejoin="miter" fill="none" stroke="#333333" d="M0 0H68.96732"/>
<path transform="matrix(1.00008,0,0,-1.00003,143.55829,50.201028)" d="M3.31755 0C2.33455 .1843 .73723 .73723-.3686 1.38231V-1.38231C.73723-.73723 2.33455-.1843 3.31755 0" fill="#333333"/>
<use data-text="x" xlink:href="#font_1_2" transform="matrix(9.963397,0,0,-9.962899,138.00452,57.961259)" fill="#333333"/>
<path transform="matrix(1.00008,0,0,-1.00003,74.58545,50.201028)" stroke-width=".29887" stroke-linecap="butt" stroke-miterlimit="10" stroke-linejoin="miter" fill="none" stroke="#333333" d="M0 0H-68.96732"/>
<path transform="matrix(-1.00008,-0,0,1.00003,5.61261,50.201028)" d="M3.31755 0C2.33455 .1843 .73723 .73723-.3686 1.38231V-1.38231C.73723-.73723 2.33455-.1843 3.31755 0" fill="#333333"/>
<path transform="matrix(1.00008,0,0,-1.00003,74.58545,50.201028)" stroke-width=".29887" stroke-linecap="butt" stroke-miterlimit="10" stroke-linejoin="miter" fill="none" stroke="#333333" d="M0 0V44.87236"/>
<path transform="matrix(0,-1.00003,-1.00008,-0,74.58545,5.32732)" d="M3.31755 0C2.33455 .1843 .73723 .73723-.3686 1.38231V-1.38231C.73723-.73723 2.33455-.1843 3.31755 0" fill="#333333"/>
<use data-text="y" xlink:href="#font_1_3" transform="matrix(9.963397,0,0,-9.962899,78.055728,9.209793)" fill="#333333"/>
<path transform="matrix(1.00008,0,0,-1.00003,74.58545,50.201028)" stroke-width=".29887" stroke-linecap="butt" stroke-miterlimit="10" stroke-linejoin="miter" fill="none" stroke="#333333" d="M0 0V-56.91982"/>
<path transform="matrix(0,1.00003,1.00008,0,74.58545,107.12256)" d="M3.31755 0C2.33455 .1843 .73723 .73723-.3686 1.38231V-1.38231C.73723-.73723 2.33455-.1843 3.31755 0" fill="#333333"/>
<path transform="matrix(1.00008,0,0,-1.00003,74.58545,50.201028)" stroke-width="1.49442" stroke-linecap="butt" stroke-miterlimit="10" stroke-linejoin="miter" fill="none" stroke="#0074c8" d="M-51.804-62.78528C-51.804-62.78528-48.68517-5.58078-47.48729 7.81422-46.28944 21.20924-44.36847 29.97296-43.17062 33.75667-41.97275 37.54037-40.05177 36.24544-38.85391 35.08466-37.65605 33.92387-35.73508 28.43002-34.53722 25.39058-33.33934 22.35112-31.4184 16.27333-30.22052 13.17839-29.02267 10.08344-27.10168 5.33601-25.90382 3.08427-24.70596 .83257-22.78499-1.89467-21.58713-3.05045-20.38927-4.20622-18.46829-5.03166-17.27045-5.24576-16.07257-5.45982-14.15161-4.95906-12.95374-4.5935-11.75587-4.22798-9.8349-3.14528-8.63704-2.6111-7.4392-2.07692-5.51822-1.10567-4.32034-.74338-3.1225-.3811-1.2015-.00053-.00366 0 1.19418 .00053 3.11514-.37773 4.313-.73933 5.51086-1.10097 7.43182-2.07222 8.62968-2.60632 9.82756-3.14041 11.74852-4.22256 12.9464-4.58875 14.14424-4.95491 16.06523-5.45795 17.26309-5.24539 18.46095-5.03282 20.38191-4.21039 21.57977-3.05672 22.77763-1.90302 24.69862 .81984 25.89647 3.06956 27.09435 5.3193 29.0153 10.06377 30.21318 13.15779 31.41104 16.25182 33.332 22.32852 34.52986 25.36925 35.72772 28.40999 37.6487 33.90703 38.84657 35.07327 40.04442 36.23949 41.96541 37.54636 43.16325 33.77469 44.36113 30.003 46.28207 21.26303 47.47995 7.88959 48.67781-5.48381 51.79665-62.61172 51.79665-62.61172"/>
<use data-text="h" xlink:href="#font_1_1" transform="matrix(9.963397,0,0,-9.962899,126.847629,23.777234)" fill="#0074c8"/>
<use data-text="(" xlink:href="#font_2_1" transform="matrix(9.963397,0,0,-9.962899,132.58809,23.777234)" fill="#0074c8"/>
<use data-text="x" xlink:href="#font_1_2" transform="matrix(9.963397,0,0,-9.962899,136.4634,23.777234)" fill="#0074c8"/>
<use data-text=")" xlink:href="#font_2_2" transform="matrix(9.963397,0,0,-9.962899,142.15685,23.777234)" fill="#0074c8"/>
<path transform="matrix(1.00008,0,0,-1.00003,74.58545,50.201028)" stroke-width=".79701" stroke-linecap="butt" stroke-miterlimit="10" stroke-linejoin="miter" fill="none" stroke="#000000" d="M-48.18991 2.54051V-2.54051"/>
<use data-text="&#x2212;" xlink:href="#font_3_1" transform="matrix(9.963397,0,0,-9.962899,20.026078,62.88141)"/>
<use data-text="2" xlink:href="#font_2_4" transform="matrix(9.963397,0,0,-9.962899,27.77568,62.88141)"/>
<path transform="matrix(1.00008,0,0,-1.00003,74.58545,50.201028)" stroke-width=".79701" stroke-linecap="butt" stroke-miterlimit="10" stroke-linejoin="miter" fill="none" stroke="#000000" d="M-24.09494 2.54051V-2.54051"/>
<use data-text="&#x2212;" xlink:href="#font_3_1" transform="matrix(9.963397,0,0,-9.962899,44.123018,62.88141)"/>
<use data-text="1" xlink:href="#font_2_3" transform="matrix(9.963397,0,0,-9.962899,51.87262,62.88141)"/>
<path transform="matrix(1.00008,0,0,-1.00003,74.58545,50.201028)" stroke-width=".79701" stroke-linecap="butt" stroke-miterlimit="10" stroke-linejoin="miter" fill="none" stroke="#000000" d="M24.09494 2.54051V-2.54051"/>
<use data-text="1" xlink:href="#font_2_3" transform="matrix(9.963397,0,0,-9.962899,96.19118,62.88141)"/>
<path transform="matrix(1.00008,0,0,-1.00003,74.58545,50.201028)" stroke-width=".79701" stroke-linecap="butt" stroke-miterlimit="10" stroke-linejoin="miter" fill="none" stroke="#000000" d="M48.18991 2.54051V-2.54051"/>
<use data-text="2" xlink:href="#font_2_4" transform="matrix(9.963397,0,0,-9.962899,120.2881,62.88141)"/>
<path transform="matrix(1.00008,0,0,-1.00003,74.58545,50.201028)" stroke-width=".79701" stroke-linecap="butt" stroke-miterlimit="10" stroke-linejoin="miter" fill="none" stroke="#000000" d="M-1.69368-48.18991H1.69368"/>
<use data-text="&#x2212;" xlink:href="#font_3_1" transform="matrix(9.963397,0,0,-9.962899,59.82827,101.18756)"/>
<use data-text="2" xlink:href="#font_2_4" transform="matrix(9.963397,0,0,-9.962899,67.57787,101.18756)"/>
<path transform="matrix(1.00008,0,0,-1.00003,74.58545,50.201028)" stroke-width=".79701" stroke-linecap="butt" stroke-miterlimit="10" stroke-linejoin="miter" fill="none" stroke="#000000" d="M-1.69368-24.09494H1.69368"/>
<use data-text="&#x2212;" xlink:href="#font_3_1" transform="matrix(9.963397,0,0,-9.962899,59.82827,77.091838)"/>
<use data-text="1" xlink:href="#font_2_3" transform="matrix(9.963397,0,0,-9.962899,67.57787,77.091838)"/>
<path transform="matrix(1.00008,0,0,-1.00003,74.58545,50.201028)" stroke-width=".79701" stroke-linecap="butt" stroke-miterlimit="10" stroke-linejoin="miter" fill="none" stroke="#000000" d="M-1.69368 24.09494H1.69368"/>
<use data-text="1" xlink:href="#font_2_3" transform="matrix(9.963397,0,0,-9.962899,67.57789,29.3154)"/>
</svg>
