<svg xmlns="http://www.w3.org/2000/svg" xmlns:xlink="http://www.w3.org/1999/xlink" xmlns:inkscape="http://www.inkscape.org/namespaces/inkscape" version="1.1" width="120" height="102" viewBox="0 0 120 102">
<defs>
<path id="font_1_3" d="M.47099305 .3773346C.47200013 .3833313 .47399903 .38833619 .47399903 .39535523 .47399903 .41236878 .46199037 .42237855 .44499208 .42237855 .43499757 .42237855 .4079895 .41537477 .4039917 .3793335 .38598634 .41636659 .35099793 .4423828 .31098939 .4423828 .19699097 .4423828 .07299805 .30226136 .07299805 .15812683 .07299805 .059020997 .13398743 0 .20599365 0 .2649994 0 .31199647 .04701233 .32199098 .058029176L.32299806 .057022096C.3019867-.031982423 .2899933-.07295227 .2899933-.07495117 .28599549-.08395386 .2519989-.18309021 .1459961-.18309021 .1269989-.18309021 .09399414-.18206787 .06599426-.17297364 .09599304-.16394043 .10699463-.13793946 .10699463-.12094116 .10699463-.10494995 .09599304-.0859375 .068984989-.0859375 .04699707-.0859375 .01499939-.10394287 .01499939-.14395142 .01499939-.18508911 .051986696-.20507813 .147995-.20507813 .272995-.20507813 .34498597-.12693787 .3600006-.06695557L.47099305 .3773346M.34098817 .12809754C.33499146 .10206604 .31199647 .077041629 .2899933 .058029176 .2689972 .040008546 .23799134 .021987915 .20899964 .021987915 .15899658 .021987915 .14399719 .074035648 .14399719 .11407471 .14399719 .16212464 .17298889 .28024293 .19999695 .33128358 .22698975 .38034059 .269989 .42037965 .31199647 .42037965 .37799073 .42037965 .3919983 .33929444 .3919983 .33428956 .3919983 .32928468 .3899994 .3232727 .3889923 .3192749L.34098817 .12809754Z"/>
<path id="font_2_1" d="M.33099366-.2400055C.33099366-.23701477 .33099366-.23500061 .31399537-.21800232 .18899536-.0920105 .15699768 .09700012 .15699768 .25 .15699768 .42399598 .19499207 .59799197 .31799317 .72299197 .33099366 .73498538 .33099366 .7369995 .33099366 .73999026 .33099366 .746994 .32699586 .75 .32099916 .75 .31098939 .75 .22099304 .6819916 .1619873 .5549927 .11099243 .44499208 .09899902 .33399964 .09899902 .25 .09899902 .17199707 .10998535 .050994874 .16499329-.06201172 .22499085-.18501282 .31098939-.25 .32099916-.25 .32699586-.25 .33099366-.24700928 .33099366-.2400055Z"/>
<path id="font_1_4" d="M.33399964 .30233766C.33999635 .32835389 .36299134 .42037965 .43299867 .42037965 .43798829 .42037965 .46199037 .42037965 .48298646 .40734864 .45498658 .402359 .43499757 .37734986 .43499757 .35334779 .43499757 .33735658 .44599916 .31835938 .47299195 .31835938 .49499513 .31835938 .5269928 .3363495 .5269928 .37635804 .5269928 .42837525 .46798707 .4423828 .43399049 .4423828 .37599183 .4423828 .34098817 .38935853 .32899476 .36634828 .3039856 .43237306 .25 .4423828 .22099304 .4423828 .116989139 .4423828 .05999756 .3133545 .05999756 .28834535 .05999756 .27833558 .069992069 .27833558 .07199097 .27833558 .07998657 .27833558 .08299255 .28033448 .084991458 .28933717 .11898804 .39535523 .18499756 .42037965 .21899414 .42037965 .23799134 .42037965 .272995 .4113617 .272995 .35334779 .272995 .32235719 .2559967 .25532533 .21899414 .11528015 .20298767 .053268434 .16799927 .011245728 .12399292 .011245728 .117996219 .011245728 .09498596 .011245728 .07398987 .024276734 .09899902 .029266358 .12098694 .05027771 .12098694 .07827759 .12098694 .105270389 .09899902 .11328125 .083999637 .11328125 .053985597 .11328125 .0289917 .08728027 .0289917 .055267335 .0289917 .009246826 .07899475-.0107421879 .12298584-.0107421879 .18899536-.0107421879 .22499085 .059280397 .22799683 .0652771 .23999024 .028274537 .27598573-.0107421879 .33599855-.0107421879 .43899537-.0107421879 .49598695 .118270877 .49598695 .14328003 .49598695 .1532898 .4869995 .1532898 .48399354 .1532898 .47499085 .1532898 .47299195 .14929199 .47099305 .14228821 .43798829 .03527832 .36999513 .011245728 .33799745 .011245728 .29899598 .011245728 .2829895 .043273927 .2829895 .07727051 .2829895 .09927368 .2889862 .121276859 .2999878 .16529846L.33399964 .30233766Z"/>
<path id="font_2_2" d="M.2889862 .25C.2889862 .32798768 .27799989 .44898988 .22299195 .56199648 .16299439 .68499758 .07699585 .75 .066986087 .75 .06098938 .75 .056991579 .74598696 .056991579 .73999026 .056991579 .7369995 .056991579 .73498538 .07598877 .71699526 .17399597 .6179962 .23098755 .45899964 .23098755 .25 .23098755 .07899475 .19400025-.09700012 .069992069-.2230072 .056991579-.23500061 .056991579-.23701477 .056991579-.2400055 .056991579-.2460022 .06098938-.25 .066986087-.25 .07699585-.25 .16699219-.18200684 .22599793-.055007936 .2769928 .054992677 .2889862 .16600037 .2889862 .25Z"/>
<path id="font_2_5" d="M.2899933 .35191346C.37199403 .37893678 .42999269 .4490509 .42999269 .52809146 .42999269 .6100464 .34199525 .6660156 .24598694 .6660156 .14498902 .6660156 .068984989 .60606387 .068984989 .53009036 .068984989 .49710084 .09098816 .47808839 .11999512 .47808839 .15098572 .47808839 .17098999 .50009158 .17098999 .5290985 .17098999 .57910159 .12399292 .57910159 .10899353 .57910159 .13999939 .62802127 .20599365 .64100649 .24198914 .64100649 .2829895 .64100649 .33799745 .6190338 .33799745 .5290985 .33799745 .51708987 .33599855 .45906068 .30999757 .4149933 .27999879 .36691285 .24598694 .36390687 .22099304 .36291505 .21299744 .36190797 .18899536 .35990907 .18199158 .35990907 .17399597 .35890199 .16699219 .35791017 .16699219 .3479004 .16699219 .33691407 .17399597 .33691407 .19099427 .33691407H.23498535C.31698609 .33691407 .35398866 .2686615 .35398866 .17037964 .35398866 .034469606 .2849884 .0055389406 .24099732 .0055389406 .19799805 .0055389406 .12298584 .022491456 .08799744 .08137512 .12298584 .07637024 .1539917 .09837341 .1539917 .1363678 .1539917 .17237854 .1269989 .19238281 .09799194 .19238281 .07398987 .19238281 .041992189 .17837525 .041992189 .1343689 .041992189 .043441774 .1349945-.022460938 .24398804-.022460938 .3659973-.022460938 .45700074 .06838989 .45700074 .17037964 .45700074 .252594 .3939972 .33088685 .2899933 .35191346Z"/>
<path id="font_1_2" d="M.20298767 .0009918213C.20298767 .066986087 .17799378 .10598755 .13899231 .10598755 .10598755 .10598755 .085998538 .08099365 .085998538 .052993776 .085998538 .025985718 .10598755 0 .13899231 0 .15098572 0 .1639862 .0039978029 .17399597 .0129852299 .1769867 .01499939 .17799378 .015991211 .1789856 .015991211 .17999268 .015991211 .18099976 .01499939 .18099976 .0009918213 .18099976-.07316589 .1459961-.13328552 .11299133-.16635132 .101989749-.17736817 .101989749-.17936707 .101989749-.18237305 .101989749-.18936157 .10699463-.19335938 .11199951-.19335938 .12298584-.19335938 .20298767-.116256717 .20298767 .0009918213Z"/>
<path id="font_2_6" d="M.2939911 .16503906V.07800293C.2939911 .041992189 .2919922 .0309906 .21798706 .0309906H.19699097V0C.23799134 .0029907227 .2899933 .0029907227 .33198548 .0029907227 .37399293 .0029907227 .4269867 .0029907227 .46798707 0V.0309906H.44699098C.37298585 .0309906 .37098695 .041992189 .37098695 .07800293V.16503906H.47099305V.19602967H.37098695V.65075686C.37098695 .67074587 .37098695 .6767578 .35499574 .6767578 .34599305 .6767578 .34298707 .6767578 .33499146 .66474917L.027999878 .19602967V.16503906H.2939911M.2999878 .19602967H.055999757L.2999878 .5688019V.19602967Z"/>
<path id="font_1_1" d="M.19198609 .052993776C.19198609 .08198547 .16799927 .10598755 .13899231 .10598755 .10998535 .10598755 .085998538 .08198547 .085998538 .052993776 .085998538 .023986817 .10998535 0 .13899231 0 .16799927 0 .19198609 .023986817 .19198609 .052993776Z"/>
<path id="font_2_7" d="M.44898988 .20022583C.44898988 .3193512 .36698915 .41944886 .25898744 .41944886 .21099854 .41944886 .16799927 .40345765 .13198853 .36842347V.5637665C.1519928 .5577698 .18499756 .55078127 .21699524 .55078127 .33999635 .55078127 .4099884 .6417694 .4099884 .6547699 .4099884 .6607666 .40699769 .6657715 .3999939 .6657715 .39898683 .6657715 .39698792 .6657715 .3919983 .66278079 .37199403 .6537781 .32299806 .6337738 .2559967 .6337738 .21598816 .6337738 .16999817 .6407776 .12298584 .6617737 .114990238 .66477969 .11299133 .66477969 .11099243 .66477969 .100997928 .66477969 .100997928 .6567688 .100997928 .6407776V.34439088C.100997928 .32637025 .100997928 .31835938 .114990238 .31835938 .12199402 .31835938 .12399292 .32136537 .12799073 .32736207 .13899231 .3433838 .17599488 .39746095 .25698854 .39746095 .30899049 .39746095 .33399964 .35139466 .34199525 .33337403 .35798646 .29632569 .3600006 .25727845 .3600006 .20722962 .3600006 .17222595 .3600006 .11222839 .33599855 .07035828 .31199647 .031463624 .2749939 .0055389406 .22898865 .0055389406 .1559906 .0055389406 .09899902 .058380128 .08198547 .11723328 .084991458 .1162262 .08799744 .115234378 .09899902 .115234378 .13198853 .115234378 .14898682 .14022827 .14898682 .16423035 .14898682 .18823242 .13198853 .21322632 .09899902 .21322632 .084991458 .21322632 .049987794 .20622254 .049987794 .16023255 .049987794 .07434082 .11898804-.022460938 .23098755-.022460938 .34700013-.022460938 .44898988 .073349 .44898988 .20022583Z"/>
<path id="font_2_4" d="M.1269989 .07699585 .23298645 .18003845C.3889923 .31811524 .44898988 .3721466 .44898988 .47216798 .44898988 .5860901 .35899354 .6660156 .23699951 .6660156 .12399292 .6660156 .049987794 .57411196 .049987794 .48516847 .049987794 .4291687 .099990848 .4291687 .102996829 .4291687 .11999512 .4291687 .15499878 .44117738 .15499878 .48217774 .15499878 .5081787 .13699341 .5341797 .101989749 .5341797 .09399414 .5341797 .09199524 .5341797 .08898926 .5331726 .11199951 .59806826 .1659851 .63500979 .22399903 .63500979 .31498719 .63500979 .35798646 .5541382 .35798646 .47216798 .35798646 .39215089 .30799867 .31311036 .25299073 .25108338L.06098938 .036987306C.049987794 .025985718 .049987794 .023986817 .049987794 0H.42099L.44898988 .17404175H.42399598C.4189911 .14402771 .4119873 .1000061 .4019928 .084991458 .394989 .07699585 .32899476 .07699585 .30699159 .07699585H.1269989Z"/>
<path id="font_2_3" d="M.45999146 .31976319C.45999146 .39982606 .45498658 .47988893 .41999818 .5539398 .37399293 .65000918 .2919922 .6660156 .25 .6660156 .18998719 .6660156 .116989139 .64001467 .07598877 .54693606 .04399109 .47789 .038986207 .39982606 .038986207 .31976319 .038986207 .24472046 .042999269 .15464783 .083999637 .07859802 .1269989-.0024719239 .19999695-.022460938 .24899292-.022460938 .30299378-.022460938 .3789978-.0014648438 .4229889 .09359741 .45498658 .16265869 .45999146 .2407074 .45999146 .31976319M.24899292-.00047302247C.20999146-.00047302247 .15098572 .024551392 .1329956 .12062073 .12199402 .18066406 .12199402 .2727356 .12199402 .3317871 .12199402 .39582826 .12199402 .46188355 .12998963 .5159149 .14898682 .63500979 .22399903 .64401248 .24899292 .64401248 .28199769 .64401248 .34799195 .6259918 .36698915 .52693179 .3769989 .47088624 .3769989 .39482118 .3769989 .3317871 .3769989 .25672914 .3769989 .18867493 .3659973 .12461853 .35099793 .029556275 .2939911-.00047302247 .24899292-.00047302247Z"/>
</defs>
<path transform="matrix(1.00009,0,0,-1.00002,53.811586,121.90318)" stroke-width="1.49442" stroke-linecap="butt" stroke-miterlimit="10" stroke-linejoin="miter" fill="none" stroke="#0074c8" d="M-21.2601 85.04042-18.60258 90.02325-15.94505 94.3417-13.28755 97.99579-10.63004 100.98549-7.97252 103.3108-5.315 104.97177-2.6575 105.96834 0 106.30052 2.6575 105.96834 5.315 104.97177 7.97252 103.3108 10.63004 100.98549 13.28755 97.99579 15.94505 94.3417 18.60258 90.02325 21.2601 85.04042 23.9176 79.39319 26.57512 73.0816 29.23262 66.10562 31.89014 58.46529 34.54765 50.16055 37.20518 41.19144 39.86269 31.55795 42.5202 21.2601"/>
<use data-text="g" xlink:href="#font_1_3" transform="matrix(9.963496,0,0,-9.962799,12.641876,30.302353)" fill="#0074c8"/>
<use data-text="(" xlink:href="#font_2_1" transform="matrix(9.963496,0,0,-9.962799,17.752335,30.302353)" fill="#0074c8"/>
<use data-text="x" xlink:href="#font_1_4" transform="matrix(9.963496,0,0,-9.962799,21.626679,30.302353)" fill="#0074c8"/>
<use data-text=")" xlink:href="#font_2_2" transform="matrix(9.963496,0,0,-9.962799,27.321183,30.302353)" fill="#0074c8"/>
<path transform="matrix(1.00009,0,0,-1.00002,53.811586,121.90318)" stroke-width="1.49442" stroke-linecap="butt" stroke-miterlimit="10" stroke-linejoin="miter" fill="none" stroke="#000000" d="M14.88199 97.7966 16.12186 95.31686 17.36172 92.83713 18.60161 90.35739 19.84148 87.87764 21.08133 85.3979 22.32121 82.91817 23.56108 80.43842 24.80095 77.95868 26.04083 75.47894 27.28069 72.9992 28.52055 70.51945 29.76044 68.03972 31.0003 65.55998 32.24017 63.08023 33.48004 60.60051 34.71991 58.12076 35.9598 55.641 37.19966 53.16129 38.43951 50.68155 39.6794 48.2018 40.91927 45.72206 42.15913 43.24231 43.39902 40.76257 44.63887 38.28285"/>
<path transform="matrix(1.00009,0,0,-1.00002,53.811586,121.90318)" stroke-width="1.49442" stroke-linecap="butt" stroke-miterlimit="10" stroke-linejoin="miter" fill="none" stroke="#000000" d="M-47.83522 106.30052H-44.95647-42.07771-39.19894-36.32019-33.44144-30.56267-27.68393-24.80516-21.9264-19.04767-16.1689-13.29015-10.41139-7.53264-4.65388-1.77512 1.1036 3.98235 6.86111 9.73987 12.61862 15.49739 18.37614 21.2549"/>
<path transform="matrix(1.00009,0,0,-1.00002,53.811586,121.90318)" d="M24.24893 85.04042C24.24893 86.69113 22.9108 88.02925 21.2601 88.02925 19.60939 88.02925 18.27127 86.69113 18.27127 85.04042 18.27127 83.38971 19.60939 82.05159 21.2601 82.05159 22.9108 82.05159 24.24893 83.38971 24.24893 85.04042ZM21.2601 85.04042"/>
<use data-text="(" xlink:href="#font_2_1" transform="matrix(9.963496,0,0,-9.962799,78.79283,39.351526)"/>
<use data-text="3" xlink:href="#font_2_5" transform="matrix(9.963496,0,0,-9.962799,82.65866,39.351526)"/>
<use data-text="," xlink:href="#font_1_2" transform="matrix(9.963496,0,0,-9.962799,87.64963,39.351526)"/>
<use data-text="4" xlink:href="#font_2_6" transform="matrix(9.963496,0,0,-9.962799,92.07802,39.351526)"/>
<use data-text=")" xlink:href="#font_2_2" transform="matrix(9.963496,0,0,-9.962799,97.05975,39.351526)"/>
<path transform="matrix(1.00009,0,0,-1.00002,53.811586,121.90318)" d="M34.87897 63.7803C34.87897 65.43102 33.54085 66.76913 31.89014 66.76913 30.23944 66.76913 28.9013 65.43102 28.9013 63.7803 28.9013 62.1296 30.23944 60.79147 31.89014 60.79147 33.54085 60.79147 34.87897 62.1296 34.87897 63.7803ZM31.89014 63.7803"/>
<use data-text="(" xlink:href="#font_2_1" transform="matrix(9.963496,0,0,-9.962799,89.42379,60.611955)"/>
<use data-text="3" xlink:href="#font_2_5" transform="matrix(9.963496,0,0,-9.962799,93.28962,60.611955)"/>
<use data-text="." xlink:href="#font_1_1" transform="matrix(9.963496,0,0,-9.962799,98.28059,60.611955)"/>
<use data-text="5" xlink:href="#font_2_7" transform="matrix(9.963496,0,0,-9.962799,101.048839,60.611955)"/>
<use data-text="," xlink:href="#font_1_2" transform="matrix(9.963496,0,0,-9.962799,106.0303,60.611955)"/>
<use data-text="3" xlink:href="#font_2_5" transform="matrix(9.963496,0,0,-9.962799,110.45869,60.611955)"/>
<use data-text=")" xlink:href="#font_2_2" transform="matrix(9.963496,0,0,-9.962799,115.44042,60.611955)"/>
<path transform="matrix(1.00009,0,0,-1.00002,53.811586,121.90318)" d="M2.98883 106.30052C2.98883 107.95123 1.6507 109.28935 0 109.28935-1.6507 109.28935-2.98883 107.95123-2.98883 106.30052-2.98883 104.64983-1.6507 103.31169 0 103.31169 1.6507 103.31169 2.98883 104.64983 2.98883 106.30052ZM0 106.30052"/>
<use data-text="(" xlink:href="#font_2_1" transform="matrix(9.963496,0,0,-9.962799,42.740587,9.39093)"/>
<use data-text="2" xlink:href="#font_2_4" transform="matrix(9.963496,0,0,-9.962799,46.606416,9.39093)"/>
<use data-text="," xlink:href="#font_1_2" transform="matrix(9.963496,0,0,-9.962799,51.59738,9.39093)"/>
<use data-text="5" xlink:href="#font_2_7" transform="matrix(9.963496,0,0,-9.962799,56.025774,9.39093)"/>
<use data-text=")" xlink:href="#font_2_2" transform="matrix(9.963496,0,0,-9.962799,61.007509,9.39093)"/>
<path transform="matrix(1.00009,0,0,-1.00002,53.811586,121.90318)" d="M-39.53137 106.30052C-39.53137 107.95123-40.86949 109.28935-42.5202 109.28935-44.17091 109.28935-45.50903 107.95123-45.50903 106.30052-45.50903 104.64983-44.17091 103.31169-42.5202 103.31169-40.86949 103.31169-39.53137 104.64983-39.53137 106.30052ZM-42.5202 106.30052"/>
<use data-text="(" xlink:href="#font_2_1" transform="matrix(9.963496,0,0,-9.962799,.21676636,9.39093)"/>
<use data-text="0" xlink:href="#font_2_3" transform="matrix(9.963496,0,0,-9.962799,4.082596,9.39093)"/>
<use data-text="," xlink:href="#font_1_2" transform="matrix(9.963496,0,0,-9.962799,9.073563,9.39093)"/>
<use data-text="5" xlink:href="#font_2_7" transform="matrix(9.963496,0,0,-9.962799,13.501953,9.39093)"/>
<use data-text=")" xlink:href="#font_2_2" transform="matrix(9.963496,0,0,-9.962799,18.483689,9.39093)"/>
</svg>
