<svg xmlns="http://www.w3.org/2000/svg" xmlns:xlink="http://www.w3.org/1999/xlink" xmlns:inkscape="http://www.inkscape.org/namespaces/inkscape" version="1.1" width="269" height="184" viewBox="0 0 269 184">
<defs>
<path id="font_1_3" d="M.33399964 .30233766C.33999635 .32835389 .36299134 .42037965 .43299867 .42037965 .43798829 .42037965 .46199037 .42037965 .48298646 .40734864 .45498658 .402359 .43499757 .37734986 .43499757 .35334779 .43499757 .33735658 .44599916 .31835938 .47299195 .31835938 .49499513 .31835938 .5269928 .3363495 .5269928 .37635804 .5269928 .42837525 .46798707 .4423828 .43399049 .4423828 .37599183 .4423828 .34098817 .38935853 .32899476 .36634828 .3039856 .43237306 .25 .4423828 .22099304 .4423828 .116989139 .4423828 .05999756 .3133545 .05999756 .28834535 .05999756 .27833558 .069992069 .27833558 .07199097 .27833558 .07998657 .27833558 .08299255 .28033448 .084991458 .28933717 .11898804 .39535523 .18499756 .42037965 .21899414 .42037965 .23799134 .42037965 .272995 .4113617 .272995 .35334779 .272995 .32235719 .2559967 .25532533 .21899414 .11528015 .20298767 .053268434 .16799927 .011245728 .12399292 .011245728 .117996219 .011245728 .09498596 .011245728 .07398987 .024276734 .09899902 .029266358 .12098694 .05027771 .12098694 .07827759 .12098694 .105270389 .09899902 .11328125 .083999637 .11328125 .053985597 .11328125 .0289917 .08728027 .0289917 .055267335 .0289917 .009246826 .07899475-.0107421879 .12298584-.0107421879 .18899536-.0107421879 .22499085 .059280397 .22799683 .0652771 .23999024 .028274537 .27598573-.0107421879 .33599855-.0107421879 .43899537-.0107421879 .49598695 .118270877 .49598695 .14328003 .49598695 .1532898 .4869995 .1532898 .48399354 .1532898 .47499085 .1532898 .47299195 .14929199 .47099305 .14228821 .43798829 .03527832 .36999513 .011245728 .33799745 .011245728 .29899598 .011245728 .2829895 .043273927 .2829895 .07727051 .2829895 .09927368 .2889862 .121276859 .2999878 .16529846L.33399964 .30233766Z"/>
<path id="font_1_4" d="M.48599244 .38136292C.48999024 .39537049 .48999024 .39736939 .48999024 .40437318 .48999024 .42237855 .47599793 .43138124 .46099855 .43138124 .45098878 .43138124 .43499757 .42536927 .42599488 .41036988 .42399598 .405365 .41600038 .37435914 .4119873 .35635377 .40499879 .33035279 .397995 .30334474 .3919983 .27633668L.34700013 .09628296C.34298707 .08126831 .2999878 .011245728 .23399353 .011245728 .18299866 .011245728 .17199707 .055267335 .17199707 .0922699 .17199707 .1382904 .18899536 .20030213 .22299195 .28833009 .23899842 .3293457 .24299622 .3403473 .24299622 .36035157 .24299622 .405365 .21099854 .4423828 .16099549 .4423828 .06599426 .4423828 .0289917 .29733277 .0289917 .28833009 .0289917 .27833558 .038986207 .27833558 .040985109 .27833558 .050994874 .27833558 .051986696 .28033448 .056991579 .29634095 .083999637 .3903656 .12399292 .42037965 .1579895 .42037965 .1659851 .42037965 .18299866 .42037965 .18299866 .3883667 .18299866 .36335755 .17298889 .3373413 .1659851 .31834413 .12599182 .21231079 .10798645 .1552887 .10798645 .10827637 .10798645 .019256592 .17098999-.0107421879 .22999573-.0107421879 .2689972-.0107421879 .30299378 .0062561037 .33099366 .03425598 .31799317-.017745972 .30599977-.06674194 .2659912-.11973572 .23999024-.15385437 .20199585-.18309021 .1559906-.18309021 .14199829-.18309021 .09700012-.18005371 .07998657-.14074707 .09599304-.14074707 .10899353-.14074707 .12298584-.1287384 .1329956-.11973572 .14299011-.10673523 .14299011-.08773804 .14299011-.056747438 .115997318-.052734376 .10598755-.052734376 .08299255-.052734376 .049987794-.068740848 .049987794-.11773682 .049987794-.16796875 .09399414-.20507813 .1559906-.20507813 .25898744-.20507813 .3619995-.11373901 .3899994-.00074768069L.48599244 .38136292Z"/>
<path id="font_1_2" d="M.47099305 .3773346C.47200013 .3833313 .47399903 .38833619 .47399903 .39535523 .47399903 .41236878 .46199037 .42237855 .44499208 .42237855 .43499757 .42237855 .4079895 .41537477 .4039917 .3793335 .38598634 .41636659 .35099793 .4423828 .31098939 .4423828 .19699097 .4423828 .07299805 .30226136 .07299805 .15812683 .07299805 .059020997 .13398743 0 .20599365 0 .2649994 0 .31199647 .04701233 .32199098 .058029176L.32299806 .057022096C.3019867-.031982423 .2899933-.07295227 .2899933-.07495117 .28599549-.08395386 .2519989-.18309021 .1459961-.18309021 .1269989-.18309021 .09399414-.18206787 .06599426-.17297364 .09599304-.16394043 .10699463-.13793946 .10699463-.12094116 .10699463-.10494995 .09599304-.0859375 .068984989-.0859375 .04699707-.0859375 .01499939-.10394287 .01499939-.14395142 .01499939-.18508911 .051986696-.20507813 .147995-.20507813 .272995-.20507813 .34498597-.12693787 .3600006-.06695557L.47099305 .3773346M.34098817 .12809754C.33499146 .10206604 .31199647 .077041629 .2899933 .058029176 .2689972 .040008546 .23799134 .021987915 .20899964 .021987915 .15899658 .021987915 .14399719 .074035648 .14399719 .11407471 .14399719 .16212464 .17298889 .28024293 .19999695 .33128358 .22698975 .38034059 .269989 .42037965 .31199647 .42037965 .37799073 .42037965 .3919983 .33929444 .3919983 .33428956 .3919983 .32928468 .3899994 .3232727 .3889923 .3192749L.34098817 .12809754Z"/>
<path id="font_1_1" d="M.36698915 .3996582H.45298768C.47299195 .3996582 .48298646 .3996582 .48298646 .41966249 .48298646 .43066407 .47299195 .43066407 .45599366 .43066407H.37298585L.3939972 .5449524C.397995 .5660095 .4119873 .6370239 .41799928 .6490326 .4269867 .66804507 .44400025 .68307498 .46499635 .68307498 .46899415 .68307498 .49499513 .68307498 .5139923 .66503909 .46998597 .661026 .45999146 .6260376 .45999146 .6110382 .45999146 .58802798 .47799684 .57603457 .49699403 .57603457 .522995 .57603457 .5519867 .5980377 .5519867 .6360321 .5519867 .6820679 .5059967 .7050781 .46499635 .7050781 .43099977 .7050781 .36799623 .68707278 .33799745 .58802798 .33198548 .56700137 .32899476 .5569763 .30499269 .43066407H.23599243C.21699524 .43066407 .20599365 .43066407 .20599365 .4116516 .20599365 .3996582 .21499634 .3996582 .23399353 .3996582H.2999878L.22499085 .0048828127C.20698548-.09207153 .18998719-.18309021 .13798523-.18309021 .13398743-.18309021 .10899353-.18309021 .08999634-.16506958 .13598633-.1620636 .14498902-.12606812 .14498902-.111068729 .14498902-.08807373 .1269989-.07606506 .10798645-.07606506 .08198547-.07606506 .052993776-.09806824 .052993776-.13606262 .052993776-.18109131 .09700012-.20507813 .13798523-.20507813 .19299317-.20507813 .23298645-.14607239 .25099183-.108062747 .2829895-.04508972 .30599977 .07583618 .30699159 .082839969L.36698915 .3996582Z"/>
<path id="font_2_1" d="M.6589966 .23046875C.6759949 .23046875 .69400027 .23046875 .69400027 .25045777 .69400027 .27046205 .6759949 .27046205 .6589966 .27046205H.117996219C.100997928 .27046205 .08299255 .27046205 .08299255 .25045777 .08299255 .23046875 .100997928 .23046875 .117996219 .23046875H.6589966Z"/>
<path id="font_3_1" d="M.2939911 .64004519C.2939911 .66400149 .2939911 .6660156 .2709961 .6660156 .20899964 .60227969 .12098694 .60227969 .08898926 .60227969V.57128909C.10899353 .57128909 .16799927 .57128909 .21998596 .5972748V.07902527C.21998596 .042999269 .21699524 .0309906 .1269989 .0309906H.09498596V0C.12998963 .0029907227 .21699524 .0029907227 .25698854 .0029907227 .29699708 .0029907227 .38398744 .0029907227 .4189911 0V.0309906H.3869934C.29699708 .0309906 .2939911 .041992189 .2939911 .07902527V.64004519Z"/>
<path id="font_3_2" d="M.1269989 .07699585 .23298645 .18003845C.3889923 .31811524 .44898988 .3721466 .44898988 .47216798 .44898988 .5860901 .35899354 .6660156 .23699951 .6660156 .12399292 .6660156 .049987794 .57411196 .049987794 .48516847 .049987794 .4291687 .099990848 .4291687 .102996829 .4291687 .11999512 .4291687 .15499878 .44117738 .15499878 .48217774 .15499878 .5081787 .13699341 .5341797 .101989749 .5341797 .09399414 .5341797 .09199524 .5341797 .08898926 .5331726 .11199951 .59806826 .1659851 .63500979 .22399903 .63500979 .31498719 .63500979 .35798646 .5541382 .35798646 .47216798 .35798646 .39215089 .30799867 .31311036 .25299073 .25108338L.06098938 .036987306C.049987794 .025985718 .049987794 .023986817 .049987794 0H.42099L.44898988 .17404175H.42399598C.4189911 .14402771 .4119873 .1000061 .4019928 .084991458 .394989 .07699585 .32899476 .07699585 .30699159 .07699585H.1269989Z"/>
<path id="font_3_3" d="M.2899933 .35191346C.37199403 .37893678 .42999269 .4490509 .42999269 .52809146 .42999269 .6100464 .34199525 .6660156 .24598694 .6660156 .14498902 .6660156 .068984989 .60606387 .068984989 .53009036 .068984989 .49710084 .09098816 .47808839 .11999512 .47808839 .15098572 .47808839 .17098999 .50009158 .17098999 .5290985 .17098999 .57910159 .12399292 .57910159 .10899353 .57910159 .13999939 .62802127 .20599365 .64100649 .24198914 .64100649 .2829895 .64100649 .33799745 .6190338 .33799745 .5290985 .33799745 .51708987 .33599855 .45906068 .30999757 .4149933 .27999879 .36691285 .24598694 .36390687 .22099304 .36291505 .21299744 .36190797 .18899536 .35990907 .18199158 .35990907 .17399597 .35890199 .16699219 .35791017 .16699219 .3479004 .16699219 .33691407 .17399597 .33691407 .19099427 .33691407H.23498535C.31698609 .33691407 .35398866 .2686615 .35398866 .17037964 .35398866 .034469606 .2849884 .0055389406 .24099732 .0055389406 .19799805 .0055389406 .12298584 .022491456 .08799744 .08137512 .12298584 .07637024 .1539917 .09837341 .1539917 .1363678 .1539917 .17237854 .1269989 .19238281 .09799194 .19238281 .07398987 .19238281 .041992189 .17837525 .041992189 .1343689 .041992189 .043441774 .1349945-.022460938 .24398804-.022460938 .3659973-.022460938 .45700074 .06838989 .45700074 .17037964 .45700074 .252594 .3939972 .33088685 .2899933 .35191346Z"/>
<path id="font_3_4" d="M.2939911 .16503906V.07800293C.2939911 .041992189 .2919922 .0309906 .21798706 .0309906H.19699097V0C.23799134 .0029907227 .2899933 .0029907227 .33198548 .0029907227 .37399293 .0029907227 .4269867 .0029907227 .46798707 0V.0309906H.44699098C.37298585 .0309906 .37098695 .041992189 .37098695 .07800293V.16503906H.47099305V.19602967H.37098695V.65075686C.37098695 .67074587 .37098695 .6767578 .35499574 .6767578 .34599305 .6767578 .34298707 .6767578 .33499146 .66474917L.027999878 .19602967V.16503906H.2939911M.2999878 .19602967H.055999757L.2999878 .5688019V.19602967Z"/>
<path id="font_3_5" d="M.44898988 .20022583C.44898988 .3193512 .36698915 .41944886 .25898744 .41944886 .21099854 .41944886 .16799927 .40345765 .13198853 .36842347V.5637665C.1519928 .5577698 .18499756 .55078127 .21699524 .55078127 .33999635 .55078127 .4099884 .6417694 .4099884 .6547699 .4099884 .6607666 .40699769 .6657715 .3999939 .6657715 .39898683 .6657715 .39698792 .6657715 .3919983 .66278079 .37199403 .6537781 .32299806 .6337738 .2559967 .6337738 .21598816 .6337738 .16999817 .6407776 .12298584 .6617737 .114990238 .66477969 .11299133 .66477969 .11099243 .66477969 .100997928 .66477969 .100997928 .6567688 .100997928 .6407776V.34439088C.100997928 .32637025 .100997928 .31835938 .114990238 .31835938 .12199402 .31835938 .12399292 .32136537 .12799073 .32736207 .13899231 .3433838 .17599488 .39746095 .25698854 .39746095 .30899049 .39746095 .33399964 .35139466 .34199525 .33337403 .35798646 .29632569 .3600006 .25727845 .3600006 .20722962 .3600006 .17222595 .3600006 .11222839 .33599855 .07035828 .31199647 .031463624 .2749939 .0055389406 .22898865 .0055389406 .1559906 .0055389406 .09899902 .058380128 .08198547 .11723328 .084991458 .1162262 .08799744 .115234378 .09899902 .115234378 .13198853 .115234378 .14898682 .14022827 .14898682 .16423035 .14898682 .18823242 .13198853 .21322632 .09899902 .21322632 .084991458 .21322632 .049987794 .20622254 .049987794 .16023255 .049987794 .07434082 .11898804-.022460938 .23098755-.022460938 .34700013-.022460938 .44898988 .073349 .44898988 .20022583Z"/>
<path id="font_3_6" d="M.13198853 .327713V.35173036C.13198853 .6047821 .2559967 .64100649 .30699159 .64100649 .33099366 .64100649 .37298585 .634964 .394989 .6007538 .37998963 .6007538 .33999635 .6007538 .33999635 .5557556 .33999635 .524765 .3639984 .5097656 .38598634 .5097656 .4019928 .5097656 .43199159 .51875308 .43199159 .5577545 .43199159 .6178589 .3880005 .6660156 .30499269 .6660156 .1769867 .6660156 .041992189 .5367584 .041992189 .31570436 .041992189 .048553468 .1579895-.022460938 .25099183-.022460938 .3619995-.022460938 .45700074 .07156372 .45700074 .2036438 .45700074 .33070375 .36799623 .4267578 .25698854 .4267578 .18899536 .4267578 .1519928 .37573243 .13198853 .327713M.25099183 .0055389406C.18798828 .0055389406 .1579895 .06556702 .1519928 .080566409 .13398743 .127594 .13398743 .2076416 .13398743 .22564698 .13398743 .30369569 .1659851 .40374757 .2559967 .40374757 .27198792 .40374757 .31799317 .40374757 .34899903 .34172059 .36698915 .30470277 .36698915 .2536621 .36698915 .20463562 .36698915 .15661621 .36698915 .10658264 .34999085 .0705719 .31999208 .010528564 .27398683 .0055389406 .25099183 .0055389406Z"/>
<path id="font_3_7" d="M.47599793 .609375C.4850006 .6213684 .4850006 .62338259 .4850006 .64437869H.24198914C.11999512 .64437869 .117996219 .65737918 .11399841 .67637637H.08898926L.055999757 .4702301H.08099365C.083999637 .48625184 .09298706 .5493469 .10598755 .56137087 .11299133 .5673828 .19099427 .5673828 .20399475 .5673828H.41099549C.3999939 .5513611 .32099916 .4421997 .29899598 .40914918 .20899964 .27394105 .17599488 .1347351 .17599488 .032577516 .17599488 .022567749 .17599488-.022460938 .22200012-.022460938 .2679901-.022460938 .2679901 .022567749 .2679901 .032577516V.08366394C.2679901 .13873291 .2709961 .19381714 .2789917 .24790955 .2829895 .27093507 .29699708 .35707093 .34098817 .41915895L.47599793 .609375Z"/>
<path id="font_3_8" d="M.16299439 .4569702C.116989139 .486969 .11299133 .52098086 .11299133 .5379791 .11299133 .598999 .17799378 .64100649 .24899292 .64100649 .32199098 .64100649 .38598634 .58898928 .38598634 .51698306 .38598634 .45996095 .34700013 .4119568 .2869873 .37695313L.16299439 .4569702M.30899049 .36193849C.3809967 .3989563 .42999269 .45095826 .42999269 .51698306 .42999269 .6090088 .34098817 .6660156 .25 .6660156 .1499939 .6660156 .068984989 .59199526 .068984989 .49897767 .068984989 .4809723 .070999149 .43595887 .11299133 .38894654 .12399292 .37695313 .16099549 .35194398 .18598938 .33494569 .12799073 .30592347 .041992189 .24984741 .041992189 .15072632 .041992189 .04458618 .14399719-.022460938 .24899292-.022460938 .3619995-.022460938 .45700074 .06060791 .45700074 .16773987 .45700074 .20379639 .44599916 .24885559 .4079895 .2909088 .3889923 .31193543 .37298585 .3219452 .30899049 .36193849M.20899964 .3199463 .33198548 .24183655C.3600006 .2228241 .40699769 .19277954 .40699769 .13169861 .40699769 .05760193 .33198548 .0055389406 .25 .0055389406 .1639862 .0055389406 .09199524 .067611698 .09199524 .15072632 .09199524 .20880127 .12399292 .27288819 .20899964 .3199463Z"/>
<path id="font_3_9" d="M.36698915 .31781007V.28579713C.36698915 .05178833 .2630005 .0055389406 .20498657 .0055389406 .18798828 .0055389406 .13398743 .007537842 .10699463 .041778566 .15098572 .041778566 .15899658 .07078552 .15899658 .08778381 .15899658 .118774417 .1349945 .13378906 .11299133 .13378906 .09700012 .13378906 .066986087 .12478638 .066986087 .08578491 .066986087 .018615723 .12098694-.022460938 .20599365-.022460938 .33499146-.022460938 .45700074 .11378479 .45700074 .32881166 .45700074 .5979767 .34199525 .6660156 .25299073 .6660156 .19799805 .6660156 .14898682 .64801028 .10598755 .60298159 .06498718 .5579529 .041992189 .5159302 .041992189 .44088746 .041992189 .31581117 .12998963 .21777344 .24198914 .21777344 .30299378 .21777344 .34399415 .25978089 .36698915 .31781007M.24299622 .24076844C.22698975 .24076844 .18099976 .24076844 .1499939 .3038025 .13198853 .3408203 .13198853 .39085389 .13198853 .43988038 .13198853 .49391175 .13198853 .54093936 .15299988 .5779724 .17999268 .6279907 .21798706 .64100649 .25299073 .64100649 .29899598 .64100649 .33198548 .60697939 .34899903 .5619507 .36099244 .52993777 .36499024 .4669037 .36499024 .42086793 .36499024 .3378296 .33099366 .24076844 .24299622 .24076844Z"/>
</defs>
<path transform="matrix(1.00008,0,0,-1.00002,44.1671,139.9105)" stroke-width=".79701" stroke-linecap="butt" stroke-miterlimit="10" stroke-linejoin="miter" fill="none" stroke="#bfbfbf" d="M-42.5202-42.5202H212.60106M-42.5202-21.2601H212.60106M-42.5202 0H212.60106M-42.5202 21.2601H212.60106M-42.5202 42.5202H212.60106M-42.5202 63.7803H212.60106M-42.5202 85.04042H212.60106M-42.5202 106.30052H212.60106M-42.5202 127.55316H212.60106M-42.5202-42.5202V127.56062M-21.2601-42.5202V127.56062M0-42.5202V127.56062M21.2601-42.5202V127.56062M42.5202-42.5202V127.56062M63.7803-42.5202V127.56062M85.04042-42.5202V127.56062M106.30052-42.5202V127.56062M127.56062-42.5202V127.56062M148.82074-42.5202V127.56062M170.08086-42.5202V127.56062M191.34096-42.5202V127.56062M212.5936-42.5202V127.56062M212.60106 127.56062"/>
<path transform="matrix(1.00008,0,0,-1.00002,44.1671,139.9105)" stroke-width=".29887" stroke-linecap="butt" stroke-miterlimit="10" stroke-linejoin="miter" fill="none" stroke="#333333" d="M0 0H219.91355"/>
<path transform="matrix(1.00008,0,0,-1.00002,264.09825,139.9105)" d="M3.31755 0C2.33455 .1843 .73723 .73723-.3686 1.38231V-1.38231C.73723-.73723 2.33455-.1843 3.31755 0" fill="#333333"/>
<use data-text="x" xlink:href="#font_1_3" transform="matrix(9.963397,0,0,-9.962799,259.2533,136.44043)" fill="#333333"/>
<path transform="matrix(1.00008,0,0,-1.00002,44.1671,139.9105)" stroke-width=".29887" stroke-linecap="butt" stroke-miterlimit="10" stroke-linejoin="miter" fill="none" stroke="#333333" d="M0 0H-39.20264"/>
<path transform="matrix(-1.00008,-0,0,1.00002,4.961323,139.9105)" d="M3.31755 0C2.33455 .1843 .73723 .73723-.3686 1.38231V-1.38231C.73723-.73723 2.33455-.1843 3.31755 0" fill="#333333"/>
<path transform="matrix(1.00008,0,0,-1.00002,44.1671,139.9105)" stroke-width=".29887" stroke-linecap="butt" stroke-miterlimit="10" stroke-linejoin="miter" fill="none" stroke="#333333" d="M0 0V134.87311"/>
<path transform="matrix(0,-1.00002,-1.00008,-0,44.1671,5.0346987)" d="M3.31755 0C2.33455 .1843 .73723 .73723-.3686 1.38231V-1.38231C.73723-.73723 2.33455-.1843 3.31755 0" fill="#333333"/>
<use data-text="y" xlink:href="#font_1_4" transform="matrix(9.963397,0,0,-9.962799,47.637376,8.2078709)" fill="#333333"/>
<path transform="matrix(1.00008,0,0,-1.00002,44.1671,139.9105)" stroke-width=".29887" stroke-linecap="butt" stroke-miterlimit="10" stroke-linejoin="miter" fill="none" stroke="#333333" d="M0 0V-39.20264"/>
<path transform="matrix(0,1.00002,1.00008,0,44.1671,179.11394)" d="M3.31755 0C2.33455 .1843 .73723 .73723-.3686 1.38231V-1.38231C.73723-.73723 2.33455-.1843 3.31755 0" fill="#333333"/>
<path transform="matrix(1.00008,0,0,-1.00002,44.1671,139.9105)" stroke-width=".99628" stroke-linecap="butt" stroke-miterlimit="10" stroke-linejoin="miter" fill="none" stroke="#0074c8" d="M-14.03172-42.09523C-14.03172-42.09523-12.3294-36.98827-11.67558-35.02681-11.02176-33.06534-9.97327-29.91983-9.31944-27.95837-8.66562-25.99693-7.61713-22.8514-6.9633-20.88994-6.30948-18.9285-5.26097-15.78297-4.60715-13.8215-3.95334-11.86006-2.90483-8.71454-2.251-6.7531-1.5972-4.79163-.5487-1.64612 .10509 .3153 .75891 2.27676 1.8074 5.42227 2.46123 7.38373 3.11505 9.34518 4.16356 12.49069 4.81738 14.45215 5.4712 16.41362 6.5197 19.55913 7.17352 21.52058 7.82733 23.48203 8.87584 26.62756 9.52966 28.58902 10.18347 30.55046 11.232 33.69598 11.88582 35.65746 12.53961 37.6189 13.58813 40.76442 14.24194 42.72586 14.89575 44.68733 15.94427 47.83284 16.59808 49.79428 17.25189 51.75575 18.30042 54.90128 18.95422 56.86272 19.60803 58.82417 20.65656 61.9697 21.31036 63.93115 21.96419 65.89261 23.0127 69.03812 23.6665 70.99959 24.32033 72.96103 25.36884 76.10655 26.02264 78.06801 26.67647 80.02946 27.72498 83.17499 28.3788 85.13644 29.03262 87.09789 30.08112 90.24341 30.73494 92.20485 31.38876 94.1663 32.43726 97.31184 33.09108 99.27328 33.7449 101.23474 34.7934 104.38026 35.44722 106.34172 36.10104 108.30318 37.14955 111.44868 37.80338 113.41014 38.4572 115.37161 39.50569 118.51712 40.15952 120.47858 40.81334 122.44002 42.51566 127.547 42.51566 127.547"/>
<path transform="matrix(1.00008,0,0,-1.00002,44.1671,139.9105)" stroke-width=".99628" stroke-linecap="butt" stroke-miterlimit="10" stroke-linejoin="miter" fill="none" stroke="#0074c8" d="M42.5202 127.56062C42.5202 127.56062 47.6403 123.72078 49.6068 122.24593 51.57329 120.77107 54.72688 118.40579 56.69339 116.9309 58.65988 115.456 61.81349 113.09076 63.77998 111.61586 65.74646 110.14098 68.90007 107.7757 70.86656 106.30084 72.83307 104.82599 75.98666 102.461 77.95317 100.98615 79.91965 99.51129 83.07327 97.14601 85.03976 95.67113 87.00627 94.19623 90.15987 91.83098 92.12636 90.35608 94.09285 88.88118 97.24646 86.51591 99.21295 85.04106 101.17944 83.56621 104.33305 81.2012 106.29953 79.72636 108.26604 78.25151 111.41965 75.88622 113.38614 74.41132 115.35263 72.93643 118.50624 70.57121 120.47273 69.09631 122.43924 67.62141 125.59283 65.25613 127.55934 63.78128 129.52582 62.30643 132.67943 59.94142 134.64592 58.46657 136.61241 56.99173 139.76602 54.62645 141.73253 53.15155 143.699 51.67665 146.85262 49.31142 148.8191 47.83652 150.7856 46.36162 153.93921 43.99634 155.9057 42.52148 157.8722 41.04665 161.0258 38.68164 162.99231 37.20679 164.9588 35.73193 168.11241 33.36667 170.07889 31.89177 172.0454 30.41687 175.19899 28.05164 177.1655 26.57675 179.13199 25.10185 182.2856 22.73656 184.25208 21.2617 186.21857 19.78685 189.37218 17.42186 191.33867 15.947 193.30518 14.47215 196.45877 12.10687 198.42528 10.63199 200.39177 9.15709 203.54538 6.79185 205.51187 5.31696 207.47837 3.84207 212.59847 .00192 212.59847 .00192"/>
<use data-text="g" xlink:href="#font_1_2" transform="matrix(9.963397,0,0,-9.962799,239.34272,119.8261)" fill="#0074c8"/>
<path transform="matrix(1.00008,0,0,-1.00002,44.1671,139.9105)" stroke-width="1.49442" stroke-linecap="butt" stroke-dasharray="2.98883,2.98883" stroke-miterlimit="10" stroke-linejoin="miter" fill="none" stroke="#ff0000" d="M-42.5202 85.01866C-42.5202 85.01866-38.67374 77.5269-37.19643 74.82008-35.71909 72.11325-33.34996 67.9701-31.87263 65.50969-30.3953 63.0493-28.02617 59.30121-26.54884 57.0872-25.07152 54.87318-22.70238 51.5203-21.22505 49.55261-19.74773 47.58495-17.37859 44.62686-15.90128 42.90558-14.42395 41.1843-12.05481 38.62163-10.57748 37.14677-9.10016 35.67192-6.73102 33.50432-5.25371 32.27586-3.77638 31.0474-1.40726 29.27496 .07004 28.29283 1.54738 27.31071 3.9165 25.93315 5.39383 25.19736 6.87117 24.4616 9.2403 23.47916 10.71762 22.9898 12.19495 22.50046 14.56409 21.91351 16.04141 21.67046 17.51874 21.42741 19.88788 21.23476 21.36519 21.23804 22.84251 21.24132 25.21165 21.44438 26.68898 21.69414 28.1663 21.9439 30.53545 22.542 32.01276 23.03815 33.49008 23.5343 35.85922 24.52763 37.33655 25.27005 38.81389 26.01244 41.18301 27.40009 42.66032 28.38887 44.13766 29.37766 46.50679 31.16124 47.98413 32.39653 49.46146 33.63185 51.8306 35.81041 53.3079 37.2921 54.78523 38.77379 57.15437 41.34773 58.6317 43.07558 60.10902 44.80344 62.47816 47.77107 63.95547 49.7453 65.4328 51.71954 67.80194 55.08371 69.27927 57.30457 70.75659 59.5254 73.12573 63.28452 74.60304 65.75171 76.08038 68.2189 78.44951 72.37305 79.92683 75.08643 81.40417 77.79977 85.25063 85.30772 85.25063 85.30772"/>
<path transform="matrix(1.00008,0,0,-1.00002,44.1671,139.9105)" stroke-width="1.49442" stroke-linecap="butt" stroke-dasharray="2.98883,2.98883" stroke-miterlimit="10" stroke-linejoin="miter" fill="none" stroke="#ff0000" d="M85.04042 84.76434C85.04042 84.76434 88.88054 86.03137 90.35542 86.51807 91.83032 87.00476 94.19557 87.78539 95.67047 88.27213 97.14536 88.75885 99.51059 89.53943 100.98549 90.02617 102.46039 90.51291 104.82562 91.29353 106.30052 91.78021 107.77542 92.2669 110.14066 93.04724 111.61555 93.53394 113.09044 94.02065 115.45567 94.80125 116.93057 95.28798 118.40547 95.77473 120.7707 96.5553 122.2456 97.04204 123.7205 97.5288 126.08574 98.30939 127.56062 98.79608 129.03553 99.28279 131.40076 100.06313 132.87566 100.54982 134.35054 101.03651 136.71578 101.81712 138.19068 102.30386 139.66558 102.79062 142.0308 103.57118 143.5057 104.0579 144.9806 104.54466 147.34584 105.32527 148.82074 105.81197 150.29563 106.29868 152.66086 107.079 154.13576 107.56569 155.61066 108.05238 157.97589 108.833 159.45079 109.31975 160.92569 109.80649 163.29093 110.58704 164.76581 111.07379 166.2407 111.56053 168.60596 112.34114 170.08086 112.82785 171.55574 113.31453 173.92096 114.09486 175.39586 114.58157 176.87076 115.06827 179.236 115.84888 180.71089 116.33563 182.18579 116.82236 184.55103 117.60292 186.02593 118.08968 187.50081 118.57642 189.86606 119.35703 191.34096 119.84372 192.81586 120.33041 195.18108 121.11075 196.65598 121.59744 198.13088 122.08414 200.49611 122.86475 201.971 123.35149 203.44589 123.83823 205.81114 124.6188 207.28604 125.10555 208.76093 125.59227 212.60106 126.85959 212.60106 126.85959"/>
<use data-text="f" xlink:href="#font_1_1" transform="matrix(9.963397,0,0,-9.962799,197.06732,46.728639)" fill="#ff0000"/>
<path transform="matrix(1.00008,0,0,-1.00002,44.1671,139.9105)" stroke-width=".79701" stroke-linecap="butt" stroke-miterlimit="10" stroke-linejoin="miter" fill="none" stroke="#000000" d="M-21.2601 2.24162V-2.24162"/>
<use data-text="&#x2212;" xlink:href="#font_2_1" transform="matrix(9.963397,0,0,-9.962799,16.539887,152.29175)"/>
<use data-text="1" xlink:href="#font_3_1" transform="matrix(9.963397,0,0,-9.962799,24.289505,152.29175)"/>
<path transform="matrix(1.00008,0,0,-1.00002,44.1671,139.9105)" stroke-width=".79701" stroke-linecap="butt" stroke-miterlimit="10" stroke-linejoin="miter" fill="none" stroke="#000000" d="M21.2601 2.24162V-2.24162"/>
<use data-text="1" xlink:href="#font_3_1" transform="matrix(9.963397,0,0,-9.962799,62.9376,152.29175)"/>
<path transform="matrix(1.00008,0,0,-1.00002,44.1671,139.9105)" stroke-width=".79701" stroke-linecap="butt" stroke-miterlimit="10" stroke-linejoin="miter" fill="none" stroke="#000000" d="M42.5202 2.24162V-2.24162"/>
<use data-text="2" xlink:href="#font_3_2" transform="matrix(9.963397,0,0,-9.962799,84.2003,152.29175)"/>
<path transform="matrix(1.00008,0,0,-1.00002,44.1671,139.9105)" stroke-width=".79701" stroke-linecap="butt" stroke-miterlimit="10" stroke-linejoin="miter" fill="none" stroke="#000000" d="M63.7803 2.24162V-2.24162"/>
<use data-text="3" xlink:href="#font_3_3" transform="matrix(9.963397,0,0,-9.962799,105.462009,152.29175)"/>
<path transform="matrix(1.00008,0,0,-1.00002,44.1671,139.9105)" stroke-width=".79701" stroke-linecap="butt" stroke-miterlimit="10" stroke-linejoin="miter" fill="none" stroke="#000000" d="M85.04042 2.24162V-2.24162"/>
<use data-text="4" xlink:href="#font_3_4" transform="matrix(9.963397,0,0,-9.962799,126.7237,152.29175)"/>
<path transform="matrix(1.00008,0,0,-1.00002,44.1671,139.9105)" stroke-width=".79701" stroke-linecap="butt" stroke-miterlimit="10" stroke-linejoin="miter" fill="none" stroke="#000000" d="M106.30052 2.24162V-2.24162"/>
<use data-text="5" xlink:href="#font_3_5" transform="matrix(9.963397,0,0,-9.962799,147.9854,152.29175)"/>
<path transform="matrix(1.00008,0,0,-1.00002,44.1671,139.9105)" stroke-width=".79701" stroke-linecap="butt" stroke-miterlimit="10" stroke-linejoin="miter" fill="none" stroke="#000000" d="M127.56062 2.24162V-2.24162"/>
<use data-text="6" xlink:href="#font_3_6" transform="matrix(9.963397,0,0,-9.962799,169.2471,152.29175)"/>
<path transform="matrix(1.00008,0,0,-1.00002,44.1671,139.9105)" stroke-width=".79701" stroke-linecap="butt" stroke-miterlimit="10" stroke-linejoin="miter" fill="none" stroke="#000000" d="M148.82074 2.24162V-2.24162"/>
<use data-text="7" xlink:href="#font_3_7" transform="matrix(9.963397,0,0,-9.962799,190.5088,152.29175)"/>
<path transform="matrix(1.00008,0,0,-1.00002,44.1671,139.9105)" stroke-width=".79701" stroke-linecap="butt" stroke-miterlimit="10" stroke-linejoin="miter" fill="none" stroke="#000000" d="M170.08086 2.24162V-2.24162"/>
<use data-text="8" xlink:href="#font_3_8" transform="matrix(9.963397,0,0,-9.962799,211.77051,152.29175)"/>
<path transform="matrix(1.00008,0,0,-1.00002,44.1671,139.9105)" stroke-width=".79701" stroke-linecap="butt" stroke-miterlimit="10" stroke-linejoin="miter" fill="none" stroke="#000000" d="M191.34096 2.24162V-2.24162"/>
<use data-text="9" xlink:href="#font_3_9" transform="matrix(9.963397,0,0,-9.962799,233.03221,152.29175)"/>
<path transform="matrix(1.00008,0,0,-1.00002,44.1671,139.9105)" stroke-width=".79701" stroke-linecap="butt" stroke-miterlimit="10" stroke-linejoin="miter" fill="none" stroke="#000000" d="M-1.49442-21.2601H1.49442"/>
<use data-text="&#x2212;" xlink:href="#font_2_1" transform="matrix(9.963397,0,0,-9.962799,29.210907,163.96599)"/>
<use data-text="1" xlink:href="#font_3_1" transform="matrix(9.963397,0,0,-9.962799,36.960527,163.96599)"/>
<path transform="matrix(1.00008,0,0,-1.00002,44.1671,139.9105)" stroke-width=".79701" stroke-linecap="butt" stroke-miterlimit="10" stroke-linejoin="miter" fill="none" stroke="#000000" d="M-1.49442 21.2601H1.49442"/>
<use data-text="1" xlink:href="#font_3_1" transform="matrix(9.963397,0,0,-9.962799,36.960527,121.860149)"/>
<path transform="matrix(1.00008,0,0,-1.00002,44.1671,139.9105)" stroke-width=".79701" stroke-linecap="butt" stroke-miterlimit="10" stroke-linejoin="miter" fill="none" stroke="#000000" d="M-1.49442 42.5202H1.49442"/>
<use data-text="2" xlink:href="#font_3_2" transform="matrix(9.963397,0,0,-9.962799,36.960527,100.59972)"/>
<path transform="matrix(1.00008,0,0,-1.00002,44.1671,139.9105)" stroke-width=".79701" stroke-linecap="butt" stroke-miterlimit="10" stroke-linejoin="miter" fill="none" stroke="#000000" d="M-1.49442 63.7803H1.49442"/>
<use data-text="3" xlink:href="#font_3_3" transform="matrix(9.963397,0,0,-9.962799,36.960527,79.339298)"/>
<path transform="matrix(1.00008,0,0,-1.00002,44.1671,139.9105)" stroke-width=".79701" stroke-linecap="butt" stroke-miterlimit="10" stroke-linejoin="miter" fill="none" stroke="#000000" d="M-1.49442 85.04042H1.49442"/>
<use data-text="4" xlink:href="#font_3_4" transform="matrix(9.963397,0,0,-9.962799,36.960527,58.078866)"/>
<path transform="matrix(1.00008,0,0,-1.00002,44.1671,139.9105)" stroke-width=".79701" stroke-linecap="butt" stroke-miterlimit="10" stroke-linejoin="miter" fill="none" stroke="#000000" d="M-1.49442 106.30052H1.49442"/>
<use data-text="5" xlink:href="#font_3_5" transform="matrix(9.963397,0,0,-9.962799,36.960527,36.818445)"/>
</svg>
