<svg xmlns="http://www.w3.org/2000/svg" xmlns:xlink="http://www.w3.org/1999/xlink" xmlns:inkscape="http://www.inkscape.org/namespaces/inkscape" version="1.1" width="244" height="165" viewBox="0 0 244 165">
<defs>
<path id="font_1_1" d="M.33399964 .30233766C.33999635 .32835389 .36299134 .42037965 .43299867 .42037965 .43798829 .42037965 .46199037 .42037965 .48298646 .40734864 .45498658 .402359 .43499757 .37734986 .43499757 .35334779 .43499757 .33735658 .44599916 .31835938 .47299195 .31835938 .49499513 .31835938 .5269928 .3363495 .5269928 .37635804 .5269928 .42837525 .46798707 .4423828 .43399049 .4423828 .37599183 .4423828 .34098817 .38935853 .32899476 .36634828 .3039856 .43237306 .25 .4423828 .22099304 .4423828 .116989139 .4423828 .05999756 .3133545 .05999756 .28834535 .05999756 .27833558 .069992069 .27833558 .07199097 .27833558 .07998657 .27833558 .08299255 .28033448 .084991458 .28933717 .11898804 .39535523 .18499756 .42037965 .21899414 .42037965 .23799134 .42037965 .272995 .4113617 .272995 .35334779 .272995 .32235719 .2559967 .25532533 .21899414 .11528015 .20298767 .053268434 .16799927 .011245728 .12399292 .011245728 .117996219 .011245728 .09498596 .011245728 .07398987 .024276734 .09899902 .029266358 .12098694 .05027771 .12098694 .07827759 .12098694 .105270389 .09899902 .11328125 .083999637 .11328125 .053985597 .11328125 .0289917 .08728027 .0289917 .055267335 .0289917 .009246826 .07899475-.0107421879 .12298584-.0107421879 .18899536-.0107421879 .22499085 .059280397 .22799683 .0652771 .23999024 .028274537 .27598573-.0107421879 .33599855-.0107421879 .43899537-.0107421879 .49598695 .118270877 .49598695 .14328003 .49598695 .1532898 .4869995 .1532898 .48399354 .1532898 .47499085 .1532898 .47299195 .14929199 .47099305 .14228821 .43798829 .03527832 .36999513 .011245728 .33799745 .011245728 .29899598 .011245728 .2829895 .043273927 .2829895 .07727051 .2829895 .09927368 .2889862 .121276859 .2999878 .16529846L.33399964 .30233766Z"/>
<path id="font_1_2" d="M.48599244 .38136292C.48999024 .39537049 .48999024 .39736939 .48999024 .40437318 .48999024 .42237855 .47599793 .43138124 .46099855 .43138124 .45098878 .43138124 .43499757 .42536927 .42599488 .41036988 .42399598 .405365 .41600038 .37435914 .4119873 .35635377 .40499879 .33035279 .397995 .30334474 .3919983 .27633668L.34700013 .09628296C.34298707 .08126831 .2999878 .011245728 .23399353 .011245728 .18299866 .011245728 .17199707 .055267335 .17199707 .0922699 .17199707 .1382904 .18899536 .20030213 .22299195 .28833009 .23899842 .3293457 .24299622 .3403473 .24299622 .36035157 .24299622 .405365 .21099854 .4423828 .16099549 .4423828 .06599426 .4423828 .0289917 .29733277 .0289917 .28833009 .0289917 .27833558 .038986207 .27833558 .040985109 .27833558 .050994874 .27833558 .051986696 .28033448 .056991579 .29634095 .083999637 .3903656 .12399292 .42037965 .1579895 .42037965 .1659851 .42037965 .18299866 .42037965 .18299866 .3883667 .18299866 .36335755 .17298889 .3373413 .1659851 .31834413 .12599182 .21231079 .10798645 .1552887 .10798645 .10827637 .10798645 .019256592 .17098999-.0107421879 .22999573-.0107421879 .2689972-.0107421879 .30299378 .0062561037 .33099366 .03425598 .31799317-.017745972 .30599977-.06674194 .2659912-.11973572 .23999024-.15385437 .20199585-.18309021 .1559906-.18309021 .14199829-.18309021 .09700012-.18005371 .07998657-.14074707 .09599304-.14074707 .10899353-.14074707 .12298584-.1287384 .1329956-.11973572 .14299011-.10673523 .14299011-.08773804 .14299011-.056747438 .115997318-.052734376 .10598755-.052734376 .08299255-.052734376 .049987794-.068740848 .049987794-.11773682 .049987794-.16796875 .09399414-.20507813 .1559906-.20507813 .25898744-.20507813 .3619995-.11373901 .3899994-.00074768069L.48599244 .38136292Z"/>
<path id="font_2_3" d="M.1269989 .07699585 .23298645 .18003845C.3889923 .31811524 .44898988 .3721466 .44898988 .47216798 .44898988 .5860901 .35899354 .6660156 .23699951 .6660156 .12399292 .6660156 .049987794 .57411196 .049987794 .48516847 .049987794 .4291687 .099990848 .4291687 .102996829 .4291687 .11999512 .4291687 .15499878 .44117738 .15499878 .48217774 .15499878 .5081787 .13699341 .5341797 .101989749 .5341797 .09399414 .5341797 .09199524 .5341797 .08898926 .5331726 .11199951 .59806826 .1659851 .63500979 .22399903 .63500979 .31498719 .63500979 .35798646 .5541382 .35798646 .47216798 .35798646 .39215089 .30799867 .31311036 .25299073 .25108338L.06098938 .036987306C.049987794 .025985718 .049987794 .023986817 .049987794 0H.42099L.44898988 .17404175H.42399598C.4189911 .14402771 .4119873 .1000061 .4019928 .084991458 .394989 .07699585 .32899476 .07699585 .30699159 .07699585H.1269989Z"/>
<path id="font_2_4" d="M.2939911 .16503906V.07800293C.2939911 .041992189 .2919922 .0309906 .21798706 .0309906H.19699097V0C.23799134 .0029907227 .2899933 .0029907227 .33198548 .0029907227 .37399293 .0029907227 .4269867 .0029907227 .46798707 0V.0309906H.44699098C.37298585 .0309906 .37098695 .041992189 .37098695 .07800293V.16503906H.47099305V.19602967H.37098695V.65075686C.37098695 .67074587 .37098695 .6767578 .35499574 .6767578 .34599305 .6767578 .34298707 .6767578 .33499146 .66474917L.027999878 .19602967V.16503906H.2939911M.2999878 .19602967H.055999757L.2999878 .5688019V.19602967Z"/>
<path id="font_2_5" d="M.13198853 .327713V.35173036C.13198853 .6047821 .2559967 .64100649 .30699159 .64100649 .33099366 .64100649 .37298585 .634964 .394989 .6007538 .37998963 .6007538 .33999635 .6007538 .33999635 .5557556 .33999635 .524765 .3639984 .5097656 .38598634 .5097656 .4019928 .5097656 .43199159 .51875308 .43199159 .5577545 .43199159 .6178589 .3880005 .6660156 .30499269 .6660156 .1769867 .6660156 .041992189 .5367584 .041992189 .31570436 .041992189 .048553468 .1579895-.022460938 .25099183-.022460938 .3619995-.022460938 .45700074 .07156372 .45700074 .2036438 .45700074 .33070375 .36799623 .4267578 .25698854 .4267578 .18899536 .4267578 .1519928 .37573243 .13198853 .327713M.25099183 .0055389406C.18798828 .0055389406 .1579895 .06556702 .1519928 .080566409 .13398743 .127594 .13398743 .2076416 .13398743 .22564698 .13398743 .30369569 .1659851 .40374757 .2559967 .40374757 .27198792 .40374757 .31799317 .40374757 .34899903 .34172059 .36698915 .30470277 .36698915 .2536621 .36698915 .20463562 .36698915 .15661621 .36698915 .10658264 .34999085 .0705719 .31999208 .010528564 .27398683 .0055389406 .25099183 .0055389406Z"/>
<path id="font_2_6" d="M.16299439 .4569702C.116989139 .486969 .11299133 .52098086 .11299133 .5379791 .11299133 .598999 .17799378 .64100649 .24899292 .64100649 .32199098 .64100649 .38598634 .58898928 .38598634 .51698306 .38598634 .45996095 .34700013 .4119568 .2869873 .37695313L.16299439 .4569702M.30899049 .36193849C.3809967 .3989563 .42999269 .45095826 .42999269 .51698306 .42999269 .6090088 .34098817 .6660156 .25 .6660156 .1499939 .6660156 .068984989 .59199526 .068984989 .49897767 .068984989 .4809723 .070999149 .43595887 .11299133 .38894654 .12399292 .37695313 .16099549 .35194398 .18598938 .33494569 .12799073 .30592347 .041992189 .24984741 .041992189 .15072632 .041992189 .04458618 .14399719-.022460938 .24899292-.022460938 .3619995-.022460938 .45700074 .06060791 .45700074 .16773987 .45700074 .20379639 .44599916 .24885559 .4079895 .2909088 .3889923 .31193543 .37298585 .3219452 .30899049 .36193849M.20899964 .3199463 .33198548 .24183655C.3600006 .2228241 .40699769 .19277954 .40699769 .13169861 .40699769 .05760193 .33198548 .0055389406 .25 .0055389406 .1639862 .0055389406 .09199524 .067611698 .09199524 .15072632 .09199524 .20880127 .12399292 .27288819 .20899964 .3199463Z"/>
<path id="font_2_2" d="M.2939911 .64004519C.2939911 .66400149 .2939911 .6660156 .2709961 .6660156 .20899964 .60227969 .12098694 .60227969 .08898926 .60227969V.57128909C.10899353 .57128909 .16799927 .57128909 .21998596 .5972748V.07902527C.21998596 .042999269 .21699524 .0309906 .1269989 .0309906H.09498596V0C.12998963 .0029907227 .21699524 .0029907227 .25698854 .0029907227 .29699708 .0029907227 .38398744 .0029907227 .4189911 0V.0309906H.3869934C.29699708 .0309906 .2939911 .041992189 .2939911 .07902527V.64004519Z"/>
<path id="font_2_1" d="M.45999146 .31976319C.45999146 .39982606 .45498658 .47988893 .41999818 .5539398 .37399293 .65000918 .2919922 .6660156 .25 .6660156 .18998719 .6660156 .116989139 .64001467 .07598877 .54693606 .04399109 .47789 .038986207 .39982606 .038986207 .31976319 .038986207 .24472046 .042999269 .15464783 .083999637 .07859802 .1269989-.0024719239 .19999695-.022460938 .24899292-.022460938 .30299378-.022460938 .3789978-.0014648438 .4229889 .09359741 .45498658 .16265869 .45999146 .2407074 .45999146 .31976319M.24899292-.00047302247C.20999146-.00047302247 .15098572 .024551392 .1329956 .12062073 .12199402 .18066406 .12199402 .2727356 .12199402 .3317871 .12199402 .39582826 .12199402 .46188355 .12998963 .5159149 .14898682 .63500979 .22399903 .64401248 .24899292 .64401248 .28199769 .64401248 .34799195 .6259918 .36698915 .52693179 .3769989 .47088624 .3769989 .39482118 .3769989 .3317871 .3769989 .25672914 .3769989 .18867493 .3659973 .12461853 .35099793 .029556275 .2939911-.00047302247 .24899292-.00047302247Z"/>
</defs>
<path transform="matrix(1.00006,0,0,-1.00003,8.423599,150.82105)" stroke-width=".79701" stroke-linecap="butt" stroke-miterlimit="10" stroke-linejoin="miter" fill="none" stroke="#bfbfbf" d="M0 0H212.60106M0 21.2601H212.60106M0 42.5202H212.60106M0 63.7803H212.60106M0 85.04042H212.60106M0 106.30052H212.60106M0 127.56062H212.60106M0 148.81327H212.60106M0 0V148.82074M21.2601 0V148.82074M42.5202 0V148.82074M63.7803 0V148.82074M85.04042 0V148.82074M106.30052 0V148.82074M127.56062 0V148.82074M148.82074 0V148.82074M170.08086 0V148.82074M191.34096 0V148.82074M212.5936 0V148.82074M212.60106 148.82074"/>
<path transform="matrix(1.00006,0,0,-1.00003,8.423599,150.82105)" stroke-width=".29887" stroke-linecap="butt" stroke-miterlimit="10" stroke-linejoin="miter" fill="none" stroke="#333333" d="M0 0H230.54361"/>
<path transform="matrix(1.00006,0,0,-1.00003,238.98104,150.82105)" d="M3.31755 0C2.33455 .1843 .73723 .73723-.3686 1.38231V-1.38231C.73723-.73723 2.33455-.1843 3.31755 0" fill="#333333"/>
<use data-text="x" xlink:href="#font_1_1" transform="matrix(9.963197,0,0,-9.962899,228.8208,158.58129)" fill="#333333"/>
<path transform="matrix(1.00006,0,0,-1.00003,8.423599,150.82105)" stroke-width=".29887" stroke-linecap="butt" stroke-miterlimit="10" stroke-linejoin="miter" fill="none" stroke="#333333" d="M0 0V145.50318"/>
<path transform="matrix(0,-1.00003,-1.00006,-0,8.423599,5.313507)" d="M3.31755 0C2.33455 .1843 .73723 .73723-.3686 1.38231V-1.38231C.73723-.73723 2.33455-.1843 3.31755 0" fill="#333333"/>
<use data-text="y" xlink:href="#font_1_2" transform="matrix(9.963197,0,0,-9.962899,11.893806,13.801926)" fill="#333333"/>
<path transform="matrix(1.00006,0,0,-1.00003,8.423599,150.82105)" stroke-width=".99628" stroke-linecap="butt" stroke-miterlimit="10" stroke-linejoin="miter" fill="none" stroke="#0000ff" d="M0 127.56062C0 127.56062 5.12009 101.54526 7.08658 93.44635 9.05307 85.34746 12.20668 74.8041 14.17317 69.1894 16.13966 63.57472 19.29326 56.5903 21.25977 52.97961 23.22626 49.36893 26.37987 45.20946 28.34636 43.16609 30.31285 41.12271 33.46645 39.12149 35.43295 38.25233 37.39944 37.3832 40.55307 36.94545 42.51955 36.90186 44.48604 36.85823 47.63965 37.46184 49.60614 37.93799 51.57265 38.41414 54.72624 39.6004 56.69273 40.33371 58.65923 41.06703 61.81284 42.45 63.77933 43.22319 65.74583 43.99635 68.89943 45.26817 70.86592 45.90631 72.83241 46.54446 75.98604 47.45016 77.95253 47.82257 79.919 48.19498 83.07262 48.57018 85.03911 48.59042 87.00562 48.61067 90.15921 48.3441 92.12572 47.96854 94.0922 47.59297 97.2458 46.6549 99.2123 45.88362 101.1788 45.11234 104.3324 43.5338 106.2989 42.40958 108.26538 41.28535 111.41899 39.16931 113.38548 37.78098 115.35197 36.39265 118.5056 33.92342 120.47208 32.40335 122.43858 30.88327 125.59218 28.3047 127.55869 26.82523 129.52518 25.34575 132.67879 22.95863 134.64527 21.7402 136.61177 20.52179 139.76537 18.73688 141.73188 18.04362 143.69837 17.35039 146.85198 16.60759 148.81845 16.74374 150.78495 16.87988 153.93857 17.71178 155.90508 19.02495 157.87155 20.33812 161.02516 23.32225 162.99166 26.20822 164.95815 29.09418 170.07825 39.82506 170.07825 39.82506"/>
<path transform="matrix(1.00006,0,0,-1.00003,8.423599,150.82105)" stroke-width=".99628" stroke-linecap="butt" stroke-miterlimit="10" stroke-linejoin="miter" fill="none" stroke="#0000ff" d="M170.08086 40.47937C170.08086 40.47937 170.7207 42.05579 170.96646 42.6613 171.2122 43.26683 171.60633 44.238 171.85208 44.84358 172.09783 45.44913 172.49195 46.42032 172.7377 47.02583 172.98345 47.63136 173.37757 48.60225 173.62332 49.20778 173.86907 49.81331 174.26319 50.78447 174.50894 51.39003 174.75469 51.99559 175.1488 52.96672 175.39456 53.5723 175.6403 54.17787 176.03444 55.14905 176.28018 55.75458 176.52593 56.36008 176.92006 57.33098 177.1658 57.9365 177.41155 58.54202 177.80568 59.51318 178.05144 60.11876 178.29717 60.72432 178.6913 61.69547 178.93706 62.30103 179.1828 62.90659 179.57692 63.87776 179.82268 64.48329 180.06842 65.0888 180.46254 66.05971 180.7083 66.66522 180.95404 67.27075 181.34816 68.24191 181.59392 68.84749 181.83966 69.45305 182.23378 70.42422 182.47954 71.02974 182.72528 71.63527 183.1194 72.60616 183.36516 73.21169 183.6109 73.81721 184.00502 74.78839 184.25078 75.39395 184.49652 75.99951 184.89066 76.97063 185.1364 77.5762 185.38214 78.18178 185.77628 79.15295 186.02204 79.75848 186.26776 80.36398 186.6619 81.3349 186.90766 81.9404 187.15338 82.54593 187.54752 83.5171 187.79328 84.12268 188.03902 84.72826 188.43314 85.69937 188.6789 86.30493 188.92464 86.91049 189.31876 87.88167 189.56452 88.4872 189.81026 89.09273 190.20438 90.06361 190.45014 90.66914 190.69588 91.27466 191.33576 92.8514 191.33576 92.8514"/>
<path transform="matrix(1.00006,0,0,-1.00003,8.423599,150.82105)" stroke-width=".99628" stroke-linecap="butt" stroke-miterlimit="10" stroke-linejoin="miter" fill="none" stroke="#0000ff" d="M191.34096 92.86404C191.34096 92.86404 191.98082 91.28763 192.22657 90.6821 192.47232 90.0766 192.86644 89.10542 193.11219 88.49986 193.35794 87.89429 193.75206 86.92311 193.9978 86.31758 194.24356 85.71207 194.63768 84.74117 194.88343 84.13565 195.12918 83.53014 195.52332 82.55896 195.76905 81.95338 196.0148 81.34781 196.40894 80.3767 196.65467 79.77113 196.90042 79.16556 197.29456 78.19438 197.5403 77.58887 197.78604 76.98334 198.18018 76.01245 198.42592 75.40692 198.67166 74.8014 199.0658 73.83023 199.31154 73.22466 199.5573 72.6191 199.95142 71.64796 200.19716 71.0424 200.44292 70.43684 200.83704 69.46567 201.08278 68.86014 201.32854 68.25461 201.72266 67.28372 201.9684 66.67819 202.21416 66.0727 202.60828 65.1015 202.85402 64.49594 203.09978 63.89037 203.4939 62.9192 203.73964 62.31367 203.9854 61.70815 204.37953 60.73724 204.62526 60.13174 204.87102 59.52621 205.26515 58.55505 205.51088 57.94948 205.75664 57.3439 206.15077 56.37277 206.39652 55.7672 206.64226 55.16165 207.03639 54.19048 207.28214 53.58496 207.52788 52.97943 207.92201 52.00854 208.16776 51.40302 208.41352 50.7975 208.80764 49.82631 209.05338 49.22075 209.29914 48.61519 209.69326 47.64406 209.939 47.03848 210.18476 46.43292 210.57888 45.46175 210.82462 44.85623 211.07038 44.2507 211.4645 43.27982 211.71024 42.67429 211.956 42.06877 212.59586 40.49203 212.59586 40.49203"/>
<path transform="matrix(1.00006,0,0,-1.00003,8.423599,150.82105)" stroke-width=".79701" stroke-linecap="butt" stroke-miterlimit="10" stroke-linejoin="miter" fill="none" stroke="#000000" d="M42.5202 2.24162V-2.24162"/>
<use data-text="2" xlink:href="#font_2_3" transform="matrix(9.963197,0,0,-9.962899,48.455999,163.20243)"/>
<path transform="matrix(1.00006,0,0,-1.00003,8.423599,150.82105)" stroke-width=".79701" stroke-linecap="butt" stroke-miterlimit="10" stroke-linejoin="miter" fill="none" stroke="#000000" d="M85.04042 2.24162V-2.24162"/>
<use data-text="4" xlink:href="#font_2_4" transform="matrix(9.963197,0,0,-9.962899,90.97855,163.20243)"/>
<path transform="matrix(1.00006,0,0,-1.00003,8.423599,150.82105)" stroke-width=".79701" stroke-linecap="butt" stroke-miterlimit="10" stroke-linejoin="miter" fill="none" stroke="#000000" d="M127.56062 2.24162V-2.24162"/>
<use data-text="6" xlink:href="#font_2_5" transform="matrix(9.963197,0,0,-9.962899,133.5011,163.20243)"/>
<path transform="matrix(1.00006,0,0,-1.00003,8.423599,150.82105)" stroke-width=".79701" stroke-linecap="butt" stroke-miterlimit="10" stroke-linejoin="miter" fill="none" stroke="#000000" d="M170.08086 2.24162V-2.24162"/>
<use data-text="8" xlink:href="#font_2_6" transform="matrix(9.963197,0,0,-9.962899,176.02365,163.20243)"/>
<path transform="matrix(1.00006,0,0,-1.00003,8.423599,150.82105)" stroke-width=".79701" stroke-linecap="butt" stroke-miterlimit="10" stroke-linejoin="miter" fill="none" stroke="#000000" d="M212.60106 2.24162V-2.24162"/>
<use data-text="1" xlink:href="#font_2_2" transform="matrix(9.963197,0,0,-9.962899,216.05605,163.20243)"/>
<use data-text="0" xlink:href="#font_2_1" transform="matrix(9.963197,0,0,-9.962899,221.03765,163.20243)"/>
<path transform="matrix(1.00006,0,0,-1.00003,8.423599,150.82105)" stroke-width=".79701" stroke-linecap="butt" stroke-miterlimit="10" stroke-linejoin="miter" fill="none" stroke="#000000" d="M-1.49442 42.5202H1.49442"/>
<use data-text="2" xlink:href="#font_2_3" transform="matrix(9.963197,0,0,-9.962899,1.2171707,111.50986)"/>
<path transform="matrix(1.00006,0,0,-1.00003,8.423599,150.82105)" stroke-width=".79701" stroke-linecap="butt" stroke-miterlimit="10" stroke-linejoin="miter" fill="none" stroke="#000000" d="M-1.49442 85.04042H1.49442"/>
<use data-text="4" xlink:href="#font_2_4" transform="matrix(9.963197,0,0,-9.962899,1.2171707,68.98859)"/>
<path transform="matrix(1.00006,0,0,-1.00003,8.423599,150.82105)" stroke-width=".79701" stroke-linecap="butt" stroke-miterlimit="10" stroke-linejoin="miter" fill="none" stroke="#000000" d="M-1.49442 127.56062H1.49442"/>
<use data-text="6" xlink:href="#font_2_5" transform="matrix(9.963197,0,0,-9.962899,1.2171707,26.467308)"/>
</svg>
