<svg xmlns="http://www.w3.org/2000/svg" xmlns:xlink="http://www.w3.org/1999/xlink" xmlns:inkscape="http://www.inkscape.org/namespaces/inkscape" version="1.1" width="179" height="175" viewBox="0 0 179 175">
<defs>
<path id="font_1_1" d="M.33399964 .30233766C.33999635 .32835389 .36299134 .42037965 .43299867 .42037965 .43798829 .42037965 .46199037 .42037965 .48298646 .40734864 .45498658 .402359 .43499757 .37734986 .43499757 .35334779 .43499757 .33735658 .44599916 .31835938 .47299195 .31835938 .49499513 .31835938 .5269928 .3363495 .5269928 .37635804 .5269928 .42837525 .46798707 .4423828 .43399049 .4423828 .37599183 .4423828 .34098817 .38935853 .32899476 .36634828 .3039856 .43237306 .25 .4423828 .22099304 .4423828 .116989139 .4423828 .05999756 .3133545 .05999756 .28834535 .05999756 .27833558 .069992069 .27833558 .07199097 .27833558 .07998657 .27833558 .08299255 .28033448 .084991458 .28933717 .11898804 .39535523 .18499756 .42037965 .21899414 .42037965 .23799134 .42037965 .272995 .4113617 .272995 .35334779 .272995 .32235719 .2559967 .25532533 .21899414 .11528015 .20298767 .053268434 .16799927 .011245728 .12399292 .011245728 .117996219 .011245728 .09498596 .011245728 .07398987 .024276734 .09899902 .029266358 .12098694 .05027771 .12098694 .07827759 .12098694 .105270389 .09899902 .11328125 .083999637 .11328125 .053985597 .11328125 .0289917 .08728027 .0289917 .055267335 .0289917 .009246826 .07899475-.0107421879 .12298584-.0107421879 .18899536-.0107421879 .22499085 .059280397 .22799683 .0652771 .23999024 .028274537 .27598573-.0107421879 .33599855-.0107421879 .43899537-.0107421879 .49598695 .118270877 .49598695 .14328003 .49598695 .1532898 .4869995 .1532898 .48399354 .1532898 .47499085 .1532898 .47299195 .14929199 .47099305 .14228821 .43798829 .03527832 .36999513 .011245728 .33799745 .011245728 .29899598 .011245728 .2829895 .043273927 .2829895 .07727051 .2829895 .09927368 .2889862 .121276859 .2999878 .16529846L.33399964 .30233766Z"/>
<path id="font_1_2" d="M.48599244 .38136292C.48999024 .39537049 .48999024 .39736939 .48999024 .40437318 .48999024 .42237855 .47599793 .43138124 .46099855 .43138124 .45098878 .43138124 .43499757 .42536927 .42599488 .41036988 .42399598 .405365 .41600038 .37435914 .4119873 .35635377 .40499879 .33035279 .397995 .30334474 .3919983 .27633668L.34700013 .09628296C.34298707 .08126831 .2999878 .011245728 .23399353 .011245728 .18299866 .011245728 .17199707 .055267335 .17199707 .0922699 .17199707 .1382904 .18899536 .20030213 .22299195 .28833009 .23899842 .3293457 .24299622 .3403473 .24299622 .36035157 .24299622 .405365 .21099854 .4423828 .16099549 .4423828 .06599426 .4423828 .0289917 .29733277 .0289917 .28833009 .0289917 .27833558 .038986207 .27833558 .040985109 .27833558 .050994874 .27833558 .051986696 .28033448 .056991579 .29634095 .083999637 .3903656 .12399292 .42037965 .1579895 .42037965 .1659851 .42037965 .18299866 .42037965 .18299866 .3883667 .18299866 .36335755 .17298889 .3373413 .1659851 .31834413 .12599182 .21231079 .10798645 .1552887 .10798645 .10827637 .10798645 .019256592 .17098999-.0107421879 .22999573-.0107421879 .2689972-.0107421879 .30299378 .0062561037 .33099366 .03425598 .31799317-.017745972 .30599977-.06674194 .2659912-.11973572 .23999024-.15385437 .20199585-.18309021 .1559906-.18309021 .14199829-.18309021 .09700012-.18005371 .07998657-.14074707 .09599304-.14074707 .10899353-.14074707 .12298584-.1287384 .1329956-.11973572 .14299011-.10673523 .14299011-.08773804 .14299011-.056747438 .115997318-.052734376 .10598755-.052734376 .08299255-.052734376 .049987794-.068740848 .049987794-.11773682 .049987794-.16796875 .09399414-.20507813 .1559906-.20507813 .25898744-.20507813 .3619995-.11373901 .3899994-.00074768069L.48599244 .38136292Z"/>
<path id="font_2_1" d="M.6589966 .23046875C.6759949 .23046875 .69400027 .23046875 .69400027 .25045777 .69400027 .27046205 .6759949 .27046205 .6589966 .27046205H.117996219C.100997928 .27046205 .08299255 .27046205 .08299255 .25045777 .08299255 .23046875 .100997928 .23046875 .117996219 .23046875H.6589966Z"/>
<path id="font_3_2" d="M.1269989 .07699585 .23298645 .18003845C.3889923 .31811524 .44898988 .3721466 .44898988 .47216798 .44898988 .5860901 .35899354 .6660156 .23699951 .6660156 .12399292 .6660156 .049987794 .57411196 .049987794 .48516847 .049987794 .4291687 .099990848 .4291687 .102996829 .4291687 .11999512 .4291687 .15499878 .44117738 .15499878 .48217774 .15499878 .5081787 .13699341 .5341797 .101989749 .5341797 .09399414 .5341797 .09199524 .5341797 .08898926 .5331726 .11199951 .59806826 .1659851 .63500979 .22399903 .63500979 .31498719 .63500979 .35798646 .5541382 .35798646 .47216798 .35798646 .39215089 .30799867 .31311036 .25299073 .25108338L.06098938 .036987306C.049987794 .025985718 .049987794 .023986817 .049987794 0H.42099L.44898988 .17404175H.42399598C.4189911 .14402771 .4119873 .1000061 .4019928 .084991458 .394989 .07699585 .32899476 .07699585 .30699159 .07699585H.1269989Z"/>
<path id="font_3_1" d="M.2939911 .64004519C.2939911 .66400149 .2939911 .6660156 .2709961 .6660156 .20899964 .60227969 .12098694 .60227969 .08898926 .60227969V.57128909C.10899353 .57128909 .16799927 .57128909 .21998596 .5972748V.07902527C.21998596 .042999269 .21699524 .0309906 .1269989 .0309906H.09498596V0C.12998963 .0029907227 .21699524 .0029907227 .25698854 .0029907227 .29699708 .0029907227 .38398744 .0029907227 .4189911 0V.0309906H.3869934C.29699708 .0309906 .2939911 .041992189 .2939911 .07902527V.64004519Z"/>
<path id="font_3_3" d="M.2899933 .35191346C.37199403 .37893678 .42999269 .4490509 .42999269 .52809146 .42999269 .6100464 .34199525 .6660156 .24598694 .6660156 .14498902 .6660156 .068984989 .60606387 .068984989 .53009036 .068984989 .49710084 .09098816 .47808839 .11999512 .47808839 .15098572 .47808839 .17098999 .50009158 .17098999 .5290985 .17098999 .57910159 .12399292 .57910159 .10899353 .57910159 .13999939 .62802127 .20599365 .64100649 .24198914 .64100649 .2829895 .64100649 .33799745 .6190338 .33799745 .5290985 .33799745 .51708987 .33599855 .45906068 .30999757 .4149933 .27999879 .36691285 .24598694 .36390687 .22099304 .36291505 .21299744 .36190797 .18899536 .35990907 .18199158 .35990907 .17399597 .35890199 .16699219 .35791017 .16699219 .3479004 .16699219 .33691407 .17399597 .33691407 .19099427 .33691407H.23498535C.31698609 .33691407 .35398866 .2686615 .35398866 .17037964 .35398866 .034469606 .2849884 .0055389406 .24099732 .0055389406 .19799805 .0055389406 .12298584 .022491456 .08799744 .08137512 .12298584 .07637024 .1539917 .09837341 .1539917 .1363678 .1539917 .17237854 .1269989 .19238281 .09799194 .19238281 .07398987 .19238281 .041992189 .17837525 .041992189 .1343689 .041992189 .043441774 .1349945-.022460938 .24398804-.022460938 .3659973-.022460938 .45700074 .06838989 .45700074 .17037964 .45700074 .252594 .3939972 .33088685 .2899933 .35191346Z"/>
</defs>
<path transform="matrix(1.00006,0,0,-1,63.278955,87.629)" stroke-width=".79701" stroke-linecap="butt" stroke-miterlimit="10" stroke-linejoin="miter" fill="none" stroke="#bfbfbf" d="M-56.69362-85.04042H113.38724M-56.69362-56.69362H113.38724M-56.69362-28.3468H113.38724M-56.69362 0H113.38724M-56.69362 28.3468H113.38724M-56.69362 56.69362H113.38724M-56.69362 85.03047H113.38724M-56.69362-85.04042V85.04042M-28.3468-85.04042V85.04042M0-85.04042V85.04042M28.3468-85.04042V85.04042M56.69362-85.04042V85.04042M85.04042-85.04042V85.04042M113.37727-85.04042V85.04042M113.38724 85.04042"/>
<path transform="matrix(1.00006,0,0,-1,63.278955,87.629)" stroke-width=".29887" stroke-linecap="butt" stroke-miterlimit="10" stroke-linejoin="miter" fill="none" stroke="#333333" d="M0 0H110.06967"/>
<path transform="matrix(1.00006,0,0,-1,173.35523,87.629)" d="M3.31755 0C2.33455 .1843 .73723 .73723-.3686 1.38231V-1.38231C.73723-.73723 2.33455-.1843 3.31755 0" fill="#333333"/>
<use data-text="x" xlink:href="#font_1_1" transform="matrix(9.963197,0,0,-9.9626,159.65174,95.389)" fill="#333333"/>
<path transform="matrix(1.00006,0,0,-1,63.278955,87.629)" stroke-width=".29887" stroke-linecap="butt" stroke-miterlimit="10" stroke-linejoin="miter" fill="none" stroke="#333333" d="M0 0H-53.37605"/>
<path transform="matrix(-1.00006,-0,0,1,9.899704,87.629)" d="M3.31755 0C2.33455 .1843 .73723 .73723-.3686 1.38231V-1.38231C.73723-.73723 2.33455-.1843 3.31755 0" fill="#333333"/>
<path transform="matrix(1.00006,0,0,-1,63.278955,87.629)" stroke-width=".29887" stroke-linecap="butt" stroke-miterlimit="10" stroke-linejoin="miter" fill="none" stroke="#333333" d="M0 0V81.72287"/>
<path transform="matrix(0,-1,-1.00006,-0,63.278955,5.906128)" d="M3.31755 0C2.33455 .1843 .73723 .73723-.3686 1.38231V-1.38231C.73723-.73723 2.33455-.1843 3.31755 0" fill="#333333"/>
<use data-text="y" xlink:href="#font_1_2" transform="matrix(9.963197,0,0,-9.9626,66.74916,17.937996)" fill="#333333"/>
<path transform="matrix(1.00006,0,0,-1,63.278955,87.629)" stroke-width=".29887" stroke-linecap="butt" stroke-miterlimit="10" stroke-linejoin="miter" fill="none" stroke="#333333" d="M0 0V-81.72287"/>
<path transform="matrix(0,1,1.00006,0,63.278955,169.35187)" d="M3.31755 0C2.33455 .1843 .73723 .73723-.3686 1.38231V-1.38231C.73723-.73723 2.33455-.1843 3.31755 0" fill="#333333"/>
<path transform="matrix(1.00006,0,0,-1,63.278955,87.629)" stroke-width="1.99255" stroke-linecap="butt" stroke-miterlimit="10" stroke-linejoin="miter" fill="none" stroke="#0074c8" d="M-56.69362 63.0835-54.33151 61.01509-51.96944 59.0146-49.60733 57.08029-47.24525 55.20914-44.88315 53.39983-42.52107 51.64804-40.15897 49.95596-37.79689 48.31837-35.4348 46.73528-33.07271 45.20236-30.71062 43.72049-28.34853 42.28706-25.98643 40.90164-23.62434 39.56078-21.26225 38.2636-18.90018 37.00923-16.53807 35.79597-14.176 34.62292-11.81389 33.48837-9.45181 32.38972-7.0897 31.32828-4.72763 30.30142-2.36554 29.30833-.00345 28.3481"/>
<path transform="matrix(1.00006,0,0,-1,63.278955,87.629)" stroke-width="1.99255" stroke-linecap="butt" stroke-miterlimit="10" stroke-linejoin="miter" fill="none" stroke="#0074c8" d="M0 28.3468 3.54333 24.80345 7.08669 21.2601 10.63004 17.71674 14.17339 14.17339 17.71674 10.63004 21.2601 7.08669 24.80345 3.54333 28.3468 0 31.89014-3.54333 35.43349-7.08669 38.97685-10.63004 42.5202-14.17339 46.06355-17.71674 49.6069-21.2601 53.15025-24.80345 56.69362-28.3468 60.23695-31.89014 63.7803-35.43349 67.32365-38.97685 70.867-42.5202 74.41037-46.06355 77.95372-49.6069 81.49707-53.15025 85.04042-56.69362"/>
<path transform="matrix(1.00006,0,0,-1,63.278955,87.629)" stroke-width="1.99255" stroke-linecap="butt" stroke-miterlimit="10" stroke-linejoin="miter" fill="none" stroke="#0074c8" d="M85.04042 56.69362 86.22124 57.87442 87.40207 59.05525 88.58289 60.23608 89.76372 61.41692 90.94455 62.59775 92.12538 63.77856 93.30621 64.9594 94.48705 66.14023 95.66786 67.32106 96.8487 68.50189 98.02953 69.68271 99.21036 70.86354 100.39119 72.04437 101.572 73.2252 102.75284 74.40604 103.93367 75.58685 105.1145 76.76768 106.29533 77.94852 107.47615 79.12935 108.65698 80.31018 109.83781 81.491 111.01865 82.67183 112.19948 83.85266 113.3803 85.0335"/>
<path transform="matrix(1.00006,0,0,-1,63.278955,87.629)" d="M2.98883-28.3468C2.98883-26.69609 1.6507-25.35797 0-25.35797-1.6507-25.35797-2.98883-26.69609-2.98883-28.3468-2.98883-29.99751-1.6507-31.33563 0-31.33563 1.6507-31.33563 2.98883-29.99751 2.98883-28.3468ZM0-28.3468" fill="#0074c8"/>
<path transform="matrix(1.00006,0,0,-1,63.278955,87.629)" d="M88.02925 28.3468C88.02925 29.99751 86.69113 31.33563 85.04042 31.33563 83.38971 31.33563 82.05159 29.99751 82.05159 28.3468 82.05159 26.69609 83.38971 25.35797 85.04042 25.35797 86.69113 25.35797 88.02925 26.69609 88.02925 28.3468ZM85.04042 28.3468" fill="#0074c8"/>
<path transform="matrix(1.00006,0,0,-1,63.278955,87.629)" stroke-width=".79701" stroke-linecap="butt" stroke-miterlimit="10" stroke-linejoin="miter" fill="none" stroke="#0074c8" d="M88.02925 56.69362C88.02925 58.34431 86.69113 59.68245 85.04042 59.68245 83.38971 59.68245 82.05159 58.34431 82.05159 56.69362 82.05159 55.04291 83.38971 53.70479 85.04042 53.70479 86.69113 53.70479 88.02925 55.04291 88.02925 56.69362ZM85.04042 56.69362"/>
<path transform="matrix(1.00006,0,0,-1,63.278955,87.629)" d="M87.03297 56.69362C87.03297 57.79408 86.1409 58.68617 85.04042 58.68617 83.93996 58.68617 83.04787 57.79408 83.04787 56.69362 83.04787 55.59314 83.93996 54.70107 85.04042 54.70107 86.1409 54.70107 87.03297 55.59314 87.03297 56.69362ZM85.04042 56.69362" fill="#ffffff"/>
<path transform="matrix(1.00006,0,0,-1,63.278955,87.629)" stroke-width=".79701" stroke-linecap="butt" stroke-miterlimit="10" stroke-linejoin="miter" fill="none" stroke="#0074c8" d="M88.02925-56.69362C88.02925-55.04291 86.69113-53.70479 85.04042-53.70479 83.38971-53.70479 82.05159-55.04291 82.05159-56.69362 82.05159-58.34431 83.38971-59.68245 85.04042-59.68245 86.69113-59.68245 88.02925-58.34431 88.02925-56.69362ZM85.04042-56.69362"/>
<path transform="matrix(1.00006,0,0,-1,63.278955,87.629)" d="M87.03297-56.69362C87.03297-55.59314 86.1409-54.70107 85.04042-54.70107 83.93996-54.70107 83.04787-55.59314 83.04787-56.69362 83.04787-57.79408 83.93996-58.68617 85.04042-58.68617 86.1409-58.68617 87.03297-57.79408 87.03297-56.69362ZM85.04042-56.69362" fill="#ffffff"/>
<path transform="matrix(1.00006,0,0,-1,63.278955,87.629)" stroke-width=".79701" stroke-linecap="butt" stroke-miterlimit="10" stroke-linejoin="miter" fill="none" stroke="#0074c8" d="M2.98883 28.3468C2.98883 29.99751 1.6507 31.33563 0 31.33563-1.6507 31.33563-2.98883 29.99751-2.98883 28.3468-2.98883 26.69609-1.6507 25.35797 0 25.35797 1.6507 25.35797 2.98883 26.69609 2.98883 28.3468ZM0 28.3468"/>
<path transform="matrix(1.00006,0,0,-1,63.278955,87.629)" d="M1.99255 28.3468C1.99255 29.44728 1.10046 30.33936 0 30.33936-1.10046 30.33936-1.99255 29.44728-1.99255 28.3468-1.99255 27.24634-1.10046 26.35425 0 26.35425 1.10046 26.35425 1.99255 27.24634 1.99255 28.3468ZM0 28.3468" fill="#ffffff"/>
<path transform="matrix(1.00006,0,0,-1,63.278955,87.629)" stroke-width=".79701" stroke-linecap="butt" stroke-miterlimit="10" stroke-linejoin="miter" fill="none" stroke="#000000" d="M-56.69362 2.98883V-2.98883"/>
<use data-text="&#x2212;" xlink:href="#font_2_1" transform="matrix(9.963197,0,0,-9.9626,.21617127,100.756999)"/>
<use data-text="2" xlink:href="#font_3_2" transform="matrix(9.963197,0,0,-9.9626,7.965622,100.756999)"/>
<path transform="matrix(1.00006,0,0,-1,63.278955,87.629)" stroke-width=".79701" stroke-linecap="butt" stroke-miterlimit="10" stroke-linejoin="miter" fill="none" stroke="#000000" d="M-28.3468 2.98883V-2.98883"/>
<use data-text="&#x2212;" xlink:href="#font_2_1" transform="matrix(9.963197,0,0,-9.9626,28.564866,100.756999)"/>
<use data-text="1" xlink:href="#font_3_1" transform="matrix(9.963197,0,0,-9.9626,36.314317,100.756999)"/>
<path transform="matrix(1.00006,0,0,-1,63.278955,87.629)" stroke-width=".79701" stroke-linecap="butt" stroke-miterlimit="10" stroke-linejoin="miter" fill="none" stroke="#000000" d="M28.3468 2.98883V-2.98883"/>
<use data-text="1" xlink:href="#font_3_1" transform="matrix(9.963197,0,0,-9.9626,89.136508,100.756999)"/>
<path transform="matrix(1.00006,0,0,-1,63.278955,87.629)" stroke-width=".79701" stroke-linecap="butt" stroke-miterlimit="10" stroke-linejoin="miter" fill="none" stroke="#000000" d="M56.69362 2.98883V-2.98883"/>
<use data-text="2" xlink:href="#font_3_2" transform="matrix(9.963197,0,0,-9.9626,117.4852,100.756999)"/>
<path transform="matrix(1.00006,0,0,-1,63.278955,87.629)" stroke-width=".79701" stroke-linecap="butt" stroke-miterlimit="10" stroke-linejoin="miter" fill="none" stroke="#000000" d="M85.04042 2.98883V-2.98883"/>
<use data-text="3" xlink:href="#font_3_3" transform="matrix(9.963197,0,0,-9.9626,145.83391,100.756999)"/>
<path transform="matrix(1.00006,0,0,-1,63.278955,87.629)" stroke-width=".79701" stroke-linecap="butt" stroke-miterlimit="10" stroke-linejoin="miter" fill="none" stroke="#000000" d="M-1.99255-56.69362H1.99255"/>
<use data-text="&#x2212;" xlink:href="#font_2_1" transform="matrix(9.963197,0,0,-9.9626,48.82109,147.118)"/>
<use data-text="2" xlink:href="#font_3_2" transform="matrix(9.963197,0,0,-9.9626,56.57054,147.118)"/>
<path transform="matrix(1.00006,0,0,-1,63.278955,87.629)" stroke-width=".79701" stroke-linecap="butt" stroke-miterlimit="10" stroke-linejoin="miter" fill="none" stroke="#000000" d="M-1.99255-28.3468H1.99255"/>
<use data-text="&#x2212;" xlink:href="#font_2_1" transform="matrix(9.963197,0,0,-9.9626,48.82109,118.770999)"/>
<use data-text="1" xlink:href="#font_3_1" transform="matrix(9.963197,0,0,-9.9626,56.57054,118.770999)"/>
<path transform="matrix(1.00006,0,0,-1,63.278955,87.629)" stroke-width=".79701" stroke-linecap="butt" stroke-miterlimit="10" stroke-linejoin="miter" fill="none" stroke="#000000" d="M-1.99255 28.3468H1.99255"/>
<use data-text="1" xlink:href="#font_3_1" transform="matrix(9.963197,0,0,-9.9626,56.57055,62.491998)"/>
<path transform="matrix(1.00006,0,0,-1,63.278955,87.629)" stroke-width=".79701" stroke-linecap="butt" stroke-miterlimit="10" stroke-linejoin="miter" fill="none" stroke="#000000" d="M-1.99255 56.69362H1.99255"/>
<use data-text="2" xlink:href="#font_3_2" transform="matrix(9.963197,0,0,-9.9626,56.57055,34.145998)"/>
</svg>
