<svg xmlns="http://www.w3.org/2000/svg" xmlns:xlink="http://www.w3.org/1999/xlink" xmlns:inkscape="http://www.inkscape.org/namespaces/inkscape" version="1.1" width="167" height="190" viewBox="0 0 167 190">
<defs>
<path id="font_1_46" d="M.72698977 .33580018C.72698977 .52568057 .58799746 .6826172 .4119873 .6826172H.039993287V.6516113H.06298828C.13999939 .6516113 .14199829 .64060977 .14199829 .6036377V.07896423C.14199829 .041992189 .13999939 .0309906 .06298828 .0309906H.039993287V0H.4119873C.58499148 0 .72698977 .1479187 .72698977 .33580018M.6279907 .33580018C.6279907 .29483033 .6279907 .18989563 .57299807 .11993408 .5209961 .051986696 .44898988 .0309906 .38598634 .0309906H.27799989C.23098755 .0309906 .22898865 .037994386 .22898865 .07196045V.6106262C.22898865 .64460757 .23098755 .6516113 .27799989 .6516113H.3849945C.48199464 .6516113 .5419922 .6006317 .56900027 .56466677 .61299136 .5066986 .6279907 .43473817 .6279907 .33580018Z"/>
<path id="font_1_96" d="M.37298585 .3798828C.37298585 .41236878 .34298707 .4423828 .2979889 .4423828 .23799134 .4423828 .19599915 .40037538 .17298889 .33787538H.17199707V.4423828L.02999878 .43066407V.3996582C.09799194 .3996582 .10699463 .3927307 .10699463 .34387208V.07698059C.10699463 .0309906 .09599304 .0309906 .02999878 .0309906V0C.08299255 .0019989014 .09599304 .0029907227 .14698792 .0029907227L.27398683 0V.0309906H.2539978C.18099976 .0309906 .17799378 .041992189 .17799378 .07897949V.22891236C.17799378 .26989747 .18899536 .4166565 .30299378 .4166565V.4156494C.30099488 .4146576 .2849884 .40264894 .2849884 .37887574 .2849884 .35186769 .30599977 .33486939 .32899476 .33486939 .34999085 .33486939 .37298585 .34986878 .37298585 .3798828Z"/>
<path id="font_1_81" d="M.48399354 .21324158C.48399354 .34423829 .37998963 .4482422 .25698854 .4482422 .12998963 .4482422 .0289917 .3412323 .0289917 .21324158 .0289917 .08824158 .1329956-.0107421879 .2559967-.0107421879 .3829956-.0107421879 .48399354 .09024048 .48399354 .21324158M.397995 .22224427C.397995 .1852417 .397995 .12724304 .37298585 .08325195 .34498597 .037246705 .29899598 .01725769 .25698854 .01725769 .20698548 .01725769 .16499329 .042251588 .14199829 .08125305 .115997318 .12324524 .114990238 .17623902 .114990238 .22224427 .114990238 .25924684 .114990238 .3162384 .13999939 .35723878 .16999817 .40823365 .21998596 .42323304 .2559967 .42323304 .31298829 .42323304 .35398866 .39123536 .37399293 .35723878 .39698792 .31523133 .397995 .26423646 .397995 .22224427Z"/>
<path id="font_1_77" d="M.5469971 0V.0309906C.49598695 .03125 .47099305 .03125 .46998597 .0622406V.25431825C.46998597 .3373413 .46998597 .36636354 .44198609 .4013672 .4189911 .42938233 .3809967 .4423828 .33099366 .4423828 .23799134 .4423828 .19499207 .37335206 .18099976 .34535218H.17999268V.4423828L.034988405 .43066407V.3996582C.102996829 .3996582 .11199951 .39266969 .11199951 .34370423V.07695007C.11199951 .0309906 .100997928 .0309906 .034988405 .0309906V0C.08198547 .0019989014 .100997928 .0029907227 .14898682 .0029907227 .19699097 .0029907227 .20999146 .0019989014 .2630005 0V.0309906C.19699097 .0309906 .18598938 .0309906 .18598938 .07695007V.25878907C.18598938 .36532594 .26098634 .41737367 .32398988 .41737367 .3829956 .41737367 .3959961 .3683319 .3959961 .30825807V.077041629C.3959961 .0309906 .3849945 .0309906 .31900025 .0309906V0C.3659973 .0019989014 .3849945 .0029907227 .43299867 .0029907227 .48098756 .0029907227 .49398805 .0019989014 .5469971 0Z"/>
<path id="font_1_50" d="M.4269867 .11936951C.4269867 .12637329 .42199708 .13237 .41299439 .13237 .40299989 .13237 .3999939 .12536621 .39898683 .12136841 .36499024 .019256592 .27598573 .01725769 .26098634 .01725769 .21299744 .01725769 .17199707 .044281007 .14898682 .078323367 .115997318 .12736511 .114990238 .18743897 .114990238 .22949219H.3999939C.42199708 .22949219 .4269867 .22949219 .4269867 .25048829 .4269867 .35333253 .37098695 .4482422 .24299622 .4482422 .12298584 .4482422 .0289917 .3443451 .0289917 .22047425 .0289917 .08932495 .13398743-.0107421879 .2559967-.0107421879 .37799073-.0107421879 .4269867 .096343997 .4269867 .11936951M.35899354 .253479H.115997318C.125 .40725709 .21499634 .42323304 .24299622 .42323304 .2979889 .42323304 .35798646 .38130189 .35899354 .253479Z"/>
<path id="font_1_34" d="M.66999819 .18199158C.66999819 .27198792 .58299258 .34498597 .47200013 .35699464 .57099917 .37677003 .6409912 .43974305 .6409912 .51368716 .6409912 .6016388 .54499819 .6826172 .41299439 .6826172H.040985109V.6516113H.06399536C.14099121 .6516113 .14299011 .64060977 .14299011 .6036377V.07896423C.14299011 .041992189 .14099121 .0309906 .06399536 .0309906H.040985109V0H.44099427C.57598879-.00022888184 .66999819 .088760379 .66999819 .1817627V.18199158M.54499819 .51368716C.54499819 .4367218 .47799684 .36776734 .38398744 .36776734H.22698975V.6106262C.22698975 .64460757 .22898865 .6516113 .27598573 .6516113H.4059906C.5039978 .6517639 .54499819 .573761 .54499819 .5137634V.51368716M.57099917 .18388367C.57099917 .106933597 .5109863 .0309906 .4079895 .0309906H.27598573C.22898865 .0309906 .22698975 .037994386 .22698975 .07196045V.34277345H.41600038C.5319977 .34298707 .57099917 .24499512 .57099917 .18399048V.18388367Z"/>
<path id="font_1_116" d="M.5279999 0V.0309906C.48799134 .0309906 .45799256 .0309906 .43598939 .05897522L.30499269 .22491455C.2979889 .23390198 .2979889 .23590088 .2979889 .23590088 .2979889 .23590088 .37599183 .33285523 .38398744 .3408661 .4149933 .37483216 .44898988 .39866639 .5099945 .3996582V.43066407C.48098756 .42765809 .45399476 .42765809 .4249878 .42765809 .3869934 .42765809 .36898805 .42765809 .32899476 .43066407V.3996582C.34399415 .39767457 .35699464 .38972474 .35699464 .3698578 .35699464 .35386659 .34799195 .342865 .34298707 .3368683L.2789917 .2578888 .20098877 .3568573C.19400025 .36586 .19198609 .3678589 .19198609 .37483216 .19198609 .38674928 .20298767 .39866639 .22599793 .3996582V.43066407C.18798828 .4286499 .1619873 .42765809 .116989139 .42765809 .116989139 .42765809 .057998659 .42765809 .018997193 .43066407V.3996582C.08799744 .3996582 .08999634 .39767457 .13598633 .3388672L.23899842 .20991516 .14199829 .0929718C.09199524 .032989503 .034988405 .0309906 .01399231 .0309906V0C.042999269 .0029907227 .069992069 .0029907227 .09899902 .0029907227 .1309967 .0029907227 .16299439 .0019989014 .19499207 0V.0309906C.16999817 .033996583 .16699219 .050979616 .16699219 .06097412 .16699219 .0639801 .16699219 .07797241 .18199158 .095962528 .20599365 .12695313 .23199463 .15693665 .25698854 .18692017L.33599855 .08596802C.35499574 .0639801 .35499574 .0619812 .35499574 .055984498 .35499574 .04498291 .34498597 .03199768 .32099916 .0309906V0C.36299134 .0019989014 .3869934 .0029907227 .42999269 .0029907227 .42999269 .0029907227 .4889984 .0029907227 .5279999 0Z"/>
<path id="font_1_62" d="M.7319946 0V.0309906H.70899966C.6319885 .0309906 .6299896 .041992189 .6299896 .07896423V.60365298C.6299896 .640625 .6319885 .6516113 .70899966 .6516113H.7319946V.6826172C.68699648 .6796112 .6309967 .6796112 .58499148 .6796112 .5389862 .6796112 .48298646 .6796112 .43798829 .6826172V.6516113H.46099855C.5379944 .6516113 .5399933 .640625 .5399933 .60365298V.37083436H.22999573V.60365298C.22999573 .640625 .23199463 .6516113 .30899049 .6516113H.33198548V.6826172C.2869873 .6796112 .23098755 .6796112 .18499756 .6796112 .13899231 .6796112 .08299255 .6796112 .037994386 .6826172V.6516113H.06098938C.13798523 .6516113 .13999939 .640625 .13999939 .60365298V.07896423C.13999939 .041992189 .13798523 .0309906 .06098938 .0309906H.037994386V0C.08299255 .0029907227 .13899231 .0029907227 .18499756 .0029907227 .23098755 .0029907227 .2869873 .0029907227 .33198548 0V.0309906H.30899049C.23199463 .0309906 .22999573 .041992189 .22999573 .07896423V.33984376H.5399933V.07896423C.5399933 .041992189 .5379944 .0309906 .46099855 .0309906H.43798829V0C.48298646 .0029907227 .5389862 .0029907227 .58499148 .0029907227 .6309967 .0029907227 .68699648 .0029907227 .7319946 0Z"/>
<path id="font_1_66" d="M.25299073 0V.0309906C.18798828 .0309906 .18399048 .035995485 .18399048 .075042728V.4423828L.039993287 .43066407V.3996582C.10398865 .3996582 .11299133 .3936615 .11299133 .3447113V.07695007C.11299133 .0309906 .101989749 .0309906 .035995485 .0309906V0C.08099365 .0019989014 .101989749 .0029907227 .1459961 .0029907227 .1619873 .0029907227 .20399475 .0029907227 .25299073 0M.19699097 .6028137C.19699097 .63282778 .17298889 .6568146 .14299011 .6568146 .11299133 .6568146 .08898926 .63282778 .08898926 .6028137 .08898926 .57281497 .11299133 .5488281 .14299011 .5488281 .17298889 .5488281 .19699097 .57281497 .19699097 .6028137Z"/>
<path id="font_1_70" d="M.5239868 0V.0309906C.4909973 .0309906 .46699525 .03199768 .43099977 .07998657L.2889862 .2726593C.3869934 .35765077 .43299867 .39665223 .5009918 .3996582V.43066407C.46598817 .42765809 .46398927 .42765809 .4269867 .42765809L.31698609 .43066407V.3996582C.33198548 .39865113 .34399415 .3916626 .34399415 .37565614 .34399415 .35665895 .32798768 .34365846 .31900025 .33566285L.17799378 .21665955V.69433596L.02999878 .6826172V.6516113C.09799194 .6516113 .10699463 .64460757 .10699463 .5956421V.07696533C.10699463 .0309906 .09599304 .0309906 .02999878 .0309906V0L.14099121 .0029907227 .2519989 0V.0309906C.18598938 .0309906 .1749878 .0309906 .1749878 .07696533V.17790222L.23899842 .23187256 .33599855 .10095215C.35198976 .07896423 .3600006 .066970828 .3600006 .052978517 .3600006 .04298401 .35699464 .0309906 .32598878 .0309906V0L.43399049 .0029907227C.46299745 .0029907227 .49499513 .0029907227 .5239868 0Z"/>
<path id="font_2_82" d="M.4189911 0V.0309906H.3869934C.29699708 .0309906 .2939911 .041992189 .2939911 .07902527V.64012148C.2939911 .6640167 .2939911 .6660156 .2709961 .6660156 .20899964 .60227969 .12098694 .60227969 .08898926 .60227969V.57128909C.10899353 .57128909 .16799927 .57128909 .21998596 .5972748V.07902527C.21998596 .042999269 .21699524 .0309906 .1269989 .0309906H.09498596V0C.12998963 .0029907227 .21699524 .0029907227 .25698854 .0029907227 .29699708 .0029907227 .38398744 .0029907227 .4189911 0Z"/>
<path id="font_2_56" d="M.44898988 .20091248C.44898988 .31991578 .36698915 .41992188 .25898744 .41992188 .21099854 .41992188 .16799927 .4039154 .13198853 .36891175V.5641022C.1519928 .55778506 .18499756 .55078127 .21699524 .55078127 .33999635 .55078127 .4099884 .6418457 .4099884 .65493777 .4099884 .6609802 .40699769 .6660156 .3999939 .6660156 .3999939 .66607668 .39698792 .66607668 .3919983 .66308596 .37199403 .65408328 .32299806 .63378909 .2559967 .63378909 .21598816 .63409426 .16999817 .641098 .12298584 .6621094 .114990238 .6651001 .11099243 .6651001 .11099243 .6651001 .100997928 .66508486 .100997928 .657074 .100997928 .64108279V.3447113C.100997928 .3266449 .100997928 .31861878 .114990238 .31861878 .12199402 .31861878 .12399292 .32164 .12799073 .32765199 .13899231 .34371949 .17599488 .3979187 .25698854 .3979187 .30899049 .3979187 .33399964 .3517456 .34199525 .3336792 .35798646 .2965393 .3600006 .2574005 .3600006 .20721436 .3600006 .17218018 .3600006 .112197879 .33599855 .07032776 .31199647 .031448366 .2749939 .0055389406 .22898865 .0055389406 .1559906 .0055389406 .09899902 .05836487 .08198547 .1171875 .084991458 .11685181 .08799744 .115859989 .09899902 .115859989 .13198853 .115859989 .14898682 .14085388 .14898682 .16485596 .14898682 .18885803 .13198853 .21386719 .09899902 .21386719 .084991458 .21386719 .049987794 .2068634 .049987794 .16085816 .049987794 .07432556 .11898804-.022460938 .23098755-.022460938 .34700013-.022460938 .44898988 .07331848 .44898988 .20019531V.20091248Z"/>
<path id="font_2_75" d="M.8129883 0V.0309906C.7609863 .0309906 .73599246 .0309906 .7350006 .061019899V.25221253C.7350006 .3383026 .7350006 .36932374 .70399478 .405365 .6899872 .42237855 .6569977 .4423828 .598999 .4423828 .5149994 .4423828 .47099305 .38233949 .45399476 .34429933 .43998719 .43138124 .3659973 .4423828 .32099916 .4423828 .24798584 .4423828 .20098877 .39935304 .17298889 .33729554V.4423828L.03199768 .43066407V.3996582C.101989749 .3996582 .10998535 .39266969 .10998535 .34370423V.07595825C.10998535 .0309906 .09899902 .0309906 .03199768 .0309906V0L.14498902 .0029907227 .25698854 0V.0309906C.18998719 .0309906 .1789856 .0309906 .1789856 .07595825V.25978089C.1789856 .36431886 .25 .42037965 .31399537 .42037965 .3769989 .42037965 .3880005 .36631776 .3880005 .30926515V.076034549C.3880005 .0309906 .3769989 .0309906 .30999757 .0309906V0L.4229889 .0029907227 .5349884 0V.0309906C.46798707 .0309906 .45700074 .0309906 .45700074 .076034549V.2602234C.45700074 .36431886 .5279999 .42037965 .59199526 .42037965 .6549988 .42037965 .66600039 .36631776 .66600039 .30926515V.076034549C.66600039 .0309906 .6549988 .0309906 .58799746 .0309906V0L.70098879 .0029907227 .8129883 0Z"/>
<path id="font_2_106" d="M.45700074 .17037964C.45700074 .252594 .3939972 .33088685 .2899933 .35191346 .37199403 .37893678 .42999269 .4490509 .42999269 .52809146 .42999269 .6100464 .34199525 .6660156 .24598694 .6660156 .14498902 .6660156 .068984989 .60606387 .068984989 .53009036 .068984989 .49710084 .09098816 .47808839 .11999512 .47808839 .15098572 .47808839 .17098999 .50009158 .17098999 .5290985 .17098999 .57910159 .12399292 .57910159 .10899353 .57910159 .13999939 .62802127 .20599365 .64100649 .24198914 .64100649 .2829895 .64100649 .33799745 .6190338 .33799745 .5290985 .33799745 .51708987 .33599855 .45906068 .30999757 .4149933 .27999879 .36691285 .24598694 .36390687 .22099304 .36291505 .21299744 .36190797 .18899536 .35990907 .18199158 .35990907 .17399597 .35890199 .16699219 .35791017 .16699219 .3479004 .16699219 .33691407 .17399597 .33691407 .19099427 .33691407H.23498535C.31698609 .33691407 .35398866 .2686615 .35398866 .17037964 .35398866 .034469606 .2849884 .0055389406 .24099732 .0055389406 .19799805 .0055389406 .12298584 .022491456 .08799744 .08137512 .12298584 .07637024 .1539917 .09837341 .1539917 .1363678 .1539917 .17237854 .1269989 .19238281 .09799194 .19238281 .07398987 .19238281 .041992189 .17837525 .041992189 .1343689 .041992189 .043441774 .1349945-.022460938 .24398804-.022460938 .3659973-.022460938 .45700074 .06838989 .45700074 .17037964Z"/>
<path id="font_2_102" d="M.44299317 .7299957C.44299317 .7409973 .43399049 .75 .4229889 .75 .40899659 .75 .40499879 .73999026 .4019928 .7299957L.06098938-.21200562C.055999757-.2250061 .055999757-.23001099 .055999757-.23001099 .055999757-.24101258 .06498718-.25 .07598877-.25 .08999634-.25 .09399414-.2400055 .09700012-.23001099L.43798829 .71199038C.44299317 .72499087 .44299317 .7299957 .44299317 .7299957Z"/>
<path id="font_2_98" d="M.3600006 .12823487C.3600006 .18122864 .32998658 .21122742 .31799317 .22323609 .2849884 .25523377 .24598694 .26322938 .20399475 .27124024 .147995 .28224183 .08099365 .29522706 .08099365 .35324098 .08099365 .38822938 .10699463 .42922975 .19299317 .42922975 .30299378 .42922975 .30799867 .3392334 .30999757 .30822755 .31098939 .2992401 .32199098 .2992401 .32199098 .2992401 .33499146 .2992401 .33499146 .30422975 .33499146 .32322694V.4242401C.33499146 .4412384 .33499146 .4482422 .32398988 .4482422 .31900025 .4482422 .31698609 .4482422 .3039856 .43623353 .30099488 .43223573 .29100038 .42323304 .2869873 .42022706 .24899292 .4482422 .20799256 .4482422 .19299317 .4482422 .070999149 .4482422 .032989503 .38124085 .032989503 .3252411 .032989503 .29023744 .04899597 .26223756 .07598877 .24023438 .10798645 .2142334 .13598633 .2082367 .20799256 .19422913 .22999573 .19021607 .31199647 .17422486 .31199647 .10221863 .31199647 .051223756 .2769928 .011245728 .19898987 .011245728 .114990238 .011245728 .07899475 .068222049 .05999756 .1532135 .056991579 .16621399 .055999757 .17021179 .04598999 .17021179 .032989503 .17021179 .032989503 .16322327 .032989503 .1452179V.013214111C.032989503-.003753662 .032989503-.0107421879 .04399109-.0107421879 .04899597-.0107421879 .049987794-.009750366 .068984989 .009246826 .070999149 .011245728 .070999149 .013214111 .08898926 .032226564 .1329956-.009750366 .17799378-.0107421879 .19898987-.0107421879 .31399537-.0107421879 .3600006 .05621338 .3600006 .1282196V.12823487Z"/>
</defs>
<path transform="matrix(1.00003,0,0,-1.00003,56.039247,170.46564)" stroke-width=".79701" stroke-linecap="butt" stroke-miterlimit="10" stroke-linejoin="miter" fill="none" stroke="#000000" d="M-19.84267 0H109.13472"/>
<path transform="matrix(1.00003,0,0,-1.00003,56.039247,170.46564)" d="M9.92133 158.74143C9.92133 164.22089 5.47946 168.66275 0 168.66275-5.47946 168.66275-9.92133 164.22089-9.92133 158.74143-9.92133 153.26197-5.47946 148.8201 0 148.8201 5.47946 148.8201 9.92133 153.26197 9.92133 158.74143ZM0 158.74143" fill="#d9d9d9"/>
<path transform="matrix(1.00003,0,0,-1.00003,56.039247,170.46564)" stroke-width=".3985" stroke-linecap="butt" stroke-miterlimit="10" stroke-linejoin="miter" fill="none" stroke="#000000" d="M9.92133 158.74143C9.92133 164.22089 5.47946 168.66275 0 168.66275-5.47946 168.66275-9.92133 164.22089-9.92133 158.74143-9.92133 153.26197-5.47946 148.8201 0 148.8201 5.47946 148.8201 9.92133 153.26197 9.92133 158.74143ZM0 158.74143"/>
<use data-text="D" xlink:href="#font_1_46" transform="matrix(8.966669,0,0,-8.966669,73.56877,14.731949)"/>
<use data-text="r" xlink:href="#font_1_96" transform="matrix(8.966669,0,0,-8.966669,80.607608,14.731949)"/>
<use data-text="o" xlink:href="#font_1_81" transform="matrix(8.966669,0,0,-8.966669,84.212207,14.731949)"/>
<use data-text="n" xlink:href="#font_1_77" transform="matrix(8.966669,0,0,-8.966669,88.821079,14.731949)"/>
<use data-text="e" xlink:href="#font_1_50" transform="matrix(8.966669,0,0,-8.966669,93.94104,14.731949)"/>
<path transform="matrix(1.00003,0,0,-1.00003,56.039247,170.46564)" d="M-9.92133 59.52802V79.37071H9.92133V59.52802ZM9.92133 79.37071" fill="#e6ccb3"/>
<path transform="matrix(1.00003,0,0,-1.00003,56.039247,170.46564)" stroke-width=".3985" stroke-linecap="butt" stroke-miterlimit="10" stroke-linejoin="miter" fill="none" stroke="#000000" d="M-9.92133 59.52802V79.37071H9.92133V59.52802ZM9.92133 79.37071"/>
<use data-text="B" xlink:href="#font_1_34" transform="matrix(8.966669,0,0,-8.966669,68.0146,104.02664)"/>
<use data-text="o" xlink:href="#font_1_81" transform="matrix(8.966669,0,0,-8.966669,74.54234,104.02664)"/>
<use data-text="x" xlink:href="#font_1_116" transform="matrix(8.966669,0,0,-8.966669,78.891178,104.02664)"/>
<path transform="matrix(1.00003,0,0,-1.00003,56.039247,170.46564)" stroke-width=".3985" stroke-linecap="butt" stroke-dasharray="2.98883,2.98883" stroke-miterlimit="10" stroke-linejoin="miter" fill="none" stroke="#000000" d="M0 158.74143V79.37071"/>
<path transform="matrix(1.00003,0,0,-1.00003,56.039247,170.46564)" stroke-width=".3985" stroke-linecap="butt" stroke-dasharray="2.98883,2.98883" stroke-miterlimit="10" stroke-linejoin="miter" fill="none" stroke="#000000" d="M0 59.52802V0"/>
<path transform="matrix(1.00003,0,0,-1.00003,56.039247,170.46564)" d="M79.37071 0V29.764H89.29204V0ZM89.29204 29.764" fill="#ffbf80"/>
<path transform="matrix(1.00003,0,0,-1.00003,56.039247,170.46564)" stroke-width=".3985" stroke-linecap="butt" stroke-miterlimit="10" stroke-linejoin="miter" fill="none" stroke="#000000" d="M79.37071 0V29.764H89.29204V0ZM89.29204 29.764"/>
<use data-text="H" xlink:href="#font_1_62" transform="matrix(8.966669,0,0,-8.966669,129.48346,137.80966)"/>
<use data-text="i" xlink:href="#font_1_66" transform="matrix(8.966669,0,0,-8.966669,136.39676,137.80966)"/>
<use data-text="k" xlink:href="#font_1_70" transform="matrix(8.966669,0,0,-8.966669,138.96121,137.80966)"/>
<use data-text="e" xlink:href="#font_1_50" transform="matrix(8.966669,0,0,-8.966669,143.56113,137.80966)"/>
<use data-text="r" xlink:href="#font_1_96" transform="matrix(8.966669,0,0,-8.966669,147.65888,137.80966)"/>
<path transform="matrix(1.00003,0,0,-1.00003,56.039247,170.46564)" stroke-width=".79701" stroke-linecap="butt" stroke-miterlimit="10" stroke-linejoin="miter" fill="none" stroke="#000000" d="M-15.87419 .70735V158.03406"/>
<path transform="matrix(0,1.00003,1.00003,0,40.164579,169.75827)" stroke-width=".6376" stroke-linecap="round" stroke-linejoin="round" fill="none" stroke="#000000" d="M-1.55415 2.0722C-1.42464 1.29512 0 .1295 .38852 0 0-.1295-1.42464-1.29512-1.55415-2.0722"/>
<path transform="matrix(0,-1.00003,-1.00003,-0,40.164579,12.426834)" stroke-width=".6376" stroke-linecap="round" stroke-linejoin="round" fill="none" stroke="#000000" d="M-1.55415 2.0722C-1.42464 1.29512 0 .1295 .38852 0 0-.1295-1.42464-1.29512-1.55415-2.0722"/>
<use data-text="1" xlink:href="#font_2_82" transform="matrix(9.962899,0,0,-9.962899,15.065018,74.457759)"/>
<use data-text="5" xlink:href="#font_2_56" transform="matrix(9.962899,0,0,-9.962899,20.046448,74.457759)"/>
<use data-text="m" xlink:href="#font_2_75" transform="matrix(9.962899,0,0,-9.962899,28.335587,74.457759)"/>
<path transform="matrix(1.00003,0,0,-1.00003,56.039247,170.46564)" stroke-width=".79701" stroke-linecap="butt" stroke-miterlimit="10" stroke-linejoin="miter" fill="none" stroke="#000000" d="M-25.79553 79.37071V60.23538"/>
<path transform="matrix(0,1.00003,1.00003,0,30.24294,110.228458)" stroke-width=".6376" stroke-linecap="round" stroke-linejoin="round" fill="none" stroke="#000000" d="M-1.55415 2.0722C-1.42464 1.29512 0 .1295 .38852 0 0-.1295-1.42464-1.29512-1.55415-2.0722"/>
<use data-text="3" xlink:href="#font_2_106" transform="matrix(9.962899,0,0,-9.962899,1.2176056,103.50462)"/>
<use data-text="m" xlink:href="#font_2_75" transform="matrix(9.962899,0,0,-9.962899,9.506729,103.50462)"/>
<use data-text="/" xlink:href="#font_2_102" transform="matrix(9.962899,0,0,-9.962899,17.805817,103.50462)"/>
<use data-text="s" xlink:href="#font_2_98" transform="matrix(9.962899,0,0,-9.962899,22.787262,103.50462)"/>
<path transform="matrix(1.00003,0,0,-1.00003,56.039247,170.46564)" stroke-width=".79701" stroke-linecap="butt" stroke-miterlimit="10" stroke-linejoin="miter" fill="none" stroke="#000000" d="M39.68535-15.87419H78.66335"/>
<path transform="matrix(1.00003,0,0,-1.00003,134.70496,186.3403)" stroke-width=".6376" stroke-linecap="round" stroke-linejoin="round" fill="none" stroke="#000000" d="M-1.55415 2.0722C-1.42464 1.29512 0 .1295 .38852 0 0-.1295-1.42464-1.29512-1.55415-2.0722"/>
<use data-text="1" xlink:href="#font_2_82" transform="matrix(9.962899,0,0,-9.962899,102.81665,183.44203)"/>
<use data-text="m" xlink:href="#font_2_75" transform="matrix(9.962899,0,0,-9.962899,111.105777,183.44203)"/>
<use data-text="/" xlink:href="#font_2_102" transform="matrix(9.962899,0,0,-9.962899,119.40486,183.44203)"/>
<use data-text="s" xlink:href="#font_2_98" transform="matrix(9.962899,0,0,-9.962899,124.38631,183.44203)"/>
<path transform="matrix(1.00003,0,0,-1.00003,56.039247,170.46564)" stroke-width=".79701" stroke-linecap="butt" stroke-dasharray=".79701,1.99255" stroke-miterlimit="10" stroke-linejoin="miter" fill="none" stroke="#000000" d="M0 59.52802 79.37071 0"/>
</svg>
