<svg xmlns="http://www.w3.org/2000/svg" xmlns:xlink="http://www.w3.org/1999/xlink" xmlns:inkscape="http://www.inkscape.org/namespaces/inkscape" version="1.1" width="181" height="134" viewBox="0 0 181 134">
<defs>
<path id="font_1_4" d="M.33399964 .30233766C.33999635 .32835389 .36299134 .42037965 .43299867 .42037965 .43798829 .42037965 .46199037 .42037965 .48298646 .40734864 .45498658 .402359 .43499757 .37734986 .43499757 .35334779 .43499757 .33735658 .44599916 .31835938 .47299195 .31835938 .49499513 .31835938 .5269928 .3363495 .5269928 .37635804 .5269928 .42837525 .46798707 .4423828 .43399049 .4423828 .37599183 .4423828 .34098817 .38935853 .32899476 .36634828 .3039856 .43237306 .25 .4423828 .22099304 .4423828 .116989139 .4423828 .05999756 .3133545 .05999756 .28834535 .05999756 .27833558 .069992069 .27833558 .07199097 .27833558 .07998657 .27833558 .08299255 .28033448 .084991458 .28933717 .11898804 .39535523 .18499756 .42037965 .21899414 .42037965 .23799134 .42037965 .272995 .4113617 .272995 .35334779 .272995 .32235719 .2559967 .25532533 .21899414 .11528015 .20298767 .053268434 .16799927 .011245728 .12399292 .011245728 .117996219 .011245728 .09498596 .011245728 .07398987 .024276734 .09899902 .029266358 .12098694 .05027771 .12098694 .07827759 .12098694 .105270389 .09899902 .11328125 .083999637 .11328125 .053985597 .11328125 .0289917 .08728027 .0289917 .055267335 .0289917 .009246826 .07899475-.0107421879 .12298584-.0107421879 .18899536-.0107421879 .22499085 .059280397 .22799683 .0652771 .23999024 .028274537 .27598573-.0107421879 .33599855-.0107421879 .43899537-.0107421879 .49598695 .118270877 .49598695 .14328003 .49598695 .1532898 .4869995 .1532898 .48399354 .1532898 .47499085 .1532898 .47299195 .14929199 .47099305 .14228821 .43798829 .03527832 .36999513 .011245728 .33799745 .011245728 .29899598 .011245728 .2829895 .043273927 .2829895 .07727051 .2829895 .09927368 .2889862 .121276859 .2999878 .16529846L.33399964 .30233766Z"/>
<path id="font_1_5" d="M.48599244 .38136292C.48999024 .39537049 .48999024 .39736939 .48999024 .40437318 .48999024 .42237855 .47599793 .43138124 .46099855 .43138124 .45098878 .43138124 .43499757 .42536927 .42599488 .41036988 .42399598 .405365 .41600038 .37435914 .4119873 .35635377 .40499879 .33035279 .397995 .30334474 .3919983 .27633668L.34700013 .09628296C.34298707 .08126831 .2999878 .011245728 .23399353 .011245728 .18299866 .011245728 .17199707 .055267335 .17199707 .0922699 .17199707 .1382904 .18899536 .20030213 .22299195 .28833009 .23899842 .3293457 .24299622 .3403473 .24299622 .36035157 .24299622 .405365 .21099854 .4423828 .16099549 .4423828 .06599426 .4423828 .0289917 .29733277 .0289917 .28833009 .0289917 .27833558 .038986207 .27833558 .040985109 .27833558 .050994874 .27833558 .051986696 .28033448 .056991579 .29634095 .083999637 .3903656 .12399292 .42037965 .1579895 .42037965 .1659851 .42037965 .18299866 .42037965 .18299866 .3883667 .18299866 .36335755 .17298889 .3373413 .1659851 .31834413 .12599182 .21231079 .10798645 .1552887 .10798645 .10827637 .10798645 .019256592 .17098999-.0107421879 .22999573-.0107421879 .2689972-.0107421879 .30299378 .0062561037 .33099366 .03425598 .31799317-.017745972 .30599977-.06674194 .2659912-.11973572 .23999024-.15385437 .20199585-.18309021 .1559906-.18309021 .14199829-.18309021 .09700012-.18005371 .07998657-.14074707 .09599304-.14074707 .10899353-.14074707 .12298584-.1287384 .1329956-.11973572 .14299011-.10673523 .14299011-.08773804 .14299011-.056747438 .115997318-.052734376 .10598755-.052734376 .08299255-.052734376 .049987794-.068740848 .049987794-.11773682 .049987794-.16796875 .09399414-.20507813 .1559906-.20507813 .25898744-.20507813 .3619995-.11373901 .3899994-.00074768069L.48599244 .38136292Z"/>
<path id="font_2_3" d="M.68699648 .32714845C.70199587 .32714845 .72099307 .32714845 .72099307 .34713746 .72099307 .36714173 .70199587 .36714173 .6879883 .36714173H.08898926C.07499695 .36714173 .055999757 .36714173 .055999757 .34713746 .055999757 .32714845 .07499695 .32714845 .08999634 .32714845H.68699648M.6879883 .13284302C.70199587 .13284302 .72099307 .13284302 .72099307 .15284729 .72099307 .17285156 .70199587 .17285156 .68699648 .17285156H.08999634C.07499695 .17285156 .055999757 .17285156 .055999757 .15284729 .055999757 .13284302 .07499695 .13284302 .08898926 .13284302H.6879883Z"/>
<path id="font_1_3" d="M.36698915 .3996582H.45298768C.47299195 .3996582 .48298646 .3996582 .48298646 .41966249 .48298646 .43066407 .47299195 .43066407 .45599366 .43066407H.37298585L.3939972 .5449524C.397995 .5660095 .4119873 .6370239 .41799928 .6490326 .4269867 .66804507 .44400025 .68307498 .46499635 .68307498 .46899415 .68307498 .49499513 .68307498 .5139923 .66503909 .46998597 .661026 .45999146 .6260376 .45999146 .6110382 .45999146 .58802798 .47799684 .57603457 .49699403 .57603457 .522995 .57603457 .5519867 .5980377 .5519867 .6360321 .5519867 .6820679 .5059967 .7050781 .46499635 .7050781 .43099977 .7050781 .36799623 .68707278 .33799745 .58802798 .33198548 .56700137 .32899476 .5569763 .30499269 .43066407H.23599243C.21699524 .43066407 .20599365 .43066407 .20599365 .4116516 .20599365 .3996582 .21499634 .3996582 .23399353 .3996582H.2999878L.22499085 .0048828127C.20698548-.09207153 .18998719-.18309021 .13798523-.18309021 .13398743-.18309021 .10899353-.18309021 .08999634-.16506958 .13598633-.1620636 .14498902-.12606812 .14498902-.111068729 .14498902-.08807373 .1269989-.07606506 .10798645-.07606506 .08198547-.07606506 .052993776-.09806824 .052993776-.13606262 .052993776-.18109131 .09700012-.20507813 .13798523-.20507813 .19299317-.20507813 .23298645-.14607239 .25099183-.108062747 .2829895-.04508972 .30599977 .07583618 .30699159 .082839969L.36698915 .3996582Z"/>
<path id="font_2_1" d="M.33099366-.2400055C.33099366-.23701477 .33099366-.23500061 .31399537-.21800232 .18899536-.0920105 .15699768 .09700012 .15699768 .25 .15699768 .42399598 .19499207 .59799197 .31799317 .72299197 .33099366 .73498538 .33099366 .7369995 .33099366 .73999026 .33099366 .746994 .32699586 .75 .32099916 .75 .31098939 .75 .22099304 .6819916 .1619873 .5549927 .11099243 .44499208 .09899902 .33399964 .09899902 .25 .09899902 .17199707 .10998535 .050994874 .16499329-.06201172 .22499085-.18501282 .31098939-.25 .32099916-.25 .32699586-.25 .33099366-.24700928 .33099366-.2400055Z"/>
<path id="font_2_2" d="M.2889862 .25C.2889862 .32798768 .27799989 .44898988 .22299195 .56199648 .16299439 .68499758 .07699585 .75 .066986087 .75 .06098938 .75 .056991579 .74598696 .056991579 .73999026 .056991579 .7369995 .056991579 .73498538 .07598877 .71699526 .17399597 .6179962 .23098755 .45899964 .23098755 .25 .23098755 .07899475 .19400025-.09700012 .069992069-.2230072 .056991579-.23500061 .056991579-.23701477 .056991579-.2400055 .056991579-.2460022 .06098938-.25 .066986087-.25 .07699585-.25 .16699219-.18200684 .22599793-.055007936 .2769928 .054992677 .2889862 .16600037 .2889862 .25Z"/>
<path id="font_1_2" d="M.23899842 .68333438C.23899842 .6843262 .23899842 .69433596 .22599793 .69433596 .20298767 .69433596 .12998963 .6863251 .10398865 .6843262 .09599304 .68333438 .084991458 .6823273 .084991458 .6643219 .084991458 .6523285 .09399414 .6523285 .10899353 .6523285 .15699768 .6523285 .15899658 .6453247 .15899658 .6353302 .15899658 .6283264 .1499939 .5943451 .14498902 .573349L.06298828 .24731446C.050994874 .1973114 .04699707 .18130493 .04699707 .14628601 .04699707 .05126953 .099990848-.0107421879 .17399597-.0107421879 .2919922-.0107421879 .4149933 .1382904 .4149933 .28233338 .4149933 .37335206 .3619995 .4423828 .28199769 .4423828 .23599243 .4423828 .19499207 .41337586 .16499329 .38235475L.23899842 .68333438M.14498902 .30534364C.15098572 .3273468 .15098572 .3293457 .1599884 .3403473 .20899964 .405365 .2539978 .42037965 .27999879 .42037965 .31599427 .42037965 .34298707 .3903656 .34298707 .32633973 .34298707 .26733399 .30999757 .15229798 .2919922 .11428833 .25898744 .04725647 .21299744 .011245728 .17399597 .011245728 .13999939 .011245728 .10699463 .038253786 .10699463 .11227417 .10699463 .13128662 .10699463 .15029907 .12298584 .21331787L.14498902 .30534364Z"/>
<path id="font_1_1" d="M.20298767 .0009918213C.20298767 .066986087 .17799378 .10598755 .13899231 .10598755 .10598755 .10598755 .085998538 .08099365 .085998538 .052993776 .085998538 .025985718 .10598755 0 .13899231 0 .15098572 0 .1639862 .0039978029 .17399597 .0129852299 .1769867 .01499939 .17799378 .015991211 .1789856 .015991211 .17999268 .015991211 .18099976 .01499939 .18099976 .0009918213 .18099976-.07316589 .1459961-.13328552 .11299133-.16635132 .101989749-.17736817 .101989749-.17936707 .101989749-.18237305 .101989749-.18936157 .10699463-.19335938 .11199951-.19335938 .12298584-.19335938 .20298767-.116256717 .20298767 .0009918213Z"/>
</defs>
<path transform="matrix(1.00005,0,0,-1.00009,15.978889,118.14746)" stroke-width=".3985" stroke-linecap="butt" stroke-miterlimit="10" stroke-linejoin="miter" fill="none" stroke="#000000" d="M-14.8821 0H154.31565"/>
<path transform="matrix(1.00005,0,0,-1.00009,170.30225,118.14746)" stroke-width=".31879" stroke-linecap="round" stroke-linejoin="round" fill="none" stroke="#000000" d="M-1.19551 1.59401C-1.09587 .99626 0 .09961 .29886 0 0-.09961-1.09587-.99626-1.19551-1.59401"/>
<use data-text="x" xlink:href="#font_1_4" transform="matrix(9.963098,0,0,-9.963496,174.28079,125.95717)"/>
<path transform="matrix(1.00005,0,0,-1.00009,15.978889,118.14746)" stroke-width=".3985" stroke-linecap="butt" stroke-miterlimit="10" stroke-linejoin="miter" fill="none" stroke="#000000" d="M0-14.8821V112.64587"/>
<path transform="matrix(0,-1.00009,-1.00005,-0,15.978889,5.491455)" stroke-width=".31879" stroke-linecap="round" stroke-linejoin="round" fill="none" stroke="#000000" d="M-1.19551 1.59401C-1.09587 .99626 0 .09961 .29886 0 0-.09961-1.09587-.99626-1.19551-1.59401"/>
<use data-text="y" xlink:href="#font_1_5" transform="matrix(9.963098,0,0,-9.963496,7.2164537,6.2093889)"/>
<path transform="matrix(1.00005,0,0,-1.00009,15.978889,118.14746)" stroke-width="1.99255" stroke-linecap="butt" stroke-miterlimit="10" stroke-linejoin="miter" fill="none" stroke="#000000" d="M8.92935 34.4662 9.49748 34.42305 10.06566 34.38354 10.63382 34.34947 11.20198 34.31905 11.77016 34.29317 12.33832 34.27136 12.90648 34.25409 13.47462 34.24138 14.04279 34.23274 14.61096 34.22823 15.17912 34.22865 15.74728 34.2332 16.31544 34.24184 16.8836 34.255 17.45177 34.27226 18.01993 34.29453 18.58809 34.32086 19.15627 34.35085 19.72441 34.38582 20.29259 34.42487 20.86073 34.46848 21.4289 34.51616 21.99707 34.56839 22.56523 34.6247 23.13338 34.68556 23.70155 34.75098 24.26971 34.82045 24.83788 34.89403 25.40604 34.9726 25.97418 35.0548 26.54236 35.14154 27.11052 35.23328 27.6787 35.3282 28.24686 35.42857 28.815 35.53258 29.38316 35.64113 29.95132 35.75421 30.51949 35.8714 31.08766 35.9931 31.65582 36.11891 32.22398 36.24925 32.79213 36.38368 33.36029 36.52267 33.92847 36.66573 34.49663 36.81378 35.06479 36.96547 35.63297 37.1217 36.2011 37.28203 36.76927 37.44734 37.33743 37.61674 37.9056 37.79022 38.47377 37.96828 39.04193 38.15039 39.61009 38.33704 40.17824 38.52824 40.7464 38.72356 41.31458 38.92339 41.88274 39.12686 42.45088 39.33533 43.01906 39.54832 43.5872 39.76497 44.15538 39.98659 44.72354 40.21231 45.2917 40.44212 45.85986 40.67647 46.42802 40.9149 46.99619 41.15833 47.56435 41.40587 48.1325 41.65746 48.70068 41.9136 49.26883 42.17386 49.83699 42.43863 50.40517 42.70796 50.97333 42.98091 51.54149 43.25887 52.10965 43.5409 52.6778 43.82748 53.24597 44.11812 53.81413 44.41289 54.3823 44.71265 54.95045 45.01604 55.51862 45.3244 56.08678 45.63731 56.65494 45.95343 57.2231 46.27498 57.79128 46.60017 58.35944 46.93034 58.9276 47.2646 59.49574 47.60295 60.0639 47.94585 60.63208 48.29283 61.20024 48.64436 61.7684 49.00043 62.33656 49.36012 62.90471 49.72482 63.47289 50.0936 64.04105 50.46693 64.6092 50.84435 65.17738 51.22585 65.74553 51.61234 66.31367 52.00291 66.88185 52.3976 67.45001 52.79726 68.01819 53.20055 68.58635 53.6084 69.1545 54.02077 69.72267 54.43724 70.29082 54.85826 70.859 55.28337 71.42715 55.713 71.99532 56.14719 72.56348 56.58499 73.13164 57.02782 73.6998 57.4747 74.26796 57.92615 74.83612 58.38167 75.4043 58.8413 75.97244 59.30592 76.5406 59.77461 77.10878 60.24739 77.67693 60.72472 78.2451 61.20613 78.81325 61.69255 79.38141 62.18306 79.94958 62.67717 80.51775 63.17632 81.0859 63.67953 81.65407 64.18729 82.22221 64.69958 82.79039 65.21552 83.35855 65.73645 83.92671 66.26146 84.49489 66.79057 85.06305 67.32466 85.63118 67.8624 86.19936 68.40512 86.76752 68.95148 87.3357 69.50285 87.90385 70.05829 88.47202 70.61781 89.04018 71.18188 89.60832 71.75052 90.1765 72.32277 90.74466 72.90001 91.31282 73.48135 91.881 74.06723 92.44914 74.65764 93.01729 75.25166 93.58546 75.85074 94.15363 76.4534 94.7218 77.06108 95.28995 77.67284 95.85811 78.2887 96.42628 78.90955 96.99443 79.53401 97.5626 80.1635 98.13077 80.79704 98.69891 81.4347 99.26709 82.07689 99.83525 82.72319 100.40341 83.37398 100.97157 84.02936 101.53973 84.6888 102.1079 85.3528 102.67606 86.02042 103.24422 86.69348 103.8124 87.37021 104.38054 88.05145 104.9487 88.73679 105.51686 89.42714 106.08502 90.12108 106.6532 90.81961 107.22136 91.5222 107.78952 92.22977 108.35768 92.94147 108.92583 93.65723 109.494 94.37752 110.06216 95.10193 110.63033 95.83086 111.1985 96.56435 111.76665 97.30145 112.3348 98.04355 112.90297 98.78976 113.47113 99.5405 114.0393 100.29578 114.60747 101.05469 115.17561 101.81859 115.74377 102.58614 116.31194 103.35867 116.88011 104.1353 117.44827 104.916 118.01643 105.7017 118.5846 106.49106 119.15276 107.28493 119.7209 108.08336 120.28908 108.88586 120.85724 109.69292 121.42542 110.50453 121.99356 111.3202"/>
<use data-text="y" xlink:href="#font_1_5" transform="matrix(9.963098,0,0,-9.963496,71.43266,25.384118)"/>
<use data-text="=" xlink:href="#font_2_3" transform="matrix(9.963098,0,0,-9.963496,79.44206,25.384118)"/>
<use data-text="f" xlink:href="#font_1_3" transform="matrix(9.963098,0,0,-9.963496,89.95859,25.384118)"/>
<use data-text="(" xlink:href="#font_2_1" transform="matrix(9.963098,0,0,-9.963496,95.90889,25.384118)"/>
<use data-text="x" xlink:href="#font_1_4" transform="matrix(9.963098,0,0,-9.963496,99.78308,25.384118)"/>
<use data-text=")" xlink:href="#font_2_2" transform="matrix(9.963098,0,0,-9.963496,105.477359,25.384118)"/>
<path transform="matrix(1.00005,0,0,-1.00009,15.978889,118.14746)" stroke-width=".3985" stroke-linecap="butt" stroke-dasharray="2.98883,2.98883" stroke-miterlimit="10" stroke-linejoin="miter" fill="none" stroke="#000000" d="M59.52846 0V113.10416"/>
<use data-text="b" xlink:href="#font_1_2" transform="matrix(9.963098,0,0,-9.963496,73.37276,128.5864)"/>
<path transform="matrix(1.00005,0,0,-1.00009,15.978889,118.14746)" d="M62.6762 47.6305C62.6762 49.36374 61.27115 50.76878 59.53792 50.76878 57.80467 50.76878 56.39964 49.36374 56.39964 47.6305 56.39964 45.89726 57.80467 44.49222 59.53792 44.49222 61.27115 44.49222 62.6762 45.89726 62.6762 47.6305ZM59.53792 47.6305"/>
<use data-text="(" xlink:href="#font_2_1" transform="matrix(9.963098,0,0,-9.963496,80.70013,81.505168)"/>
<use data-text="b" xlink:href="#font_1_2" transform="matrix(9.963098,0,0,-9.963496,84.575328,81.505168)"/>
<use data-text="," xlink:href="#font_1_1" transform="matrix(9.963098,0,0,-9.963496,88.849498,81.505168)"/>
<use data-text="f" xlink:href="#font_1_3" transform="matrix(9.963098,0,0,-9.963496,93.26315,81.505168)"/>
<use data-text="(" xlink:href="#font_2_1" transform="matrix(9.963098,0,0,-9.963496,99.22906,81.505168)"/>
<use data-text="b" xlink:href="#font_1_2" transform="matrix(9.963098,0,0,-9.963496,103.10325,81.505168)"/>
<use data-text=")" xlink:href="#font_2_2" transform="matrix(9.963098,0,0,-9.963496,107.37946,81.505168)"/>
<use data-text=")" xlink:href="#font_2_2" transform="matrix(9.963098,0,0,-9.963496,111.24514,81.505168)"/>
<path transform="matrix(1.00005,0,0,-1.00009,15.978889,118.14746)" stroke-width="1.49442" stroke-linecap="butt" stroke-dasharray="2.98883,2.98883" stroke-miterlimit="10" stroke-linejoin="miter" fill="none" stroke="#000000" d="M.00945 11.91351 119.0664 83.34749"/>
</svg>
