<svg xmlns="http://www.w3.org/2000/svg" xmlns:xlink="http://www.w3.org/1999/xlink" xmlns:inkscape="http://www.inkscape.org/namespaces/inkscape" version="1.1" width="140" height="196" viewBox="0 0 140 196">
<defs>
<path id="font_1_4" d="M.33399964 .30233766C.33999635 .32835389 .36299134 .42037965 .43299867 .42037965 .43798829 .42037965 .46199037 .42037965 .48298646 .40734864 .45498658 .402359 .43499757 .37734986 .43499757 .35334779 .43499757 .33735658 .44599916 .31835938 .47299195 .31835938 .49499513 .31835938 .5269928 .3363495 .5269928 .37635804 .5269928 .42837525 .46798707 .4423828 .43399049 .4423828 .37599183 .4423828 .34098817 .38935853 .32899476 .36634828 .3039856 .43237306 .25 .4423828 .22099304 .4423828 .116989139 .4423828 .05999756 .3133545 .05999756 .28834535 .05999756 .27833558 .069992069 .27833558 .07199097 .27833558 .07998657 .27833558 .08299255 .28033448 .084991458 .28933717 .11898804 .39535523 .18499756 .42037965 .21899414 .42037965 .23799134 .42037965 .272995 .4113617 .272995 .35334779 .272995 .32235719 .2559967 .25532533 .21899414 .11528015 .20298767 .053268434 .16799927 .011245728 .12399292 .011245728 .117996219 .011245728 .09498596 .011245728 .07398987 .024276734 .09899902 .029266358 .12098694 .05027771 .12098694 .07827759 .12098694 .105270389 .09899902 .11328125 .083999637 .11328125 .053985597 .11328125 .0289917 .08728027 .0289917 .055267335 .0289917 .009246826 .07899475-.0107421879 .12298584-.0107421879 .18899536-.0107421879 .22499085 .059280397 .22799683 .0652771 .23999024 .028274537 .27598573-.0107421879 .33599855-.0107421879 .43899537-.0107421879 .49598695 .118270877 .49598695 .14328003 .49598695 .1532898 .4869995 .1532898 .48399354 .1532898 .47499085 .1532898 .47299195 .14929199 .47099305 .14228821 .43798829 .03527832 .36999513 .011245728 .33799745 .011245728 .29899598 .011245728 .2829895 .043273927 .2829895 .07727051 .2829895 .09927368 .2889862 .121276859 .2999878 .16529846L.33399964 .30233766Z"/>
<path id="font_1_5" d="M.48599244 .38136292C.48999024 .39537049 .48999024 .39736939 .48999024 .40437318 .48999024 .42237855 .47599793 .43138124 .46099855 .43138124 .45098878 .43138124 .43499757 .42536927 .42599488 .41036988 .42399598 .405365 .41600038 .37435914 .4119873 .35635377 .40499879 .33035279 .397995 .30334474 .3919983 .27633668L.34700013 .09628296C.34298707 .08126831 .2999878 .011245728 .23399353 .011245728 .18299866 .011245728 .17199707 .055267335 .17199707 .0922699 .17199707 .1382904 .18899536 .20030213 .22299195 .28833009 .23899842 .3293457 .24299622 .3403473 .24299622 .36035157 .24299622 .405365 .21099854 .4423828 .16099549 .4423828 .06599426 .4423828 .0289917 .29733277 .0289917 .28833009 .0289917 .27833558 .038986207 .27833558 .040985109 .27833558 .050994874 .27833558 .051986696 .28033448 .056991579 .29634095 .083999637 .3903656 .12399292 .42037965 .1579895 .42037965 .1659851 .42037965 .18299866 .42037965 .18299866 .3883667 .18299866 .36335755 .17298889 .3373413 .1659851 .31834413 .12599182 .21231079 .10798645 .1552887 .10798645 .10827637 .10798645 .019256592 .17098999-.0107421879 .22999573-.0107421879 .2689972-.0107421879 .30299378 .0062561037 .33099366 .03425598 .31799317-.017745972 .30599977-.06674194 .2659912-.11973572 .23999024-.15385437 .20199585-.18309021 .1559906-.18309021 .14199829-.18309021 .09700012-.18005371 .07998657-.14074707 .09599304-.14074707 .10899353-.14074707 .12298584-.1287384 .1329956-.11973572 .14299011-.10673523 .14299011-.08773804 .14299011-.056747438 .115997318-.052734376 .10598755-.052734376 .08299255-.052734376 .049987794-.068740848 .049987794-.11773682 .049987794-.16796875 .09399414-.20507813 .1559906-.20507813 .25898744-.20507813 .3619995-.11373901 .3899994-.00074768069L.48599244 .38136292Z"/>
<path id="font_1_3" d="M.36698915 .3996582H.45298768C.47299195 .3996582 .48298646 .3996582 .48298646 .41966249 .48298646 .43066407 .47299195 .43066407 .45599366 .43066407H.37298585L.3939972 .5449524C.397995 .5660095 .4119873 .6370239 .41799928 .6490326 .4269867 .66804507 .44400025 .68307498 .46499635 .68307498 .46899415 .68307498 .49499513 .68307498 .5139923 .66503909 .46998597 .661026 .45999146 .6260376 .45999146 .6110382 .45999146 .58802798 .47799684 .57603457 .49699403 .57603457 .522995 .57603457 .5519867 .5980377 .5519867 .6360321 .5519867 .6820679 .5059967 .7050781 .46499635 .7050781 .43099977 .7050781 .36799623 .68707278 .33799745 .58802798 .33198548 .56700137 .32899476 .5569763 .30499269 .43066407H.23599243C.21699524 .43066407 .20599365 .43066407 .20599365 .4116516 .20599365 .3996582 .21499634 .3996582 .23399353 .3996582H.2999878L.22499085 .0048828127C.20698548-.09207153 .18998719-.18309021 .13798523-.18309021 .13398743-.18309021 .10899353-.18309021 .08999634-.16506958 .13598633-.1620636 .14498902-.12606812 .14498902-.111068729 .14498902-.08807373 .1269989-.07606506 .10798645-.07606506 .08198547-.07606506 .052993776-.09806824 .052993776-.13606262 .052993776-.18109131 .09700012-.20507813 .13798523-.20507813 .19299317-.20507813 .23298645-.14607239 .25099183-.108062747 .2829895-.04508972 .30599977 .07583618 .30699159 .082839969L.36698915 .3996582Z"/>
<path id="font_2_1" d="M.2899933 .4720459C.2979889 .4890442 .29899598 .49705506 .29899598 .5040436 .29899598 .53504946 .2709961 .5590515 .23999024 .5590515 .20199585 .5590515 .18998719 .52804568 .18499756 .51205447L.052993776 .07901001C.051986696 .07701111 .04798889 .06401062 .04798889 .06300354 .04798889 .05101013 .07899475 .041015626 .08699036 .041015626 .09399414 .041015626 .09498596 .043014528 .101989749 .058013917L.2899933 .4720459Z"/>
<path id="font_3_1" d="M.33099366-.2400055C.33099366-.23701477 .33099366-.23500061 .31399537-.21800232 .18899536-.0920105 .15699768 .09700012 .15699768 .25 .15699768 .42399598 .19499207 .59799197 .31799317 .72299197 .33099366 .73498538 .33099366 .7369995 .33099366 .73999026 .33099366 .746994 .32699586 .75 .32099916 .75 .31098939 .75 .22099304 .6819916 .1619873 .5549927 .11099243 .44499208 .09899902 .33399964 .09899902 .25 .09899902 .17199707 .10998535 .050994874 .16499329-.06201172 .22499085-.18501282 .31098939-.25 .32099916-.25 .32699586-.25 .33099366-.24700928 .33099366-.2400055Z"/>
<path id="font_3_2" d="M.2889862 .25C.2889862 .32798768 .27799989 .44898988 .22299195 .56199648 .16299439 .68499758 .07699585 .75 .066986087 .75 .06098938 .75 .056991579 .74598696 .056991579 .73999026 .056991579 .7369995 .056991579 .73498538 .07598877 .71699526 .17399597 .6179962 .23098755 .45899964 .23098755 .25 .23098755 .07899475 .19400025-.09700012 .069992069-.2230072 .056991579-.23500061 .056991579-.23701477 .056991579-.2400055 .056991579-.2460022 .06098938-.25 .066986087-.25 .07699585-.25 .16699219-.18200684 .22599793-.055007936 .2769928 .054992677 .2889862 .16600037 .2889862 .25Z"/>
<path id="font_3_4" d="M.2939911 .64004519C.2939911 .66400149 .2939911 .6660156 .2709961 .6660156 .20899964 .60227969 .12098694 .60227969 .08898926 .60227969V.57128909C.10899353 .57128909 .16799927 .57128909 .21998596 .5972748V.07902527C.21998596 .042999269 .21699524 .0309906 .1269989 .0309906H.09498596V0C.12998963 .0029907227 .21699524 .0029907227 .25698854 .0029907227 .29699708 .0029907227 .38398744 .0029907227 .4189911 0V.0309906H.3869934C.29699708 .0309906 .2939911 .041992189 .2939911 .07902527V.64004519Z"/>
<path id="font_1_1" d="M.19198609 .052993776C.19198609 .08198547 .16799927 .10598755 .13899231 .10598755 .10998535 .10598755 .085998538 .08198547 .085998538 .052993776 .085998538 .023986817 .10998535 0 .13899231 0 .16799927 0 .19198609 .023986817 .19198609 .052993776Z"/>
<path id="font_3_8" d="M.44898988 .20022583C.44898988 .3193512 .36698915 .41944886 .25898744 .41944886 .21099854 .41944886 .16799927 .40345765 .13198853 .36842347V.5637665C.1519928 .5577698 .18499756 .55078127 .21699524 .55078127 .33999635 .55078127 .4099884 .6417694 .4099884 .6547699 .4099884 .6607666 .40699769 .6657715 .3999939 .6657715 .39898683 .6657715 .39698792 .6657715 .3919983 .66278079 .37199403 .6537781 .32299806 .6337738 .2559967 .6337738 .21598816 .6337738 .16999817 .6407776 .12298584 .6617737 .114990238 .66477969 .11299133 .66477969 .11099243 .66477969 .100997928 .66477969 .100997928 .6567688 .100997928 .6407776V.34439088C.100997928 .32637025 .100997928 .31835938 .114990238 .31835938 .12199402 .31835938 .12399292 .32136537 .12799073 .32736207 .13899231 .3433838 .17599488 .39746095 .25698854 .39746095 .30899049 .39746095 .33399964 .35139466 .34199525 .33337403 .35798646 .29632569 .3600006 .25727845 .3600006 .20722962 .3600006 .17222595 .3600006 .11222839 .33599855 .07035828 .31199647 .031463624 .2749939 .0055389406 .22898865 .0055389406 .1559906 .0055389406 .09899902 .058380128 .08198547 .11723328 .084991458 .1162262 .08799744 .115234378 .09899902 .115234378 .13198853 .115234378 .14898682 .14022827 .14898682 .16423035 .14898682 .18823242 .13198853 .21322632 .09899902 .21322632 .084991458 .21322632 .049987794 .20622254 .049987794 .16023255 .049987794 .07434082 .11898804-.022460938 .23098755-.022460938 .34700013-.022460938 .44898988 .073349 .44898988 .20022583Z"/>
<path id="font_1_2" d="M.20298767 .0009918213C.20298767 .066986087 .17799378 .10598755 .13899231 .10598755 .10598755 .10598755 .085998538 .08099365 .085998538 .052993776 .085998538 .025985718 .10598755 0 .13899231 0 .15098572 0 .1639862 .0039978029 .17399597 .0129852299 .1769867 .01499939 .17799378 .015991211 .1789856 .015991211 .17999268 .015991211 .18099976 .01499939 .18099976 .0009918213 .18099976-.07316589 .1459961-.13328552 .11299133-.16635132 .101989749-.17736817 .101989749-.17936707 .101989749-.18237305 .101989749-.18936157 .10699463-.19335938 .11199951-.19335938 .12298584-.19335938 .20298767-.116256717 .20298767 .0009918213Z"/>
<path id="font_3_3" d="M.45999146 .31976319C.45999146 .39982606 .45498658 .47988893 .41999818 .5539398 .37399293 .65000918 .2919922 .6660156 .25 .6660156 .18998719 .6660156 .116989139 .64001467 .07598877 .54693606 .04399109 .47789 .038986207 .39982606 .038986207 .31976319 .038986207 .24472046 .042999269 .15464783 .083999637 .07859802 .1269989-.0024719239 .19999695-.022460938 .24899292-.022460938 .30299378-.022460938 .3789978-.0014648438 .4229889 .09359741 .45498658 .16265869 .45999146 .2407074 .45999146 .31976319M.24899292-.00047302247C.20999146-.00047302247 .15098572 .024551392 .1329956 .12062073 .12199402 .18066406 .12199402 .2727356 .12199402 .3317871 .12199402 .39582826 .12199402 .46188355 .12998963 .5159149 .14898682 .63500979 .22399903 .64401248 .24899292 .64401248 .28199769 .64401248 .34799195 .6259918 .36698915 .52693179 .3769989 .47088624 .3769989 .39482118 .3769989 .3317871 .3769989 .25672914 .3769989 .18867493 .3659973 .12461853 .35099793 .029556275 .2939911-.00047302247 .24899292-.00047302247Z"/>
<path id="font_4_1" d="M.41299439-1.1491852C.41299439-1.1451874 .41099549-1.1431885 .40899659-1.1401825 .36299134-1.0911713 .29499818-1.0101624 .25299073-.84713748 .22999573-.7561188 .22099304-.65309146 .22099304-.56007388 .22099304-.2970276 .28399659-.11299133 .4039917 .017044068 .41299439 .026031495 .41299439 .028030396 .41299439 .030029297 .41299439 .040039064 .40499879 .040039064 .40098573 .040039064 .38598634 .040039064 .33198548-.019973755 .31900025-.034973146 .21699524-.1559906 .1519928-.33602906 .1519928-.5590668 .1519928-.7010956 .1769867-.9021454 .30799867-1.071167 .31799317-1.0831757 .3829956-1.1591797 .40098573-1.1591797 .40499879-1.1591797 .41299439-1.1591797 .41299439-1.1491852Z"/>
<path id="font_5_1" d="M.6589966 .23046875C.6759949 .23046875 .69400027 .23046875 .69400027 .25045777 .69400027 .27046205 .6759949 .27046205 .6589966 .27046205H.117996219C.100997928 .27046205 .08299255 .27046205 .08299255 .25045777 .08299255 .23046875 .100997928 .23046875 .117996219 .23046875H.6589966Z"/>
<path id="font_6_2" d="M.5349884 .6045227C.54499819 .6165161 .54499819 .6185303 .54499819 .64453127H.2829895C.24299622 .64453127 .23199463 .6455078 .19599915 .6484375 .14399719 .65234377 .14199829 .6592407 .13899231 .676239H.10499573L.069992069 .46250917H.10398865C.10598755 .47750855 .115997318 .54351809 .13198853 .5535126 .13999939 .55952456 .22099304 .55952456 .23599243 .55952456H.45399476C.42199708 .5175171 .37098695 .45550538 .34999085 .4275055 .21899414 .25549317 .20698548 .096466068 .20698548 .037460329 .20698548 .02645874 .20698548-.01953125 .2539978-.01953125 .3019867-.01953125 .3019867 .025466919 .3019867 .038467409V.07847595C.3019867 .27249146 .34199525 .36149598 .3849945 .41551209L.5349884 .6045227Z"/>
<path id="font_6_1" d="M.1499939 .3274536C.1499939 .40945436 .15699768 .48303224 .19499207 .543869 .22898865 .5978699 .2829895 .63505557 .34700013 .63505557 .3769989 .63505557 .4169922 .62701418 .43699647 .5998688 .4119873 .5978699 .3909912 .5808716 .3909912 .5518799 .3909912 .5268707 .4079895 .5048828 .43798829 .5048828 .46798707 .5048828 .48599244 .5248718 .48599244 .5538788 .48599244 .6119385 .44400025 .6640625 .34498597 .6640625 .20098877 .6640625 .053985597 .5318756 .053985597 .3174591 .053985597 .05845642 .17599488-.01953125 .28599549-.01953125 .4079895-.01953125 .5139923 .07345581 .5139923 .20445252 .5139923 .33145143 .41299439 .42546083 .29599 .42546083 .21598816 .42546083 .17199707 .37245179 .1499939 .3274536M.28599549 .012466431C.23599243 .012466431 .19699097 .04145813 .17599488 .08546448 .16099549 .11546326 .15299988 .16545105 .15299988 .22544861 .15299988 .32244874 .21099854 .39746095 .29100038 .39746095 .33699037 .39746095 .36799623 .37945558 .3929901 .342453 .4169922 .30445863 .41799928 .26245118 .41799928 .20445252 .41799928 .14746094 .41799928 .10545349 .3909912 .066467288 .36698915 .031463624 .33499146 .012466431 .28599549 .012466431Z"/>
<path id="font_3_7" d="M.2939911 .16503906V.07800293C.2939911 .041992189 .2919922 .0309906 .21798706 .0309906H.19699097V0C.23799134 .0029907227 .2899933 .0029907227 .33198548 .0029907227 .37399293 .0029907227 .4269867 .0029907227 .46798707 0V.0309906H.44699098C.37298585 .0309906 .37098695 .041992189 .37098695 .07800293V.16503906H.47099305V.19602967H.37098695V.65075686C.37098695 .67074587 .37098695 .6767578 .35499574 .6767578 .34599305 .6767578 .34298707 .6767578 .33499146 .66474917L.027999878 .19602967V.16503906H.2939911M.2999878 .19602967H.055999757L.2999878 .5688019V.19602967Z"/>
<path id="font_3_9" d="M.47599793 .609375C.4850006 .6213684 .4850006 .62338259 .4850006 .64437869H.24198914C.11999512 .64437869 .117996219 .65737918 .11399841 .67637637H.08898926L.055999757 .4702301H.08099365C.083999637 .48625184 .09298706 .5493469 .10598755 .56137087 .11299133 .5673828 .19099427 .5673828 .20399475 .5673828H.41099549C.3999939 .5513611 .32099916 .4421997 .29899598 .40914918 .20899964 .27394105 .17599488 .1347351 .17599488 .032577516 .17599488 .022567749 .17599488-.022460938 .22200012-.022460938 .2679901-.022460938 .2679901 .022567749 .2679901 .032577516V.08366394C.2679901 .13873291 .2709961 .19381714 .2789917 .24790955 .2829895 .27093507 .29699708 .35707093 .34098817 .41915895L.47599793 .609375Z"/>
<path id="font_4_2" d="M.30499269-.56007388C.30499269-.41804505 .27999879-.2170105 .14898682-.047973634 .13899231-.035964967 .07398987 .040039064 .055999757 .040039064 .050994874 .040039064 .04399109 .038024904 .04399109 .030029297 .04399109 .026031495 .04598999 .023025513 .049987794 .02003479 .09799194-.031967164 .16299439-.11299133 .20399475-.27201844 .22698975-.3630371 .23599243-.4660492 .23599243-.5590668 .23599243-.6600952 .22698975-.7621155 .20098877-.86013796 .16299439-1.0001679 .10398865-1.0801697 .052993776-1.1361847 .04399109-1.1451874 .04399109-1.1471863 .04399109-1.1491852 .04399109-1.1571808 .050994874-1.1591797 .055999757-1.1591797 .070999149-1.1591797 .12599182-1.098175 .13798523-1.0841827 .23999024-.96315 .30499269-.7831116 .30499269-.56007388Z"/>
<path id="font_3_5" d="M.1269989 .07699585 .23298645 .18003845C.3889923 .31811524 .44898988 .3721466 .44898988 .47216798 .44898988 .5860901 .35899354 .6660156 .23699951 .6660156 .12399292 .6660156 .049987794 .57411196 .049987794 .48516847 .049987794 .4291687 .099990848 .4291687 .102996829 .4291687 .11999512 .4291687 .15499878 .44117738 .15499878 .48217774 .15499878 .5081787 .13699341 .5341797 .101989749 .5341797 .09399414 .5341797 .09199524 .5341797 .08898926 .5331726 .11199951 .59806826 .1659851 .63500979 .22399903 .63500979 .31498719 .63500979 .35798646 .5541382 .35798646 .47216798 .35798646 .39215089 .30799867 .31311036 .25299073 .25108338L.06098938 .036987306C.049987794 .025985718 .049987794 .023986817 .049987794 0H.42099L.44898988 .17404175H.42399598C.4189911 .14402771 .4119873 .1000061 .4019928 .084991458 .394989 .07699585 .32899476 .07699585 .30699159 .07699585H.1269989Z"/>
<path id="font_3_6" d="M.2899933 .35191346C.37199403 .37893678 .42999269 .4490509 .42999269 .52809146 .42999269 .6100464 .34199525 .6660156 .24598694 .6660156 .14498902 .6660156 .068984989 .60606387 .068984989 .53009036 .068984989 .49710084 .09098816 .47808839 .11999512 .47808839 .15098572 .47808839 .17098999 .50009158 .17098999 .5290985 .17098999 .57910159 .12399292 .57910159 .10899353 .57910159 .13999939 .62802127 .20599365 .64100649 .24198914 .64100649 .2829895 .64100649 .33799745 .6190338 .33799745 .5290985 .33799745 .51708987 .33599855 .45906068 .30999757 .4149933 .27999879 .36691285 .24598694 .36390687 .22099304 .36291505 .21299744 .36190797 .18899536 .35990907 .18199158 .35990907 .17399597 .35890199 .16699219 .35791017 .16699219 .3479004 .16699219 .33691407 .17399597 .33691407 .19099427 .33691407H.23498535C.31698609 .33691407 .35398866 .2686615 .35398866 .17037964 .35398866 .034469606 .2849884 .0055389406 .24099732 .0055389406 .19799805 .0055389406 .12298584 .022491456 .08799744 .08137512 .12298584 .07637024 .1539917 .09837341 .1539917 .1363678 .1539917 .17237854 .1269989 .19238281 .09799194 .19238281 .07398987 .19238281 .041992189 .17837525 .041992189 .1343689 .041992189 .043441774 .1349945-.022460938 .24398804-.022460938 .3659973-.022460938 .45700074 .06838989 .45700074 .17037964 .45700074 .252594 .3939972 .33088685 .2899933 .35191346Z"/>
</defs>
<path transform="matrix(1,0,0,-1.00005,70.059009,70.0327)" stroke-width=".79701" stroke-linecap="butt" stroke-dasharray=".79701,1.99255" stroke-miterlimit="10" stroke-linejoin="miter" fill="none" stroke="#000000" d="M-68.0326-113.38766H68.0326M-68.0326-90.71013H68.0326M-68.0326-68.0326H68.0326M-68.0326-45.35506H68.0326M-68.0326-22.67752H68.0326M-68.0326 0H68.0326M-68.0326 22.67752H68.0326M-68.0326 45.35506H68.0326M-68.0326 68.02461H68.0326M-68.0326-113.38766V68.0326M-45.35506-113.38766V68.0326M-22.67752-113.38766V68.0326M0-113.38766V68.0326M22.67752-113.38766V68.0326M45.35506-113.38766V68.0326M68.02461-113.38766V68.0326M68.0326 68.0326"/>
<path transform="matrix(1,0,0,-1.00005,70.059009,70.0327)" stroke-width=".29887" stroke-linecap="butt" stroke-miterlimit="10" stroke-linejoin="miter" fill="none" stroke="#333333" d="M0 0H64.71503"/>
<path transform="matrix(1,0,0,-1.00005,134.77404,70.0327)" d="M3.31755 0C2.33455 .1843 .73723 .73723-.3686 1.38231V-1.38231C.73723-.73723 2.33455-.1843 3.31755 0" fill="#333333"/>
<use data-text="x" xlink:href="#font_1_4" transform="matrix(9.9626,0,0,-9.963098,123.906009,77.79309)" fill="#333333"/>
<path transform="matrix(1,0,0,-1.00005,70.059009,70.0327)" stroke-width=".29887" stroke-linecap="butt" stroke-miterlimit="10" stroke-linejoin="miter" fill="none" stroke="#333333" d="M0 0H-64.71503"/>
<path transform="matrix(-1,-0,0,1.00005,5.343979,70.0327)" d="M3.31755 0C2.33455 .1843 .73723 .73723-.3686 1.38231V-1.38231C.73723-.73723 2.33455-.1843 3.31755 0" fill="#333333"/>
<path transform="matrix(1,0,0,-1.00005,70.059009,70.0327)" stroke-width=".29887" stroke-linecap="butt" stroke-miterlimit="10" stroke-linejoin="miter" fill="none" stroke="#333333" d="M0 0V64.71503"/>
<path transform="matrix(0,-1.00005,-1,-0,70.059009,5.314438)" d="M3.31755 0C2.33455 .1843 .73723 .73723-.3686 1.38231V-1.38231C.73723-.73723 2.33455-.1843 3.31755 0" fill="#333333"/>
<use data-text="y" xlink:href="#font_1_5" transform="matrix(9.9626,0,0,-9.963098,73.52901,14.511925)" fill="#333333"/>
<path transform="matrix(1,0,0,-1.00005,70.059009,70.0327)" stroke-width=".29887" stroke-linecap="butt" stroke-miterlimit="10" stroke-linejoin="miter" fill="none" stroke="#333333" d="M0 0V-110.0701"/>
<path transform="matrix(0,1.00005,1,0,70.059009,180.1083)" d="M3.31755 0C2.33455 .1843 .73723 .73723-.3686 1.38231V-1.38231C.73723-.73723 2.33455-.1843 3.31755 0" fill="#333333"/>
<path transform="matrix(1,0,0,-1.00005,70.059009,70.0327)" stroke-width="1.99255" stroke-linecap="butt" stroke-miterlimit="10" stroke-linejoin="miter" fill="none" stroke="#0074c8" d="M-62.3632 51.2016C-62.3632 51.2016-58.60857 15.63661-57.16649 3.82086-55.72443-7.99486-53.41185-24.69313-51.96979-33.95815-50.52773-43.22318-48.21515-56.01344-46.77309-62.95491-45.33101-69.89638-43.01845-79.14238-41.57639-83.98741-40.13432-88.83246-37.82175-94.89883-36.37968-97.87471-34.9376-100.85059-32.62503-104.10161-31.18297-105.4355-29.74092-106.76938-27.42834-107.56943-25.98627-107.4885-24.5442-107.40756-22.23163-106.12068-20.78957-104.8521-19.34749-103.5835-17.03491-100.57446-15.59286-98.3453-14.1508-96.11615-11.83823-91.7483-10.39615-88.78584-8.9541-85.82335-6.64151-80.46223-5.19945-76.99376-3.75737-73.52528-1.44481-67.53496-.00275-63.78746 1.43927-60.03995 3.75186-53.78348 5.19391-49.98425 6.63596-46.18503 8.94855-40.02898 10.39063-36.40527 11.83269-32.7816 14.14526-27.08842 15.58733-23.86717 17.02939-20.6459 19.34195-15.78008 20.78403-13.18861 22.22609-10.59718 24.53867-6.92426 25.98073-5.18976 27.42279-3.45528 29.73538-1.3379 31.17744-.68755 32.6195-.03719 34.93207 .15857 36.37415-.50241 37.81621-1.16344 40.12877-3.25218 41.57083-5.45169 43.01291-7.65123 45.32549-12.38995 46.76756-16.35516 48.20961-20.32037 50.52219-28.07225 51.96426-34.03012 53.40633-39.98798 55.71889-51.11714 57.16095-59.29527 58.60303-67.47342 62.35767-92.97247 62.35767-92.97247"/>
<use data-text="f" xlink:href="#font_1_3" transform="matrix(9.9626,0,0,-9.963098,13.610001,40.546228)" fill="#0074c8"/>
<use data-text="&#x2032;" xlink:href="#font_2_1" transform="matrix(6.9738,0,0,-6.9741489,19.559998,36.43302)" fill="#0074c8"/>
<use data-text="(" xlink:href="#font_3_1" transform="matrix(9.9626,0,0,-9.963098,22.354996,40.546228)" fill="#0074c8"/>
<use data-text="x" xlink:href="#font_1_4" transform="matrix(9.9626,0,0,-9.963098,26.229996,40.546228)" fill="#0074c8"/>
<use data-text=")" xlink:href="#font_3_2" transform="matrix(9.9626,0,0,-9.963098,31.923996,40.546228)" fill="#0074c8"/>
<path transform="matrix(1,0,0,-1.00005,70.059009,70.0327)" d="M36.40735 0C36.40735 1.32056 35.33684 2.39107 34.01628 2.39107 32.69571 2.39107 31.6252 1.32056 31.6252 0 31.6252-1.32056 32.69571-2.39107 34.01628-2.39107 35.33684-2.39107 36.40735-1.32056 36.40735 0ZM34.01628 0"/>
<use data-text="(" xlink:href="#font_3_1" transform="matrix(9.9626,0,0,-9.963098,89.131008,62.68833)"/>
<use data-text="1" xlink:href="#font_3_4" transform="matrix(9.9626,0,0,-9.963098,92.9965,62.68833)"/>
<use data-text="." xlink:href="#font_1_1" transform="matrix(9.9626,0,0,-9.963098,97.98701,62.68833)"/>
<use data-text="5" xlink:href="#font_3_8" transform="matrix(9.9626,0,0,-9.963098,100.754009,62.68833)"/>
<use data-text="," xlink:href="#font_1_2" transform="matrix(9.9626,0,0,-9.963098,105.736,62.68833)"/>
<use data-text="0" xlink:href="#font_3_3" transform="matrix(9.9626,0,0,-9.963098,110.163997,62.68833)"/>
<use data-text=")" xlink:href="#font_3_2" transform="matrix(9.9626,0,0,-9.963098,115.14529,62.68833)"/>
<path transform="matrix(1,0,0,-1.00005,70.059009,70.0327)" d="M-23.91492-107.71828C-23.91492-106.3977-24.98543-105.32721-26.306-105.32721-27.62656-105.32721-28.69707-106.3977-28.69707-107.71828-28.69707-109.03885-27.62656-110.10934-26.306-110.10934-24.98543-110.10934-23.91492-109.03885-23.91492-107.71828ZM-26.306-107.71828"/>
<use data-text="(" xlink:href="#font_4_1" transform="matrix(9.9626,0,0,-9.963098,17.186997,183.00835)"/>
<use data-text="&#x2212;" xlink:href="#font_5_1" transform="matrix(9.9626,0,0,-9.963098,21.753998,191.07875)"/>
<use data-text="7" xlink:href="#font_6_2" transform="matrix(6.9738,0,0,-6.9741489,30.697999,187.15656)"/>
<path transform="matrix(1,0,0,-1.00005,-138.87201,137.03705)" stroke-width=".3985" stroke-linecap="butt" stroke-miterlimit="10" stroke-linejoin="miter" fill="none" stroke="#000000" d="M169.57-51.549H173.541"/>
<use data-text="6" xlink:href="#font_6_1" transform="matrix(6.9738,0,0,-6.9741489,30.697999,194.51493)"/>
<use data-text="," xlink:href="#font_1_2" transform="matrix(9.9626,0,0,-9.963098,35.86499,191.07875)"/>
<use data-text="&#x2212;" xlink:href="#font_5_1" transform="matrix(9.9626,0,0,-9.963098,40.291994,191.07875)"/>
<use data-text="4" xlink:href="#font_3_7" transform="matrix(9.9626,0,0,-9.963098,48.040987,191.07875)"/>
<use data-text="." xlink:href="#font_1_1" transform="matrix(9.9626,0,0,-9.963098,53.021989,191.07875)"/>
<use data-text="7" xlink:href="#font_3_9" transform="matrix(9.9626,0,0,-9.963098,55.789995,191.07875)"/>
<use data-text="5" xlink:href="#font_3_8" transform="matrix(9.9626,0,0,-9.963098,60.771287,191.07875)"/>
<use data-text=")" xlink:href="#font_4_2" transform="matrix(9.9626,0,0,-9.963098,65.75299,183.00835)"/>
<path transform="matrix(1,0,0,-1.00005,70.059009,70.0327)" d="M-54.30273 0C-54.30273 1.32056-55.37325 2.39107-56.69382 2.39107-58.01437 2.39107-59.08488 1.32056-59.08488 0-59.08488-1.32056-58.01437-2.39107-56.69382-2.39107-55.37325-2.39107-54.30273-1.32056-54.30273 0ZM-56.69382 0"/>
<use data-text="(" xlink:href="#font_3_1" transform="matrix(9.9626,0,0,-9.963098,.21600342,62.68833)"/>
<use data-text="&#x2212;" xlink:href="#font_5_1" transform="matrix(9.9626,0,0,-9.963098,4.0910036,62.68833)"/>
<use data-text="2" xlink:href="#font_3_5" transform="matrix(9.9626,0,0,-9.963098,11.8390049,62.68833)"/>
<use data-text="." xlink:href="#font_1_1" transform="matrix(9.9626,0,0,-9.963098,16.821,62.68833)"/>
<use data-text="5" xlink:href="#font_3_8" transform="matrix(9.9626,0,0,-9.963098,19.587998,62.68833)"/>
<use data-text="," xlink:href="#font_1_2" transform="matrix(9.9626,0,0,-9.963098,24.569,62.68833)"/>
<use data-text="0" xlink:href="#font_3_3" transform="matrix(9.9626,0,0,-9.963098,28.996994,62.68833)"/>
<use data-text=")" xlink:href="#font_3_2" transform="matrix(9.9626,0,0,-9.963098,33.978288,62.68833)"/>
<path transform="matrix(1,0,0,-1.00005,70.059009,70.0327)" d="M2.39107-63.78055C2.39107-62.45998 1.32056-61.38947 0-61.38947-1.32056-61.38947-2.39107-62.45998-2.39107-63.78055-2.39107-65.1011-1.32056-66.17162 0-66.17162 1.32056-66.17162 2.39107-65.1011 2.39107-63.78055ZM0-63.78055"/>
<use data-text="(" xlink:href="#font_3_1" transform="matrix(9.9626,0,0,-9.963098,73.77801,136.02399)"/>
<use data-text="0" xlink:href="#font_3_3" transform="matrix(9.9626,0,0,-9.963098,77.6435,136.02399)"/>
<use data-text="," xlink:href="#font_1_2" transform="matrix(9.9626,0,0,-9.963098,82.63401,136.02399)"/>
<use data-text="&#x2212;" xlink:href="#font_5_1" transform="matrix(9.9626,0,0,-9.963098,87.062007,136.02399)"/>
<use data-text="2" xlink:href="#font_3_5" transform="matrix(9.9626,0,0,-9.963098,94.811,136.02399)"/>
<use data-text="." xlink:href="#font_1_1" transform="matrix(9.9626,0,0,-9.963098,99.792,136.02399)"/>
<use data-text="7" xlink:href="#font_3_9" transform="matrix(9.9626,0,0,-9.963098,102.559,136.02399)"/>
<use data-text="5" xlink:href="#font_3_8" transform="matrix(9.9626,0,0,-9.963098,107.54029,136.02399)"/>
<use data-text=")" xlink:href="#font_3_2" transform="matrix(9.9626,0,0,-9.963098,112.52158,136.02399)"/>
<path transform="matrix(1,0,0,-1.00005,70.059009,70.0327)" stroke-width=".79701" stroke-linecap="butt" stroke-miterlimit="10" stroke-linejoin="miter" fill="none" stroke="#000000" d="M-45.35506 2.39107V-2.39107"/>
<use data-text="&#x2212;" xlink:href="#font_5_1" transform="matrix(9.9626,0,0,-9.963098,18.339005,82.56432)"/>
<use data-text="2" xlink:href="#font_3_5" transform="matrix(9.9626,0,0,-9.963098,26.087998,82.56432)"/>
<path transform="matrix(1,0,0,-1.00005,70.059009,70.0327)" stroke-width=".79701" stroke-linecap="butt" stroke-miterlimit="10" stroke-linejoin="miter" fill="none" stroke="#000000" d="M-22.67752 2.39107V-2.39107"/>
<use data-text="&#x2212;" xlink:href="#font_5_1" transform="matrix(9.9626,0,0,-9.963098,41.016008,82.56432)"/>
<use data-text="1" xlink:href="#font_3_4" transform="matrix(9.9626,0,0,-9.963098,48.765,82.56432)"/>
<path transform="matrix(1,0,0,-1.00005,70.059009,70.0327)" stroke-width=".79701" stroke-linecap="butt" stroke-miterlimit="10" stroke-linejoin="miter" fill="none" stroke="#000000" d="M22.67752 2.39107V-2.39107"/>
<use data-text="1" xlink:href="#font_3_4" transform="matrix(9.9626,0,0,-9.963098,90.246,82.56432)"/>
<path transform="matrix(1,0,0,-1.00005,70.059009,70.0327)" stroke-width=".79701" stroke-linecap="butt" stroke-miterlimit="10" stroke-linejoin="miter" fill="none" stroke="#000000" d="M45.35506 2.39107V-2.39107"/>
<use data-text="2" xlink:href="#font_3_5" transform="matrix(9.9626,0,0,-9.963098,112.923007,82.56432)"/>
<path transform="matrix(1,0,0,-1.00005,70.059009,70.0327)" stroke-width=".79701" stroke-linecap="butt" stroke-miterlimit="10" stroke-linejoin="miter" fill="none" stroke="#000000" d="M-1.59404-90.71013H1.59404"/>
<use data-text="&#x2212;" xlink:href="#font_5_1" transform="matrix(9.9626,0,0,-9.963098,55.20401,163.54236)"/>
<use data-text="4" xlink:href="#font_3_7" transform="matrix(9.9626,0,0,-9.963098,62.953004,163.54236)"/>
<path transform="matrix(1,0,0,-1.00005,70.059009,70.0327)" stroke-width=".79701" stroke-linecap="butt" stroke-miterlimit="10" stroke-linejoin="miter" fill="none" stroke="#000000" d="M-1.59404-68.0326H1.59404"/>
<use data-text="&#x2212;" xlink:href="#font_5_1" transform="matrix(9.9626,0,0,-9.963098,55.20401,140.86425)"/>
<use data-text="3" xlink:href="#font_3_6" transform="matrix(9.9626,0,0,-9.963098,62.953004,140.86425)"/>
<path transform="matrix(1,0,0,-1.00005,70.059009,70.0327)" stroke-width=".79701" stroke-linecap="butt" stroke-miterlimit="10" stroke-linejoin="miter" fill="none" stroke="#000000" d="M-1.59404-45.35506H1.59404"/>
<use data-text="&#x2212;" xlink:href="#font_5_1" transform="matrix(9.9626,0,0,-9.963098,55.20401,118.185108)"/>
<use data-text="2" xlink:href="#font_3_5" transform="matrix(9.9626,0,0,-9.963098,62.953004,118.185108)"/>
<path transform="matrix(1,0,0,-1.00005,70.059009,70.0327)" stroke-width=".79701" stroke-linecap="butt" stroke-miterlimit="10" stroke-linejoin="miter" fill="none" stroke="#000000" d="M-1.59404-22.67752H1.59404"/>
<use data-text="&#x2212;" xlink:href="#font_5_1" transform="matrix(9.9626,0,0,-9.963098,55.20401,95.50697)"/>
<use data-text="1" xlink:href="#font_3_4" transform="matrix(9.9626,0,0,-9.963098,62.953004,95.50697)"/>
<path transform="matrix(1,0,0,-1.00005,70.059009,70.0327)" stroke-width=".79701" stroke-linecap="butt" stroke-miterlimit="10" stroke-linejoin="miter" fill="none" stroke="#000000" d="M-1.59404 22.67752H1.59404"/>
<use data-text="1" xlink:href="#font_3_4" transform="matrix(9.9626,0,0,-9.963098,62.953004,50.564729)"/>
<path transform="matrix(1,0,0,-1.00005,70.059009,70.0327)" stroke-width=".79701" stroke-linecap="butt" stroke-miterlimit="10" stroke-linejoin="miter" fill="none" stroke="#000000" d="M-1.59404 45.35506H1.59404"/>
<use data-text="2" xlink:href="#font_3_5" transform="matrix(9.9626,0,0,-9.963098,62.953004,27.885594)"/>
</svg>
