<svg xmlns="http://www.w3.org/2000/svg" xmlns:xlink="http://www.w3.org/1999/xlink" xmlns:inkscape="http://www.inkscape.org/namespaces/inkscape" version="1.1" width="160" height="144" viewBox="0 0 160 144">
<defs>
<path id="font_1_3" d="M.33399964 .30233766C.33999635 .32835389 .36299134 .42037965 .43299867 .42037965 .43798829 .42037965 .46199037 .42037965 .48298646 .40734864 .45498658 .402359 .43499757 .37734986 .43499757 .35334779 .43499757 .33735658 .44599916 .31835938 .47299195 .31835938 .49499513 .31835938 .5269928 .3363495 .5269928 .37635804 .5269928 .42837525 .46798707 .4423828 .43399049 .4423828 .37599183 .4423828 .34098817 .38935853 .32899476 .36634828 .3039856 .43237306 .25 .4423828 .22099304 .4423828 .116989139 .4423828 .05999756 .3133545 .05999756 .28834535 .05999756 .27833558 .069992069 .27833558 .07199097 .27833558 .07998657 .27833558 .08299255 .28033448 .084991458 .28933717 .11898804 .39535523 .18499756 .42037965 .21899414 .42037965 .23799134 .42037965 .272995 .4113617 .272995 .35334779 .272995 .32235719 .2559967 .25532533 .21899414 .11528015 .20298767 .053268434 .16799927 .011245728 .12399292 .011245728 .117996219 .011245728 .09498596 .011245728 .07398987 .024276734 .09899902 .029266358 .12098694 .05027771 .12098694 .07827759 .12098694 .105270389 .09899902 .11328125 .083999637 .11328125 .053985597 .11328125 .0289917 .08728027 .0289917 .055267335 .0289917 .009246826 .07899475-.0107421879 .12298584-.0107421879 .18899536-.0107421879 .22499085 .059280397 .22799683 .0652771 .23999024 .028274537 .27598573-.0107421879 .33599855-.0107421879 .43899537-.0107421879 .49598695 .118270877 .49598695 .14328003 .49598695 .1532898 .4869995 .1532898 .48399354 .1532898 .47499085 .1532898 .47299195 .14929199 .47099305 .14228821 .43798829 .03527832 .36999513 .011245728 .33799745 .011245728 .29899598 .011245728 .2829895 .043273927 .2829895 .07727051 .2829895 .09927368 .2889862 .121276859 .2999878 .16529846L.33399964 .30233766Z"/>
<path id="font_1_4" d="M.48599244 .38136292C.48999024 .39537049 .48999024 .39736939 .48999024 .40437318 .48999024 .42237855 .47599793 .43138124 .46099855 .43138124 .45098878 .43138124 .43499757 .42536927 .42599488 .41036988 .42399598 .405365 .41600038 .37435914 .4119873 .35635377 .40499879 .33035279 .397995 .30334474 .3919983 .27633668L.34700013 .09628296C.34298707 .08126831 .2999878 .011245728 .23399353 .011245728 .18299866 .011245728 .17199707 .055267335 .17199707 .0922699 .17199707 .1382904 .18899536 .20030213 .22299195 .28833009 .23899842 .3293457 .24299622 .3403473 .24299622 .36035157 .24299622 .405365 .21099854 .4423828 .16099549 .4423828 .06599426 .4423828 .0289917 .29733277 .0289917 .28833009 .0289917 .27833558 .038986207 .27833558 .040985109 .27833558 .050994874 .27833558 .051986696 .28033448 .056991579 .29634095 .083999637 .3903656 .12399292 .42037965 .1579895 .42037965 .1659851 .42037965 .18299866 .42037965 .18299866 .3883667 .18299866 .36335755 .17298889 .3373413 .1659851 .31834413 .12599182 .21231079 .10798645 .1552887 .10798645 .10827637 .10798645 .019256592 .17098999-.0107421879 .22999573-.0107421879 .2689972-.0107421879 .30299378 .0062561037 .33099366 .03425598 .31799317-.017745972 .30599977-.06674194 .2659912-.11973572 .23999024-.15385437 .20199585-.18309021 .1559906-.18309021 .14199829-.18309021 .09700012-.18005371 .07998657-.14074707 .09599304-.14074707 .10899353-.14074707 .12298584-.1287384 .1329956-.11973572 .14299011-.10673523 .14299011-.08773804 .14299011-.056747438 .115997318-.052734376 .10598755-.052734376 .08299255-.052734376 .049987794-.068740848 .049987794-.11773682 .049987794-.16796875 .09399414-.20507813 .1559906-.20507813 .25898744-.20507813 .3619995-.11373901 .3899994-.00074768069L.48599244 .38136292Z"/>
<path id="font_2_3" d="M.2939911 .64004519C.2939911 .66400149 .2939911 .6660156 .2709961 .6660156 .20899964 .60227969 .12098694 .60227969 .08898926 .60227969V.57128909C.10899353 .57128909 .16799927 .57128909 .21998596 .5972748V.07902527C.21998596 .042999269 .21699524 .0309906 .1269989 .0309906H.09498596V0C.12998963 .0029907227 .21699524 .0029907227 .25698854 .0029907227 .29699708 .0029907227 .38398744 .0029907227 .4189911 0V.0309906H.3869934C.29699708 .0309906 .2939911 .041992189 .2939911 .07902527V.64004519Z"/>
<path id="font_2_4" d="M.68699648 .32714845C.70199587 .32714845 .72099307 .32714845 .72099307 .34713746 .72099307 .36714173 .70199587 .36714173 .6879883 .36714173H.08898926C.07499695 .36714173 .055999757 .36714173 .055999757 .34713746 .055999757 .32714845 .07499695 .32714845 .08999634 .32714845H.68699648M.6879883 .13284302C.70199587 .13284302 .72099307 .13284302 .72099307 .15284729 .72099307 .17285156 .70199587 .17285156 .68699648 .17285156H.08999634C.07499695 .17285156 .055999757 .17285156 .055999757 .15284729 .055999757 .13284302 .07499695 .13284302 .08898926 .13284302H.6879883Z"/>
<path id="font_1_1" d="M.34999085 .056259157C.36099244 .015258789 .3959961-.0107421879 .43899537-.0107421879 .47399903-.0107421879 .49699403 .012252808 .5130005 .044265748 .5299988 .08027649 .54299929 .14129639 .54299929 .14329529 .54299929 .1532898 .5339966 .1532898 .5309906 .1532898 .5209961 .1532898 .519989 .14929199 .5169983 .13528443 .5029907 .07926941 .48399354 .011245728 .44198609 .011245728 .42099 .011245728 .41099549 .024261475 .41099549 .057266237 .41099549 .07926941 .4229889 .12628174 .43099977 .16130066L.45899964 .2693329C.46199037 .28433229 .47200013 .32234193 .47599793 .3373413 .48098756 .36035157 .4909973 .3983612 .4909973 .40437318 .4909973 .42237855 .47698976 .43138124 .46199037 .43138124 .45700074 .43138124 .43099977 .43037416 .4229889 .3963623 .4039917 .323349 .3600006 .14828491 .34799195 .09527588 .34700013 .091278079 .30699159 .011245728 .23399353 .011245728 .18199158 .011245728 .17199707 .056259157 .17199707 .09327698 .17199707 .14929199 .19999695 .22831726 .22599793 .29733277 .23799134 .3273468 .24299622 .34135438 .24299622 .36035157 .24299622 .405365 .21099854 .4423828 .16099549 .4423828 .06599426 .4423828 .0289917 .29733277 .0289917 .28833009 .0289917 .27833558 .038986207 .27833558 .040985109 .27833558 .050994874 .27833558 .051986696 .28033448 .056991579 .29634095 .08198547 .38336183 .11999512 .42037965 .1579895 .42037965 .16699219 .42037965 .18299866 .41937257 .18299866 .38735963 .18299866 .36335755 .17199707 .3343506 .1659851 .31933595 .1289978 .2203064 .10798645 .15829468 .10798645 .10928345 .10798645 .014251709 .1769867-.0107421879 .23098755-.0107421879 .29699708-.0107421879 .33299256 .03425598 .34999085 .056259157Z"/>
<path id="font_2_1" d="M.33099366-.2400055C.33099366-.23701477 .33099366-.23500061 .31399537-.21800232 .18899536-.0920105 .15699768 .09700012 .15699768 .25 .15699768 .42399598 .19499207 .59799197 .31799317 .72299197 .33099366 .73498538 .33099366 .7369995 .33099366 .73999026 .33099366 .746994 .32699586 .75 .32099916 .75 .31098939 .75 .22099304 .6819916 .1619873 .5549927 .11099243 .44499208 .09899902 .33399964 .09899902 .25 .09899902 .17199707 .10998535 .050994874 .16499329-.06201172 .22499085-.18501282 .31098939-.25 .32099916-.25 .32699586-.25 .33099366-.24700928 .33099366-.2400055Z"/>
<path id="font_2_2" d="M.2889862 .25C.2889862 .32798768 .27799989 .44898988 .22299195 .56199648 .16299439 .68499758 .07699585 .75 .066986087 .75 .06098938 .75 .056991579 .74598696 .056991579 .73999026 .056991579 .7369995 .056991579 .73498538 .07598877 .71699526 .17399597 .6179962 .23098755 .45899964 .23098755 .25 .23098755 .07899475 .19400025-.09700012 .069992069-.2230072 .056991579-.23500061 .056991579-.23701477 .056991579-.2400055 .056991579-.2460022 .06098938-.25 .066986087-.25 .07699585-.25 .16699219-.18200684 .22599793-.055007936 .2769928 .054992677 .2889862 .16600037 .2889862 .25Z"/>
<path id="font_1_2" d="M.46798707 .37236024C.46798707 .42637635 .44198609 .4423828 .42399598 .4423828 .39898683 .4423828 .375 .41636659 .375 .3943634 .375 .38136292 .37998963 .3753662 .3909912 .36434938 .4119873 .3443451 .4249878 .31834413 .4249878 .28233338 .4249878 .24032593 .3639984 .011245728 .24699402 .011245728 .19599915 .011245728 .17298889 .04626465 .17298889 .09828186 .17298889 .15429688 .19999695 .22731018 .23098755 .31033326 .23799134 .3273468 .24299622 .34135438 .24299622 .36035157 .24299622 .405365 .21099854 .4423828 .16099549 .4423828 .066986087 .4423828 .0289917 .29733277 .0289917 .28833009 .0289917 .27833558 .038986207 .27833558 .040985109 .27833558 .050994874 .27833558 .051986696 .28033448 .056991579 .29634095 .085998538 .39736939 .1289978 .42037965 .1579895 .42037965 .1659851 .42037965 .18299866 .42037965 .18299866 .3883667 .18299866 .36335755 .17298889 .3363495 .1659851 .31834413 .12199402 .20230103 .10899353 .15629578 .10899353 .11328125 .10899353 .0052490236 .19699097-.0107421879 .24299622-.0107421879 .41099549-.0107421879 .46798707 .32034303 .46798707 .37236024Z"/>
</defs>
<path transform="matrix(1.00003,0,0,-1.00006,9.979851,104.8205)" stroke-width=".3985" stroke-linecap="butt" stroke-miterlimit="10" stroke-linejoin="miter" fill="none" stroke="#000000" d="M-6.23622 0H139.85918"/>
<path transform="matrix(1.00003,0,0,-1.00006,149.84323,104.8205)" stroke-width=".31879" stroke-linecap="round" stroke-linejoin="round" fill="none" stroke="#000000" d="M-1.19551 1.59401C-1.09587 .99626 0 .09961 .29886 0 0-.09961-1.09587-.99626-1.19551-1.59401"/>
<use data-text="x" xlink:href="#font_1_3" transform="matrix(9.962899,0,0,-9.963197,153.82117,112.629978)"/>
<path transform="matrix(1.00003,0,0,-1.00006,9.979851,104.8205)" stroke-width=".3985" stroke-linecap="butt" stroke-miterlimit="10" stroke-linejoin="miter" fill="none" stroke="#000000" d="M0-37.41788V99.32294"/>
<path transform="matrix(0,-1.00006,-1.00003,-0,9.979851,5.4916079)" stroke-width=".31879" stroke-linecap="round" stroke-linejoin="round" fill="none" stroke="#000000" d="M-1.19551 1.59401C-1.09587 .99626 0 .09961 .29886 0 0-.09961-1.09587-.99626-1.19551-1.59401"/>
<use data-text="y" xlink:href="#font_1_4" transform="matrix(9.962899,0,0,-9.963197,1.2175903,6.209587)"/>
<use data-text="1" xlink:href="#font_2_3" transform="matrix(9.962899,0,0,-9.963197,38.671716,114.7611)"/>
<path transform="matrix(1.00003,0,0,-1.00006,9.979851,104.8205)" stroke-width=".3985" stroke-linecap="butt" stroke-dasharray="2.98883,2.98883" stroke-miterlimit="10" stroke-linejoin="miter" fill="none" stroke="#000000" d="M31.18166-37.41788V99.78122"/>
<path transform="matrix(1.00003,0,0,-1.00006,9.979851,104.8205)" stroke-width="1.99255" stroke-linecap="butt" stroke-dasharray="2.98883,2.98883" stroke-miterlimit="10" stroke-linejoin="miter" fill="none" stroke="#0074c8" d="M6.23622-.37444 6.6749-.16223 7.11357 .05136 7.55226 .26833 7.99094 .48767 8.42963 .7094 8.86832 .93349 9.30699 1.15996 9.74568 1.3893 10.18434 1.621 10.62305 1.85461 11.0617 2.09108 11.50041 2.32996 11.93907 2.57166 12.37778 2.81573 12.81645 3.06172 13.25513 3.31056 13.69382 3.56178 14.13249 3.81586 14.57118 4.07231 15.00986 4.33066 15.44855 4.59187 15.88724 4.85545 16.3259 5.12143 16.7646 5.39026 17.20326 5.66098 17.64197 5.93504 18.08063 6.21051 18.51933 6.48932 18.958 6.77052 19.39668 7.05362 19.83537 7.33958 20.27405 7.62743 20.71274 7.91862 21.15141 8.21219 21.5901 8.50719 22.02878 8.80598 22.46747 9.10622 22.90616 9.40976 23.34482 9.71523 23.78352 10.02307 24.22218 10.33377 24.66089 10.64684 25.09955 10.9623 25.53825 11.2806 25.97691 11.60031 26.4156 11.92386 26.8543 12.24884 27.29297 12.57664 27.73166 12.90733 28.17033 13.23991 28.60902 13.57535 29.0477 13.91267 29.48637 14.25288 29.92506 14.59592 30.36374 14.94038 30.80244 15.2882 31.2411 15.63838 31.67981 15.99046 32.11847 16.34541 32.55716 16.70274 32.99583 17.06293 33.43452 17.42548 33.87321 17.78995 34.31189 18.15724 34.75058 18.52693 35.18925 18.89948 35.62793 19.27441 36.06662 19.65125 36.5053 20.03093 36.94398 20.413 37.38266 20.79791 37.82137 21.1852 38.26003 21.5744 38.69872 21.96646 39.13739 22.36089 39.57608 22.7577 40.01477 23.15736 40.45345 23.55894 40.89215 23.96336 41.33081 24.37016 41.76949 24.77983 42.20818 25.19138 42.64685 25.60532 43.08554 26.02258 43.52422 26.44131 43.9629 26.86331 44.4016 27.28728 44.84027 27.71356 45.27896 28.14275 45.71764 28.57428 46.15633 29.00821 46.595 29.44499 47.03369 29.88367 47.47237 30.32521 47.91104 30.76866 48.34973 31.21542 48.78842 31.66411 49.2271 32.11516 49.66579 32.56906 50.10446 33.02486 50.54315 33.48401 50.98181 33.94505 51.42052 34.40848 51.85919 34.87476 52.29788 35.34294 52.73656 35.81445 53.17525 36.28786 53.61392 36.76367 54.0526 37.24231 54.49129 37.72287 54.92996 38.20627 55.36865 38.69254 55.80734 39.18024 56.24602 39.67125 56.68471 40.16417 57.12337 40.65994 57.56207 41.15857 58.00073 41.65865 58.43944 42.16203 58.87811 42.66733 59.3168 43.17546 59.75548 43.68648 60.19415 44.1989 60.63284 44.71466 61.07152 45.23233 61.51021 45.75285 61.94888 46.27574 62.38757 46.80101 62.82626 47.32867 63.26492 47.85918 63.70363 48.3916 64.14229 48.92734 64.581 49.46452 65.01965 50.00502 65.45836 50.54742 65.89703 51.0922 66.33571 51.64032 66.7744 52.18988 67.21307 52.74274 67.65176 53.29752 68.09044 53.85468 68.52913 54.41469 68.9678 54.97707 69.40648 55.54185 69.84518 56.10947 70.28384 56.67899 70.72255 57.25136 71.16121 57.82565 71.59991 58.40326 72.03857 58.98279 72.47726 59.56467 72.91595 60.14943 73.35463 60.7361 73.79332 61.32608 74.232 61.91797 74.67068 62.51224 75.10936 63.10934 75.54803 63.70837 75.98672 64.31026 76.4254 64.915 76.8641 65.52162 77.30276 66.13063 77.74147 66.74252 78.18013 67.35677 78.61882 67.9734 79.0575 68.5924 79.49619 69.21428 79.93488 69.83803 80.37355 70.46465 80.81224 71.09366 81.25092 71.72504 81.68959 72.35927 82.12828 72.9954 82.56696 73.63441 83.00565 74.27577 83.44432 74.91951 83.88303 75.56612 84.32169 76.21416 84.76038 76.866 85.19905 77.51974 85.63774 78.17538 86.07642 78.83437 86.5151 79.49522 86.95378 80.15897 87.39247 80.82507 87.83116 81.4931 88.26984 82.16443 88.70851 82.83769 89.1472 83.5138 89.58588 84.19228 90.02457 84.87265 90.46324 85.55638 90.90195 86.24199 91.3406 86.93047 91.7793 87.62132 92.21797 88.31407 92.65666 89.01016 93.09534 89.70769 93.53403 90.40852"/>
<use data-text="y" xlink:href="#font_1_4" transform="matrix(9.962899,0,0,-9.963197,100.28257,41.825727)" fill="#0074c8"/>
<use data-text="=" xlink:href="#font_2_4" transform="matrix(9.962899,0,0,-9.963197,108.29182,41.825727)" fill="#0074c8"/>
<use data-text="u" xlink:href="#font_1_1" transform="matrix(9.962899,0,0,-9.963197,118.80813,41.825727)" fill="#0074c8"/>
<use data-text="(" xlink:href="#font_2_1" transform="matrix(9.962899,0,0,-9.963197,124.5113,41.825727)" fill="#0074c8"/>
<use data-text="x" xlink:href="#font_1_3" transform="matrix(9.962899,0,0,-9.963197,128.38642,41.825727)" fill="#0074c8"/>
<use data-text=")" xlink:href="#font_2_2" transform="matrix(9.962899,0,0,-9.963197,134.0806,41.825727)" fill="#0074c8"/>
<path transform="matrix(1.00003,0,0,-1.00006,9.979851,104.8205)" stroke-width="1.99255" stroke-linecap="butt" stroke-miterlimit="10" stroke-linejoin="miter" fill="none" stroke="#ff0000" d="M6.23622 69.34796 6.6749 69.05774 7.11357 68.7656 7.55226 68.47156 7.99094 68.17514 8.42963 67.87729 8.86832 67.57802 9.30699 67.27637 9.74568 66.97281 10.18434 66.66734 10.62305 66.35999 11.0617 66.05167 11.50041 65.7405 11.93907 65.4279 12.37778 65.11339 12.81645 64.79698 13.25513 64.47917 13.69382 64.15895 14.13249 63.83684 14.57118 63.51282 15.00986 63.18738 15.44855 62.86003 15.88724 62.53079 16.3259 62.19914 16.7646 61.86609 17.20326 61.53114 17.64197 61.19476 18.08063 60.85599 18.51933 60.51578 18.958 60.17322 19.39668 59.82875 19.83537 59.48332 20.27405 59.13551 20.71274 58.78532 21.15141 58.4337 21.5901 58.08067 22.02878 57.72574 22.46747 57.36842 22.90616 57.00919 23.34482 56.64854 23.78352 56.28598 24.22218 55.92154 24.66089 55.55515 25.09955 55.1869 25.53825 54.81673 25.97691 54.44513 26.4156 54.07117 26.8543 53.69528 27.29297 53.31796 27.73166 52.9383 28.17033 52.55766 28.60902 52.17464 29.0477 51.78973 29.48637 51.4029 29.92506 51.01419 30.36374 50.62402 30.80244 50.23149 31.2411 49.83755 31.67981 49.44168 32.11847 49.04391 32.55716 48.64424 32.99583 48.24268 33.43452 47.8392 33.87321 47.43382 34.31189 47.02702 34.75058 46.6183 35.18925 46.20723 35.62793 45.79472 36.06662 45.37982 36.5053 44.9635 36.94398 44.54576 37.38266 44.12563 37.82137 43.7036 38.26003 43.27966 38.69872 42.85382 39.13739 42.42705 39.57608 41.99739 40.01477 41.56631 40.45345 41.13289 40.89215 40.69847 41.33081 40.2617 41.76949 39.82301 42.20818 39.38243 42.64685 38.94041 43.08554 38.4965 43.52422 38.05022 43.9629 37.60248 44.4016 37.15285 44.84027 36.70085 45.27896 36.2479 45.71764 35.79256 46.15633 35.33531 46.595 34.87668 47.03369 34.41562 47.47237 33.95314 47.91104 33.48877 48.34973 33.02249 48.78842 32.55432 49.2271 32.08376 49.66579 31.61223 50.10446 31.13834 50.54315 30.66302 50.98181 30.18532 51.42052 29.70572 51.85919 29.22517 52.29788 28.74223 52.73656 28.25693 53.17525 27.77019 53.61392 27.28156 54.0526 26.79149 54.49129 26.29904 54.92996 25.80516 55.36865 25.3089 55.80734 24.81123 56.24602 24.31163 56.68471 23.81015 57.12337 23.30676 57.56207 22.80147 58.00073 22.29474 58.43944 21.78566 58.87811 21.27464 59.3168 20.76222 59.75548 20.2474 60.19415 19.73164 60.63284 19.21304 61.07152 18.69298 61.51021 18.17104 61.94888 17.64719 62.38757 17.12192 62.82626 16.59473 63.26492 16.06517 63.70363 15.53372 64.14229 15.00084 64.581 14.46649 65.01965 13.92934 65.45836 13.39075 65.89703 12.85022 66.33571 12.30782 66.7744 11.76447 67.21307 11.21825 67.65176 10.67014 68.09044 10.1206 68.52913 9.56915 68.9678 9.01581 69.40648 8.46054 69.84518 7.9034 70.28384 7.34435 70.72255 6.78433 71.16121 6.22148 71.59991 5.6567 72.03857 5.0905 72.47726 4.5224 72.91595 3.95241 73.35463 3.3805 73.79332 2.80669 74.232 2.23097 74.67068 1.65337 75.10936 1.07478 75.54803 .49338 75.98672-.08943 76.4254-.67464 76.8641-1.26132 77.30276-1.8494 77.74147-2.43985 78.18013-3.03223 78.61882-3.62646 79.0575-4.22266 79.49619-4.81978 79.93488-5.41975 80.37355-6.02116 80.81224-6.62495 81.25092-7.23015 81.68959-7.83679 82.12828-8.4458 82.56696-9.05672 83.00565-9.66907 83.44432-10.2838 83.88303-10.89995 84.32169-11.51802 84.76038-12.13797 85.19905-12.75983 85.63774-13.38408 86.07642-14.00926 86.5151-14.63637 86.95378-15.26585 87.39247-15.89723 87.83116-16.52954 88.26984-17.16475 88.70851-17.80135 89.1472-18.43987 89.58588-19.08029 90.02457-19.72261 90.46324-20.36636 90.90195-21.01248 91.3406-21.66054 91.7793-22.31 92.21797-22.96133 92.65666-23.61461 93.09534-24.26978 93.53403-24.92732"/>
<use data-text="y" xlink:href="#font_1_4" transform="matrix(9.962899,0,0,-9.963197,100.54057,91.71972)" fill="#ff0000"/>
<use data-text="=" xlink:href="#font_2_4" transform="matrix(9.962899,0,0,-9.963197,108.54982,91.71972)" fill="#ff0000"/>
<use data-text="v" xlink:href="#font_1_2" transform="matrix(9.962899,0,0,-9.963197,119.06613,91.71972)" fill="#ff0000"/>
<use data-text="(" xlink:href="#font_2_1" transform="matrix(9.962899,0,0,-9.963197,124.25328,91.71972)" fill="#ff0000"/>
<use data-text="x" xlink:href="#font_1_3" transform="matrix(9.962899,0,0,-9.963197,128.12741,91.71972)" fill="#ff0000"/>
<use data-text=")" xlink:href="#font_2_2" transform="matrix(9.962899,0,0,-9.963197,133.82157,91.71972)" fill="#ff0000"/>
<path transform="matrix(1.00003,0,0,-1.00006,9.979851,104.8205)" d="M34.46939 15.5908C34.46939 17.40659 32.99744 18.87854 31.18166 18.87854 29.36586 18.87854 27.89392 17.40659 27.89392 15.5908 27.89392 13.77502 29.36586 12.30307 31.18166 12.30307 32.99744 12.30307 34.46939 13.77502 34.46939 15.5908ZM31.18166 15.5908" fill="#0000ff"/>
<path transform="matrix(1.00003,0,0,-1.00006,9.979851,104.8205)" d="M34.46939 49.89082C34.46939 51.7066 32.99744 53.17854 31.18166 53.17854 29.36586 53.17854 27.89392 51.7066 27.89392 49.89082 27.89392 48.07503 29.36586 46.60309 31.18166 46.60309 32.99744 46.60309 34.46939 48.07503 34.46939 49.89082ZM31.18166 49.89082" fill="#ff0000"/>
</svg>
