<svg xmlns="http://www.w3.org/2000/svg" xmlns:xlink="http://www.w3.org/1999/xlink" xmlns:inkscape="http://www.inkscape.org/namespaces/inkscape" version="1.1" width="231" height="231" viewBox="0 0 231 231">
<defs>
<path id="font_1_1" d="M.33399964 .30233766C.33999635 .32835389 .36299134 .42037965 .43299867 .42037965 .43798829 .42037965 .46199037 .42037965 .48298646 .40734864 .45498658 .402359 .43499757 .37734986 .43499757 .35334779 .43499757 .33735658 .44599916 .31835938 .47299195 .31835938 .49499513 .31835938 .5269928 .3363495 .5269928 .37635804 .5269928 .42837525 .46798707 .4423828 .43399049 .4423828 .37599183 .4423828 .34098817 .38935853 .32899476 .36634828 .3039856 .43237306 .25 .4423828 .22099304 .4423828 .116989139 .4423828 .05999756 .3133545 .05999756 .28834535 .05999756 .27833558 .069992069 .27833558 .07199097 .27833558 .07998657 .27833558 .08299255 .28033448 .084991458 .28933717 .11898804 .39535523 .18499756 .42037965 .21899414 .42037965 .23799134 .42037965 .272995 .4113617 .272995 .35334779 .272995 .32235719 .2559967 .25532533 .21899414 .11528015 .20298767 .053268434 .16799927 .011245728 .12399292 .011245728 .117996219 .011245728 .09498596 .011245728 .07398987 .024276734 .09899902 .029266358 .12098694 .05027771 .12098694 .07827759 .12098694 .105270389 .09899902 .11328125 .083999637 .11328125 .053985597 .11328125 .0289917 .08728027 .0289917 .055267335 .0289917 .009246826 .07899475-.0107421879 .12298584-.0107421879 .18899536-.0107421879 .22499085 .059280397 .22799683 .0652771 .23999024 .028274537 .27598573-.0107421879 .33599855-.0107421879 .43899537-.0107421879 .49598695 .118270877 .49598695 .14328003 .49598695 .1532898 .4869995 .1532898 .48399354 .1532898 .47499085 .1532898 .47299195 .14929199 .47099305 .14228821 .43798829 .03527832 .36999513 .011245728 .33799745 .011245728 .29899598 .011245728 .2829895 .043273927 .2829895 .07727051 .2829895 .09927368 .2889862 .121276859 .2999878 .16529846L.33399964 .30233766Z"/>
<path id="font_1_2" d="M.48599244 .38136292C.48999024 .39537049 .48999024 .39736939 .48999024 .40437318 .48999024 .42237855 .47599793 .43138124 .46099855 .43138124 .45098878 .43138124 .43499757 .42536927 .42599488 .41036988 .42399598 .405365 .41600038 .37435914 .4119873 .35635377 .40499879 .33035279 .397995 .30334474 .3919983 .27633668L.34700013 .09628296C.34298707 .08126831 .2999878 .011245728 .23399353 .011245728 .18299866 .011245728 .17199707 .055267335 .17199707 .0922699 .17199707 .1382904 .18899536 .20030213 .22299195 .28833009 .23899842 .3293457 .24299622 .3403473 .24299622 .36035157 .24299622 .405365 .21099854 .4423828 .16099549 .4423828 .06599426 .4423828 .0289917 .29733277 .0289917 .28833009 .0289917 .27833558 .038986207 .27833558 .040985109 .27833558 .050994874 .27833558 .051986696 .28033448 .056991579 .29634095 .083999637 .3903656 .12399292 .42037965 .1579895 .42037965 .1659851 .42037965 .18299866 .42037965 .18299866 .3883667 .18299866 .36335755 .17298889 .3373413 .1659851 .31834413 .12599182 .21231079 .10798645 .1552887 .10798645 .10827637 .10798645 .019256592 .17098999-.0107421879 .22999573-.0107421879 .2689972-.0107421879 .30299378 .0062561037 .33099366 .03425598 .31799317-.017745972 .30599977-.06674194 .2659912-.11973572 .23999024-.15385437 .20199585-.18309021 .1559906-.18309021 .14199829-.18309021 .09700012-.18005371 .07998657-.14074707 .09599304-.14074707 .10899353-.14074707 .12298584-.1287384 .1329956-.11973572 .14299011-.10673523 .14299011-.08773804 .14299011-.056747438 .115997318-.052734376 .10598755-.052734376 .08299255-.052734376 .049987794-.068740848 .049987794-.11773682 .049987794-.16796875 .09399414-.20507813 .1559906-.20507813 .25898744-.20507813 .3619995-.11373901 .3899994-.00074768069L.48599244 .38136292Z"/>
<path id="font_2_1" d="M.6589966 .23046875C.6759949 .23046875 .69400027 .23046875 .69400027 .25045777 .69400027 .27046205 .6759949 .27046205 .6589966 .27046205H.117996219C.100997928 .27046205 .08299255 .27046205 .08299255 .25045777 .08299255 .23046875 .100997928 .23046875 .117996219 .23046875H.6589966Z"/>
<path id="font_3_2" d="M.2899933 .35191346C.37199403 .37893678 .42999269 .4490509 .42999269 .52809146 .42999269 .6100464 .34199525 .6660156 .24598694 .6660156 .14498902 .6660156 .068984989 .60606387 .068984989 .53009036 .068984989 .49710084 .09098816 .47808839 .11999512 .47808839 .15098572 .47808839 .17098999 .50009158 .17098999 .5290985 .17098999 .57910159 .12399292 .57910159 .10899353 .57910159 .13999939 .62802127 .20599365 .64100649 .24198914 .64100649 .2829895 .64100649 .33799745 .6190338 .33799745 .5290985 .33799745 .51708987 .33599855 .45906068 .30999757 .4149933 .27999879 .36691285 .24598694 .36390687 .22099304 .36291505 .21299744 .36190797 .18899536 .35990907 .18199158 .35990907 .17399597 .35890199 .16699219 .35791017 .16699219 .3479004 .16699219 .33691407 .17399597 .33691407 .19099427 .33691407H.23498535C.31698609 .33691407 .35398866 .2686615 .35398866 .17037964 .35398866 .034469606 .2849884 .0055389406 .24099732 .0055389406 .19799805 .0055389406 .12298584 .022491456 .08799744 .08137512 .12298584 .07637024 .1539917 .09837341 .1539917 .1363678 .1539917 .17237854 .1269989 .19238281 .09799194 .19238281 .07398987 .19238281 .041992189 .17837525 .041992189 .1343689 .041992189 .043441774 .1349945-.022460938 .24398804-.022460938 .3659973-.022460938 .45700074 .06838989 .45700074 .17037964 .45700074 .252594 .3939972 .33088685 .2899933 .35191346Z"/>
<path id="font_3_1" d="M.2939911 .64004519C.2939911 .66400149 .2939911 .6660156 .2709961 .6660156 .20899964 .60227969 .12098694 .60227969 .08898926 .60227969V.57128909C.10899353 .57128909 .16799927 .57128909 .21998596 .5972748V.07902527C.21998596 .042999269 .21699524 .0309906 .1269989 .0309906H.09498596V0C.12998963 .0029907227 .21699524 .0029907227 .25698854 .0029907227 .29699708 .0029907227 .38398744 .0029907227 .4189911 0V.0309906H.3869934C.29699708 .0309906 .2939911 .041992189 .2939911 .07902527V.64004519Z"/>
</defs>
<path transform="matrix(1.00003,0,0,-1.00006,115.28293,115.72598)" stroke-width=".79701" stroke-linecap="butt" stroke-miterlimit="10" stroke-linejoin="miter" fill="none" stroke="#d2d2d2" d="M-113.38724-113.38724H113.38724M-113.38724-85.04042H113.38724M-113.38724-56.69362H113.38724M-113.38724-28.3468H113.38724M-113.38724 0H113.38724M-113.38724 28.3468H113.38724M-113.38724 56.69362H113.38724M-113.38724 85.04042H113.38724M-113.38724 113.37727H113.38724M-113.38724-113.38724V113.38724M-85.04042-113.38724V113.38724M-56.69362-113.38724V113.38724M-28.3468-113.38724V113.38724M0-113.38724V113.38724M28.3468-113.38724V113.38724M56.69362-113.38724V113.38724M85.04042-113.38724V113.38724M113.37727-113.38724V113.38724M113.38724 113.38724"/>
<path transform="matrix(1.00003,0,0,-1.00006,115.28293,115.72598)" stroke-width=".99628" stroke-linecap="butt" stroke-miterlimit="10" stroke-linejoin="miter" fill="none" stroke="#333333" d="M0 0H108.18665"/>
<path transform="matrix(1.00003,0,0,-1.00006,223.47284,115.72598)" d="M5.20058 0C3.65962 .28891 1.15567 1.15567-.57784 2.1669V-2.1669C1.15567-1.15567 3.65962-.28891 5.20058 0" fill="#333333"/>
<use data-text="x" xlink:href="#font_1_1" transform="matrix(9.962899,0,0,-9.963197,211.65282,123.83447)" fill="#333333"/>
<path transform="matrix(1.00003,0,0,-1.00006,115.28293,115.72598)" stroke-width=".99628" stroke-linecap="butt" stroke-miterlimit="10" stroke-linejoin="miter" fill="none" stroke="#333333" d="M0 0H-108.18665"/>
<path transform="matrix(-1.00003,-0,0,1.00006,7.093025,115.72598)" d="M5.20058 0C3.65962 .28891 1.15567 1.15567-.57784 2.1669V-2.1669C1.15567-1.15567 3.65962-.28891 5.20058 0" fill="#333333"/>
<path transform="matrix(1.00003,0,0,-1.00006,115.28293,115.72598)" stroke-width=".99628" stroke-linecap="butt" stroke-miterlimit="10" stroke-linejoin="miter" fill="none" stroke="#333333" d="M0 0V108.18665"/>
<path transform="matrix(0,-1.00006,-1.00003,-0,115.28293,7.5328447)" d="M5.20058 0C3.65962 .28891 1.15567 1.15567-.57784 2.1669V-2.1669C1.15567-1.15567 3.65962-.28891 5.20058 0" fill="#333333"/>
<use data-text="y" xlink:href="#font_1_2" transform="matrix(9.962899,0,0,-9.963197,119.10204,17.682099)" fill="#333333"/>
<path transform="matrix(1.00003,0,0,-1.00006,115.28293,115.72598)" stroke-width=".99628" stroke-linecap="butt" stroke-miterlimit="10" stroke-linejoin="miter" fill="none" stroke="#333333" d="M0 0V-108.18665"/>
<path transform="matrix(0,1.00006,1.00003,0,115.28293,223.91913)" d="M5.20058 0C3.65962 .28891 1.15567 1.15567-.57784 2.1669V-2.1669C1.15567-1.15567 3.65962-.28891 5.20058 0" fill="#333333"/>
<path transform="matrix(1.00003,0,0,-1.00006,115.28293,115.72598)" stroke-width="1.49442" stroke-linecap="butt" stroke-miterlimit="10" stroke-linejoin="miter" fill="none" stroke="#0074c8" d="M-56.69362-85.04042H-106.84174"/>
<path transform="matrix(-1.00003,-0,0,1.00006,8.437973,200.7715)" d="M6.54549 0C4.60605 .36362 1.45454 1.45454-.72726 2.72728V-2.72728C1.45454-1.45454 4.60605-.36362 6.54549 0" fill="#0074c8"/>
<path transform="matrix(1.00003,0,0,-1.00006,115.28293,115.72598)" stroke-width="1.49442" stroke-linecap="butt" stroke-miterlimit="10" stroke-linejoin="miter" fill="none" stroke="#0074c8" d="M-56.69362-85.04042 0 0"/>
<path transform="matrix(1.00003,0,0,-1.00006,115.28293,115.72598)" stroke-width="1.49442" stroke-linecap="butt" stroke-miterlimit="10" stroke-linejoin="miter" fill="none" stroke="#0074c8" d="M0 0 4.72415 .19635 9.44833 .7872 14.17252 1.77122 18.8967 3.14885 23.62088 4.9201 28.34506 7.08582 33.06924 9.64427 37.79341 12.59679 42.5176 15.94247 47.24178 19.68263 51.96596 23.81554 56.69014 28.34334 61.41432 33.26346 66.1385 38.57805 70.86267 44.28581 75.58685 50.38806 80.31104 56.88261 85.03522 63.77252 89.7594 71.05429 94.48358 78.73141 99.20776 86.80042 103.93195 95.26474 108.65611 104.1214 110.40388 107.544"/>
<path transform="matrix(.45474366,-.89065346,-.8906268,-.45475728,225.69013,8.175545)" d="M6.54549 0C4.60605 .36362 1.45454 1.45454-.72726 2.72728V-2.72728C1.45454-1.45454 4.60605-.36362 6.54549 0" fill="#0074c8"/>
<path transform="matrix(1.00003,0,0,-1.00006,115.28293,115.72598)" stroke-width="1.99255" stroke-linecap="butt" stroke-dasharray="2.98883,2.98883" stroke-miterlimit="10" stroke-linejoin="miter" fill="none" stroke="#ff0000" d="M-56.69362 0H-105.49667"/>
<path transform="matrix(-1.00003,-0,0,1.00006,9.783089,115.72598)" d="M7.89055 0C5.55257 .43835 1.75345 1.75345-.87672 3.28772V-3.28772C1.75345-1.75345 5.55257-.43835 7.89055 0" fill="#ff0000"/>
<path transform="matrix(1.00003,0,0,-1.00006,115.28293,115.72598)" stroke-width="1.99255" stroke-linecap="butt" stroke-dasharray="2.98883,2.98883" stroke-miterlimit="10" stroke-linejoin="miter" fill="none" stroke="#ff0000" d="M-56.69362 42.5202H0"/>
<path transform="matrix(1.00003,0,0,-1.00006,115.28293,115.72598)" stroke-width="1.99255" stroke-linecap="butt" stroke-dasharray="2.98883,2.98883" stroke-miterlimit="10" stroke-linejoin="miter" fill="none" stroke="#ff0000" d="M0 0 4.72415 2.36208 9.44833 4.72415 14.17252 7.08626 18.8967 9.44833 23.62088 11.81044 28.34506 14.17252 33.06924 16.53462 37.79341 18.8967 42.5176 21.25879 47.24178 23.62088 51.96596 25.98297 56.69014 28.34506 61.41432 30.70715 66.1385 33.06924 70.86267 35.43134 75.58685 37.79341 80.31104 40.15552 85.03522 42.5176 89.7594 44.8797 94.48358 47.24178 99.20776 49.60388 103.93195 51.96596 108.65611 54.32805 106.32329 53.16171"/>
<path transform="matrix(.8943869,-.4471968,-.44718344,-.89441367,221.6094,62.561094)" d="M7.89055 0C5.55257 .43835 1.75345 1.75345-.87672 3.28772V-3.28772C1.75345-1.75345 5.55257-.43835 7.89055 0" fill="#ff0000"/>
<path transform="matrix(1.00003,0,0,-1.00006,115.28293,115.72598)" d="M-53.70479 0C-53.70479 1.6507-55.04291 2.98883-56.69362 2.98883-58.34431 2.98883-59.68245 1.6507-59.68245 0-59.68245-1.6507-58.34431-2.98883-56.69362-2.98883-55.04291-2.98883-53.70479-1.6507-53.70479 0ZM-56.69362 0" fill="#ff0000"/>
<path transform="matrix(1.00003,0,0,-1.00006,115.28293,115.72598)" d="M-54.70107 0C-54.70107 1.10046-55.59314 1.99255-56.69362 1.99255-57.79408 1.99255-58.68617 1.10046-58.68617 0-58.68617-1.10046-57.79408-1.99255-56.69362-1.99255-55.59314-1.99255-54.70107-1.10046-54.70107 0ZM-56.69362 0" fill="#ffffff"/>
<path transform="matrix(1.00003,0,0,-1.00006,115.28293,115.72598)" d="M-53.70479 42.5202C-53.70479 44.17091-55.04291 45.50903-56.69362 45.50903-58.34431 45.50903-59.68245 44.17091-59.68245 42.5202-59.68245 40.86949-58.34431 39.53137-56.69362 39.53137-55.04291 39.53137-53.70479 40.86949-53.70479 42.5202ZM-56.69362 42.5202" fill="#ff0000"/>
<path transform="matrix(1.00003,0,0,-1.00006,115.28293,115.72598)" d="M-54.70107 42.5202C-54.70107 43.62067-55.59314 44.51276-56.69362 44.51276-57.79408 44.51276-58.68617 43.62067-58.68617 42.5202-58.68617 41.41972-57.79408 40.52765-56.69362 40.52765-55.59314 40.52765-54.70107 41.41972-54.70107 42.5202ZM-56.69362 42.5202" fill="#ffffff"/>
<path transform="matrix(1.00003,0,0,-1.00006,115.28293,115.72598)" d="M2.98883 42.5202C2.98883 44.17091 1.6507 45.50903 0 45.50903-1.6507 45.50903-2.98883 44.17091-2.98883 42.5202-2.98883 40.86949-1.6507 39.53137 0 39.53137 1.6507 39.53137 2.98883 40.86949 2.98883 42.5202ZM0 42.5202" fill="#ff0000"/>
<path transform="matrix(1.00003,0,0,-1.00006,115.28293,115.72598)" d="M1.99255 42.5202C1.99255 43.62067 1.10046 44.51276 0 44.51276-1.10046 44.51276-1.99255 43.62067-1.99255 42.5202-1.99255 41.41972-1.10046 40.52765 0 40.52765 1.10046 40.52765 1.99255 41.41972 1.99255 42.5202ZM0 42.5202" fill="#ffffff"/>
<path transform="matrix(1.00003,0,0,-1.00006,115.28293,115.72598)" d="M2.98883 0C2.98883 1.6507 1.6507 2.98883 0 2.98883-1.6507 2.98883-2.98883 1.6507-2.98883 0-2.98883-1.6507-1.6507-2.98883 0-2.98883 1.6507-2.98883 2.98883-1.6507 2.98883 0ZM0 0" fill="#ff0000"/>
<path transform="matrix(1.00003,0,0,-1.00006,115.28293,115.72598)" d="M1.99255 0C1.99255 1.10046 1.10046 1.99255 0 1.99255-1.10046 1.99255-1.99255 1.10046-1.99255 0-1.99255-1.10046-1.10046-1.99255 0-1.99255 1.10046-1.99255 1.99255-1.10046 1.99255 0ZM0 0" fill="#ffffff"/>
<path transform="matrix(1.00003,0,0,-1.00006,115.28293,115.72598)" stroke-width=".79701" stroke-linecap="butt" stroke-miterlimit="10" stroke-linejoin="miter" fill="none" stroke="#000000" d="M-85.04042 2.98883V-2.98883"/>
<use data-text="&#x2212;" xlink:href="#font_2_1" transform="matrix(9.962899,0,0,-9.963197,23.874192,128.85477)"/>
<use data-text="3" xlink:href="#font_3_2" transform="matrix(9.962899,0,0,-9.963197,31.622437,128.85477)"/>
<path transform="matrix(1.00003,0,0,-1.00006,115.28293,115.72598)" stroke-width=".79701" stroke-linecap="butt" stroke-miterlimit="10" stroke-linejoin="miter" fill="none" stroke="#000000" d="M-28.3468 2.98883V-2.98883"/>
<use data-text="&#x2212;" xlink:href="#font_2_1" transform="matrix(9.962899,0,0,-9.963197,80.569889,128.85477)"/>
<use data-text="1" xlink:href="#font_3_1" transform="matrix(9.962899,0,0,-9.963197,88.31813,128.85477)"/>
<path transform="matrix(1.00003,0,0,-1.00006,115.28293,115.72598)" stroke-width=".79701" stroke-linecap="butt" stroke-miterlimit="10" stroke-linejoin="miter" fill="none" stroke="#000000" d="M28.3468 2.98883V-2.98883"/>
<use data-text="1" xlink:href="#font_3_1" transform="matrix(9.962899,0,0,-9.963197,141.13971,128.85477)"/>
<path transform="matrix(1.00003,0,0,-1.00006,115.28293,115.72598)" stroke-width=".79701" stroke-linecap="butt" stroke-miterlimit="10" stroke-linejoin="miter" fill="none" stroke="#000000" d="M85.04042 2.98883V-2.98883"/>
<use data-text="3" xlink:href="#font_3_2" transform="matrix(9.962899,0,0,-9.963197,197.83542,128.85477)"/>
<path transform="matrix(1.00003,0,0,-1.00006,115.28293,115.72598)" stroke-width=".79701" stroke-linecap="butt" stroke-miterlimit="10" stroke-linejoin="miter" fill="none" stroke="#000000" d="M-1.99255-85.04042H1.99255"/>
<use data-text="&#x2212;" xlink:href="#font_2_1" transform="matrix(9.962899,0,0,-9.963197,100.82549,203.56725)"/>
<use data-text="3" xlink:href="#font_3_2" transform="matrix(9.962899,0,0,-9.963197,108.57374,203.56725)"/>
<path transform="matrix(1.00003,0,0,-1.00006,115.28293,115.72598)" stroke-width=".79701" stroke-linecap="butt" stroke-miterlimit="10" stroke-linejoin="miter" fill="none" stroke="#000000" d="M-1.99255-28.3468H1.99255"/>
<use data-text="&#x2212;" xlink:href="#font_2_1" transform="matrix(9.962899,0,0,-9.963197,100.82549,146.86985)"/>
<use data-text="1" xlink:href="#font_3_1" transform="matrix(9.962899,0,0,-9.963197,108.57374,146.86985)"/>
<path transform="matrix(1.00003,0,0,-1.00006,115.28293,115.72598)" stroke-width=".79701" stroke-linecap="butt" stroke-miterlimit="10" stroke-linejoin="miter" fill="none" stroke="#000000" d="M-1.99255 28.3468H1.99255"/>
<use data-text="1" xlink:href="#font_3_1" transform="matrix(9.962899,0,0,-9.963197,108.57473,90.58748)"/>
<path transform="matrix(1.00003,0,0,-1.00006,115.28293,115.72598)" stroke-width=".79701" stroke-linecap="butt" stroke-miterlimit="10" stroke-linejoin="miter" fill="none" stroke="#000000" d="M-1.99255 85.04042H1.99255"/>
<use data-text="3" xlink:href="#font_3_2" transform="matrix(9.962899,0,0,-9.963197,108.57473,33.891077)"/>
</svg>
