<svg xmlns="http://www.w3.org/2000/svg" xmlns:xlink="http://www.w3.org/1999/xlink" xmlns:inkscape="http://www.inkscape.org/namespaces/inkscape" version="1.1" width="266" height="230" viewBox="0 0 266 230">
<defs>
<path id="font_1_3" d="M.33399964 .30233766C.33999635 .32835389 .36299134 .42037965 .43299867 .42037965 .43798829 .42037965 .46199037 .42037965 .48298646 .40734864 .45498658 .402359 .43499757 .37734986 .43499757 .35334779 .43499757 .33735658 .44599916 .31835938 .47299195 .31835938 .49499513 .31835938 .5269928 .3363495 .5269928 .37635804 .5269928 .42837525 .46798707 .4423828 .43399049 .4423828 .37599183 .4423828 .34098817 .38935853 .32899476 .36634828 .3039856 .43237306 .25 .4423828 .22099304 .4423828 .116989139 .4423828 .05999756 .3133545 .05999756 .28834535 .05999756 .27833558 .069992069 .27833558 .07199097 .27833558 .07998657 .27833558 .08299255 .28033448 .084991458 .28933717 .11898804 .39535523 .18499756 .42037965 .21899414 .42037965 .23799134 .42037965 .272995 .4113617 .272995 .35334779 .272995 .32235719 .2559967 .25532533 .21899414 .11528015 .20298767 .053268434 .16799927 .011245728 .12399292 .011245728 .117996219 .011245728 .09498596 .011245728 .07398987 .024276734 .09899902 .029266358 .12098694 .05027771 .12098694 .07827759 .12098694 .105270389 .09899902 .11328125 .083999637 .11328125 .053985597 .11328125 .0289917 .08728027 .0289917 .055267335 .0289917 .009246826 .07899475-.0107421879 .12298584-.0107421879 .18899536-.0107421879 .22499085 .059280397 .22799683 .0652771 .23999024 .028274537 .27598573-.0107421879 .33599855-.0107421879 .43899537-.0107421879 .49598695 .118270877 .49598695 .14328003 .49598695 .1532898 .4869995 .1532898 .48399354 .1532898 .47499085 .1532898 .47299195 .14929199 .47099305 .14228821 .43798829 .03527832 .36999513 .011245728 .33799745 .011245728 .29899598 .011245728 .2829895 .043273927 .2829895 .07727051 .2829895 .09927368 .2889862 .121276859 .2999878 .16529846L.33399964 .30233766Z"/>
<path id="font_1_4" d="M.48599244 .38136292C.48999024 .39537049 .48999024 .39736939 .48999024 .40437318 .48999024 .42237855 .47599793 .43138124 .46099855 .43138124 .45098878 .43138124 .43499757 .42536927 .42599488 .41036988 .42399598 .405365 .41600038 .37435914 .4119873 .35635377 .40499879 .33035279 .397995 .30334474 .3919983 .27633668L.34700013 .09628296C.34298707 .08126831 .2999878 .011245728 .23399353 .011245728 .18299866 .011245728 .17199707 .055267335 .17199707 .0922699 .17199707 .1382904 .18899536 .20030213 .22299195 .28833009 .23899842 .3293457 .24299622 .3403473 .24299622 .36035157 .24299622 .405365 .21099854 .4423828 .16099549 .4423828 .06599426 .4423828 .0289917 .29733277 .0289917 .28833009 .0289917 .27833558 .038986207 .27833558 .040985109 .27833558 .050994874 .27833558 .051986696 .28033448 .056991579 .29634095 .083999637 .3903656 .12399292 .42037965 .1579895 .42037965 .1659851 .42037965 .18299866 .42037965 .18299866 .3883667 .18299866 .36335755 .17298889 .3373413 .1659851 .31834413 .12599182 .21231079 .10798645 .1552887 .10798645 .10827637 .10798645 .019256592 .17098999-.0107421879 .22999573-.0107421879 .2689972-.0107421879 .30299378 .0062561037 .33099366 .03425598 .31799317-.017745972 .30599977-.06674194 .2659912-.11973572 .23999024-.15385437 .20199585-.18309021 .1559906-.18309021 .14199829-.18309021 .09700012-.18005371 .07998657-.14074707 .09599304-.14074707 .10899353-.14074707 .12298584-.1287384 .1329956-.11973572 .14299011-.10673523 .14299011-.08773804 .14299011-.056747438 .115997318-.052734376 .10598755-.052734376 .08299255-.052734376 .049987794-.068740848 .049987794-.11773682 .049987794-.16796875 .09399414-.20507813 .1559906-.20507813 .25898744-.20507813 .3619995-.11373901 .3899994-.00074768069L.48599244 .38136292Z"/>
<path id="font_2_8" d="M.68699648 .32714845C.70199587 .32714845 .72099307 .32714845 .72099307 .34713746 .72099307 .36714173 .70199587 .36714173 .6879883 .36714173H.08898926C.07499695 .36714173 .055999757 .36714173 .055999757 .34713746 .055999757 .32714845 .07499695 .32714845 .08999634 .32714845H.68699648M.6879883 .13284302C.70199587 .13284302 .72099307 .13284302 .72099307 .15284729 .72099307 .17285156 .70199587 .17285156 .68699648 .17285156H.08999634C.07499695 .17285156 .055999757 .17285156 .055999757 .15284729 .055999757 .13284302 .07499695 .13284302 .08898926 .13284302H.6879883Z"/>
<path id="font_1_2" d="M.36698915 .3996582H.45298768C.47299195 .3996582 .48298646 .3996582 .48298646 .41966249 .48298646 .43066407 .47299195 .43066407 .45599366 .43066407H.37298585L.3939972 .5449524C.397995 .5660095 .4119873 .6370239 .41799928 .6490326 .4269867 .66804507 .44400025 .68307498 .46499635 .68307498 .46899415 .68307498 .49499513 .68307498 .5139923 .66503909 .46998597 .661026 .45999146 .6260376 .45999146 .6110382 .45999146 .58802798 .47799684 .57603457 .49699403 .57603457 .522995 .57603457 .5519867 .5980377 .5519867 .6360321 .5519867 .6820679 .5059967 .7050781 .46499635 .7050781 .43099977 .7050781 .36799623 .68707278 .33799745 .58802798 .33198548 .56700137 .32899476 .5569763 .30499269 .43066407H.23599243C.21699524 .43066407 .20599365 .43066407 .20599365 .4116516 .20599365 .3996582 .21499634 .3996582 .23399353 .3996582H.2999878L.22499085 .0048828127C.20698548-.09207153 .18998719-.18309021 .13798523-.18309021 .13398743-.18309021 .10899353-.18309021 .08999634-.16506958 .13598633-.1620636 .14498902-.12606812 .14498902-.111068729 .14498902-.08807373 .1269989-.07606506 .10798645-.07606506 .08198547-.07606506 .052993776-.09806824 .052993776-.13606262 .052993776-.18109131 .09700012-.20507813 .13798523-.20507813 .19299317-.20507813 .23298645-.14607239 .25099183-.108062747 .2829895-.04508972 .30599977 .07583618 .30699159 .082839969L.36698915 .3996582Z"/>
<path id="font_2_1" d="M.33099366-.2400055C.33099366-.23701477 .33099366-.23500061 .31399537-.21800232 .18899536-.0920105 .15699768 .09700012 .15699768 .25 .15699768 .42399598 .19499207 .59799197 .31799317 .72299197 .33099366 .73498538 .33099366 .7369995 .33099366 .73999026 .33099366 .746994 .32699586 .75 .32099916 .75 .31098939 .75 .22099304 .6819916 .1619873 .5549927 .11099243 .44499208 .09899902 .33399964 .09899902 .25 .09899902 .17199707 .10998535 .050994874 .16499329-.06201172 .22499085-.18501282 .31098939-.25 .32099916-.25 .32699586-.25 .33099366-.24700928 .33099366-.2400055Z"/>
<path id="font_2_2" d="M.2889862 .25C.2889862 .32798768 .27799989 .44898988 .22299195 .56199648 .16299439 .68499758 .07699585 .75 .066986087 .75 .06098938 .75 .056991579 .74598696 .056991579 .73999026 .056991579 .7369995 .056991579 .73498538 .07598877 .71699526 .17399597 .6179962 .23098755 .45899964 .23098755 .25 .23098755 .07899475 .19400025-.09700012 .069992069-.2230072 .056991579-.23500061 .056991579-.23701477 .056991579-.2400055 .056991579-.2460022 .06098938-.25 .066986087-.25 .07699585-.25 .16699219-.18200684 .22599793-.055007936 .2769928 .054992677 .2889862 .16600037 .2889862 .25Z"/>
<path id="font_3_1" d="M.74398806 .2263794C.7599945 .2263794 .7839966 .2263794 .7839966 .25038148 .7839966 .27539063 .7609863 .27539063 .74398806 .27539063H.147995C.13198853 .27539063 .10798645 .27539063 .10798645 .25138856 .10798645 .2263794 .1309967 .2263794 .147995 .2263794H.74398806Z"/>
<path id="font_4_1" d="M.33499146 .63612368C.33499146 .6630554 .33299256 .6640625 .30499269 .6640625 .24099732 .6014404 .1499939 .6004486 .10899353 .6004486V.5644531C.1329956 .5644531 .19898987 .5644531 .2539978 .592453V.08203125C.2539978 .04899597 .2539978 .035995485 .1539917 .035995485H.115997318V0C.13398743 .0009918213 .25698854 .0039978029 .2939911 .0039978029 .32499696 .0039978029 .45098878 .0009918213 .47299195 0V.035995485H.43499757C.33499146 .035995485 .33499146 .04899597 .33499146 .08203125V.63612368Z"/>
<path id="font_2_7" d="M.2939911 .16503906V.07800293C.2939911 .041992189 .2919922 .0309906 .21798706 .0309906H.19699097V0C.23799134 .0029907227 .2899933 .0029907227 .33198548 .0029907227 .37399293 .0029907227 .4269867 .0029907227 .46798707 0V.0309906H.44699098C.37298585 .0309906 .37098695 .041992189 .37098695 .07800293V.16503906H.47099305V.19602967H.37098695V.65075686C.37098695 .67074587 .37098695 .6767578 .35499574 .6767578 .34599305 .6767578 .34298707 .6767578 .33499146 .66474917L.027999878 .19602967V.16503906H.2939911M.2999878 .19602967H.055999757L.2999878 .5688019V.19602967Z"/>
<path id="font_5_1" d="M.6589966 .23046875C.6759949 .23046875 .69400027 .23046875 .69400027 .25045777 .69400027 .27046205 .6759949 .27046205 .6589966 .27046205H.117996219C.100997928 .27046205 .08299255 .27046205 .08299255 .25045777 .08299255 .23046875 .100997928 .23046875 .117996219 .23046875H.6589966Z"/>
<path id="font_2_4" d="M.2939911 .64004519C.2939911 .66400149 .2939911 .6660156 .2709961 .6660156 .20899964 .60227969 .12098694 .60227969 .08898926 .60227969V.57128909C.10899353 .57128909 .16799927 .57128909 .21998596 .5972748V.07902527C.21998596 .042999269 .21699524 .0309906 .1269989 .0309906H.09498596V0C.12998963 .0029907227 .21699524 .0029907227 .25698854 .0029907227 .29699708 .0029907227 .38398744 .0029907227 .4189911 0V.0309906H.3869934C.29699708 .0309906 .2939911 .041992189 .2939911 .07902527V.64004519Z"/>
<path id="font_4_2" d="M.5289917 .1640625V.20005799H.41799928V.64582827C.41799928 .66682437 .41799928 .6738281 .3959961 .6738281 .38398744 .6738281 .37998963 .6738281 .36999513 .65982058L.038986207 .20005799V.1640625H.33299256V.08201599C.33299256 .04800415 .33299256 .035995485 .2519989 .035995485H.22499085V0C.2749939 .0019989014 .33898927 .0039978029 .375 .0039978029 .4119873 .0039978029 .47599793 .0019989014 .526001 0V.035995485H.49899293C.41799928 .035995485 .41799928 .04800415 .41799928 .08201599V.1640625H.5289917M.33999635 .5658722V.20005799H.07598877L.33999635 .5658722Z"/>
<path id="font_2_3" d="M.40899659 .23046875H.6879883C.70199587 .23046875 .72099307 .23046875 .72099307 .25045777 .72099307 .27046205 .70199587 .27046205 .6879883 .27046205H.40899659V.5500183C.40899659 .56399539 .40899659 .5830078 .3889923 .5830078 .36898805 .5830078 .36898805 .56399539 .36898805 .5500183V.27046205H.08898926C.07499695 .27046205 .055999757 .27046205 .055999757 .25045777 .055999757 .23046875 .07499695 .23046875 .08898926 .23046875H.36898805V-.05000305C.36898805-.06401062 .36898805-.08300781 .3889923-.08300781 .40899659-.08300781 .40899659-.06401062 .40899659-.05000305V.23046875Z"/>
<path id="font_1_1" d="M.20298767 .0009918213C.20298767 .066986087 .17799378 .10598755 .13899231 .10598755 .10598755 .10598755 .085998538 .08099365 .085998538 .052993776 .085998538 .025985718 .10598755 0 .13899231 0 .15098572 0 .1639862 .0039978029 .17399597 .0129852299 .1769867 .01499939 .17799378 .015991211 .1789856 .015991211 .17999268 .015991211 .18099976 .01499939 .18099976 .0009918213 .18099976-.07316589 .1459961-.13328552 .11299133-.16635132 .101989749-.17736817 .101989749-.17936707 .101989749-.18237305 .101989749-.18936157 .10699463-.19335938 .11199951-.19335938 .12298584-.19335938 .20298767-.116256717 .20298767 .0009918213Z"/>
<path id="font_2_6" d="M.2899933 .35191346C.37199403 .37893678 .42999269 .4490509 .42999269 .52809146 .42999269 .6100464 .34199525 .6660156 .24598694 .6660156 .14498902 .6660156 .068984989 .60606387 .068984989 .53009036 .068984989 .49710084 .09098816 .47808839 .11999512 .47808839 .15098572 .47808839 .17098999 .50009158 .17098999 .5290985 .17098999 .57910159 .12399292 .57910159 .10899353 .57910159 .13999939 .62802127 .20599365 .64100649 .24198914 .64100649 .2829895 .64100649 .33799745 .6190338 .33799745 .5290985 .33799745 .51708987 .33599855 .45906068 .30999757 .4149933 .27999879 .36691285 .24598694 .36390687 .22099304 .36291505 .21299744 .36190797 .18899536 .35990907 .18199158 .35990907 .17399597 .35890199 .16699219 .35791017 .16699219 .3479004 .16699219 .33691407 .17399597 .33691407 .19099427 .33691407H.23498535C.31698609 .33691407 .35398866 .2686615 .35398866 .17037964 .35398866 .034469606 .2849884 .0055389406 .24099732 .0055389406 .19799805 .0055389406 .12298584 .022491456 .08799744 .08137512 .12298584 .07637024 .1539917 .09837341 .1539917 .1363678 .1539917 .17237854 .1269989 .19238281 .09799194 .19238281 .07398987 .19238281 .041992189 .17837525 .041992189 .1343689 .041992189 .043441774 .1349945-.022460938 .24398804-.022460938 .3659973-.022460938 .45700074 .06838989 .45700074 .17037964 .45700074 .252594 .3939972 .33088685 .2899933 .35191346Z"/>
<path id="font_2_5" d="M.1269989 .07699585 .23298645 .18003845C.3889923 .31811524 .44898988 .3721466 .44898988 .47216798 .44898988 .5860901 .35899354 .6660156 .23699951 .6660156 .12399292 .6660156 .049987794 .57411196 .049987794 .48516847 .049987794 .4291687 .099990848 .4291687 .102996829 .4291687 .11999512 .4291687 .15499878 .44117738 .15499878 .48217774 .15499878 .5081787 .13699341 .5341797 .101989749 .5341797 .09399414 .5341797 .09199524 .5341797 .08898926 .5331726 .11199951 .59806826 .1659851 .63500979 .22399903 .63500979 .31498719 .63500979 .35798646 .5541382 .35798646 .47216798 .35798646 .39215089 .30799867 .31311036 .25299073 .25108338L.06098938 .036987306C.049987794 .025985718 .049987794 .023986817 .049987794 0H.42099L.44898988 .17404175H.42399598C.4189911 .14402771 .4119873 .1000061 .4019928 .084991458 .394989 .07699585 .32899476 .07699585 .30699159 .07699585H.1269989Z"/>
</defs>
<path transform="matrix(1.00006,0,0,-1.00005,79.71169,150.23377)" stroke-width=".79701" stroke-linecap="butt" stroke-miterlimit="10" stroke-linejoin="miter" fill="none" stroke="#dfdfdf" d="M-70.867-70.867H141.73404M-70.867-35.43349H141.73404M-70.867 0H141.73404M-70.867 35.43349H141.73404M-70.867 70.867H141.73404M-70.867 106.30052H141.73404M-70.867 141.72159H141.73404M-70.867-70.867V141.73404M-35.43349-70.867V141.73404M0-70.867V141.73404M35.43349-70.867V141.73404M70.867-70.867V141.73404M106.30052-70.867V141.73404M141.72159-70.867V141.73404M141.73404 141.73404"/>
<path transform="matrix(1.00006,0,0,-1.00005,79.71169,150.23377)" stroke-width=".49814" stroke-linecap="butt" stroke-miterlimit="10" stroke-linejoin="miter" fill="none" stroke="#333333" d="M0 0H137.87851"/>
<path transform="matrix(1.00006,0,0,-1.00005,217.59848,150.23377)" d="M3.85551 0C2.71312 .21419 .85678 .85678-.42839 1.60646V-1.60646C.85678-.85678 2.71312-.21419 3.85551 0" fill="#333333"/>
<use data-text="x" xlink:href="#font_1_3" transform="matrix(9.963197,0,0,-9.963098,200.88895,158.09316)" fill="#333333"/>
<path transform="matrix(1.00006,0,0,-1.00005,79.71169,150.23377)" stroke-width=".49814" stroke-linecap="butt" stroke-miterlimit="10" stroke-linejoin="miter" fill="none" stroke="#333333" d="M0 0H-67.01149"/>
<path transform="matrix(-1.00006,-0,0,1.00005,12.696182,150.23377)" d="M3.85551 0C2.71312 .21419 .85678 .85678-.42839 1.60646V-1.60646C.85678-.85678 2.71312-.21419 3.85551 0" fill="#333333"/>
<path transform="matrix(1.00006,0,0,-1.00005,79.71169,150.23377)" stroke-width=".49814" stroke-linecap="butt" stroke-miterlimit="10" stroke-linejoin="miter" fill="none" stroke="#333333" d="M0 0V137.87851"/>
<path transform="matrix(0,-1.00005,-1.00006,-0,79.71169,12.348373)" d="M3.85551 0C2.71312 .21419 .85678 .85678-.42839 1.60646V-1.60646C.85678-.85678 2.71312-.21419 3.85551 0" fill="#333333"/>
<use data-text="y" xlink:href="#font_1_4" transform="matrix(9.963197,0,0,-9.963098,83.281909,27.386628)" fill="#333333"/>
<path transform="matrix(1.00006,0,0,-1.00005,79.71169,150.23377)" stroke-width=".49814" stroke-linecap="butt" stroke-miterlimit="10" stroke-linejoin="miter" fill="none" stroke="#333333" d="M0 0V-67.01149"/>
<path transform="matrix(0,1.00005,1.00006,0,79.71169,217.2486)" d="M3.85551 0C2.71312 .21419 .85678 .85678-.42839 1.60646V-1.60646C.85678-.85678 2.71312-.21419 3.85551 0" fill="#333333"/>
<path transform="matrix(1.00006,0,0,-1.00005,79.71169,150.23377)" stroke-width="1.49442" stroke-linecap="butt" stroke-miterlimit="10" stroke-linejoin="miter" fill="none" stroke="#0074c8" d="M-44.29187-78.06444C-44.29187-78.06444-41.62537-63.54408-40.60124-58.4748-39.57713-53.4055-37.93472-45.89763-36.9106-41.52849-35.88647-37.15935-34.2441-30.72064-33.21999-26.98495-32.19585-23.24924-30.55348-17.77312-29.52934-14.6041-28.50523-11.43507-26.86282-6.8138-25.83871-4.14476-24.81459-1.47574-23.17221 2.3968-22.14809 4.63246-21.12398 6.86812-19.48157 10.0994-18.45744 11.96829-17.43333 13.83719-15.79094 16.5334-14.76683 18.10223-13.7427 19.67107-12.10031 21.93994-11.07619 23.27539-10.05208 24.61086-8.40968 26.55861-7.38557 27.7273-6.36145 28.896-4.71907 30.62993-3.69495 31.69852-2.67082 32.76712-1.02843 34.39401-.00429 35.42915 1.01979 36.46432 2.66217 38.0908 3.68628 39.15926 4.7104 40.2277 6.3528 41.96158 7.37692 43.12994 8.40103 44.29834 10.04343 46.24532 11.06754 47.58025 12.09166 48.91518 13.73407 51.18301 14.75818 52.75124 15.7823 54.31944 17.42468 57.01483 18.4488 58.88298 19.47292 60.75114 21.11531 63.98091 22.13942 66.2156 23.16354 68.45029 24.80594 72.32117 25.83006 74.98909 26.85419 77.65698 28.49657 82.27625 29.52069 85.44408 30.54482 88.6119 32.18721 94.08627 33.21133 97.82062 34.23546 101.55495 35.87784 107.99117 36.90196 112.35875 37.92607 116.7263 39.56848 124.23155 40.59259 129.2991 41.61671 134.36667 44.28322 148.88225 44.28322 148.88225"/>
<use data-text="y" xlink:href="#font_1_4" transform="matrix(9.963197,0,0,-9.963098,136.93312,19.842255)" fill="#0074c8"/>
<use data-text="=" xlink:href="#font_2_8" transform="matrix(9.963197,0,0,-9.963098,144.9436,19.842255)" fill="#0074c8"/>
<use data-text="f" xlink:href="#font_1_2" transform="matrix(9.963197,0,0,-9.963098,155.46024,19.842255)" fill="#0074c8"/>
<use data-text="(" xlink:href="#font_2_1" transform="matrix(9.963197,0,0,-9.963098,161.4106,19.842255)" fill="#0074c8"/>
<use data-text="x" xlink:href="#font_1_3" transform="matrix(9.963197,0,0,-9.963098,165.28482,19.842255)" fill="#0074c8"/>
<use data-text=")" xlink:href="#font_2_2" transform="matrix(9.963197,0,0,-9.963098,170.97916,19.842255)" fill="#0074c8"/>
<path transform="matrix(1.00006,0,0,-1.00005,79.71169,150.23377)" stroke-width="1.49442" stroke-linecap="butt" stroke-dasharray="2.98883,2.98883" stroke-miterlimit="10" stroke-linejoin="miter" fill="none" stroke="#ff0000" d="M-78.06444-44.29187C-78.06444-44.29187-63.54408-41.62537-58.4748-40.60124-53.4055-39.57713-45.89763-37.93472-41.52849-36.9106-37.15935-35.88647-30.72064-34.2441-26.98495-33.21999-23.24924-32.19585-17.77312-30.55348-14.6041-29.52934-11.43507-28.50523-6.8138-26.86282-4.14476-25.83871-1.47574-24.81459 2.3968-23.17221 4.63246-22.14809 6.86812-21.12398 10.0994-19.48157 11.96829-18.45744 13.83719-17.43333 16.5334-15.79094 18.10223-14.76683 19.67107-13.7427 21.93994-12.10031 23.27539-11.07619 24.61086-10.05208 26.55861-8.40968 27.7273-7.38557 28.896-6.36145 30.62993-4.71907 31.69852-3.69495 32.76712-2.67082 34.39401-1.02843 35.42915-.00429 36.46432 1.01979 38.0908 2.66217 39.15926 3.68628 40.2277 4.7104 41.96158 6.3528 43.12994 7.37692 44.29834 8.40103 46.24532 10.04343 47.58025 11.06754 48.91518 12.09166 51.18301 13.73407 52.75124 14.75818 54.31944 15.7823 57.01483 17.42468 58.88298 18.4488 60.75114 19.47292 63.98091 21.11531 66.2156 22.13942 68.45029 23.16354 72.32117 24.80594 74.98909 25.83006 77.65698 26.85419 82.27625 28.49657 85.44408 29.52069 88.6119 30.54482 94.08627 32.18721 97.82062 33.21133 101.55495 34.23546 107.99117 35.87784 112.35875 36.90196 116.7263 37.92607 124.23155 39.56848 129.2991 40.59259 134.36667 41.61671 148.88225 44.28322 148.88225 44.28322"/>
<use data-text="y" xlink:href="#font_1_4" transform="matrix(9.963197,0,0,-9.963098,216.6629,99.89025)" fill="#ff0000"/>
<use data-text="=" xlink:href="#font_2_8" transform="matrix(9.963197,0,0,-9.963098,224.67337,99.89025)" fill="#ff0000"/>
<use data-text="f" xlink:href="#font_1_2" transform="matrix(9.963197,0,0,-9.963098,235.19,99.89025)" fill="#ff0000"/>
<use data-text="&#x2212;" xlink:href="#font_3_1" transform="matrix(6.9742186,0,0,-6.9741489,241.14038,96.27506)" fill="#ff0000"/>
<use data-text="1" xlink:href="#font_4_1" transform="matrix(6.9742186,0,0,-6.9741489,247.36673,96.27506)" fill="#ff0000"/>
<use data-text="(" xlink:href="#font_2_1" transform="matrix(9.963197,0,0,-9.963098,251.837,99.89025)" fill="#ff0000"/>
<use data-text="x" xlink:href="#font_1_3" transform="matrix(9.963197,0,0,-9.963098,255.71125,99.89025)" fill="#ff0000"/>
<use data-text=")" xlink:href="#font_2_2" transform="matrix(9.963197,0,0,-9.963098,261.40559,99.89025)" fill="#ff0000"/>
<path transform="matrix(1.00006,0,0,-1.00005,79.71169,150.23377)" stroke-width=".99628" stroke-linecap="butt" stroke-miterlimit="10" stroke-linejoin="miter" fill="none" stroke="#000000" d="M-8.85835-70.867-6.64375-62.00864-4.42917-53.15024-2.21457-44.29187 0-35.43349 2.21457-26.57512 4.42917-17.71672 6.64375-8.85835 8.85835 0 11.07297 8.85835 13.28754 17.71672 15.50215 26.57512 17.71672 35.43349 19.93132 44.29187 22.14594 53.15024 24.3605 62.00864 26.57512 70.867 28.7897 79.72537 31.0043 88.58376 33.2189 97.44214 35.43349 106.30052 37.64809 115.15889 39.86267 124.01727 42.07727 132.87566 44.29187 141.73404"/>
<use data-text="y" xlink:href="#font_1_4" transform="matrix(9.963197,0,0,-9.963098,118.96605,99.32222)"/>
<use data-text="=" xlink:href="#font_2_8" transform="matrix(9.963197,0,0,-9.963098,126.97653,99.32222)"/>
<use data-text="4" xlink:href="#font_2_7" transform="matrix(9.963197,0,0,-9.963098,137.47774,99.32222)"/>
<use data-text="x" xlink:href="#font_1_3" transform="matrix(9.963197,0,0,-9.963098,142.47446,99.32222)"/>
<use data-text="&#x2212;" xlink:href="#font_5_1" transform="matrix(9.963197,0,0,-9.963098,150.38294,99.32222)"/>
<use data-text="1" xlink:href="#font_2_4" transform="matrix(9.963197,0,0,-9.963098,160.34554,99.32222)"/>
<path transform="matrix(1.00006,0,0,-1.00005,79.71169,150.23377)" stroke-width=".99628" stroke-linecap="butt" stroke-miterlimit="10" stroke-linejoin="miter" fill="none" stroke="#000000" d="M-62.00864-6.64375-53.8888-4.61354-45.76898-2.58385-37.64917-.55362-29.52934 1.476-21.40952 3.50626-13.28972 5.53592-5.16989 7.56613 2.94989 9.59583 11.0697 11.6255 19.18953 13.65573 27.30936 15.68542 35.42915 17.71565 43.54898 19.74535 51.6688 21.77556 59.78864 23.80524 67.90845 25.83546 76.02824 27.86516 84.14809 29.89539 92.2679 31.92508 100.38771 33.95529 108.50755 35.98497 116.62737 38.0152 124.74716 40.04489 132.867 42.07512"/>
<use data-text="y" xlink:href="#font_1_4" transform="matrix(9.963197,0,0,-9.963098,136.68412,143.86545)"/>
<use data-text="=" xlink:href="#font_2_8" transform="matrix(9.963197,0,0,-9.963098,144.6946,143.86545)"/>
<use data-text="1" xlink:href="#font_4_1" transform="matrix(6.9742186,0,0,-6.9741489,156.4063,139.94225)"/>
<path transform="matrix(1.00006,0,0,-1.00005,-25.032582,8.62068)" stroke-width=".3985" stroke-linecap="butt" stroke-miterlimit="10" stroke-linejoin="miter" fill="none" stroke="#000000" d="M181.428-132.747H185.399"/>
<use data-text="4" xlink:href="#font_4_2" transform="matrix(6.9742186,0,0,-6.9741489,156.4063,147.30062)"/>
<use data-text="x" xlink:href="#font_1_3" transform="matrix(9.963197,0,0,-9.963098,161.57361,143.86545)"/>
<use data-text="+" xlink:href="#font_2_3" transform="matrix(9.963197,0,0,-9.963098,169.48209,143.86545)"/>
<use data-text="1" xlink:href="#font_4_1" transform="matrix(6.9742186,0,0,-6.9741489,180.64076,139.94225)"/>
<path transform="matrix(1.00006,0,0,-1.00005,-25.032582,8.62068)" stroke-width=".3985" stroke-linecap="butt" stroke-miterlimit="10" stroke-linejoin="miter" fill="none" stroke="#000000" d="M205.661-132.747H209.632"/>
<use data-text="4" xlink:href="#font_4_2" transform="matrix(6.9742186,0,0,-6.9741489,180.64075,147.30062)"/>
<path transform="matrix(1.00006,0,0,-1.00005,79.71169,150.23377)" stroke-width=".99628" stroke-linecap="butt" stroke-dasharray="2.98883,2.98883" stroke-miterlimit="10" stroke-linejoin="miter" fill="none" stroke="#000000" d="M-53.15024-53.15024-45.76845-45.76845-38.38663-38.38663-31.00484-31.00484-23.62305-23.62305-16.24123-16.24123-8.85944-8.85944-1.47765-1.47765 5.90411 5.90411 13.28593 13.28593 20.66772 20.66772 28.04951 28.04951 35.43134 35.43134 42.81313 42.81313 50.19492 50.19492 57.57674 57.57674 64.95853 64.95853 72.34032 72.34032 79.72215 79.72215 87.10394 87.10394 94.48573 94.48573 101.86754 101.86754 109.24934 109.24934 116.63113 116.63113 124.01294 124.01294"/>
<use data-text="y" xlink:href="#font_1_4" transform="matrix(9.963197,0,0,-9.963098,189.8373,45.104516)"/>
<use data-text="=" xlink:href="#font_2_8" transform="matrix(9.963197,0,0,-9.963098,197.84778,45.104516)"/>
<use data-text="x" xlink:href="#font_1_3" transform="matrix(9.963197,0,0,-9.963098,208.36441,45.104516)"/>
<path transform="matrix(1.00006,0,0,-1.00005,79.71169,150.23377)" d="M39.16953 106.30052C39.16953 108.3639 37.49687 110.03656 35.43349 110.03656 33.37012 110.03656 31.69745 108.3639 31.69745 106.30052 31.69745 104.23715 33.37012 102.56448 35.43349 102.56448 37.49687 102.56448 39.16953 104.23715 39.16953 106.30052ZM35.43349 106.30052"/>
<use data-text="(" xlink:href="#font_2_1" transform="matrix(9.963197,0,0,-9.963098,118.867038,46.41858)"/>
<use data-text="1" xlink:href="#font_2_4" transform="matrix(9.963197,0,0,-9.963098,122.73277,46.41858)"/>
<use data-text="," xlink:href="#font_1_1" transform="matrix(9.963197,0,0,-9.963098,127.72357,46.41858)"/>
<use data-text="3" xlink:href="#font_2_6" transform="matrix(9.963197,0,0,-9.963098,132.15184,46.41858)"/>
<use data-text=")" xlink:href="#font_2_2" transform="matrix(9.963197,0,0,-9.963098,137.13343,46.41858)"/>
<path transform="matrix(1.00006,0,0,-1.00005,79.71169,150.23377)" d="M110.03656 35.43349C110.03656 37.49687 108.3639 39.16953 106.30052 39.16953 104.23715 39.16953 102.56448 37.49687 102.56448 35.43349 102.56448 33.37012 104.23715 31.69745 106.30052 31.69745 108.3639 31.69745 110.03656 33.37012 110.03656 35.43349ZM106.30052 35.43349"/>
<use data-text="(" xlink:href="#font_2_1" transform="matrix(9.963197,0,0,-9.963098,189.73828,117.28912)"/>
<use data-text="3" xlink:href="#font_2_6" transform="matrix(9.963197,0,0,-9.963098,193.60404,117.28912)"/>
<use data-text="," xlink:href="#font_1_1" transform="matrix(9.963197,0,0,-9.963098,198.59482,117.28912)"/>
<use data-text="1" xlink:href="#font_2_4" transform="matrix(9.963197,0,0,-9.963098,203.0231,117.28912)"/>
<use data-text=")" xlink:href="#font_2_2" transform="matrix(9.963197,0,0,-9.963098,208.00467,117.28912)"/>
<path transform="matrix(1.00006,0,0,-1.00005,79.71169,150.23377)" stroke-width=".79701" stroke-linecap="butt" stroke-miterlimit="10" stroke-linejoin="miter" fill="none" stroke="#000000" d="M-35.43349 3.73604V-3.73604"/>
<use data-text="&#x2212;" xlink:href="#font_5_1" transform="matrix(9.963197,0,0,-9.963098,37.910188,164.11046)"/>
<use data-text="1" xlink:href="#font_2_4" transform="matrix(9.963197,0,0,-9.963098,45.659654,164.11046)"/>
<path transform="matrix(1.00006,0,0,-1.00005,79.71169,150.23377)" stroke-width=".79701" stroke-linecap="butt" stroke-miterlimit="10" stroke-linejoin="miter" fill="none" stroke="#000000" d="M35.43349 3.73604V-3.73604"/>
<use data-text="1" xlink:href="#font_2_4" transform="matrix(9.963197,0,0,-9.963098,112.65667,164.11046)"/>
<path transform="matrix(1.00006,0,0,-1.00005,79.71169,150.23377)" stroke-width=".79701" stroke-linecap="butt" stroke-miterlimit="10" stroke-linejoin="miter" fill="none" stroke="#000000" d="M70.867 3.73604V-3.73604"/>
<use data-text="2" xlink:href="#font_2_5" transform="matrix(9.963197,0,0,-9.963098,148.0918,164.11046)"/>
<path transform="matrix(1.00006,0,0,-1.00005,79.71169,150.23377)" stroke-width=".79701" stroke-linecap="butt" stroke-miterlimit="10" stroke-linejoin="miter" fill="none" stroke="#000000" d="M106.30052 3.73604V-3.73604"/>
<use data-text="3" xlink:href="#font_2_6" transform="matrix(9.963197,0,0,-9.963098,183.52793,164.11046)"/>
<path transform="matrix(1.00006,0,0,-1.00005,79.71169,150.23377)" stroke-width=".79701" stroke-linecap="butt" stroke-miterlimit="10" stroke-linejoin="miter" fill="none" stroke="#000000" d="M-2.49069-35.43349H2.49069"/>
<use data-text="&#x2212;" xlink:href="#font_5_1" transform="matrix(9.963197,0,0,-9.963098,65.751857,188.46468)"/>
<use data-text="1" xlink:href="#font_2_4" transform="matrix(9.963197,0,0,-9.963098,73.50132,188.46468)"/>
<path transform="matrix(1.00006,0,0,-1.00005,79.71169,150.23377)" stroke-width=".79701" stroke-linecap="butt" stroke-miterlimit="10" stroke-linejoin="miter" fill="none" stroke="#000000" d="M-2.49069 35.43349H2.49069"/>
<use data-text="1" xlink:href="#font_2_4" transform="matrix(9.963197,0,0,-9.963098,73.50132,118.009159)"/>
<path transform="matrix(1.00006,0,0,-1.00005,79.71169,150.23377)" stroke-width=".79701" stroke-linecap="butt" stroke-miterlimit="10" stroke-linejoin="miter" fill="none" stroke="#000000" d="M-2.49069 70.867H2.49069"/>
<use data-text="2" xlink:href="#font_2_5" transform="matrix(9.963197,0,0,-9.963098,73.50132,82.57339)"/>
<path transform="matrix(1.00006,0,0,-1.00005,79.71169,150.23377)" stroke-width=".79701" stroke-linecap="butt" stroke-miterlimit="10" stroke-linejoin="miter" fill="none" stroke="#000000" d="M-2.49069 106.30052H2.49069"/>
<use data-text="3" xlink:href="#font_2_6" transform="matrix(9.963197,0,0,-9.963098,73.50132,47.13862)"/>
</svg>
