<svg xmlns="http://www.w3.org/2000/svg" xmlns:xlink="http://www.w3.org/1999/xlink" xmlns:inkscape="http://www.inkscape.org/namespaces/inkscape" version="1.1" width="130" height="74" viewBox="0 0 130 74">
<defs>
<path id="font_1_1" d="M.33399964 .30233766C.33999635 .32835389 .36299134 .42037965 .43299867 .42037965 .43798829 .42037965 .46199037 .42037965 .48298646 .40734864 .45498658 .402359 .43499757 .37734986 .43499757 .35334779 .43499757 .33735658 .44599916 .31835938 .47299195 .31835938 .49499513 .31835938 .5269928 .3363495 .5269928 .37635804 .5269928 .42837525 .46798707 .4423828 .43399049 .4423828 .37599183 .4423828 .34098817 .38935853 .32899476 .36634828 .3039856 .43237306 .25 .4423828 .22099304 .4423828 .116989139 .4423828 .05999756 .3133545 .05999756 .28834535 .05999756 .27833558 .069992069 .27833558 .07199097 .27833558 .07998657 .27833558 .08299255 .28033448 .084991458 .28933717 .11898804 .39535523 .18499756 .42037965 .21899414 .42037965 .23799134 .42037965 .272995 .4113617 .272995 .35334779 .272995 .32235719 .2559967 .25532533 .21899414 .11528015 .20298767 .053268434 .16799927 .011245728 .12399292 .011245728 .117996219 .011245728 .09498596 .011245728 .07398987 .024276734 .09899902 .029266358 .12098694 .05027771 .12098694 .07827759 .12098694 .105270389 .09899902 .11328125 .083999637 .11328125 .053985597 .11328125 .0289917 .08728027 .0289917 .055267335 .0289917 .009246826 .07899475-.0107421879 .12298584-.0107421879 .18899536-.0107421879 .22499085 .059280397 .22799683 .0652771 .23999024 .028274537 .27598573-.0107421879 .33599855-.0107421879 .43899537-.0107421879 .49598695 .118270877 .49598695 .14328003 .49598695 .1532898 .4869995 .1532898 .48399354 .1532898 .47499085 .1532898 .47299195 .14929199 .47099305 .14228821 .43798829 .03527832 .36999513 .011245728 .33799745 .011245728 .29899598 .011245728 .2829895 .043273927 .2829895 .07727051 .2829895 .09927368 .2889862 .121276859 .2999878 .16529846L.33399964 .30233766Z"/>
<path id="font_1_2" d="M.48599244 .38136292C.48999024 .39537049 .48999024 .39736939 .48999024 .40437318 .48999024 .42237855 .47599793 .43138124 .46099855 .43138124 .45098878 .43138124 .43499757 .42536927 .42599488 .41036988 .42399598 .405365 .41600038 .37435914 .4119873 .35635377 .40499879 .33035279 .397995 .30334474 .3919983 .27633668L.34700013 .09628296C.34298707 .08126831 .2999878 .011245728 .23399353 .011245728 .18299866 .011245728 .17199707 .055267335 .17199707 .0922699 .17199707 .1382904 .18899536 .20030213 .22299195 .28833009 .23899842 .3293457 .24299622 .3403473 .24299622 .36035157 .24299622 .405365 .21099854 .4423828 .16099549 .4423828 .06599426 .4423828 .0289917 .29733277 .0289917 .28833009 .0289917 .27833558 .038986207 .27833558 .040985109 .27833558 .050994874 .27833558 .051986696 .28033448 .056991579 .29634095 .083999637 .3903656 .12399292 .42037965 .1579895 .42037965 .1659851 .42037965 .18299866 .42037965 .18299866 .3883667 .18299866 .36335755 .17298889 .3373413 .1659851 .31834413 .12599182 .21231079 .10798645 .1552887 .10798645 .10827637 .10798645 .019256592 .17098999-.0107421879 .22999573-.0107421879 .2689972-.0107421879 .30299378 .0062561037 .33099366 .03425598 .31799317-.017745972 .30599977-.06674194 .2659912-.11973572 .23999024-.15385437 .20199585-.18309021 .1559906-.18309021 .14199829-.18309021 .09700012-.18005371 .07998657-.14074707 .09599304-.14074707 .10899353-.14074707 .12298584-.1287384 .1329956-.11973572 .14299011-.10673523 .14299011-.08773804 .14299011-.056747438 .115997318-.052734376 .10598755-.052734376 .08299255-.052734376 .049987794-.068740848 .049987794-.11773682 .049987794-.16796875 .09399414-.20507813 .1559906-.20507813 .25898744-.20507813 .3619995-.11373901 .3899994-.00074768069L.48599244 .38136292Z"/>
<path id="font_2_1" d="M.2939911 .64004519C.2939911 .66400149 .2939911 .6660156 .2709961 .6660156 .20899964 .60227969 .12098694 .60227969 .08898926 .60227969V.57128909C.10899353 .57128909 .16799927 .57128909 .21998596 .5972748V.07902527C.21998596 .042999269 .21699524 .0309906 .1269989 .0309906H.09498596V0C.12998963 .0029907227 .21699524 .0029907227 .25698854 .0029907227 .29699708 .0029907227 .38398744 .0029907227 .4189911 0V.0309906H.3869934C.29699708 .0309906 .2939911 .041992189 .2939911 .07902527V.64004519Z"/>
<path id="font_2_2" d="M.1269989 .07699585 .23298645 .18003845C.3889923 .31811524 .44898988 .3721466 .44898988 .47216798 .44898988 .5860901 .35899354 .6660156 .23699951 .6660156 .12399292 .6660156 .049987794 .57411196 .049987794 .48516847 .049987794 .4291687 .099990848 .4291687 .102996829 .4291687 .11999512 .4291687 .15499878 .44117738 .15499878 .48217774 .15499878 .5081787 .13699341 .5341797 .101989749 .5341797 .09399414 .5341797 .09199524 .5341797 .08898926 .5331726 .11199951 .59806826 .1659851 .63500979 .22399903 .63500979 .31498719 .63500979 .35798646 .5541382 .35798646 .47216798 .35798646 .39215089 .30799867 .31311036 .25299073 .25108338L.06098938 .036987306C.049987794 .025985718 .049987794 .023986817 .049987794 0H.42099L.44898988 .17404175H.42399598C.4189911 .14402771 .4119873 .1000061 .4019928 .084991458 .394989 .07699585 .32899476 .07699585 .30699159 .07699585H.1269989Z"/>
<path id="font_2_3" d="M.2899933 .35191346C.37199403 .37893678 .42999269 .4490509 .42999269 .52809146 .42999269 .6100464 .34199525 .6660156 .24598694 .6660156 .14498902 .6660156 .068984989 .60606387 .068984989 .53009036 .068984989 .49710084 .09098816 .47808839 .11999512 .47808839 .15098572 .47808839 .17098999 .50009158 .17098999 .5290985 .17098999 .57910159 .12399292 .57910159 .10899353 .57910159 .13999939 .62802127 .20599365 .64100649 .24198914 .64100649 .2829895 .64100649 .33799745 .6190338 .33799745 .5290985 .33799745 .51708987 .33599855 .45906068 .30999757 .4149933 .27999879 .36691285 .24598694 .36390687 .22099304 .36291505 .21299744 .36190797 .18899536 .35990907 .18199158 .35990907 .17399597 .35890199 .16699219 .35791017 .16699219 .3479004 .16699219 .33691407 .17399597 .33691407 .19099427 .33691407H.23498535C.31698609 .33691407 .35398866 .2686615 .35398866 .17037964 .35398866 .034469606 .2849884 .0055389406 .24099732 .0055389406 .19799805 .0055389406 .12298584 .022491456 .08799744 .08137512 .12298584 .07637024 .1539917 .09837341 .1539917 .1363678 .1539917 .17237854 .1269989 .19238281 .09799194 .19238281 .07398987 .19238281 .041992189 .17837525 .041992189 .1343689 .041992189 .043441774 .1349945-.022460938 .24398804-.022460938 .3659973-.022460938 .45700074 .06838989 .45700074 .17037964 .45700074 .252594 .3939972 .33088685 .2899933 .35191346Z"/>
</defs>
<path transform="matrix(1.00008,0,0,-1.00003,15.220779,58.444276)" stroke-width=".29887" stroke-linecap="butt" stroke-miterlimit="10" stroke-linejoin="miter" fill="none" stroke="#333333" d="M0 0H110.06967"/>
<path transform="matrix(1.00008,0,0,-1.00003,125.299259,58.444276)" d="M3.31755 0C2.33455 .1843 .73723 .73723-.3686 1.38231V-1.38231C.73723-.73723 2.33455-.1843 3.31755 0" fill="#333333"/>
<use data-text="x" xlink:href="#font_1_1" transform="matrix(9.963397,0,0,-9.962899,118.68306,66.204509)" fill="#333333"/>
<path transform="matrix(1.00008,0,0,-1.00003,15.220779,58.444276)" stroke-width=".29887" stroke-linecap="butt" stroke-miterlimit="10" stroke-linejoin="miter" fill="none" stroke="#333333" d="M0 0H-10.85583"/>
<path transform="matrix(-1.00008,-0,0,1.00003,4.3640806,58.444276)" d="M3.31755 0C2.33455 .1843 .73723 .73723-.3686 1.38231V-1.38231C.73723-.73723 2.33455-.1843 3.31755 0" fill="#333333"/>
<path transform="matrix(1.00008,0,0,-1.00003,15.220779,58.444276)" stroke-width=".29887" stroke-linecap="butt" stroke-miterlimit="10" stroke-linejoin="miter" fill="none" stroke="#333333" d="M0 0V53.37605"/>
<path transform="matrix(0,-1.00003,-1.00008,-0,15.220779,5.0666239)" d="M3.31755 0C2.33455 .1843 .73723 .73723-.3686 1.38231V-1.38231C.73723-.73723 2.33455-.1843 3.31755 0" fill="#333333"/>
<use data-text="y" xlink:href="#font_1_2" transform="matrix(9.963397,0,0,-9.962899,18.691056,10.011822)" fill="#333333"/>
<path transform="matrix(1.00008,0,0,-1.00003,15.220779,58.444276)" stroke-width=".29887" stroke-linecap="butt" stroke-miterlimit="10" stroke-linejoin="miter" fill="none" stroke="#333333" d="M0 0V-10.85583"/>
<path transform="matrix(0,1.00003,1.00008,0,15.220779,69.30043)" d="M3.31755 0C2.33455 .1843 .73723 .73723-.3686 1.38231V-1.38231C.73723-.73723 2.33455-.1843 3.31755 0" fill="#333333"/>
<path transform="matrix(1.00008,0,0,-1.00003,15.220779,58.444276)" stroke-width=".99628" stroke-linecap="butt" stroke-miterlimit="10" stroke-linejoin="miter" fill="none" stroke="#0074c8" d="M0 0C0 0 1.70662 9.15417 2.36208 11.32816 3.01753 13.50215 4.0687 14.63902 4.72415 15.66867 5.37962 16.69832 6.4308 17.99173 7.08626 18.74922 7.74171 19.5067 8.79288 20.53513 9.44833 21.12817 10.1038 21.72122 11.15498 22.54903 11.81044 23.02356 12.4659 23.4981 13.51706 24.16742 14.17252 24.54825 14.82799 24.9291 15.87917 25.46638 16.53462 25.76845 17.19008 26.0705 18.24124 26.49242 18.8967 26.7252 19.55217 26.958 20.60332 27.27635 21.25879 27.44626 21.91425 27.61615 22.96542 27.83847 23.62088 27.94972 24.27635 28.06099 25.3275 28.19308 25.98297 28.24817 26.63843 28.30327 27.6896 28.3468 28.34506 28.3468 29.00053 28.3468 30.05168 28.30315 30.70715 28.24817 31.36261 28.1932 32.41379 28.06168 33.06924 27.95059 33.72472 27.83951 34.77586 27.61739 35.43134 27.44754 36.08679 27.27771 37.13795 26.9593 37.79341 26.72652 38.44888 26.49373 39.50005 26.07166 40.15552 25.76973 40.81097 25.4678 41.86214 24.93108 42.5176 24.55042 43.17307 24.16975 44.22423 23.50055 44.8797 23.02614 45.53516 22.55173 46.58632 21.72406 47.24178 21.1312 47.89725 20.53833 48.94841 19.51024 49.60388 18.75311 50.25934 17.99597 51.3105 16.70335 51.96596 15.6743 52.62143 14.64525 53.67258 13.45023 54.32805 11.33636 54.9835 9.2225 56.69014 .43901 56.69014 .43901"/>
<path transform="matrix(1.00008,0,0,-1.00003,15.220779,58.444276)" stroke-width=".99628" stroke-linecap="butt" stroke-miterlimit="10" stroke-linejoin="miter" fill="none" stroke="#0074c8" d="M56.69362 0C56.69362 0 57.54677 .85315 57.87442 1.1808 58.20209 1.50847 58.72758 2.03397 59.05525 2.36163 59.38292 2.6893 59.90842 3.2148 60.23608 3.54247 60.56375 3.87013 61.08925 4.39563 61.41692 4.7233 61.74458 5.05095 62.27008 5.57646 62.59775 5.90413 62.9254 6.23178 63.45091 6.7573 63.77856 7.08495 64.10623 7.41261 64.63173 7.93811 64.9594 8.26578 65.28706 8.59344 65.81256 9.11894 66.14023 9.44661 66.4679 9.77428 66.9934 10.29977 67.32106 10.62744 67.64873 10.9551 68.17422 11.4806 68.50189 11.80827 68.82954 12.13593 69.35506 12.66144 69.68271 12.98909 70.01038 13.31676 70.53587 13.84225 70.86354 14.16992 71.19121 14.49759 71.7167 15.02309 72.04437 15.35075 72.37204 15.67842 72.89754 16.20392 73.2252 16.53159 73.55287 16.85924 74.07837 17.38475 74.40604 17.71242 74.73369 18.04007 75.2592 18.56558 75.58685 18.89323 75.91452 19.2209 76.44002 19.7464 76.76768 20.07407 77.09535 20.40173 77.62085 20.92723 77.94852 21.2549 78.27618 21.58257 78.80168 22.10806 79.12935 22.43573 79.45702 22.76338 79.98251 23.2889 80.31018 23.61656 80.63783 23.94421 81.16335 24.46973 81.491 24.79738 81.81866 25.12505 82.34416 25.65054 82.67183 25.97821 82.9995 26.30588 83.525 26.83138 83.85266 27.15904 84.18033 27.48671 85.0335 28.33987 85.0335 28.33987"/>
<path transform="matrix(1.00008,0,0,-1.00003,15.220779,58.444276)" stroke-width=".79701" stroke-linecap="butt" stroke-miterlimit="10" stroke-linejoin="miter" fill="none" stroke="#000000" d="M28.3468 2.98883V-2.98883"/>
<use data-text="1" xlink:href="#font_2_1" transform="matrix(9.963397,0,0,-9.962899,41.07885,71.57267)"/>
<path transform="matrix(1.00008,0,0,-1.00003,15.220779,58.444276)" stroke-width=".79701" stroke-linecap="butt" stroke-miterlimit="10" stroke-linejoin="miter" fill="none" stroke="#000000" d="M56.69362 2.98883V-2.98883"/>
<use data-text="2" xlink:href="#font_2_2" transform="matrix(9.963397,0,0,-9.962899,69.428119,71.57267)"/>
<path transform="matrix(1.00008,0,0,-1.00003,15.220779,58.444276)" stroke-width=".79701" stroke-linecap="butt" stroke-miterlimit="10" stroke-linejoin="miter" fill="none" stroke="#000000" d="M85.04042 2.98883V-2.98883"/>
<use data-text="3" xlink:href="#font_2_3" transform="matrix(9.963397,0,0,-9.962899,97.77738,71.57267)"/>
<path transform="matrix(1.00008,0,0,-1.00003,15.220779,58.444276)" stroke-width=".79701" stroke-linecap="butt" stroke-miterlimit="10" stroke-linejoin="miter" fill="none" stroke="#000000" d="M-1.99255 28.3468H1.99255"/>
<use data-text="1" xlink:href="#font_2_1" transform="matrix(9.963397,0,0,-9.962899,8.512245,33.30652)"/>
</svg>
