<svg xmlns="http://www.w3.org/2000/svg" xmlns:xlink="http://www.w3.org/1999/xlink" xmlns:inkscape="http://www.inkscape.org/namespaces/inkscape" version="1.1" width="143" height="143" viewBox="0 0 143 143">
<defs>
<path id="font_1_1" d="M.33399964 .30233766C.33999635 .32835389 .36299134 .42037965 .43299867 .42037965 .43798829 .42037965 .46199037 .42037965 .48298646 .40734864 .45498658 .402359 .43499757 .37734986 .43499757 .35334779 .43499757 .33735658 .44599916 .31835938 .47299195 .31835938 .49499513 .31835938 .5269928 .3363495 .5269928 .37635804 .5269928 .42837525 .46798707 .4423828 .43399049 .4423828 .37599183 .4423828 .34098817 .38935853 .32899476 .36634828 .3039856 .43237306 .25 .4423828 .22099304 .4423828 .116989139 .4423828 .05999756 .3133545 .05999756 .28834535 .05999756 .27833558 .069992069 .27833558 .07199097 .27833558 .07998657 .27833558 .08299255 .28033448 .084991458 .28933717 .11898804 .39535523 .18499756 .42037965 .21899414 .42037965 .23799134 .42037965 .272995 .4113617 .272995 .35334779 .272995 .32235719 .2559967 .25532533 .21899414 .11528015 .20298767 .053268434 .16799927 .011245728 .12399292 .011245728 .117996219 .011245728 .09498596 .011245728 .07398987 .024276734 .09899902 .029266358 .12098694 .05027771 .12098694 .07827759 .12098694 .105270389 .09899902 .11328125 .083999637 .11328125 .053985597 .11328125 .0289917 .08728027 .0289917 .055267335 .0289917 .009246826 .07899475-.0107421879 .12298584-.0107421879 .18899536-.0107421879 .22499085 .059280397 .22799683 .0652771 .23999024 .028274537 .27598573-.0107421879 .33599855-.0107421879 .43899537-.0107421879 .49598695 .118270877 .49598695 .14328003 .49598695 .1532898 .4869995 .1532898 .48399354 .1532898 .47499085 .1532898 .47299195 .14929199 .47099305 .14228821 .43798829 .03527832 .36999513 .011245728 .33799745 .011245728 .29899598 .011245728 .2829895 .043273927 .2829895 .07727051 .2829895 .09927368 .2889862 .121276859 .2999878 .16529846L.33399964 .30233766Z"/>
<path id="font_1_2" d="M.48599244 .38136292C.48999024 .39537049 .48999024 .39736939 .48999024 .40437318 .48999024 .42237855 .47599793 .43138124 .46099855 .43138124 .45098878 .43138124 .43499757 .42536927 .42599488 .41036988 .42399598 .405365 .41600038 .37435914 .4119873 .35635377 .40499879 .33035279 .397995 .30334474 .3919983 .27633668L.34700013 .09628296C.34298707 .08126831 .2999878 .011245728 .23399353 .011245728 .18299866 .011245728 .17199707 .055267335 .17199707 .0922699 .17199707 .1382904 .18899536 .20030213 .22299195 .28833009 .23899842 .3293457 .24299622 .3403473 .24299622 .36035157 .24299622 .405365 .21099854 .4423828 .16099549 .4423828 .06599426 .4423828 .0289917 .29733277 .0289917 .28833009 .0289917 .27833558 .038986207 .27833558 .040985109 .27833558 .050994874 .27833558 .051986696 .28033448 .056991579 .29634095 .083999637 .3903656 .12399292 .42037965 .1579895 .42037965 .1659851 .42037965 .18299866 .42037965 .18299866 .3883667 .18299866 .36335755 .17298889 .3373413 .1659851 .31834413 .12599182 .21231079 .10798645 .1552887 .10798645 .10827637 .10798645 .019256592 .17098999-.0107421879 .22999573-.0107421879 .2689972-.0107421879 .30299378 .0062561037 .33099366 .03425598 .31799317-.017745972 .30599977-.06674194 .2659912-.11973572 .23999024-.15385437 .20199585-.18309021 .1559906-.18309021 .14199829-.18309021 .09700012-.18005371 .07998657-.14074707 .09599304-.14074707 .10899353-.14074707 .12298584-.1287384 .1329956-.11973572 .14299011-.10673523 .14299011-.08773804 .14299011-.056747438 .115997318-.052734376 .10598755-.052734376 .08299255-.052734376 .049987794-.068740848 .049987794-.11773682 .049987794-.16796875 .09399414-.20507813 .1559906-.20507813 .25898744-.20507813 .3619995-.11373901 .3899994-.00074768069L.48599244 .38136292Z"/>
<path id="font_2_2" d="M.68699648 .32714845C.70199587 .32714845 .72099307 .32714845 .72099307 .34713746 .72099307 .36714173 .70199587 .36714173 .6879883 .36714173H.08898926C.07499695 .36714173 .055999757 .36714173 .055999757 .34713746 .055999757 .32714845 .07499695 .32714845 .08999634 .32714845H.68699648M.6879883 .13284302C.70199587 .13284302 .72099307 .13284302 .72099307 .15284729 .72099307 .17285156 .70199587 .17285156 .68699648 .17285156H.08999634C.07499695 .17285156 .055999757 .17285156 .055999757 .15284729 .055999757 .13284302 .07499695 .13284302 .08898926 .13284302H.6879883Z"/>
<path id="font_2_1" d="M.2939911 .64004519C.2939911 .66400149 .2939911 .6660156 .2709961 .6660156 .20899964 .60227969 .12098694 .60227969 .08898926 .60227969V.57128909C.10899353 .57128909 .16799927 .57128909 .21998596 .5972748V.07902527C.21998596 .042999269 .21699524 .0309906 .1269989 .0309906H.09498596V0C.12998963 .0029907227 .21699524 .0029907227 .25698854 .0029907227 .29699708 .0029907227 .38398744 .0029907227 .4189911 0V.0309906H.3869934C.29699708 .0309906 .2939911 .041992189 .2939911 .07902527V.64004519Z"/>
<path id="font_3_1" d="M.6589966 .23046875C.6759949 .23046875 .69400027 .23046875 .69400027 .25045777 .69400027 .27046205 .6759949 .27046205 .6589966 .27046205H.117996219C.100997928 .27046205 .08299255 .27046205 .08299255 .25045777 .08299255 .23046875 .100997928 .23046875 .117996219 .23046875H.6589966Z"/>
<path id="font_4_1" d="M.5049896 .18203736H.47099305C.46798707 .16001892 .45799256 .100997928 .44499208 .09098816 .43699647 .084991458 .3600006 .084991458 .34599305 .084991458H.1619873C.2669983 .17803955 .3019867 .20603943 .3619995 .25306703 .43598939 .312088 .5049896 .374115 .5049896 .46914674 .5049896 .5900879 .39898683 .6640625 .2709961 .6640625 .14698792 .6640625 .06298828 .57710269 .06298828 .4851532 .06298828 .43414308 .10598755 .42915345 .115997318 .42915345 .13999939 .42915345 .16899109 .44615174 .16899109 .48214723 .16899109 .5001526 .1619873 .53515627 .10998535 .53515627 .14099121 .6060791 .20899964 .62805178 .2559967 .62805178 .35598756 .62805178 .4079895 .5501404 .4079895 .46914674 .4079895 .38212586 .34599305 .3130951 .31399537 .27708436L.07299805 .038986207C.06298828 .02999878 .06298828 .027999878 .06298828 0H.47499085L.5049896 .18203736Z"/>
</defs>
<path transform="matrix(1.00005,0,0,-1.00003,13.802788,129.3114)" d="M0 0V102.0478H25.51193V0H0" fill="#cce3f4"/>
<path transform="matrix(1.00005,0,0,-1.00003,13.802788,129.3114)" stroke-width=".79701" stroke-linecap="butt" stroke-miterlimit="10" stroke-linejoin="miter" fill="none" stroke="#000000" d="M0 0V102.0478H25.51193V0H0"/>
<path transform="matrix(1.00005,0,0,-1.00003,13.802788,129.3114)" d="M25.51193 0V95.66982H51.0239V0H25.51193" fill="#cce3f4"/>
<path transform="matrix(1.00005,0,0,-1.00003,13.802788,129.3114)" stroke-width=".79701" stroke-linecap="butt" stroke-miterlimit="10" stroke-linejoin="miter" fill="none" stroke="#000000" d="M25.51193 0V95.66982H51.0239V0H25.51193"/>
<path transform="matrix(1.00005,0,0,-1.00003,13.802788,129.3114)" d="M51.0239 0V76.53586H76.53586V0H51.0239" fill="#cce3f4"/>
<path transform="matrix(1.00005,0,0,-1.00003,13.802788,129.3114)" stroke-width=".79701" stroke-linecap="butt" stroke-miterlimit="10" stroke-linejoin="miter" fill="none" stroke="#000000" d="M51.0239 0V76.53586H76.53586V0H51.0239"/>
<path transform="matrix(1.00005,0,0,-1.00003,13.802788,129.3114)" d="M76.53586 0V44.6459H102.0478V0H76.53586" fill="#cce3f4"/>
<path transform="matrix(1.00005,0,0,-1.00003,13.802788,129.3114)" stroke-width=".79701" stroke-linecap="butt" stroke-miterlimit="10" stroke-linejoin="miter" fill="none" stroke="#000000" d="M76.53586 0V44.6459H102.0478V0H76.53586"/>
<path transform="matrix(1.00005,0,0,-1.00003,13.802788,129.3114)" stroke-width=".29887" stroke-linecap="butt" stroke-miterlimit="10" stroke-linejoin="miter" fill="none" stroke="#333333" d="M0 0H124.2422"/>
<path transform="matrix(1.00005,0,0,-1.00003,138.0512,129.3114)" d="M3.31755 0C2.33455 .1843 .73723 .73723-.3686 1.38231V-1.38231C.73723-.73723 2.33455-.1843 3.31755 0" fill="#333333"/>
<use data-text="x" xlink:href="#font_1_1" transform="matrix(9.963098,0,0,-9.962899,132.1437,137.07164)" fill="#333333"/>
<path transform="matrix(1.00005,0,0,-1.00003,13.802788,129.3114)" stroke-width=".29887" stroke-linecap="butt" stroke-miterlimit="10" stroke-linejoin="miter" fill="none" stroke="#333333" d="M0 0H-9.4384"/>
<path transform="matrix(-1.00005,-0,0,1.00003,4.3639166,129.3114)" d="M3.31755 0C2.33455 .1843 .73723 .73723-.3686 1.38231V-1.38231C.73723-.73723 2.33455-.1843 3.31755 0" fill="#333333"/>
<path transform="matrix(1.00005,0,0,-1.00003,13.802788,129.3114)" stroke-width=".29887" stroke-linecap="butt" stroke-miterlimit="10" stroke-linejoin="miter" fill="none" stroke="#333333" d="M0 0V124.2422"/>
<path transform="matrix(0,-1.00003,-1.00005,-0,13.802788,5.065468)" d="M3.31755 0C2.33455 .1843 .73723 .73723-.3686 1.38231V-1.38231C.73723-.73723 2.33455-.1843 3.31755 0" fill="#333333"/>
<use data-text="y" xlink:href="#font_1_2" transform="matrix(9.963098,0,0,-9.962899,17.272965,9.301796)" fill="#333333"/>
<path transform="matrix(1.00005,0,0,-1.00003,13.802788,129.3114)" stroke-width=".29887" stroke-linecap="butt" stroke-miterlimit="10" stroke-linejoin="miter" fill="none" stroke="#333333" d="M0 0V-9.4384"/>
<path transform="matrix(0,1.00003,1.00005,0,13.802788,138.75009)" d="M3.31755 0C2.33455 .1843 .73723 .73723-.3686 1.38231V-1.38231C.73723-.73723 2.33455-.1843 3.31755 0" fill="#333333"/>
<path transform="matrix(1.00005,0,0,-1.00003,13.802788,129.3114)" stroke-width=".99628" stroke-linecap="butt" stroke-miterlimit="10" stroke-linejoin="miter" fill="none" stroke="#0074c8" d="M0 102.0478 4.25171 101.87186 8.50345 101.34087 12.75519 100.45486 17.00691 99.21538 21.25865 97.6209 25.51039 95.67293 29.76212 93.36993 34.01384 90.71193 38.26558 87.702 42.51732 84.3355 46.76904 80.61707 51.02078 76.54053 55.27252 72.11205 59.52425 67.33167 63.77597 62.19316 68.02771 56.69962 72.27943 50.85728 76.53117 44.65524 80.78291 38.10442 85.03465 31.1939 89.28638 23.92834 93.53812 16.31555 97.78984 8.3415 102.04156 .01242"/>
<use data-text="y" xlink:href="#font_1_2" transform="matrix(9.963098,0,0,-9.962899,94.161808,55.8592)" fill="#0074c8"/>
<use data-text="=" xlink:href="#font_2_2" transform="matrix(9.963098,0,0,-9.962899,102.17121,55.8592)" fill="#0074c8"/>
<use data-text="1" xlink:href="#font_2_1" transform="matrix(9.963098,0,0,-9.962899,112.67231,55.8592)" fill="#0074c8"/>
<use data-text="&#x2212;" xlink:href="#font_3_1" transform="matrix(9.963098,0,0,-9.962899,119.883098,55.8592)" fill="#0074c8"/>
<use data-text="x" xlink:href="#font_1_1" transform="matrix(9.963098,0,0,-9.962899,129.84659,55.8592)" fill="#0074c8"/>
<use data-text="2" xlink:href="#font_4_1" transform="matrix(6.9741489,0,0,-6.9740097,135.54087,52.244096)" fill="#0074c8"/>
<path transform="matrix(1.00005,0,0,-1.00003,13.802788,129.3114)" stroke-width=".79701" stroke-linecap="butt" stroke-miterlimit="10" stroke-linejoin="miter" fill="none" stroke="#000000" d="M102.0478 2.68993V-2.68993"/>
<use data-text="1" xlink:href="#font_2_1" transform="matrix(9.963098,0,0,-9.962899,113.36476,142.1408)"/>
<path transform="matrix(1.00005,0,0,-1.00003,13.802788,129.3114)" stroke-width=".79701" stroke-linecap="butt" stroke-miterlimit="10" stroke-linejoin="miter" fill="none" stroke="#000000" d="M-1.79327 102.0478H1.79327"/>
<use data-text="1" xlink:href="#font_2_1" transform="matrix(9.963098,0,0,-9.962899,6.895439,30.470437)"/>
</svg>
