<svg xmlns="http://www.w3.org/2000/svg" xmlns:xlink="http://www.w3.org/1999/xlink" xmlns:inkscape="http://www.inkscape.org/namespaces/inkscape" version="1.1" width="174" height="174" viewBox="0 0 174 174">
<defs>
<path id="font_1_1" d="M.33399964 .30233766C.33999635 .32835389 .36299134 .42037965 .43299867 .42037965 .43798829 .42037965 .46199037 .42037965 .48298646 .40734864 .45498658 .402359 .43499757 .37734986 .43499757 .35334779 .43499757 .33735658 .44599916 .31835938 .47299195 .31835938 .49499513 .31835938 .5269928 .3363495 .5269928 .37635804 .5269928 .42837525 .46798707 .4423828 .43399049 .4423828 .37599183 .4423828 .34098817 .38935853 .32899476 .36634828 .3039856 .43237306 .25 .4423828 .22099304 .4423828 .116989139 .4423828 .05999756 .3133545 .05999756 .28834535 .05999756 .27833558 .069992069 .27833558 .07199097 .27833558 .07998657 .27833558 .08299255 .28033448 .084991458 .28933717 .11898804 .39535523 .18499756 .42037965 .21899414 .42037965 .23799134 .42037965 .272995 .4113617 .272995 .35334779 .272995 .32235719 .2559967 .25532533 .21899414 .11528015 .20298767 .053268434 .16799927 .011245728 .12399292 .011245728 .117996219 .011245728 .09498596 .011245728 .07398987 .024276734 .09899902 .029266358 .12098694 .05027771 .12098694 .07827759 .12098694 .105270389 .09899902 .11328125 .083999637 .11328125 .053985597 .11328125 .0289917 .08728027 .0289917 .055267335 .0289917 .009246826 .07899475-.0107421879 .12298584-.0107421879 .18899536-.0107421879 .22499085 .059280397 .22799683 .0652771 .23999024 .028274537 .27598573-.0107421879 .33599855-.0107421879 .43899537-.0107421879 .49598695 .118270877 .49598695 .14328003 .49598695 .1532898 .4869995 .1532898 .48399354 .1532898 .47499085 .1532898 .47299195 .14929199 .47099305 .14228821 .43798829 .03527832 .36999513 .011245728 .33799745 .011245728 .29899598 .011245728 .2829895 .043273927 .2829895 .07727051 .2829895 .09927368 .2889862 .121276859 .2999878 .16529846L.33399964 .30233766Z"/>
<path id="font_1_2" d="M.48599244 .38136292C.48999024 .39537049 .48999024 .39736939 .48999024 .40437318 .48999024 .42237855 .47599793 .43138124 .46099855 .43138124 .45098878 .43138124 .43499757 .42536927 .42599488 .41036988 .42399598 .405365 .41600038 .37435914 .4119873 .35635377 .40499879 .33035279 .397995 .30334474 .3919983 .27633668L.34700013 .09628296C.34298707 .08126831 .2999878 .011245728 .23399353 .011245728 .18299866 .011245728 .17199707 .055267335 .17199707 .0922699 .17199707 .1382904 .18899536 .20030213 .22299195 .28833009 .23899842 .3293457 .24299622 .3403473 .24299622 .36035157 .24299622 .405365 .21099854 .4423828 .16099549 .4423828 .06599426 .4423828 .0289917 .29733277 .0289917 .28833009 .0289917 .27833558 .038986207 .27833558 .040985109 .27833558 .050994874 .27833558 .051986696 .28033448 .056991579 .29634095 .083999637 .3903656 .12399292 .42037965 .1579895 .42037965 .1659851 .42037965 .18299866 .42037965 .18299866 .3883667 .18299866 .36335755 .17298889 .3373413 .1659851 .31834413 .12599182 .21231079 .10798645 .1552887 .10798645 .10827637 .10798645 .019256592 .17098999-.0107421879 .22999573-.0107421879 .2689972-.0107421879 .30299378 .0062561037 .33099366 .03425598 .31799317-.017745972 .30599977-.06674194 .2659912-.11973572 .23999024-.15385437 .20199585-.18309021 .1559906-.18309021 .14199829-.18309021 .09700012-.18005371 .07998657-.14074707 .09599304-.14074707 .10899353-.14074707 .12298584-.1287384 .1329956-.11973572 .14299011-.10673523 .14299011-.08773804 .14299011-.056747438 .115997318-.052734376 .10598755-.052734376 .08299255-.052734376 .049987794-.068740848 .049987794-.11773682 .049987794-.16796875 .09399414-.20507813 .1559906-.20507813 .25898744-.20507813 .3619995-.11373901 .3899994-.00074768069L.48599244 .38136292Z"/>
<path id="font_2_1" d="M.6589966 .23046875C.6759949 .23046875 .69400027 .23046875 .69400027 .25045777 .69400027 .27046205 .6759949 .27046205 .6589966 .27046205H.117996219C.100997928 .27046205 .08299255 .27046205 .08299255 .25045777 .08299255 .23046875 .100997928 .23046875 .117996219 .23046875H.6589966Z"/>
<path id="font_3_1" d="M.2939911 .64004519C.2939911 .66400149 .2939911 .6660156 .2709961 .6660156 .20899964 .60227969 .12098694 .60227969 .08898926 .60227969V.57128909C.10899353 .57128909 .16799927 .57128909 .21998596 .5972748V.07902527C.21998596 .042999269 .21699524 .0309906 .1269989 .0309906H.09498596V0C.12998963 .0029907227 .21699524 .0029907227 .25698854 .0029907227 .29699708 .0029907227 .38398744 .0029907227 .4189911 0V.0309906H.3869934C.29699708 .0309906 .2939911 .041992189 .2939911 .07902527V.64004519Z"/>
<path id="font_3_2" d="M.1269989 .07699585 .23298645 .18003845C.3889923 .31811524 .44898988 .3721466 .44898988 .47216798 .44898988 .5860901 .35899354 .6660156 .23699951 .6660156 .12399292 .6660156 .049987794 .57411196 .049987794 .48516847 .049987794 .4291687 .099990848 .4291687 .102996829 .4291687 .11999512 .4291687 .15499878 .44117738 .15499878 .48217774 .15499878 .5081787 .13699341 .5341797 .101989749 .5341797 .09399414 .5341797 .09199524 .5341797 .08898926 .5331726 .11199951 .59806826 .1659851 .63500979 .22399903 .63500979 .31498719 .63500979 .35798646 .5541382 .35798646 .47216798 .35798646 .39215089 .30799867 .31311036 .25299073 .25108338L.06098938 .036987306C.049987794 .025985718 .049987794 .023986817 .049987794 0H.42099L.44898988 .17404175H.42399598C.4189911 .14402771 .4119873 .1000061 .4019928 .084991458 .394989 .07699585 .32899476 .07699585 .30699159 .07699585H.1269989Z"/>
<path id="font_3_3" d="M.2899933 .35191346C.37199403 .37893678 .42999269 .4490509 .42999269 .52809146 .42999269 .6100464 .34199525 .6660156 .24598694 .6660156 .14498902 .6660156 .068984989 .60606387 .068984989 .53009036 .068984989 .49710084 .09098816 .47808839 .11999512 .47808839 .15098572 .47808839 .17098999 .50009158 .17098999 .5290985 .17098999 .57910159 .12399292 .57910159 .10899353 .57910159 .13999939 .62802127 .20599365 .64100649 .24198914 .64100649 .2829895 .64100649 .33799745 .6190338 .33799745 .5290985 .33799745 .51708987 .33599855 .45906068 .30999757 .4149933 .27999879 .36691285 .24598694 .36390687 .22099304 .36291505 .21299744 .36190797 .18899536 .35990907 .18199158 .35990907 .17399597 .35890199 .16699219 .35791017 .16699219 .3479004 .16699219 .33691407 .17399597 .33691407 .19099427 .33691407H.23498535C.31698609 .33691407 .35398866 .2686615 .35398866 .17037964 .35398866 .034469606 .2849884 .0055389406 .24099732 .0055389406 .19799805 .0055389406 .12298584 .022491456 .08799744 .08137512 .12298584 .07637024 .1539917 .09837341 .1539917 .1363678 .1539917 .17237854 .1269989 .19238281 .09799194 .19238281 .07398987 .19238281 .041992189 .17837525 .041992189 .1343689 .041992189 .043441774 .1349945-.022460938 .24398804-.022460938 .3659973-.022460938 .45700074 .06838989 .45700074 .17037964 .45700074 .252594 .3939972 .33088685 .2899933 .35191346Z"/>
<path id="font_3_4" d="M.2939911 .16503906V.07800293C.2939911 .041992189 .2919922 .0309906 .21798706 .0309906H.19699097V0C.23799134 .0029907227 .2899933 .0029907227 .33198548 .0029907227 .37399293 .0029907227 .4269867 .0029907227 .46798707 0V.0309906H.44699098C.37298585 .0309906 .37098695 .041992189 .37098695 .07800293V.16503906H.47099305V.19602967H.37098695V.65075686C.37098695 .67074587 .37098695 .6767578 .35499574 .6767578 .34599305 .6767578 .34298707 .6767578 .33499146 .66474917L.027999878 .19602967V.16503906H.2939911M.2999878 .19602967H.055999757L.2999878 .5688019V.19602967Z"/>
<path id="font_3_5" d="M.44898988 .20022583C.44898988 .3193512 .36698915 .41944886 .25898744 .41944886 .21099854 .41944886 .16799927 .40345765 .13198853 .36842347V.5637665C.1519928 .5577698 .18499756 .55078127 .21699524 .55078127 .33999635 .55078127 .4099884 .6417694 .4099884 .6547699 .4099884 .6607666 .40699769 .6657715 .3999939 .6657715 .39898683 .6657715 .39698792 .6657715 .3919983 .66278079 .37199403 .6537781 .32299806 .6337738 .2559967 .6337738 .21598816 .6337738 .16999817 .6407776 .12298584 .6617737 .114990238 .66477969 .11299133 .66477969 .11099243 .66477969 .100997928 .66477969 .100997928 .6567688 .100997928 .6407776V.34439088C.100997928 .32637025 .100997928 .31835938 .114990238 .31835938 .12199402 .31835938 .12399292 .32136537 .12799073 .32736207 .13899231 .3433838 .17599488 .39746095 .25698854 .39746095 .30899049 .39746095 .33399964 .35139466 .34199525 .33337403 .35798646 .29632569 .3600006 .25727845 .3600006 .20722962 .3600006 .17222595 .3600006 .11222839 .33599855 .07035828 .31199647 .031463624 .2749939 .0055389406 .22898865 .0055389406 .1559906 .0055389406 .09899902 .058380128 .08198547 .11723328 .084991458 .1162262 .08799744 .115234378 .09899902 .115234378 .13198853 .115234378 .14898682 .14022827 .14898682 .16423035 .14898682 .18823242 .13198853 .21322632 .09899902 .21322632 .084991458 .21322632 .049987794 .20622254 .049987794 .16023255 .049987794 .07434082 .11898804-.022460938 .23098755-.022460938 .34700013-.022460938 .44898988 .073349 .44898988 .20022583Z"/>
<path id="font_3_6" d="M.13198853 .327713V.35173036C.13198853 .6047821 .2559967 .64100649 .30699159 .64100649 .33099366 .64100649 .37298585 .634964 .394989 .6007538 .37998963 .6007538 .33999635 .6007538 .33999635 .5557556 .33999635 .524765 .3639984 .5097656 .38598634 .5097656 .4019928 .5097656 .43199159 .51875308 .43199159 .5577545 .43199159 .6178589 .3880005 .6660156 .30499269 .6660156 .1769867 .6660156 .041992189 .5367584 .041992189 .31570436 .041992189 .048553468 .1579895-.022460938 .25099183-.022460938 .3619995-.022460938 .45700074 .07156372 .45700074 .2036438 .45700074 .33070375 .36799623 .4267578 .25698854 .4267578 .18899536 .4267578 .1519928 .37573243 .13198853 .327713M.25099183 .0055389406C.18798828 .0055389406 .1579895 .06556702 .1519928 .080566409 .13398743 .127594 .13398743 .2076416 .13398743 .22564698 .13398743 .30369569 .1659851 .40374757 .2559967 .40374757 .27198792 .40374757 .31799317 .40374757 .34899903 .34172059 .36698915 .30470277 .36698915 .2536621 .36698915 .20463562 .36698915 .15661621 .36698915 .10658264 .34999085 .0705719 .31999208 .010528564 .27398683 .0055389406 .25099183 .0055389406Z"/>
</defs>
<path transform="matrix(1.00005,0,0,-1,44.165307,150.817)" stroke-width=".79701" stroke-linecap="butt" stroke-miterlimit="10" stroke-linejoin="miter" fill="none" stroke="#bfbfbf" d="M-42.5202-21.2601H127.56062M-42.5202 0H127.56062M-42.5202 21.2601H127.56062M-42.5202 42.5202H127.56062M-42.5202 63.7803H127.56062M-42.5202 85.04042H127.56062M-42.5202 106.30052H127.56062M-42.5202 127.56062H127.56062M-42.5202 148.81327H127.56062M-42.5202-21.2601V148.82074M-21.2601-21.2601V148.82074M0-21.2601V148.82074M21.2601-21.2601V148.82074M42.5202-21.2601V148.82074M63.7803-21.2601V148.82074M85.04042-21.2601V148.82074M106.30052-21.2601V148.82074M127.55316-21.2601V148.82074M127.56062 148.82074"/>
<path transform="matrix(1.00005,0,0,-1,44.165307,150.817)" stroke-width=".29887" stroke-linecap="butt" stroke-miterlimit="10" stroke-linejoin="miter" fill="none" stroke="#333333" d="M0 0H124.24307"/>
<path transform="matrix(1.00005,0,0,-1,168.41458,150.817)" d="M3.31755 0C2.33455 .1843 .73723 .73723-.3686 1.38231V-1.38231C.73723-.73723 2.33455-.1843 3.31755 0" fill="#333333"/>
<use data-text="x" xlink:href="#font_1_1" transform="matrix(9.963098,0,0,-9.9626,158.255,158.577)" fill="#333333"/>
<path transform="matrix(1.00005,0,0,-1,44.165307,150.817)" stroke-width=".29887" stroke-linecap="butt" stroke-miterlimit="10" stroke-linejoin="miter" fill="none" stroke="#333333" d="M0 0H-39.20264"/>
<path transform="matrix(-1.00005,-0,0,1,4.9607088,150.817)" d="M3.31755 0C2.33455 .1843 .73723 .73723-.3686 1.38231V-1.38231C.73723-.73723 2.33455-.1843 3.31755 0" fill="#333333"/>
<path transform="matrix(1.00005,0,0,-1,44.165307,150.817)" stroke-width=".29887" stroke-linecap="butt" stroke-miterlimit="10" stroke-linejoin="miter" fill="none" stroke="#333333" d="M0 0V145.50318"/>
<path transform="matrix(0,-1,-1.00005,-0,44.165307,5.3138277)" d="M3.31755 0C2.33455 .1843 .73723 .73723-.3686 1.38231V-1.38231C.73723-.73723 2.33455-.1843 3.31755 0" fill="#333333"/>
<use data-text="y" xlink:href="#font_1_2" transform="matrix(9.963098,0,0,-9.9626,47.635484,13.802002)" fill="#333333"/>
<path transform="matrix(1.00005,0,0,-1,44.165307,150.817)" stroke-width=".29887" stroke-linecap="butt" stroke-miterlimit="10" stroke-linejoin="miter" fill="none" stroke="#333333" d="M0 0V-17.94254"/>
<path transform="matrix(0,1,1.00005,0,44.165307,168.75954)" d="M3.31755 0C2.33455 .1843 .73723 .73723-.3686 1.38231V-1.38231C.73723-.73723 2.33455-.1843 3.31755 0" fill="#333333"/>
<path transform="matrix(1.00005,0,0,-1,44.165307,150.817)" stroke-width="1.49442" stroke-linecap="butt" stroke-miterlimit="10" stroke-linejoin="miter" fill="none" stroke="#0074c8" d="M-42.5202 106.30052-38.97707 104.52895-35.43393 102.75739-31.8908 100.98581-28.34766 99.21425-24.80452 97.44269-21.26138 95.67113-17.71825 93.89954-14.17513 92.12798-10.63199 90.35641-7.08884 88.58484-3.54572 86.81328-.00258 85.0417 3.54051 83.27014 7.08366 81.49858 10.62679 79.727 14.16992 77.95544 17.71306 76.18387 21.2562 74.41231 24.79933 72.64073 28.34247 70.86917 31.8856 69.0976 35.42874 67.32603 38.97186 65.55446 42.515 63.7829"/>
<path transform="matrix(1.00005,0,0,-1,44.165307,150.817)" stroke-width="1.49442" stroke-linecap="butt" stroke-miterlimit="10" stroke-linejoin="miter" fill="none" stroke="#0074c8" d="M42.5202 63.7803C42.5202 63.7803 45.08014 64.20544 46.06332 64.3678 47.04652 64.53014 48.62326 64.78947 49.60646 64.95042 50.58966 65.11139 52.16638 65.36835 53.14961 65.52786 54.13281 65.68736 55.70953 65.942 56.69273 66.10011 57.67595 66.25822 59.25267 66.51073 60.23587 66.6675 61.21907 66.82426 62.7958 67.07455 63.779 67.23001 64.7622 67.38547 66.33894 67.63382 67.32216 67.78798 68.30534 67.94215 69.88208 68.18816 70.86528 68.3411 71.84846 68.49403 73.4252 68.73859 74.4084 68.8903 75.39162 69.04202 76.96834 69.28415 77.95154 69.43466 78.93474 69.58516 80.51147 69.82573 81.49467 69.97511 82.47789 70.1245 84.05461 70.36313 85.03783 70.51134 86.02103 70.65956 87.59775 70.89624 88.58095 71.04337 89.56416 71.1905 91.1409 71.42577 92.12408 71.57182 93.10728 71.71788 94.68402 71.95114 95.6672 72.09605 96.65042 72.24098 98.22716 72.4725 99.21036 72.61641 100.19356 72.7603 101.77028 72.99028 102.7535 73.13318 103.7367 73.2761 105.31342 73.50447 106.29662 73.6464 107.27983 73.7883 108.85655 74.01505 109.83975 74.15602 110.82297 74.29698 112.39969 74.5224 113.3829 74.66243 114.3661 74.80243 115.94283 75.02623 116.92604 75.16525 117.90924 75.30429 119.48598 75.52637 120.46916 75.66449 121.45236 75.80263 123.0291 76.0236 124.01228 76.16084 124.9955 76.29807 127.55544 76.65361 127.55544 76.65361"/>
<path transform="matrix(1.00005,0,0,-1,44.165307,150.817)" stroke-width=".99628" stroke-linecap="butt" stroke-dasharray=".99628,1.99255" stroke-miterlimit="10" stroke-linejoin="miter" fill="none" stroke="#0074c8" d="M-42.5202 47.53871C-42.5202 47.53871-39.96028 48.10843-38.97707 48.32474-37.99385 48.54105-36.41714 48.8849-35.43393 49.0978-34.45071 49.3107-32.874 49.64954-31.8908 49.85918-30.9076 50.06883-29.33086 50.40236-28.34766 50.60887-27.36446 50.81537-25.78773 51.14401-24.80452 51.34753-23.8213 51.55107-22.2446 51.87509-21.26138 52.07584-20.27817 52.27657-18.70143 52.59637-17.71825 52.79439-16.73505 52.99237-15.15831 53.30754-14.17513 53.50287-13.19193 53.69821-11.61519 54.00946-10.63199 54.20229-9.64877 54.3951-8.07207 54.70218-7.08884 54.89262-6.10564 55.08307-4.52892 55.38676-3.54572 55.57484-2.5625 55.76292-.98576 56.0625-.00258 56.2483 .98059 56.4341 2.55733 56.73036 3.54051 56.91399 4.52373 57.09763 6.10046 57.3903 7.08366 57.57187 8.06686 57.75343 9.6436 58.04308 10.62679 58.22263 11.60999 58.40216 13.18672 58.6884 14.16992 58.86592 15.15312 59.04344 16.72984 59.32645 17.71306 59.50208 18.69627 59.6777 20.27298 59.9579 21.2562 60.13174 22.23941 60.30556 23.81613 60.58289 24.79933 60.75491 25.78253 60.92694 27.35927 61.2013 28.34247 61.37161 29.32567 61.54192 30.90239 61.81381 31.8856 61.98245 32.86882 62.15111 34.44554 62.42015 35.42874 62.58714 36.41194 62.75412 37.98868 63.02058 38.97186 63.18599 39.95506 63.35141 42.515 63.77933 42.515 63.77933"/>
<path transform="matrix(1.00005,0,0,-1,44.165307,150.817)" d="M45.50903 63.7803C45.50903 65.43102 44.17091 66.76913 42.5202 66.76913 40.86949 66.76913 39.53137 65.43102 39.53137 63.7803 39.53137 62.1296 40.86949 60.79147 42.5202 60.79147 44.17091 60.79147 45.50903 62.1296 45.50903 63.7803ZM42.5202 63.7803" fill="#0074c8"/>
<path transform="matrix(1.00005,0,0,-1,44.165307,150.817)" stroke-width=".79701" stroke-linecap="butt" stroke-miterlimit="10" stroke-linejoin="miter" fill="none" stroke="#0074c8" d="M45.50903 63.7803C45.50903 65.43102 44.17091 66.76913 42.5202 66.76913 40.86949 66.76913 39.53137 65.43102 39.53137 63.7803 39.53137 62.1296 40.86949 60.79147 42.5202 60.79147 44.17091 60.79147 45.50903 62.1296 45.50903 63.7803ZM42.5202 63.7803"/>
<path transform="matrix(1.00005,0,0,-1,44.165307,150.817)" stroke-width=".79701" stroke-linecap="butt" stroke-miterlimit="10" stroke-linejoin="miter" fill="none" stroke="#000000" d="M-21.2601 2.24162V-2.24162"/>
<use data-text="&#x2212;" xlink:href="#font_2_1" transform="matrix(9.963098,0,0,-9.9626,16.538926,163.198)"/>
<use data-text="1" xlink:href="#font_3_1" transform="matrix(9.963098,0,0,-9.9626,24.288308,163.198)"/>
<path transform="matrix(1.00005,0,0,-1,44.165307,150.817)" stroke-width=".79701" stroke-linecap="butt" stroke-miterlimit="10" stroke-linejoin="miter" fill="none" stroke="#000000" d="M21.2601 2.24162V-2.24162"/>
<use data-text="1" xlink:href="#font_3_1" transform="matrix(9.963098,0,0,-9.9626,62.93524,163.198)"/>
<path transform="matrix(1.00005,0,0,-1,44.165307,150.817)" stroke-width=".79701" stroke-linecap="butt" stroke-miterlimit="10" stroke-linejoin="miter" fill="none" stroke="#000000" d="M42.5202 2.24162V-2.24162"/>
<use data-text="2" xlink:href="#font_3_2" transform="matrix(9.963098,0,0,-9.9626,84.1973,163.198)"/>
<path transform="matrix(1.00005,0,0,-1,44.165307,150.817)" stroke-width=".79701" stroke-linecap="butt" stroke-miterlimit="10" stroke-linejoin="miter" fill="none" stroke="#000000" d="M63.7803 2.24162V-2.24162"/>
<use data-text="3" xlink:href="#font_3_3" transform="matrix(9.963098,0,0,-9.9626,105.458377,163.198)"/>
<path transform="matrix(1.00005,0,0,-1,44.165307,150.817)" stroke-width=".79701" stroke-linecap="butt" stroke-miterlimit="10" stroke-linejoin="miter" fill="none" stroke="#000000" d="M85.04042 2.24162V-2.24162"/>
<use data-text="4" xlink:href="#font_3_4" transform="matrix(9.963098,0,0,-9.9626,126.71943,163.198)"/>
<path transform="matrix(1.00005,0,0,-1,44.165307,150.817)" stroke-width=".79701" stroke-linecap="butt" stroke-miterlimit="10" stroke-linejoin="miter" fill="none" stroke="#000000" d="M106.30052 2.24162V-2.24162"/>
<use data-text="5" xlink:href="#font_3_5" transform="matrix(9.963098,0,0,-9.9626,147.9805,163.198)"/>
<path transform="matrix(1.00005,0,0,-1,44.165307,150.817)" stroke-width=".79701" stroke-linecap="butt" stroke-miterlimit="10" stroke-linejoin="miter" fill="none" stroke="#000000" d="M-1.49442 21.2601H1.49442"/>
<use data-text="1" xlink:href="#font_3_1" transform="matrix(9.963098,0,0,-9.9626,36.958948,132.767)"/>
<path transform="matrix(1.00005,0,0,-1,44.165307,150.817)" stroke-width=".79701" stroke-linecap="butt" stroke-miterlimit="10" stroke-linejoin="miter" fill="none" stroke="#000000" d="M-1.49442 42.5202H1.49442"/>
<use data-text="2" xlink:href="#font_3_2" transform="matrix(9.963098,0,0,-9.9626,36.958948,111.507)"/>
<path transform="matrix(1.00005,0,0,-1,44.165307,150.817)" stroke-width=".79701" stroke-linecap="butt" stroke-miterlimit="10" stroke-linejoin="miter" fill="none" stroke="#000000" d="M-1.49442 63.7803H1.49442"/>
<use data-text="3" xlink:href="#font_3_3" transform="matrix(9.963098,0,0,-9.9626,36.958948,90.247)"/>
<path transform="matrix(1.00005,0,0,-1,44.165307,150.817)" stroke-width=".79701" stroke-linecap="butt" stroke-miterlimit="10" stroke-linejoin="miter" fill="none" stroke="#000000" d="M-1.49442 85.04042H1.49442"/>
<use data-text="4" xlink:href="#font_3_4" transform="matrix(9.963098,0,0,-9.9626,36.958948,68.987)"/>
<path transform="matrix(1.00005,0,0,-1,44.165307,150.817)" stroke-width=".79701" stroke-linecap="butt" stroke-miterlimit="10" stroke-linejoin="miter" fill="none" stroke="#000000" d="M-1.49442 106.30052H1.49442"/>
<use data-text="5" xlink:href="#font_3_5" transform="matrix(9.963098,0,0,-9.9626,36.958948,47.727006)"/>
<path transform="matrix(1.00005,0,0,-1,44.165307,150.817)" stroke-width=".79701" stroke-linecap="butt" stroke-miterlimit="10" stroke-linejoin="miter" fill="none" stroke="#000000" d="M-1.49442 127.56062H1.49442"/>
<use data-text="6" xlink:href="#font_3_6" transform="matrix(9.963098,0,0,-9.9626,36.958948,26.467003)"/>
</svg>
