<svg xmlns="http://www.w3.org/2000/svg" xmlns:xlink="http://www.w3.org/1999/xlink" xmlns:inkscape="http://www.inkscape.org/namespaces/inkscape" version="1.1" width="260" height="260" viewBox="0 0 260 260">
<defs>
<path id="font_1_1" d="M.33399964 .30233766C.33999635 .32835389 .36299134 .42037965 .43299867 .42037965 .43798829 .42037965 .46199037 .42037965 .48298646 .40734864 .45498658 .402359 .43499757 .37734986 .43499757 .35334779 .43499757 .33735658 .44599916 .31835938 .47299195 .31835938 .49499513 .31835938 .5269928 .3363495 .5269928 .37635804 .5269928 .42837525 .46798707 .4423828 .43399049 .4423828 .37599183 .4423828 .34098817 .38935853 .32899476 .36634828 .3039856 .43237306 .25 .4423828 .22099304 .4423828 .116989139 .4423828 .05999756 .3133545 .05999756 .28834535 .05999756 .27833558 .069992069 .27833558 .07199097 .27833558 .07998657 .27833558 .08299255 .28033448 .084991458 .28933717 .11898804 .39535523 .18499756 .42037965 .21899414 .42037965 .23799134 .42037965 .272995 .4113617 .272995 .35334779 .272995 .32235719 .2559967 .25532533 .21899414 .11528015 .20298767 .053268434 .16799927 .011245728 .12399292 .011245728 .117996219 .011245728 .09498596 .011245728 .07398987 .024276734 .09899902 .029266358 .12098694 .05027771 .12098694 .07827759 .12098694 .105270389 .09899902 .11328125 .083999637 .11328125 .053985597 .11328125 .0289917 .08728027 .0289917 .055267335 .0289917 .009246826 .07899475-.0107421879 .12298584-.0107421879 .18899536-.0107421879 .22499085 .059280397 .22799683 .0652771 .23999024 .028274537 .27598573-.0107421879 .33599855-.0107421879 .43899537-.0107421879 .49598695 .118270877 .49598695 .14328003 .49598695 .1532898 .4869995 .1532898 .48399354 .1532898 .47499085 .1532898 .47299195 .14929199 .47099305 .14228821 .43798829 .03527832 .36999513 .011245728 .33799745 .011245728 .29899598 .011245728 .2829895 .043273927 .2829895 .07727051 .2829895 .09927368 .2889862 .121276859 .2999878 .16529846L.33399964 .30233766Z"/>
<path id="font_1_2" d="M.48599244 .38136292C.48999024 .39537049 .48999024 .39736939 .48999024 .40437318 .48999024 .42237855 .47599793 .43138124 .46099855 .43138124 .45098878 .43138124 .43499757 .42536927 .42599488 .41036988 .42399598 .405365 .41600038 .37435914 .4119873 .35635377 .40499879 .33035279 .397995 .30334474 .3919983 .27633668L.34700013 .09628296C.34298707 .08126831 .2999878 .011245728 .23399353 .011245728 .18299866 .011245728 .17199707 .055267335 .17199707 .0922699 .17199707 .1382904 .18899536 .20030213 .22299195 .28833009 .23899842 .3293457 .24299622 .3403473 .24299622 .36035157 .24299622 .405365 .21099854 .4423828 .16099549 .4423828 .06599426 .4423828 .0289917 .29733277 .0289917 .28833009 .0289917 .27833558 .038986207 .27833558 .040985109 .27833558 .050994874 .27833558 .051986696 .28033448 .056991579 .29634095 .083999637 .3903656 .12399292 .42037965 .1579895 .42037965 .1659851 .42037965 .18299866 .42037965 .18299866 .3883667 .18299866 .36335755 .17298889 .3373413 .1659851 .31834413 .12599182 .21231079 .10798645 .1552887 .10798645 .10827637 .10798645 .019256592 .17098999-.0107421879 .22999573-.0107421879 .2689972-.0107421879 .30299378 .0062561037 .33099366 .03425598 .31799317-.017745972 .30599977-.06674194 .2659912-.11973572 .23999024-.15385437 .20199585-.18309021 .1559906-.18309021 .14199829-.18309021 .09700012-.18005371 .07998657-.14074707 .09599304-.14074707 .10899353-.14074707 .12298584-.1287384 .1329956-.11973572 .14299011-.10673523 .14299011-.08773804 .14299011-.056747438 .115997318-.052734376 .10598755-.052734376 .08299255-.052734376 .049987794-.068740848 .049987794-.11773682 .049987794-.16796875 .09399414-.20507813 .1559906-.20507813 .25898744-.20507813 .3619995-.11373901 .3899994-.00074768069L.48599244 .38136292Z"/>
<path id="font_2_1" d="M.6589966 .23046875C.6759949 .23046875 .69400027 .23046875 .69400027 .25045777 .69400027 .27046205 .6759949 .27046205 .6589966 .27046205H.117996219C.100997928 .27046205 .08299255 .27046205 .08299255 .25045777 .08299255 .23046875 .100997928 .23046875 .117996219 .23046875H.6589966Z"/>
<path id="font_3_3" d="M.44898988 .20022583C.44898988 .3193512 .36698915 .41944886 .25898744 .41944886 .21099854 .41944886 .16799927 .40345765 .13198853 .36842347V.5637665C.1519928 .5577698 .18499756 .55078127 .21699524 .55078127 .33999635 .55078127 .4099884 .6417694 .4099884 .6547699 .4099884 .6607666 .40699769 .6657715 .3999939 .6657715 .39898683 .6657715 .39698792 .6657715 .3919983 .66278079 .37199403 .6537781 .32299806 .6337738 .2559967 .6337738 .21598816 .6337738 .16999817 .6407776 .12298584 .6617737 .114990238 .66477969 .11299133 .66477969 .11099243 .66477969 .100997928 .66477969 .100997928 .6567688 .100997928 .6407776V.34439088C.100997928 .32637025 .100997928 .31835938 .114990238 .31835938 .12199402 .31835938 .12399292 .32136537 .12799073 .32736207 .13899231 .3433838 .17599488 .39746095 .25698854 .39746095 .30899049 .39746095 .33399964 .35139466 .34199525 .33337403 .35798646 .29632569 .3600006 .25727845 .3600006 .20722962 .3600006 .17222595 .3600006 .11222839 .33599855 .07035828 .31199647 .031463624 .2749939 .0055389406 .22898865 .0055389406 .1559906 .0055389406 .09899902 .058380128 .08198547 .11723328 .084991458 .1162262 .08799744 .115234378 .09899902 .115234378 .13198853 .115234378 .14898682 .14022827 .14898682 .16423035 .14898682 .18823242 .13198853 .21322632 .09899902 .21322632 .084991458 .21322632 .049987794 .20622254 .049987794 .16023255 .049987794 .07434082 .11898804-.022460938 .23098755-.022460938 .34700013-.022460938 .44898988 .073349 .44898988 .20022583Z"/>
<path id="font_3_2" d="M.2899933 .35191346C.37199403 .37893678 .42999269 .4490509 .42999269 .52809146 .42999269 .6100464 .34199525 .6660156 .24598694 .6660156 .14498902 .6660156 .068984989 .60606387 .068984989 .53009036 .068984989 .49710084 .09098816 .47808839 .11999512 .47808839 .15098572 .47808839 .17098999 .50009158 .17098999 .5290985 .17098999 .57910159 .12399292 .57910159 .10899353 .57910159 .13999939 .62802127 .20599365 .64100649 .24198914 .64100649 .2829895 .64100649 .33799745 .6190338 .33799745 .5290985 .33799745 .51708987 .33599855 .45906068 .30999757 .4149933 .27999879 .36691285 .24598694 .36390687 .22099304 .36291505 .21299744 .36190797 .18899536 .35990907 .18199158 .35990907 .17399597 .35890199 .16699219 .35791017 .16699219 .3479004 .16699219 .33691407 .17399597 .33691407 .19099427 .33691407H.23498535C.31698609 .33691407 .35398866 .2686615 .35398866 .17037964 .35398866 .034469606 .2849884 .0055389406 .24099732 .0055389406 .19799805 .0055389406 .12298584 .022491456 .08799744 .08137512 .12298584 .07637024 .1539917 .09837341 .1539917 .1363678 .1539917 .17237854 .1269989 .19238281 .09799194 .19238281 .07398987 .19238281 .041992189 .17837525 .041992189 .1343689 .041992189 .043441774 .1349945-.022460938 .24398804-.022460938 .3659973-.022460938 .45700074 .06838989 .45700074 .17037964 .45700074 .252594 .3939972 .33088685 .2899933 .35191346Z"/>
<path id="font_3_1" d="M.2939911 .64004519C.2939911 .66400149 .2939911 .6660156 .2709961 .6660156 .20899964 .60227969 .12098694 .60227969 .08898926 .60227969V.57128909C.10899353 .57128909 .16799927 .57128909 .21998596 .5972748V.07902527C.21998596 .042999269 .21699524 .0309906 .1269989 .0309906H.09498596V0C.12998963 .0029907227 .21699524 .0029907227 .25698854 .0029907227 .29699708 .0029907227 .38398744 .0029907227 .4189911 0V.0309906H.3869934C.29699708 .0309906 .2939911 .041992189 .2939911 .07902527V.64004519Z"/>
</defs>
<path transform="matrix(1.00006,0,0,-1.00006,130.02973,130.05696)" stroke-width=".79701" stroke-linecap="butt" stroke-miterlimit="10" stroke-linejoin="miter" fill="none" stroke="#bfbfbf" d="M-119.05606-119.05606H119.05606M-119.05606-99.2134H119.05606M-119.05606-79.37071H119.05606M-119.05606-59.52802H119.05606M-119.05606-39.68535H119.05606M-119.05606-19.84267H119.05606M-119.05606 0H119.05606M-119.05606 19.84267H119.05606M-119.05606 39.68535H119.05606M-119.05606 59.52802H119.05606M-119.05606 79.37071H119.05606M-119.05606 99.2134H119.05606M-119.05606 119.0491H119.05606M-119.05606-119.05606V119.05606M-99.2134-119.05606V119.05606M-79.37071-119.05606V119.05606M-59.52802-119.05606V119.05606M-39.68535-119.05606V119.05606M-19.84267-119.05606V119.05606M0-119.05606V119.05606M19.84267-119.05606V119.05606M39.68535-119.05606V119.05606M59.52802-119.05606V119.05606M79.37071-119.05606V119.05606M99.2134-119.05606V119.05606M119.0491-119.05606V119.05606M119.05606 119.05606"/>
<path transform="matrix(1.00006,0,0,-1.00006,130.02973,130.05696)" stroke-width=".29887" stroke-linecap="butt" stroke-miterlimit="10" stroke-linejoin="miter" fill="none" stroke="#333333" d="M-119.05606 0H125.65985"/>
<path transform="matrix(1.00006,0,0,-1.00006,255.69712,130.05696)" d="M3.31755 0C2.33455 .1843 .73723 .73723-.3686 1.38231V-1.38231C.73723-.73723 2.33455-.1843 3.31755 0" fill="#333333"/>
<use data-text="x" xlink:href="#font_1_1" transform="matrix(9.963197,0,0,-9.963197,251.20699,137.81743)" fill="#333333"/>
<path transform="matrix(1.00006,0,0,-1.00006,130.02973,130.05696)" stroke-width=".29887" stroke-linecap="butt" stroke-miterlimit="10" stroke-linejoin="miter" fill="none" stroke="#333333" d="M0 0H-125.65985"/>
<path transform="matrix(-1.00006,-0,0,1.00006,4.362335,130.05696)" d="M3.31755 0C2.33455 .1843 .73723 .73723-.3686 1.38231V-1.38231C.73723-.73723 2.33455-.1843 3.31755 0" fill="#333333"/>
<path transform="matrix(1.00006,0,0,-1.00006,130.02973,130.05696)" stroke-width=".29887" stroke-linecap="butt" stroke-miterlimit="10" stroke-linejoin="miter" fill="none" stroke="#333333" d="M0 0V125.65985"/>
<path transform="matrix(0,-1.00006,-1.00006,-0,130.02973,4.389572)" d="M3.31755 0C2.33455 .1843 .73723 .73723-.3686 1.38231V-1.38231C.73723-.73723 2.33455-.1843 3.31755 0" fill="#333333"/>
<use data-text="y" xlink:href="#font_1_2" transform="matrix(9.963197,0,0,-9.963197,133.49994,7.2085955)" fill="#333333"/>
<path transform="matrix(1.00006,0,0,-1.00006,130.02973,130.05696)" stroke-width=".29887" stroke-linecap="butt" stroke-miterlimit="10" stroke-linejoin="miter" fill="none" stroke="#333333" d="M0 0V-125.65985"/>
<path transform="matrix(0,1.00006,1.00006,0,130.02973,255.72435)" d="M3.31755 0C2.33455 .1843 .73723 .73723-.3686 1.38231V-1.38231C.73723-.73723 2.33455-.1843 3.31755 0" fill="#333333"/>
<path transform="matrix(1.00006,0,0,-1.00006,130.02973,130.05696)" stroke-width="1.49442" stroke-linecap="butt" stroke-miterlimit="10" stroke-linejoin="miter" fill="none" stroke="#0074c8" d="M-119.05606-31.75264C-119.05606-31.75264-115.47195-27.50647-114.0954-25.92331-112.71883-24.34013-110.51129-21.85657-109.13472-20.34224-107.75815-18.82793-105.55061-16.45462-104.17404-15.00916-102.79749-13.5637-100.58995-11.30101-99.2134-9.92435-97.83682-8.5477-95.62929-6.39503-94.25272-5.0872-92.87614-3.77937-90.66861-1.73734-89.29204-.49834-87.91548 .7406-85.70793 2.67238-84.33138 3.84248-82.9548 5.01262-80.74728 6.8338-79.37071 7.93512-77.99414 9.03642-75.78659 10.74754-74.41003 11.78004-73.03348 12.81256-70.82591 14.41309-69.44937 15.37674-68.0728 16.34038-65.86525 17.83063-64.48868 18.72542-63.11214 19.62021-60.90459 20.99985-59.52802 21.82584-58.15147 22.65182-55.94391 23.92142-54.56735 24.67859-53.19078 25.43576-50.98325 26.59473-49.60667 27.28307-48.23012 27.97137-46.02257 29.0201-44.64601 29.63956-43.26944 30.25903-41.0619 31.19713-39.68535 31.74777-38.30878 32.29843-36.10124 33.12648-34.72467 33.60832-33.34811 34.09016-31.14056 34.80763-29.764 35.22061-28.38744 35.63359-26.1799 36.24078-24.80333 36.58492-23.42676 36.92906-21.21924 37.42563-19.84267 37.70094-18.46611 37.97627-16.25856 38.3628-14.882 38.5693-13.50543 38.77583-11.2979 39.05174-9.92133 39.1894-8.54475 39.32706-6.3372 39.49269-4.96065 39.5615-3.58409 39.63031 0 39.68535 0 39.68535"/>
<path transform="matrix(1.00006,0,0,-1.00006,130.02973,130.05696)" stroke-width="1.49442" stroke-linecap="butt" stroke-miterlimit="10" stroke-linejoin="miter" fill="none" stroke="#0074c8" d="M0 39.68535C0 39.68535 2.38924 39.45483 3.3069 39.17819 4.22453 38.90155 5.69614 38.22597 6.6138 37.69156 7.53146 37.15717 9.00307 36.0823 9.92072 35.3266 10.83836 34.57089 12.30998 33.1705 13.22763 32.24493 14.14528 31.3194 15.61688 29.68819 16.53455 28.65584 17.4522 27.6235 18.9238 25.87321 19.84145 24.80455 20.75911 23.73586 22.23073 21.98589 23.14836 20.95355 24.06601 19.92122 25.53763 18.28981 26.45526 17.36414 27.37292 16.43846 28.84453 15.03767 29.76218 14.28189 30.67984 13.5261 32.15143 12.45143 33.06909 11.91692 33.98676 11.38239 35.45834 10.7062 36.376 10.42938 37.29367 10.15254 38.76526 9.92178 39.68292 9.92163 40.60057 9.92146 42.07219 10.15178 42.98984 10.42818 43.90749 10.70454 45.3791 11.37944 46.29675 11.91359 47.21439 12.44772 48.686 13.52234 49.60365 14.27797 50.52129 15.03358 51.9929 16.43414 52.91055 17.3596 53.82822 18.28506 55.29982 19.91583 56.21747 20.94809 57.13512 21.98033 58.60674 23.73071 59.52438 24.7994 60.44205 25.86807 61.91364 27.61806 62.8313 28.6504 63.74896 29.68274 65.22055 31.31404 66.1382 32.23979 67.05588 33.16554 68.52747 34.56665 69.44513 35.32266 70.36278 36.07864 71.83438 37.15381 72.75204 37.68854 73.66968 38.22328 75.1413 38.89969 76.05894 39.17668 76.9766 39.45369 79.36586 39.68503 79.36586 39.68503"/>
<path transform="matrix(1.00006,0,0,-1.00006,130.02973,130.05696)" stroke-width="1.49442" stroke-linecap="butt" stroke-miterlimit="10" stroke-linejoin="miter" fill="none" stroke="#0074c8" d="M79.37071 39.68535C79.37071 39.68535 80.56534 39.62402 81.02415 39.54759 81.48297 39.47115 82.21878 39.2872 82.67761 39.1343 83.13643 38.98138 83.87224 38.67485 84.33107 38.44548 84.78989 38.21613 85.5257 37.787 85.98453 37.48114 86.44334 37.17528 87.17915 36.62334 87.63799 36.24097 88.09682 35.8586 88.83261 35.18407 89.29143 34.72528 89.75026 34.2665 90.48607 33.46959 90.9449 32.93436 91.40372 32.39914 92.13951 31.47935 92.59834 30.86761 93.05717 30.25587 93.79297 29.21355 94.2518 28.52534 94.71063 27.83716 95.44644 26.6722 95.90526 25.90755 96.36409 25.1429 97.0999 23.8554 97.55872 23.01424 98.01753 22.17308 98.75336 20.76268 99.21217 19.84508 99.671 18.92747 100.40681 17.39474 100.86562 16.40071 101.32445 15.40668 102.06027 13.75134 102.51907 12.68082 102.9779 11.61028 103.71371 9.8321 104.17253 8.68507 104.63136 7.53806 105.36717 5.63731 105.82599 4.41383 106.2848 3.19037 107.02063 1.167 107.47946-.13289 107.93828-1.43283 108.67409-3.57881 109.1329-4.9552 109.59172-6.33159 110.32755-8.60017 110.78638-10.05302 111.24518-11.50589 111.98099-13.89708 112.43982-15.42638 112.89864-16.95569 113.63446-19.4695 114.09328-21.07526 114.5521-22.68103 115.2879-25.31738 115.74673-26.99966 116.20555-28.68193 116.94136-31.44113 117.40018-33.19989 117.859-34.95866 119.05365-39.67564 119.05365-39.67564"/>
<path transform="matrix(1.00006,0,0,-1.00006,130.02973,130.05696)" stroke-width=".79701" stroke-linecap="butt" stroke-miterlimit="10" stroke-linejoin="miter" fill="none" stroke="#000000" d="M-99.2134 2.09216V-2.09216"/>
<use data-text="&#x2212;" xlink:href="#font_2_1" transform="matrix(9.963197,0,0,-9.963197,24.444382,142.2897)"/>
<use data-text="5" xlink:href="#font_3_3" transform="matrix(9.963197,0,0,-9.963197,32.193849,142.2897)"/>
<path transform="matrix(1.00006,0,0,-1.00006,130.02973,130.05696)" stroke-width=".79701" stroke-linecap="butt" stroke-miterlimit="10" stroke-linejoin="miter" fill="none" stroke="#000000" d="M-59.52802 2.09216V-2.09216"/>
<use data-text="&#x2212;" xlink:href="#font_2_1" transform="matrix(9.963197,0,0,-9.963197,64.13277,142.2897)"/>
<use data-text="3" xlink:href="#font_3_2" transform="matrix(9.963197,0,0,-9.963197,71.88223,142.2897)"/>
<path transform="matrix(1.00006,0,0,-1.00006,130.02973,130.05696)" stroke-width=".79701" stroke-linecap="butt" stroke-miterlimit="10" stroke-linejoin="miter" fill="none" stroke="#000000" d="M-19.84267 2.09216V-2.09216"/>
<use data-text="&#x2212;" xlink:href="#font_2_1" transform="matrix(9.963197,0,0,-9.963197,103.82015,142.2897)"/>
<use data-text="1" xlink:href="#font_3_1" transform="matrix(9.963197,0,0,-9.963197,111.56962,142.2897)"/>
<path transform="matrix(1.00006,0,0,-1.00006,130.02973,130.05696)" stroke-width=".79701" stroke-linecap="butt" stroke-miterlimit="10" stroke-linejoin="miter" fill="none" stroke="#000000" d="M19.84267 2.09216V-2.09216"/>
<use data-text="1" xlink:href="#font_3_1" transform="matrix(9.963197,0,0,-9.963197,147.38277,142.2897)"/>
<path transform="matrix(1.00006,0,0,-1.00006,130.02973,130.05696)" stroke-width=".79701" stroke-linecap="butt" stroke-miterlimit="10" stroke-linejoin="miter" fill="none" stroke="#000000" d="M59.52802 2.09216V-2.09216"/>
<use data-text="3" xlink:href="#font_3_2" transform="matrix(9.963197,0,0,-9.963197,187.07015,142.2897)"/>
<path transform="matrix(1.00006,0,0,-1.00006,130.02973,130.05696)" stroke-width=".79701" stroke-linecap="butt" stroke-miterlimit="10" stroke-linejoin="miter" fill="none" stroke="#000000" d="M99.2134 2.09216V-2.09216"/>
<use data-text="5" xlink:href="#font_3_3" transform="matrix(9.963197,0,0,-9.963197,226.75852,142.2897)"/>
<path transform="matrix(1.00006,0,0,-1.00006,130.02973,130.05696)" stroke-width=".79701" stroke-linecap="butt" stroke-miterlimit="10" stroke-linejoin="miter" fill="none" stroke="#000000" d="M-1.39478-99.2134H1.39478"/>
<use data-text="&#x2212;" xlink:href="#font_2_1" transform="matrix(9.963197,0,0,-9.963197,114.97382,232.07108)"/>
<use data-text="5" xlink:href="#font_3_3" transform="matrix(9.963197,0,0,-9.963197,122.72329,232.07108)"/>
<path transform="matrix(1.00006,0,0,-1.00006,130.02973,130.05696)" stroke-width=".79701" stroke-linecap="butt" stroke-miterlimit="10" stroke-linejoin="miter" fill="none" stroke="#000000" d="M-1.39478-59.52802H1.39478"/>
<use data-text="&#x2212;" xlink:href="#font_2_1" transform="matrix(9.963197,0,0,-9.963197,114.97382,192.3837)"/>
<use data-text="3" xlink:href="#font_3_2" transform="matrix(9.963197,0,0,-9.963197,122.72329,192.3837)"/>
<path transform="matrix(1.00006,0,0,-1.00006,130.02973,130.05696)" stroke-width=".79701" stroke-linecap="butt" stroke-miterlimit="10" stroke-linejoin="miter" fill="none" stroke="#000000" d="M-1.39478-19.84267H1.39478"/>
<use data-text="&#x2212;" xlink:href="#font_2_1" transform="matrix(9.963197,0,0,-9.963197,114.97382,152.69632)"/>
<use data-text="1" xlink:href="#font_3_1" transform="matrix(9.963197,0,0,-9.963197,122.72329,152.69632)"/>
<path transform="matrix(1.00006,0,0,-1.00006,130.02973,130.05696)" stroke-width=".79701" stroke-linecap="butt" stroke-miterlimit="10" stroke-linejoin="miter" fill="none" stroke="#000000" d="M-1.39478 19.84267H1.39478"/>
<use data-text="1" xlink:href="#font_3_1" transform="matrix(9.963197,0,0,-9.963197,122.72328,113.423969)"/>
<path transform="matrix(1.00006,0,0,-1.00006,130.02973,130.05696)" stroke-width=".79701" stroke-linecap="butt" stroke-miterlimit="10" stroke-linejoin="miter" fill="none" stroke="#000000" d="M-1.39478 59.52802H1.39478"/>
<use data-text="3" xlink:href="#font_3_2" transform="matrix(9.963197,0,0,-9.963197,122.72328,73.73558)"/>
<path transform="matrix(1.00006,0,0,-1.00006,130.02973,130.05696)" stroke-width=".79701" stroke-linecap="butt" stroke-miterlimit="10" stroke-linejoin="miter" fill="none" stroke="#000000" d="M-1.39478 99.2134H1.39478"/>
<use data-text="5" xlink:href="#font_3_3" transform="matrix(9.963197,0,0,-9.963197,122.72328,34.048204)"/>
</svg>
