<svg xmlns="http://www.w3.org/2000/svg" xmlns:xlink="http://www.w3.org/1999/xlink" xmlns:inkscape="http://www.inkscape.org/namespaces/inkscape" version="1.1" width="165" height="169" viewBox="0 0 165 169">
<defs>
<clipPath id="clip_1">
<path transform="matrix(1.00005,0,0,-1.00003,82.65637,86.358119)" d="M-84.75668-84.75668V84.75668H84.75668V-84.75668ZM84.75668 84.75668"/>
</clipPath>
<path id="font_2_1" d="M.33399964 .30233766C.33999635 .32835389 .36299134 .42037965 .43299867 .42037965 .43798829 .42037965 .46199037 .42037965 .48298646 .40734864 .45498658 .402359 .43499757 .37734986 .43499757 .35334779 .43499757 .33735658 .44599916 .31835938 .47299195 .31835938 .49499513 .31835938 .5269928 .3363495 .5269928 .37635804 .5269928 .42837525 .46798707 .4423828 .43399049 .4423828 .37599183 .4423828 .34098817 .38935853 .32899476 .36634828 .3039856 .43237306 .25 .4423828 .22099304 .4423828 .116989139 .4423828 .05999756 .3133545 .05999756 .28834535 .05999756 .27833558 .069992069 .27833558 .07199097 .27833558 .07998657 .27833558 .08299255 .28033448 .084991458 .28933717 .11898804 .39535523 .18499756 .42037965 .21899414 .42037965 .23799134 .42037965 .272995 .4113617 .272995 .35334779 .272995 .32235719 .2559967 .25532533 .21899414 .11528015 .20298767 .053268434 .16799927 .011245728 .12399292 .011245728 .117996219 .011245728 .09498596 .011245728 .07398987 .024276734 .09899902 .029266358 .12098694 .05027771 .12098694 .07827759 .12098694 .105270389 .09899902 .11328125 .083999637 .11328125 .053985597 .11328125 .0289917 .08728027 .0289917 .055267335 .0289917 .009246826 .07899475-.0107421879 .12298584-.0107421879 .18899536-.0107421879 .22499085 .059280397 .22799683 .0652771 .23999024 .028274537 .27598573-.0107421879 .33599855-.0107421879 .43899537-.0107421879 .49598695 .118270877 .49598695 .14328003 .49598695 .1532898 .4869995 .1532898 .48399354 .1532898 .47499085 .1532898 .47299195 .14929199 .47099305 .14228821 .43798829 .03527832 .36999513 .011245728 .33799745 .011245728 .29899598 .011245728 .2829895 .043273927 .2829895 .07727051 .2829895 .09927368 .2889862 .121276859 .2999878 .16529846L.33399964 .30233766Z"/>
<path id="font_2_2" d="M.48599244 .38136292C.48999024 .39537049 .48999024 .39736939 .48999024 .40437318 .48999024 .42237855 .47599793 .43138124 .46099855 .43138124 .45098878 .43138124 .43499757 .42536927 .42599488 .41036988 .42399598 .405365 .41600038 .37435914 .4119873 .35635377 .40499879 .33035279 .397995 .30334474 .3919983 .27633668L.34700013 .09628296C.34298707 .08126831 .2999878 .011245728 .23399353 .011245728 .18299866 .011245728 .17199707 .055267335 .17199707 .0922699 .17199707 .1382904 .18899536 .20030213 .22299195 .28833009 .23899842 .3293457 .24299622 .3403473 .24299622 .36035157 .24299622 .405365 .21099854 .4423828 .16099549 .4423828 .06599426 .4423828 .0289917 .29733277 .0289917 .28833009 .0289917 .27833558 .038986207 .27833558 .040985109 .27833558 .050994874 .27833558 .051986696 .28033448 .056991579 .29634095 .083999637 .3903656 .12399292 .42037965 .1579895 .42037965 .1659851 .42037965 .18299866 .42037965 .18299866 .3883667 .18299866 .36335755 .17298889 .3373413 .1659851 .31834413 .12599182 .21231079 .10798645 .1552887 .10798645 .10827637 .10798645 .019256592 .17098999-.0107421879 .22999573-.0107421879 .2689972-.0107421879 .30299378 .0062561037 .33099366 .03425598 .31799317-.017745972 .30599977-.06674194 .2659912-.11973572 .23999024-.15385437 .20199585-.18309021 .1559906-.18309021 .14199829-.18309021 .09700012-.18005371 .07998657-.14074707 .09599304-.14074707 .10899353-.14074707 .12298584-.1287384 .1329956-.11973572 .14299011-.10673523 .14299011-.08773804 .14299011-.056747438 .115997318-.052734376 .10598755-.052734376 .08299255-.052734376 .049987794-.068740848 .049987794-.11773682 .049987794-.16796875 .09399414-.20507813 .1559906-.20507813 .25898744-.20507813 .3619995-.11373901 .3899994-.00074768069L.48599244 .38136292Z"/>
</defs>
<g clip-path="url(#clip_1)">
<path transform="matrix(1.00005,0,0,-1.00003,82.65637,86.358119)" stroke-width=".3985" stroke-linecap="butt" stroke-miterlimit="10" stroke-linejoin="miter" fill="none" stroke="#999999" d="M-65.1973-65.1973-60.91827-69.47586"/>
<path transform="matrix(.70715537,.7070812,.7070953,-.7071412,21.735039,155.83606)" stroke-width=".31879" stroke-linecap="round" stroke-linejoin="round" fill="none" stroke="#999999" d="M-1.19551 1.59401C-1.09587 .99626 0 .09961 .29886 0 0-.09961-1.09587-.99626-1.19551-1.59401"/>
<path transform="matrix(1.00005,0,0,-1.00003,82.65637,86.358119)" stroke-width=".3985" stroke-linecap="butt" stroke-miterlimit="10" stroke-linejoin="miter" fill="none" stroke="#999999" d="M-65.1973-48.89796-61.6843-53.81607"/>
<path transform="matrix(.58122906,.81371447,.81373068,-.58121749,20.96899,140.1758)" stroke-width=".31879" stroke-linecap="round" stroke-linejoin="round" fill="none" stroke="#999999" d="M-1.19551 1.59401C-1.09587 .99626 0 .09961 .29886 0 0-.09961-1.09587-.99626-1.19551-1.59401"/>
<path transform="matrix(1.00005,0,0,-1.00003,82.65637,86.358119)" stroke-width=".3985" stroke-linecap="butt" stroke-miterlimit="10" stroke-linejoin="miter" fill="none" stroke="#999999" d="M-65.1973-32.59865-63.29085-38.31793"/>
<path transform="matrix(.31621579,.9486685,.9486874,-.3162095,19.36235,124.6772)" stroke-width=".31879" stroke-linecap="round" stroke-linejoin="round" fill="none" stroke="#999999" d="M-1.19551 1.59401C-1.09587 .99626 0 .09961 .29886 0 0-.09961-1.09587-.99626-1.19551-1.59401"/>
<path transform="matrix(1.00005,0,0,-1.00003,82.65637,86.358119)" stroke-width=".3985" stroke-linecap="butt" stroke-miterlimit="10" stroke-linejoin="miter" fill="none" stroke="#999999" d="M-65.1973-16.29932-66.37587-22.19398"/>
<path transform="matrix(-.1960498,.98057946,.980599,.19604589,16.277207,108.552768)" stroke-width=".31879" stroke-linecap="round" stroke-linejoin="round" fill="none" stroke="#999999" d="M-1.19551 1.59401C-1.09587 .99626 0 .09961 .29886 0 0-.09961-1.09587-.99626-1.19551-1.59401"/>
<path transform="matrix(1.00005,0,0,-1.00003,82.65637,86.358119)" stroke-width=".3985" stroke-linecap="butt" stroke-miterlimit="10" stroke-linejoin="miter" fill="none" stroke="#999999" d="M-65.1973 0-69.45444-4.25713"/>
<path transform="matrix(-.7071353,.7071212,.7071353,.7071212,13.198463,90.61537)" stroke-width=".31879" stroke-linecap="round" stroke-linejoin="round" fill="none" stroke="#999999" d="M-1.19551 1.59401C-1.09587 .99626 0 .09961 .29886 0 0-.09961-1.09587-.99626-1.19551-1.59401"/>
<path transform="matrix(1.00005,0,0,-1.00003,82.65637,86.358119)" stroke-width=".3985" stroke-linecap="butt" stroke-miterlimit="10" stroke-linejoin="miter" fill="none" stroke="#999999" d="M-65.1973 16.29932-70.74806 13.9206"/>
<path transform="matrix(-.9191559,.39389185,.39389969,.9191376,11.904793,72.43709)" stroke-width=".31879" stroke-linecap="round" stroke-linejoin="round" fill="none" stroke="#999999" d="M-1.19551 1.59401C-1.09587 .99626 0 .09961 .29886 0 0-.09961-1.09587-.99626-1.19551-1.59401"/>
<path transform="matrix(1.00005,0,0,-1.00003,82.65637,86.358119)" stroke-width=".3985" stroke-linecap="butt" stroke-miterlimit="10" stroke-linejoin="miter" fill="none" stroke="#999999" d="M-65.1973 32.59865-71.12878 31.4126"/>
<path transform="matrix(-.980599,.19604589,.1960498,.98057946,11.52404,54.944566)" stroke-width=".31879" stroke-linecap="round" stroke-linejoin="round" fill="none" stroke="#999999" d="M-1.19551 1.59401C-1.09587 .99626 0 .09961 .29886 0 0-.09961-1.09587-.99626-1.19551-1.59401"/>
<path transform="matrix(1.00005,0,0,-1.00003,82.65637,86.358119)" stroke-width=".3985" stroke-linecap="butt" stroke-miterlimit="10" stroke-linejoin="miter" fill="none" stroke="#999999" d="M-65.1973 48.89796-71.23317 48.43416"/>
<path transform="matrix(-.99704977,.0766023,.07660383,.9970299,11.419647,37.922506)" stroke-width=".31879" stroke-linecap="round" stroke-linejoin="round" fill="none" stroke="#999999" d="M-1.19551 1.59401C-1.09587 .99626 0 .09961 .29886 0 0-.09961-1.09587-.99626-1.19551-1.59401"/>
<path transform="matrix(1.00005,0,0,-1.00003,82.65637,86.358119)" stroke-width=".3985" stroke-linecap="butt" stroke-miterlimit="10" stroke-linejoin="miter" fill="none" stroke="#999999" d="M-65.1973 65.1973H-71.25319"/>
<path transform="matrix(-1.00005,-0,0,1.00003,11.399628,21.158852)" stroke-width=".31879" stroke-linecap="round" stroke-linejoin="round" fill="none" stroke="#999999" d="M-1.19551 1.59401C-1.09587 .99626 0 .09961 .29886 0 0-.09961-1.09587-.99626-1.19551-1.59401"/>
<path transform="matrix(1.00005,0,0,-1.00003,82.65637,86.358119)" stroke-width=".3985" stroke-linecap="butt" stroke-miterlimit="10" stroke-linejoin="miter" fill="none" stroke="#999999" d="M-48.89796-65.1973-44.12141-68.9122"/>
<path transform="matrix(.7893794,.6139084,.6139206,-.78936377,38.532758,155.27237)" stroke-width=".31879" stroke-linecap="round" stroke-linejoin="round" fill="none" stroke="#999999" d="M-1.19551 1.59401C-1.09587 .99626 0 .09961 .29886 0 0-.09961-1.09587-.99626-1.19551-1.59401"/>
<path transform="matrix(1.00005,0,0,-1.00003,82.65637,86.358119)" stroke-width=".3985" stroke-linecap="butt" stroke-miterlimit="10" stroke-linejoin="miter" fill="none" stroke="#999999" d="M-48.89796-48.89796-44.6249-53.17104"/>
<path transform="matrix(.7071353,.7071212,.7071353,-.7071212,38.029245,139.53076)" stroke-width=".31879" stroke-linecap="round" stroke-linejoin="round" fill="none" stroke="#999999" d="M-1.19551 1.59401C-1.09587 .99626 0 .09961 .29886 0 0-.09961-1.09587-.99626-1.19551-1.59401"/>
<path transform="matrix(1.00005,0,0,-1.00003,82.65637,86.358119)" stroke-width=".3985" stroke-linecap="butt" stroke-miterlimit="10" stroke-linejoin="miter" fill="none" stroke="#999999" d="M-48.89796-32.59865-45.79906-37.7633"/>
<path transform="matrix(.5145257,.8574957,.85751286,-.51451548,36.855016,124.12255)" stroke-width=".31879" stroke-linecap="round" stroke-linejoin="round" fill="none" stroke="#999999" d="M-1.19551 1.59401C-1.09587 .99626 0 .09961 .29886 0 0-.09961-1.09587-.99626-1.19551-1.59401"/>
<path transform="matrix(1.00005,0,0,-1.00003,82.65637,86.358119)" stroke-width=".3985" stroke-linecap="butt" stroke-miterlimit="10" stroke-linejoin="miter" fill="none" stroke="#999999" d="M-48.89796-16.29932V-22.28006"/>
<path transform="matrix(0,1.00003,1.00005,0,33.75597,108.63885)" stroke-width=".31879" stroke-linecap="round" stroke-linejoin="round" fill="none" stroke="#999999" d="M-1.19551 1.59401C-1.09587 .99626 0 .09961 .29886 0 0-.09961-1.09587-.99626-1.19551-1.59401"/>
<path transform="matrix(1.00005,0,0,-1.00003,82.65637,86.358119)" stroke-width=".3985" stroke-linecap="butt" stroke-miterlimit="10" stroke-linejoin="miter" fill="none" stroke="#999999" d="M-48.89796 0-53.13274-4.23474"/>
<path transform="matrix(-.7071353,.7071212,.7071353,.7071212,29.520977,90.59299)" stroke-width=".31879" stroke-linecap="round" stroke-linejoin="round" fill="none" stroke="#999999" d="M-1.19551 1.59401C-1.09587 .99626 0 .09961 .29886 0 0-.09961-1.09587-.99626-1.19551-1.59401"/>
<path transform="matrix(1.00005,0,0,-1.00003,82.65637,86.358119)" stroke-width=".3985" stroke-linecap="butt" stroke-miterlimit="10" stroke-linejoin="miter" fill="none" stroke="#999999" d="M-48.89796 16.29932-54.61726 14.39287"/>
<path transform="matrix(-.9486874,.3162095,.31621579,.9486685,28.036385,71.964809)" stroke-width=".31879" stroke-linecap="round" stroke-linejoin="round" fill="none" stroke="#999999" d="M-1.19551 1.59401C-1.09587 .99626 0 .09961 .29886 0 0-.09961-1.09587-.99626-1.19551-1.59401"/>
<path transform="matrix(1.00005,0,0,-1.00003,82.65637,86.358119)" stroke-width=".3985" stroke-linecap="butt" stroke-miterlimit="10" stroke-linejoin="miter" fill="none" stroke="#999999" d="M-48.89796 32.59865-54.90642 31.93144"/>
<path transform="matrix(-.99388965,.110343318,.11034551,.99386987,27.747208,54.425718)" stroke-width=".31879" stroke-linecap="round" stroke-linejoin="round" fill="none" stroke="#999999" d="M-1.19551 1.59401C-1.09587 .99626 0 .09961 .29886 0 0-.09961-1.09587-.99626-1.19551-1.59401"/>
<path transform="matrix(1.00005,0,0,-1.00003,82.65637,86.358119)" stroke-width=".3985" stroke-linecap="butt" stroke-miterlimit="10" stroke-linejoin="miter" fill="none" stroke="#999999" d="M-48.89796 48.89796H-54.94986"/>
<path transform="matrix(-1.00005,-0,0,1.00003,27.70377,37.458688)" stroke-width=".31879" stroke-linecap="round" stroke-linejoin="round" fill="none" stroke="#999999" d="M-1.19551 1.59401C-1.09587 .99626 0 .09961 .29886 0 0-.09961-1.09587-.99626-1.19551-1.59401"/>
<path transform="matrix(1.00005,0,0,-1.00003,82.65637,86.358119)" stroke-width=".3985" stroke-linecap="butt" stroke-miterlimit="10" stroke-linejoin="miter" fill="none" stroke="#999999" d="M-48.89796 65.1973-54.93996 65.60007"/>
<path transform="matrix(-.9977898,-.066511999,-.06651332,.99776998,27.713688,20.75608)" stroke-width=".31879" stroke-linecap="round" stroke-linejoin="round" fill="none" stroke="#999999" d="M-1.19551 1.59401C-1.09587 .99626 0 .09961 .29886 0 0-.09961-1.09587-.99626-1.19551-1.59401"/>
<path transform="matrix(1.00005,0,0,-1.00003,82.65637,86.358119)" stroke-width=".3985" stroke-linecap="butt" stroke-miterlimit="10" stroke-linejoin="miter" fill="none" stroke="#999999" d="M-32.59865-65.1973-27.40962-68.31062"/>
<path transform="matrix(.85752287,.51449546,.5145057,-.85750576,55.24536,154.67078)" stroke-width=".31879" stroke-linecap="round" stroke-linejoin="round" fill="none" stroke="#999999" d="M-1.19551 1.59401C-1.09587 .99626 0 .09961 .29886 0 0-.09961-1.09587-.99626-1.19551-1.59401"/>
<path transform="matrix(1.00005,0,0,-1.00003,82.65637,86.358119)" stroke-width=".3985" stroke-linecap="butt" stroke-miterlimit="10" stroke-linejoin="miter" fill="none" stroke="#999999" d="M-32.59865-48.89796-27.68054-52.4105"/>
<path transform="matrix(.81376066,.58116748,.581179,-.8137444,54.97445,138.77019)" stroke-width=".31879" stroke-linecap="round" stroke-linejoin="round" fill="none" stroke="#999999" d="M-1.19551 1.59401C-1.09587 .99626 0 .09961 .29886 0 0-.09961-1.09587-.99626-1.19551-1.59401"/>
<path transform="matrix(1.00005,0,0,-1.00003,82.65637,86.358119)" stroke-width=".3985" stroke-linecap="butt" stroke-miterlimit="10" stroke-linejoin="miter" fill="none" stroke="#999999" d="M-32.59865-32.59865-28.34149-36.85579"/>
<path transform="matrix(.7071353,.7071212,.7071353,-.7071212,54.31347,123.21501)" stroke-width=".31879" stroke-linecap="round" stroke-linejoin="round" fill="none" stroke="#999999" d="M-1.19551 1.59401C-1.09587 .99626 0 .09961 .29886 0 0-.09961-1.09587-.99626-1.19551-1.59401"/>
<path transform="matrix(1.00005,0,0,-1.00003,82.65637,86.358119)" stroke-width=".3985" stroke-linecap="butt" stroke-miterlimit="10" stroke-linejoin="miter" fill="none" stroke="#999999" d="M-32.59865-16.29932-30.72533-21.92899"/>
<path transform="matrix(.31573577,.9488285,.9488474,-.31572948,51.929506,108.287769)" stroke-width=".31879" stroke-linecap="round" stroke-linejoin="round" fill="none" stroke="#999999" d="M-1.19551 1.59401C-1.09587 .99626 0 .09961 .29886 0 0-.09961-1.09587-.99626-1.19551-1.59401"/>
<path transform="matrix(1.00005,0,0,-1.00003,82.65637,86.358119)" stroke-width=".3985" stroke-linecap="butt" stroke-miterlimit="10" stroke-linejoin="miter" fill="none" stroke="#999999" d="M-32.59865 0-36.77272-4.17407"/>
<path transform="matrix(-.7071353,.7071212,.7071353,.7071212,45.881818,90.53231)" stroke-width=".31879" stroke-linecap="round" stroke-linejoin="round" fill="none" stroke="#999999" d="M-1.19551 1.59401C-1.09587 .99626 0 .09961 .29886 0 0-.09961-1.09587-.99626-1.19551-1.59401"/>
<path transform="matrix(1.00005,0,0,-1.00003,82.65637,86.358119)" stroke-width=".3985" stroke-linecap="butt" stroke-miterlimit="10" stroke-linejoin="miter" fill="none" stroke="#999999" d="M-32.59865 16.29932-38.49333 15.12073"/>
<path transform="matrix(-.980599,.19604589,.1960498,.98057946,44.16112,71.23692)" stroke-width=".31879" stroke-linecap="round" stroke-linejoin="round" fill="none" stroke="#999999" d="M-1.19551 1.59401C-1.09587 .99626 0 .09961 .29886 0 0-.09961-1.09587-.99626-1.19551-1.59401"/>
<path transform="matrix(1.00005,0,0,-1.00003,82.65637,86.358119)" stroke-width=".3985" stroke-linecap="butt" stroke-miterlimit="10" stroke-linejoin="miter" fill="none" stroke="#999999" d="M-32.59865 32.59865H-38.63959"/>
<path transform="matrix(-1.00005,-0,0,1.00003,44.01485,53.758485)" stroke-width=".31879" stroke-linecap="round" stroke-linejoin="round" fill="none" stroke="#999999" d="M-1.19551 1.59401C-1.09587 .99626 0 .09961 .29886 0 0-.09961-1.09587-.99626-1.19551-1.59401"/>
<path transform="matrix(1.00005,0,0,-1.00003,82.65637,86.358119)" stroke-width=".3985" stroke-linecap="butt" stroke-miterlimit="10" stroke-linejoin="miter" fill="none" stroke="#999999" d="M-32.59865 48.89796-38.6241 49.4459"/>
<path transform="matrix(-.99587979,-.09053272,-.09053452,.9958599,44.03036,36.910734)" stroke-width=".31879" stroke-linecap="round" stroke-linejoin="round" fill="none" stroke="#999999" d="M-1.19551 1.59401C-1.09587 .99626 0 .09961 .29886 0 0-.09961-1.09587-.99626-1.19551-1.59401"/>
<path transform="matrix(1.00005,0,0,-1.00003,82.65637,86.358119)" stroke-width=".3985" stroke-linecap="butt" stroke-miterlimit="10" stroke-linejoin="miter" fill="none" stroke="#999999" d="M-32.59865 65.1973-38.5925 66.05325"/>
<path transform="matrix(-.9899595,-.14134425,-.14134707,.98993977,44.061948,20.302895)" stroke-width=".31879" stroke-linecap="round" stroke-linejoin="round" fill="none" stroke="#999999" d="M-1.19551 1.59401C-1.09587 .99626 0 .09961 .29886 0 0-.09961-1.09587-.99626-1.19551-1.59401"/>
<path transform="matrix(1.00005,0,0,-1.00003,82.65637,86.358119)" stroke-width=".3985" stroke-linecap="butt" stroke-miterlimit="10" stroke-linejoin="miter" fill="none" stroke="#999999" d="M-16.29932-65.1973-10.78978-67.70169"/>
<path transform="matrix(.91035547,.41378243,.41379065,-.9103373,71.86605,154.06183)" stroke-width=".31879" stroke-linecap="round" stroke-linejoin="round" fill="none" stroke="#999999" d="M-1.19551 1.59401C-1.09587 .99626 0 .09961 .29886 0 0-.09961-1.09587-.99626-1.19551-1.59401"/>
<path transform="matrix(1.00005,0,0,-1.00003,82.65637,86.358119)" stroke-width=".3985" stroke-linecap="butt" stroke-miterlimit="10" stroke-linejoin="miter" fill="none" stroke="#999999" d="M-16.29932-48.89796-10.89241-51.60094"/>
<path transform="matrix(.8944547,.44714345,.44715233,-.8944369,71.7634,137.9606)" stroke-width=".31879" stroke-linecap="round" stroke-linejoin="round" fill="none" stroke="#999999" d="M-1.19551 1.59401C-1.09587 .99626 0 .09961 .29886 0 0-.09961-1.09587-.99626-1.19551-1.59401"/>
<path transform="matrix(1.00005,0,0,-1.00003,82.65637,86.358119)" stroke-width=".3985" stroke-linecap="butt" stroke-miterlimit="10" stroke-linejoin="miter" fill="none" stroke="#999999" d="M-16.29932-32.59865-11.13463-35.69756"/>
<path transform="matrix(.85751286,.51451548,.5145257,-.8574957,71.52119,122.05673)" stroke-width=".31879" stroke-linecap="round" stroke-linejoin="round" fill="none" stroke="#999999" d="M-1.19551 1.59401C-1.09587 .99626 0 .09961 .29886 0 0-.09961-1.09587-.99626-1.19551-1.59401"/>
<path transform="matrix(1.00005,0,0,-1.00003,82.65637,86.358119)" stroke-width=".3985" stroke-linecap="butt" stroke-miterlimit="10" stroke-linejoin="miter" fill="none" stroke="#999999" d="M-16.29932-16.29932-12.12474-20.4734"/>
<path transform="matrix(.7071754,.7070812,.7070953,-.70716127,70.531009,106.83213)" stroke-width=".31879" stroke-linecap="round" stroke-linejoin="round" fill="none" stroke="#999999" d="M-1.19551 1.59401C-1.09587 .99626 0 .09961 .29886 0 0-.09961-1.09587-.99626-1.19551-1.59401"/>
<path transform="matrix(1.00005,0,0,-1.00003,82.65637,86.358119)" stroke-width=".3985" stroke-linecap="butt" stroke-miterlimit="10" stroke-linejoin="miter" fill="none" stroke="#999999" d="M-16.29932 0-20.1834-3.88408"/>
<path transform="matrix(-.7071353,.7071212,.7071353,.7071212,62.471963,90.24231)" stroke-width=".31879" stroke-linecap="round" stroke-linejoin="round" fill="none" stroke="#999999" d="M-1.19551 1.59401C-1.09587 .99626 0 .09961 .29886 0 0-.09961-1.09587-.99626-1.19551-1.59401"/>
<path transform="matrix(1.00005,0,0,-1.00003,82.65637,86.358119)" stroke-width=".3985" stroke-linecap="butt" stroke-miterlimit="10" stroke-linejoin="miter" fill="none" stroke="#999999" d="M-16.29932 16.29932H-22.28006"/>
<path transform="matrix(-1.00005,-0,0,1.00003,60.3752,70.058307)" stroke-width=".31879" stroke-linecap="round" stroke-linejoin="round" fill="none" stroke="#999999" d="M-1.19551 1.59401C-1.09587 .99626 0 .09961 .29886 0 0-.09961-1.09587-.99626-1.19551-1.59401"/>
<path transform="matrix(1.00005,0,0,-1.00003,82.65637,86.358119)" stroke-width=".3985" stroke-linecap="butt" stroke-miterlimit="10" stroke-linejoin="miter" fill="none" stroke="#999999" d="M-16.29932 32.59865-22.27376 33.45207"/>
<path transform="matrix(-.9899595,-.14139425,-.14139706,.98993977,60.3815,52.905046)" stroke-width=".31879" stroke-linecap="round" stroke-linejoin="round" fill="none" stroke="#999999" d="M-1.19551 1.59401C-1.09587 .99626 0 .09961 .29886 0 0-.09961-1.09587-.99626-1.19551-1.59401"/>
<path transform="matrix(1.00005,0,0,-1.00003,82.65637,86.358119)" stroke-width=".3985" stroke-linecap="butt" stroke-miterlimit="10" stroke-linejoin="miter" fill="none" stroke="#999999" d="M-16.29932 48.89796-22.23079 50.08444"/>
<path transform="matrix(-.980579,-.19612588,-.19612979,.98055949,60.424474,36.272184)" stroke-width=".31879" stroke-linecap="round" stroke-linejoin="round" fill="none" stroke="#999999" d="M-1.19551 1.59401C-1.09587 .99626 0 .09961 .29886 0 0-.09961-1.09587-.99626-1.19551-1.59401"/>
<path transform="matrix(1.00005,0,0,-1.00003,82.65637,86.358119)" stroke-width=".3985" stroke-linecap="butt" stroke-miterlimit="10" stroke-linejoin="miter" fill="none" stroke="#999999" d="M-16.29932 65.1973-22.1983 66.55818"/>
<path transform="matrix(-.9744287,-.22478675,-.22479122,.9744093,60.456975,19.79795)" stroke-width=".31879" stroke-linecap="round" stroke-linejoin="round" fill="none" stroke="#999999" d="M-1.19551 1.59401C-1.09587 .99626 0 .09961 .29886 0 0-.09961-1.09587-.99626-1.19551-1.59401"/>
<path transform="matrix(1.00005,0,0,-1.00003,82.65637,86.358119)" stroke-width=".3985" stroke-linecap="butt" stroke-miterlimit="10" stroke-linejoin="miter" fill="none" stroke="#999999" d="M0-65.1973 5.74263-67.11119"/>
<path transform="matrix(.9487174,.3161695,.3161758,-.9486985,88.39929,153.47132)" stroke-width=".31879" stroke-linecap="round" stroke-linejoin="round" fill="none" stroke="#999999" d="M-1.19551 1.59401C-1.09587 .99626 0 .09961 .29886 0 0-.09961-1.09587-.99626-1.19551-1.59401"/>
<path transform="matrix(1.00005,0,0,-1.00003,82.65637,86.358119)" stroke-width=".3985" stroke-linecap="butt" stroke-miterlimit="10" stroke-linejoin="miter" fill="none" stroke="#999999" d="M0-48.89796 5.7357-50.80989"/>
<path transform="matrix(.9486874,.3162095,.31621579,-.9486685,88.39236,137.16953)" stroke-width=".31879" stroke-linecap="round" stroke-linejoin="round" fill="none" stroke="#999999" d="M-1.19551 1.59401C-1.09587 .99626 0 .09961 .29886 0 0-.09961-1.09587-.99626-1.19551-1.59401"/>
<path transform="matrix(1.00005,0,0,-1.00003,82.65637,86.358119)" stroke-width=".3985" stroke-linecap="butt" stroke-miterlimit="10" stroke-linejoin="miter" fill="none" stroke="#999999" d="M0-32.59865 5.71976-34.5051"/>
<path transform="matrix(.9486974,.3161895,.3161958,-.9486785,88.37642,120.86426)" stroke-width=".31879" stroke-linecap="round" stroke-linejoin="round" fill="none" stroke="#999999" d="M-1.19551 1.59401C-1.09587 .99626 0 .09961 .29886 0 0-.09961-1.09587-.99626-1.19551-1.59401"/>
<path transform="matrix(1.00005,0,0,-1.00003,82.65637,86.358119)" stroke-width=".3985" stroke-linecap="butt" stroke-miterlimit="10" stroke-linejoin="miter" fill="none" stroke="#999999" d="M0-16.29932 5.62872-18.1754"/>
<path transform="matrix(.9486974,.3161895,.3161958,-.9486785,88.28537,104.53406)" stroke-width=".31879" stroke-linecap="round" stroke-linejoin="round" fill="none" stroke="#999999" d="M-1.19551 1.59401C-1.09587 .99626 0 .09961 .29886 0 0-.09961-1.09587-.99626-1.19551-1.59401"/>
<path transform="matrix(1.00005,0,0,-1.00003,82.65637,86.358119)" stroke-width=".3985" stroke-linecap="butt" stroke-miterlimit="10" stroke-linejoin="miter" fill="none" stroke="#999999" d="M0 0V.45827"/>
<path transform="matrix(0,-1.00003,-1.00005,-0,82.65637,86.8164)" stroke-width=".31879" stroke-linecap="round" stroke-linejoin="round" fill="none" stroke="#999999" d="M-1.19551 1.59401C-1.09587 .99626 0 .09961 .29886 0 0-.09961-1.09587-.99626-1.19551-1.59401"/>
<path transform="matrix(1.00005,0,0,-1.00003,82.65637,86.358119)" stroke-width=".3985" stroke-linecap="butt" stroke-miterlimit="10" stroke-linejoin="miter" fill="none" stroke="#999999" d="M0 16.29932-5.62967 18.17264"/>
<path transform="matrix(-.9488474,-.31572948,-.31573577,.9488285,77.02642,68.18495)" stroke-width=".31879" stroke-linecap="round" stroke-linejoin="round" fill="none" stroke="#999999" d="M-1.19551 1.59401C-1.09587 .99626 0 .09961 .29886 0 0-.09961-1.09587-.99626-1.19551-1.59401"/>
<path transform="matrix(1.00005,0,0,-1.00003,82.65637,86.358119)" stroke-width=".3985" stroke-linecap="butt" stroke-miterlimit="10" stroke-linejoin="miter" fill="none" stroke="#999999" d="M0 32.59865-5.71928 34.5051"/>
<path transform="matrix(-.9486874,-.3162095,-.31621579,.9486685,76.936809,51.851999)" stroke-width=".31879" stroke-linecap="round" stroke-linejoin="round" fill="none" stroke="#999999" d="M-1.19551 1.59401C-1.09587 .99626 0 .09961 .29886 0 0-.09961-1.09587-.99626-1.19551-1.59401"/>
<path transform="matrix(1.00005,0,0,-1.00003,82.65637,86.358119)" stroke-width=".3985" stroke-linecap="butt" stroke-miterlimit="10" stroke-linejoin="miter" fill="none" stroke="#999999" d="M0 48.89796-5.73618 50.80989"/>
<path transform="matrix(-.9486974,-.3161895,-.3161958,.9486785,76.91991,35.5467)" stroke-width=".31879" stroke-linecap="round" stroke-linejoin="round" fill="none" stroke="#999999" d="M-1.19551 1.59401C-1.09587 .99626 0 .09961 .29886 0 0-.09961-1.09587-.99626-1.19551-1.59401"/>
<path transform="matrix(1.00005,0,0,-1.00003,82.65637,86.358119)" stroke-width=".3985" stroke-linecap="butt" stroke-miterlimit="10" stroke-linejoin="miter" fill="none" stroke="#999999" d="M0 65.1973-5.74265 67.11168"/>
<path transform="matrix(-.9486674,-.31624953,-.3162558,.9486485,76.91345,19.244446)" stroke-width=".31879" stroke-linecap="round" stroke-linejoin="round" fill="none" stroke="#999999" d="M-1.19551 1.59401C-1.09587 .99626 0 .09961 .29886 0 0-.09961-1.09587-.99626-1.19551-1.59401"/>
<path transform="matrix(1.00005,0,0,-1.00003,82.65637,86.358119)" stroke-width=".3985" stroke-linecap="butt" stroke-miterlimit="10" stroke-linejoin="miter" fill="none" stroke="#999999" d="M16.29932-65.1973 22.19781-66.55818"/>
<path transform="matrix(.9744287,.22478675,.22479122,-.9744093,104.85528,152.91828)" stroke-width=".31879" stroke-linecap="round" stroke-linejoin="round" fill="none" stroke="#999999" d="M-1.19551 1.59401C-1.09587 .99626 0 .09961 .29886 0 0-.09961-1.09587-.99626-1.19551-1.59401"/>
<path transform="matrix(1.00005,0,0,-1.00003,82.65637,86.358119)" stroke-width=".3985" stroke-linecap="butt" stroke-miterlimit="10" stroke-linejoin="miter" fill="none" stroke="#999999" d="M16.29932-48.89796 22.2313-50.084"/>
<path transform="matrix(.980599,.19603589,.1960398,-.98057946,104.88878,136.4436)" stroke-width=".31879" stroke-linecap="round" stroke-linejoin="round" fill="none" stroke="#999999" d="M-1.19551 1.59401C-1.09587 .99626 0 .09961 .29886 0 0-.09961-1.09587-.99626-1.19551-1.59401"/>
<path transform="matrix(1.00005,0,0,-1.00003,82.65637,86.358119)" stroke-width=".3985" stroke-linecap="butt" stroke-miterlimit="10" stroke-linejoin="miter" fill="none" stroke="#999999" d="M16.29932-32.59865 22.27426-33.45207"/>
<path transform="matrix(.9899595,.14139425,.14139706,-.98993977,104.93175,119.81119)" stroke-width=".31879" stroke-linecap="round" stroke-linejoin="round" fill="none" stroke="#999999" d="M-1.19551 1.59401C-1.09587 .99626 0 .09961 .29886 0 0-.09961-1.09587-.99626-1.19551-1.59401"/>
<path transform="matrix(1.00005,0,0,-1.00003,82.65637,86.358119)" stroke-width=".3985" stroke-linecap="butt" stroke-miterlimit="10" stroke-linejoin="miter" fill="none" stroke="#999999" d="M16.29932-16.29932H22.27907"/>
<path transform="matrix(1.00005,0,0,-1.00003,104.936557,102.65793)" stroke-width=".31879" stroke-linecap="round" stroke-linejoin="round" fill="none" stroke="#999999" d="M-1.19551 1.59401C-1.09587 .99626 0 .09961 .29886 0 0-.09961-1.09587-.99626-1.19551-1.59401"/>
<path transform="matrix(1.00005,0,0,-1.00003,82.65637,86.358119)" stroke-width=".3985" stroke-linecap="butt" stroke-miterlimit="10" stroke-linejoin="miter" fill="none" stroke="#999999" d="M16.29932 0 20.18288 3.88356"/>
<path transform="matrix(.7071353,-.7071212,-.7071353,-.7071212,102.84026,82.47444)" stroke-width=".31879" stroke-linecap="round" stroke-linejoin="round" fill="none" stroke="#999999" d="M-1.19551 1.59401C-1.09587 .99626 0 .09961 .29886 0 0-.09961-1.09587-.99626-1.19551-1.59401"/>
<path transform="matrix(1.00005,0,0,-1.00003,82.65637,86.358119)" stroke-width=".3985" stroke-linecap="butt" stroke-miterlimit="10" stroke-linejoin="miter" fill="none" stroke="#999999" d="M16.29932 16.29932 12.12521 20.47386"/>
<path transform="matrix(-.7070953,-.70716127,-.7071754,.7070812,94.78219,65.88365)" stroke-width=".31879" stroke-linecap="round" stroke-linejoin="round" fill="none" stroke="#999999" d="M-1.19551 1.59401C-1.09587 .99626 0 .09961 .29886 0 0-.09961-1.09587-.99626-1.19551-1.59401"/>
<path transform="matrix(1.00005,0,0,-1.00003,82.65637,86.358119)" stroke-width=".3985" stroke-linecap="butt" stroke-miterlimit="10" stroke-linejoin="miter" fill="none" stroke="#999999" d="M16.29932 32.59865 11.13463 35.69756"/>
<path transform="matrix(-.85751286,-.51451548,-.5145257,.8574957,93.79156,50.659505)" stroke-width=".31879" stroke-linecap="round" stroke-linejoin="round" fill="none" stroke="#999999" d="M-1.19551 1.59401C-1.09587 .99626 0 .09961 .29886 0 0-.09961-1.09587-.99626-1.19551-1.59401"/>
<path transform="matrix(1.00005,0,0,-1.00003,82.65637,86.358119)" stroke-width=".3985" stroke-linecap="butt" stroke-miterlimit="10" stroke-linejoin="miter" fill="none" stroke="#999999" d="M16.29932 48.89796 10.8924 51.60144"/>
<path transform="matrix(-.89440467,-.44718344,-.4471923,.8943869,93.549327,34.75514)" stroke-width=".31879" stroke-linecap="round" stroke-linejoin="round" fill="none" stroke="#999999" d="M-1.19551 1.59401C-1.09587 .99626 0 .09961 .29886 0 0-.09961-1.09587-.99626-1.19551-1.59401"/>
<path transform="matrix(1.00005,0,0,-1.00003,82.65637,86.358119)" stroke-width=".3985" stroke-linecap="butt" stroke-miterlimit="10" stroke-linejoin="miter" fill="none" stroke="#999999" d="M16.29932 65.1973 10.78929 67.70123"/>
<path transform="matrix(-.9103955,-.41368244,-.41369067,.9103774,93.4462,18.654847)" stroke-width=".31879" stroke-linecap="round" stroke-linejoin="round" fill="none" stroke="#999999" d="M-1.19551 1.59401C-1.09587 .99626 0 .09961 .29886 0 0-.09961-1.09587-.99626-1.19551-1.59401"/>
<path transform="matrix(1.00005,0,0,-1.00003,82.65637,86.358119)" stroke-width=".3985" stroke-linecap="butt" stroke-miterlimit="10" stroke-linejoin="miter" fill="none" stroke="#999999" d="M32.59865-65.1973 38.5925-66.05325"/>
<path transform="matrix(.9899595,.14134425,.14134707,-.98993977,121.25079,152.41333)" stroke-width=".31879" stroke-linecap="round" stroke-linejoin="round" fill="none" stroke="#999999" d="M-1.19551 1.59401C-1.09587 .99626 0 .09961 .29886 0 0-.09961-1.09587-.99626-1.19551-1.59401"/>
<path transform="matrix(1.00005,0,0,-1.00003,82.65637,86.358119)" stroke-width=".3985" stroke-linecap="butt" stroke-miterlimit="10" stroke-linejoin="miter" fill="none" stroke="#999999" d="M32.59865-48.89796 38.6246-49.44547"/>
<path transform="matrix(.9958998,.090452719,.09045451,-.99587997,121.2829,135.80506)" stroke-width=".31879" stroke-linecap="round" stroke-linejoin="round" fill="none" stroke="#999999" d="M-1.19551 1.59401C-1.09587 .99626 0 .09961 .29886 0 0-.09961-1.09587-.99626-1.19551-1.59401"/>
<path transform="matrix(1.00005,0,0,-1.00003,82.65637,86.358119)" stroke-width=".3985" stroke-linecap="butt" stroke-miterlimit="10" stroke-linejoin="miter" fill="none" stroke="#999999" d="M32.59865-32.59865H38.6391"/>
<path transform="matrix(1.00005,0,0,-1.00003,121.2974,118.95775)" stroke-width=".31879" stroke-linecap="round" stroke-linejoin="round" fill="none" stroke="#999999" d="M-1.19551 1.59401C-1.09587 .99626 0 .09961 .29886 0 0-.09961-1.09587-.99626-1.19551-1.59401"/>
<path transform="matrix(1.00005,0,0,-1.00003,82.65637,86.358119)" stroke-width=".3985" stroke-linecap="butt" stroke-miterlimit="10" stroke-linejoin="miter" fill="none" stroke="#999999" d="M32.59865-16.29932 38.49281-15.12029"/>
<path transform="matrix(.980579,-.19612588,-.19612979,-.98055949,121.15111,101.47887)" stroke-width=".31879" stroke-linecap="round" stroke-linejoin="round" fill="none" stroke="#999999" d="M-1.19551 1.59401C-1.09587 .99626 0 .09961 .29886 0 0-.09961-1.09587-.99626-1.19551-1.59401"/>
<path transform="matrix(1.00005,0,0,-1.00003,82.65637,86.358119)" stroke-width=".3985" stroke-linecap="butt" stroke-miterlimit="10" stroke-linejoin="miter" fill="none" stroke="#999999" d="M32.59865 0 36.77321 4.17456"/>
<path transform="matrix(.7071353,-.7071212,-.7071353,-.7071212,119.43141,82.18343)" stroke-width=".31879" stroke-linecap="round" stroke-linejoin="round" fill="none" stroke="#999999" d="M-1.19551 1.59401C-1.09587 .99626 0 .09961 .29886 0 0-.09961-1.09587-.99626-1.19551-1.59401"/>
<path transform="matrix(1.00005,0,0,-1.00003,82.65637,86.358119)" stroke-width=".3985" stroke-linecap="butt" stroke-miterlimit="10" stroke-linejoin="miter" fill="none" stroke="#999999" d="M32.59865 16.29932 30.72253 21.92804"/>
<path transform="matrix(-.3161958,-.9486785,-.9486974,.3161895,113.38044,64.42942)" stroke-width=".31879" stroke-linecap="round" stroke-linejoin="round" fill="none" stroke="#999999" d="M-1.19551 1.59401C-1.09587 .99626 0 .09961 .29886 0 0-.09961-1.09587-.99626-1.19551-1.59401"/>
<path transform="matrix(1.00005,0,0,-1.00003,82.65637,86.358119)" stroke-width=".3985" stroke-linecap="butt" stroke-miterlimit="10" stroke-linejoin="miter" fill="none" stroke="#999999" d="M32.59865 32.59865 28.34149 36.85579"/>
<path transform="matrix(-.7071353,-.7071212,-.7071353,.7071212,110.999279,49.50122)" stroke-width=".31879" stroke-linecap="round" stroke-linejoin="round" fill="none" stroke="#999999" d="M-1.19551 1.59401C-1.09587 .99626 0 .09961 .29886 0 0-.09961-1.09587-.99626-1.19551-1.59401"/>
<path transform="matrix(1.00005,0,0,-1.00003,82.65637,86.358119)" stroke-width=".3985" stroke-linecap="butt" stroke-miterlimit="10" stroke-linejoin="miter" fill="none" stroke="#999999" d="M32.59865 48.89796 27.68053 52.41095"/>
<path transform="matrix(-.81373068,-.58121749,-.58122906,.81371447,110.338298,33.94559)" stroke-width=".31879" stroke-linecap="round" stroke-linejoin="round" fill="none" stroke="#999999" d="M-1.19551 1.59401C-1.09587 .99626 0 .09961 .29886 0 0-.09961-1.09587-.99626-1.19551-1.59401"/>
<path transform="matrix(1.00005,0,0,-1.00003,82.65637,86.358119)" stroke-width=".3985" stroke-linecap="butt" stroke-miterlimit="10" stroke-linejoin="miter" fill="none" stroke="#999999" d="M32.59865 65.1973 27.40962 68.31062"/>
<path transform="matrix(-.85752287,-.51449546,-.5145057,.85750576,110.06738,18.045456)" stroke-width=".31879" stroke-linecap="round" stroke-linejoin="round" fill="none" stroke="#999999" d="M-1.19551 1.59401C-1.09587 .99626 0 .09961 .29886 0 0-.09961-1.09587-.99626-1.19551-1.59401"/>
<path transform="matrix(1.00005,0,0,-1.00003,82.65637,86.358119)" stroke-width=".3985" stroke-linecap="butt" stroke-miterlimit="10" stroke-linejoin="miter" fill="none" stroke="#999999" d="M48.89796-65.1973 54.94046-65.6001"/>
<path transform="matrix(.9977898,.066471997,.06647332,-.99776998,137.59955,151.96018)" stroke-width=".31879" stroke-linecap="round" stroke-linejoin="round" fill="none" stroke="#999999" d="M-1.19551 1.59401C-1.09587 .99626 0 .09961 .29886 0 0-.09961-1.09587-.99626-1.19551-1.59401"/>
<path transform="matrix(1.00005,0,0,-1.00003,82.65637,86.358119)" stroke-width=".3985" stroke-linecap="butt" stroke-miterlimit="10" stroke-linejoin="miter" fill="none" stroke="#999999" d="M48.89796-48.89796H54.94986"/>
<path transform="matrix(1.00005,0,0,-1.00003,137.60898,135.25754)" stroke-width=".31879" stroke-linecap="round" stroke-linejoin="round" fill="none" stroke="#999999" d="M-1.19551 1.59401C-1.09587 .99626 0 .09961 .29886 0 0-.09961-1.09587-.99626-1.19551-1.59401"/>
<path transform="matrix(1.00005,0,0,-1.00003,82.65637,86.358119)" stroke-width=".3985" stroke-linecap="butt" stroke-miterlimit="10" stroke-linejoin="miter" fill="none" stroke="#999999" d="M48.89796-32.59865 54.90692-31.93097"/>
<path transform="matrix(.99389967,-.11041331,-.11041551,-.99387988,137.56601,118.290058)" stroke-width=".31879" stroke-linecap="round" stroke-linejoin="round" fill="none" stroke="#999999" d="M-1.19551 1.59401C-1.09587 .99626 0 .09961 .29886 0 0-.09961-1.09587-.99626-1.19551-1.59401"/>
<path transform="matrix(1.00005,0,0,-1.00003,82.65637,86.358119)" stroke-width=".3985" stroke-linecap="butt" stroke-miterlimit="10" stroke-linejoin="miter" fill="none" stroke="#999999" d="M48.89796-16.29932 54.61774-14.39287"/>
<path transform="matrix(.9486974,-.3161895,-.3161958,-.9486785,137.27684,100.75142)" stroke-width=".31879" stroke-linecap="round" stroke-linejoin="round" fill="none" stroke="#999999" d="M-1.19551 1.59401C-1.09587 .99626 0 .09961 .29886 0 0-.09961-1.09587-.99626-1.19551-1.59401"/>
<path transform="matrix(1.00005,0,0,-1.00003,82.65637,86.358119)" stroke-width=".3985" stroke-linecap="butt" stroke-miterlimit="10" stroke-linejoin="miter" fill="none" stroke="#999999" d="M48.89796 0 53.13124 4.23328"/>
<path transform="matrix(.7071353,-.7071212,-.7071353,-.7071212,135.79027,82.12471)" stroke-width=".31879" stroke-linecap="round" stroke-linejoin="round" fill="none" stroke="#999999" d="M-1.19551 1.59401C-1.09587 .99626 0 .09961 .29886 0 0-.09961-1.09587-.99626-1.19551-1.59401"/>
<path transform="matrix(1.00005,0,0,-1.00003,82.65637,86.358119)" stroke-width=".3985" stroke-linecap="butt" stroke-miterlimit="10" stroke-linejoin="miter" fill="none" stroke="#999999" d="M48.89796 16.29932V22.27907"/>
<path transform="matrix(0,-1.00003,-1.00005,-0,131.55678,64.07838)" stroke-width=".31879" stroke-linecap="round" stroke-linejoin="round" fill="none" stroke="#999999" d="M-1.19551 1.59401C-1.09587 .99626 0 .09961 .29886 0 0-.09961-1.09587-.99626-1.19551-1.59401"/>
<path transform="matrix(1.00005,0,0,-1.00003,82.65637,86.358119)" stroke-width=".3985" stroke-linecap="butt" stroke-miterlimit="10" stroke-linejoin="miter" fill="none" stroke="#999999" d="M48.89796 32.59865 45.79906 37.7633"/>
<path transform="matrix(-.5145257,-.8574957,-.85751286,.51451548,128.45774,48.59368)" stroke-width=".31879" stroke-linecap="round" stroke-linejoin="round" fill="none" stroke="#999999" d="M-1.19551 1.59401C-1.09587 .99626 0 .09961 .29886 0 0-.09961-1.09587-.99626-1.19551-1.59401"/>
<path transform="matrix(1.00005,0,0,-1.00003,82.65637,86.358119)" stroke-width=".3985" stroke-linecap="butt" stroke-miterlimit="10" stroke-linejoin="miter" fill="none" stroke="#999999" d="M48.89796 48.89796 44.6249 53.17104"/>
<path transform="matrix(-.7071353,-.7071212,-.7071353,.7071212,127.2835,33.18548)" stroke-width=".31879" stroke-linecap="round" stroke-linejoin="round" fill="none" stroke="#999999" d="M-1.19551 1.59401C-1.09587 .99626 0 .09961 .29886 0 0-.09961-1.09587-.99626-1.19551-1.59401"/>
<path transform="matrix(1.00005,0,0,-1.00003,82.65637,86.358119)" stroke-width=".3985" stroke-linecap="butt" stroke-miterlimit="10" stroke-linejoin="miter" fill="none" stroke="#999999" d="M48.89796 65.1973 44.1214 68.91269"/>
<path transform="matrix(-.7893394,-.6139584,-.61397066,.78932377,126.779979,17.44336)" stroke-width=".31879" stroke-linecap="round" stroke-linejoin="round" fill="none" stroke="#999999" d="M-1.19551 1.59401C-1.09587 .99626 0 .09961 .29886 0 0-.09961-1.09587-.99626-1.19551-1.59401"/>
<path transform="matrix(1.00005,0,0,-1.00003,82.65637,86.358119)" stroke-width=".3985" stroke-linecap="butt" stroke-miterlimit="10" stroke-linejoin="miter" fill="none" stroke="#999999" d="M65.1973-65.1973H71.25368"/>
<path transform="matrix(1.00005,0,0,-1.00003,153.9136,151.55738)" stroke-width=".31879" stroke-linecap="round" stroke-linejoin="round" fill="none" stroke="#999999" d="M-1.19551 1.59401C-1.09587 .99626 0 .09961 .29886 0 0-.09961-1.09587-.99626-1.19551-1.59401"/>
<path transform="matrix(1.00005,0,0,-1.00003,82.65637,86.358119)" stroke-width=".3985" stroke-linecap="butt" stroke-miterlimit="10" stroke-linejoin="miter" fill="none" stroke="#999999" d="M65.1973-48.89796 71.23317-48.43416"/>
<path transform="matrix(.99704977,-.0766023,-.07660383,-.9970299,153.8931,134.79373)" stroke-width=".31879" stroke-linecap="round" stroke-linejoin="round" fill="none" stroke="#999999" d="M-1.19551 1.59401C-1.09587 .99626 0 .09961 .29886 0 0-.09961-1.09587-.99626-1.19551-1.59401"/>
<path transform="matrix(1.00005,0,0,-1.00003,82.65637,86.358119)" stroke-width=".3985" stroke-linecap="butt" stroke-miterlimit="10" stroke-linejoin="miter" fill="none" stroke="#999999" d="M65.1973-32.59865 71.12929-31.41214"/>
<path transform="matrix(.980579,-.19610588,-.19610979,-.98055949,153.78922,117.771228)" stroke-width=".31879" stroke-linecap="round" stroke-linejoin="round" fill="none" stroke="#999999" d="M-1.19551 1.59401C-1.09587 .99626 0 .09961 .29886 0 0-.09961-1.09587-.99626-1.19551-1.59401"/>
<path transform="matrix(1.00005,0,0,-1.00003,82.65637,86.358119)" stroke-width=".3985" stroke-linecap="butt" stroke-miterlimit="10" stroke-linejoin="miter" fill="none" stroke="#999999" d="M65.1973-16.29932 70.74808-13.91966"/>
<path transform="matrix(.9191159,-.39401184,-.39401967,-.9190976,153.40799,100.27819)" stroke-width=".31879" stroke-linecap="round" stroke-linejoin="round" fill="none" stroke="#999999" d="M-1.19551 1.59401C-1.09587 .99626 0 .09961 .29886 0 0-.09961-1.09587-.99626-1.19551-1.59401"/>
<path transform="matrix(1.00005,0,0,-1.00003,82.65637,86.358119)" stroke-width=".3985" stroke-linecap="butt" stroke-miterlimit="10" stroke-linejoin="miter" fill="none" stroke="#999999" d="M65.1973 0 69.45444 4.25713"/>
<path transform="matrix(.7071353,-.7071212,-.7071353,-.7071212,152.11429,82.10086)" stroke-width=".31879" stroke-linecap="round" stroke-linejoin="round" fill="none" stroke="#999999" d="M-1.19551 1.59401C-1.09587 .99626 0 .09961 .29886 0 0-.09961-1.09587-.99626-1.19551-1.59401"/>
<path transform="matrix(1.00005,0,0,-1.00003,82.65637,86.358119)" stroke-width=".3985" stroke-linecap="butt" stroke-miterlimit="10" stroke-linejoin="miter" fill="none" stroke="#999999" d="M65.1973 16.29932 66.37631 22.19348"/>
<path transform="matrix(.19612979,-.98055949,-.980579,-.19612588,149.03598,64.16397)" stroke-width=".31879" stroke-linecap="round" stroke-linejoin="round" fill="none" stroke="#999999" d="M-1.19551 1.59401C-1.09587 .99626 0 .09961 .29886 0 0-.09961-1.09587-.99626-1.19551-1.59401"/>
<path transform="matrix(1.00005,0,0,-1.00003,82.65637,86.358119)" stroke-width=".3985" stroke-linecap="butt" stroke-miterlimit="10" stroke-linejoin="miter" fill="none" stroke="#999999" d="M65.1973 32.59865 63.29085 38.31842"/>
<path transform="matrix(-.3161958,-.9486785,-.9486974,.3161895,145.95038,48.038545)" stroke-width=".31879" stroke-linecap="round" stroke-linejoin="round" fill="none" stroke="#999999" d="M-1.19551 1.59401C-1.09587 .99626 0 .09961 .29886 0 0-.09961-1.09587-.99626-1.19551-1.59401"/>
<path transform="matrix(1.00005,0,0,-1.00003,82.65637,86.358119)" stroke-width=".3985" stroke-linecap="butt" stroke-miterlimit="10" stroke-linejoin="miter" fill="none" stroke="#999999" d="M65.1973 48.89796 61.68477 53.81606"/>
<path transform="matrix(-.581179,-.8137444,-.81376066,.58116748,144.34423,32.54044)" stroke-width=".31879" stroke-linecap="round" stroke-linejoin="round" fill="none" stroke="#999999" d="M-1.19551 1.59401C-1.09587 .99626 0 .09961 .29886 0 0-.09961-1.09587-.99626-1.19551-1.59401"/>
<path transform="matrix(1.00005,0,0,-1.00003,82.65637,86.358119)" stroke-width=".3985" stroke-linecap="butt" stroke-miterlimit="10" stroke-linejoin="miter" fill="none" stroke="#999999" d="M65.1973 65.1973 60.91873 69.47632"/>
<path transform="matrix(-.7070854,-.70716127,-.7071754,.70707127,143.57817,16.879723)" stroke-width=".31879" stroke-linecap="round" stroke-linejoin="round" fill="none" stroke="#999999" d="M-1.19551 1.59401C-1.09587 .99626 0 .09961 .29886 0 0-.09961-1.09587-.99626-1.19551-1.59401"/>
<path transform="matrix(1.00005,0,0,-1.00003,82.65637,86.358119)" stroke-width=".79701" stroke-linecap="butt" stroke-miterlimit="10" stroke-linejoin="miter" fill="none" stroke="#0000ff" d="M6.51962 0C6.51962 0 6.5834 .4805 6.5952 .66801 6.60701 .85553 6.61183 1.1605 6.60466 1.35147 6.5975 1.54242 6.57018 1.85173 6.54347 2.04436 6.51677 2.23697 6.45895 2.54768 6.41217 2.73975 6.36539 2.9318 6.27338 3.23923 6.20624 3.42867 6.13908 3.61809 6.01553 3.92026 5.92818 4.10515 5.84082 4.29004 5.6838 4.58311 5.5765 4.76123 5.4692 4.93936 5.28134 5.21971 5.1547 5.38899 5.02805 5.55827 4.80936 5.82315 4.66374 5.98141 4.51813 6.13966 4.26878 6.38443 4.10515 6.52956 3.94151 6.6747 3.66478 6.89738 3.48438 7.02747 3.30397 7.15756 3.00078 7.35406 2.80492 7.4672 2.60907 7.58029 2.28244 7.74826 2.07271 7.84274 1.86298 7.93721 1.51512 8.07419 1.29327 8.14815 1.0714 8.22212 .70549 8.32387 .47353 8.37596 .24156 8.42805-.13841 8.49464-.37851 8.5237-.6186 8.55276-1.011 8.58063-1.25696 8.58539-1.5029 8.59013-1.90196 8.57831-2.1513 8.55803-2.40067 8.53775-2.80386 8.48535-3.05411 8.43915-3.30434 8.39291-3.7065 8.29729-3.95493 8.22476-4.20337 8.15222-4.60092 8.01512-4.8448 7.91635-5.0887 7.8176-5.47607 7.63779-5.71278 7.51294-5.9495 7.3881-6.32423 7.16711-6.55095 7.01653-6.77766 6.86594-7.13303 6.6033-7.34682 6.42758-7.56062 6.25188-7.8936 5.94981-8.09195 5.75009-8.29028 5.55038-8.596 5.21036-8.77638 4.98807-8.95679 4.76578-9.23236 4.39127-9.39218 4.14793-9.552 3.90459-9.79182 3.4969-9.92839 3.23416-10.06496 2.97144-10.2654 2.53404-10.37657 2.25426-10.48773 1.97447-10.64583 1.51207-10.72975 1.21765-10.81366 .92323-10.92664 .4387-10.98143 .1323-11.03622-.17409-11.10083-.67516-11.12468-.99083-11.14854-1.30649-11.1618-1.8209-11.15353-2.14285-11.14526-2.4648-11.10611-2.98634-11.065-3.31128-11.0239-3.63618-10.93196-4.16017-10.85707-4.48466-10.78221-4.80917-10.63449-5.32954-10.52531-5.65013-10.41612-5.97069-10.21342-6.48186-10.07016-6.79517-9.9269-7.10849-9.66974-7.60605-9.49268-7.9084-9.3156-8.21075-9.004-8.68678-8.79381-8.97437-8.58359-9.26193-8.21964-9.71169-7.97754-9.98112-7.73544-10.25056-7.32138-10.6683-7.04884-10.91626-6.77632-11.16423-6.31448-11.54543-6.01324-11.76834-5.71202-11.99126-5.20532-12.32845-4.87764-12.52292-4.54994-12.7174-4.00291-13.00685-3.6515-13.17006-3.3001-13.33328-2.71707-13.56992-2.3448-13.69931-1.97253-13.82874-1.35823-14.00998-.96844-14.10272-.57866-14.19547 .06062-14.3143 .46455-14.36784 .8685-14.42139 1.5286-14.47595 1.94289-14.48871 2.35718-14.50148 3.03004-14.48912 3.45055-14.45987 3.87103-14.43062 4.55112-14.3504 4.97362-14.27782 5.39615-14.2052 6.07578-14.05362 6.49574-13.93657 6.9157-13.81953 7.58757-13.59567 8.00041-13.43417 8.41325-13.2727 9.06995-12.97807 9.47127-12.77261 9.8726-12.56718 10.50786-12.20244 10.8929-11.95337 11.27791-11.7043 11.88245-11.2691 12.24635-10.97745 12.61026-10.68579 13.17732-10.18346 13.51575-9.8513 13.85419-9.51913 14.3774-8.95421 14.68568-8.58339 14.99396-8.21257 15.46388-7.58557 15.73772-7.17867 16.01157-6.77177 16.42397-6.0904 16.65944-5.65063 16.89491-5.21086 17.24196-4.47826 17.4349-4.00916 17.62785-3.54005 17.90315-2.76402 18.05022-2.26968 18.19728-1.77534 18.39635-.96127 18.49489-.44617 18.59344 .06892 18.71352 .91171 18.76051 1.44298 18.80751 1.97424 18.8408 2.8404 18.83365 3.3829 18.82648 3.92543 18.77179 4.80505 18.70879 5.35316 18.64578 5.90129 18.49924 6.78519 18.37949 7.33337 18.25975 7.88156 18.023 8.76176 17.84578 9.30414 17.66856 9.84653 17.33727 10.71205 17.10214 11.24257 16.867 11.77307 16.44327 12.61505 16.15108 13.12778 15.85887 13.6405 15.3442 14.44893 14.99608 14.93788 14.64798 15.42683 14.04445 16.19296 13.64209 16.65196 13.23975 17.111 12.5504 17.8232 12.09613 18.2462 11.64188 18.66917 10.87088 19.31891 10.3681 19.70064 9.86533 20.08237 9.0203 20.66275 8.47246 20.99739 7.92462 21.33205 7.00847 21.83047 6.41963 22.11261 5.8308 22.39473 4.85303 22.80579 4.2285 23.03084 3.60399 23.25589 2.57332 23.57085 1.91852 23.7347 1.2637 23.89853 .18842 24.11269-.49092 24.21172-1.1703 24.31073-2.2804 24.41817-2.978 24.44847-3.67561 24.47876-4.80983 24.47119-5.51881 24.43007-6.2278 24.38895-7.37476 24.26587-8.08797 24.152-8.80116 24.03813-9.94922 23.7976-10.6591 23.60933-11.36897 23.42107-12.50554 23.05847-13.20439 22.79506-13.90323 22.53163-15.01595 22.04912-15.69594 21.71068-16.37595 21.37225-17.45184 20.76761-18.10542 20.35573-18.75899 19.94385-19.78726 19.22563-20.40646 18.7421-21.02567 18.25859-21.9915 17.42377-22.56824 16.87083-23.14499 16.31789-24.03667 15.37532-24.56339 14.7568-25.0901 14.13832-25.8948 13.09279-26.36452 12.413-26.83421 11.7332-27.54326 10.59325-27.94879 9.85727-28.35431 9.12132-28.95264 7.89471-29.28735 7.10857-29.62206 6.3224-30.10294 5.02098-30.36127 4.1912-30.61957 3.36142-30.97263 1.99403-31.14917 1.12811-31.32568 .26218-31.54399-1.15579-31.63364-2.04982-31.7233-2.94385-31.79654-4.40141-31.79529-5.31538-31.79407-6.22934-31.71951-7.71237-31.6247-8.6371-31.52986-9.56186-31.30219-11.0542-31.11186-11.98024-30.92152-12.9063-30.54047-14.39417-30.2528-15.31145-29.96516-16.22871-29.03864-18.59138-29.03864-18.59138"/>
<path transform="matrix(1.00005,0,0,-1.00003,82.65637,86.358119)" stroke-width=".79701" stroke-linecap="butt" stroke-miterlimit="10" stroke-linejoin="miter" fill="none" stroke="#0000ff" d="M2.36171 6.07591C2.36171 6.07591 1.93726 6.30977 1.7668 6.3888 1.59636 6.4678 1.3137 6.58286 1.13309 6.64545 .95248 6.70804 .65414 6.79507 .46507 6.83994 .27597 6.8848-.03394 6.94283-.22978 6.96877-.42564 6.9947-.7456 7.02083-.94656 7.02698-1.1475 7.0331-1.47432 7.02745-1.67825 7.01305-1.88219 6.99864-2.2116 6.95848-2.41643 6.92302-2.62128 6.88754-2.95088 6.8141-3.15459 6.75739-3.3583 6.70064-3.68451 6.59253-3.88478 6.51414-4.08507 6.43575-4.40355 6.29216-4.59808 6.19232-4.79265 6.09245-5.1004 5.91536-5.28702 5.79437-5.47362 5.6734-5.76663 5.46187-5.9431 5.32033-6.11957 5.1788-6.39485 4.9354-6.5589 4.77417-6.72293 4.61296-6.97618 4.33841-7.12546 4.15837-7.27475 3.97832-7.50204 3.67387-7.63483 3.47643-7.7676 3.27898-7.96828 2.9485-8.08249 2.73528-8.1967 2.52202-8.3646 2.167-8.45804 1.9394-8.55148 1.7118-8.68465 1.33469-8.75598 1.09479-8.82735 .8549-8.92482 .4602-8.97237 .21039-9.01991-.03941-9.07628-.44812-9.09871-.70581-9.12114-.9635-9.13768-1.38379-9.13402-1.64693-9.13037-1.91008-9.1029-2.33661-9.07236-2.60245-9.04178-2.86829-8.97191-3.29713-8.91367-3.56297-8.85545-3.82881-8.73885-4.2555-8.65253-4.51851-8.56621-4.7815-8.40555-5.20142-8.2914-5.45863-8.17726-5.71584-7.97154-6.12373-7.8298-6.37238-7.68806-6.62103-7.43874-7.01369-7.2697-7.25081-7.10068-7.48795-6.80699-7.85907-6.61162-8.08148-6.41624-8.30392-6.08197-8.64894-5.86154-8.85397-5.6411-9.059-5.26692-9.37436-5.02287-9.55931-4.77884-9.74428-4.36852-10.02495-4.10268-10.18707-3.83684-10.34918-3.39247-10.59105-3.10684-10.72775-2.8212-10.86447-2.34683-11.06348-2.04387-11.17244-1.74089-11.28142-1.24078-11.43382-.92317-11.51318-.60558-11.59251-.08438-11.69666 .2452-11.74446 .57481-11.79227 1.11401-11.84352 1.45244-11.85786 1.79088-11.87222 2.3407-11.86792 2.68452-11.84793 3.02835-11.82793 3.58466-11.76903 3.93056-11.71362 4.27646-11.65822 4.83334-11.54022 5.17757-11.44852 5.52182-11.3568 6.0728-11.18063 6.41167-11.05255 6.75052-10.92445 7.29001-10.68956 7.61989-10.52531 7.94978-10.36107 8.4724-10.06865 8.7893-9.86871 9.10622-9.66878 9.60396-9.31914 9.90402-9.08429 10.20409-8.84943 10.67258-8.44438 10.95207-8.176 11.2316-7.90761 11.66315-7.44997 11.91856-7.14983 12.17398-6.8497 12.56528-6.34256 12.79301-6.01274 13.02077-5.68292 13.36371-5.12984 13.56003-4.77269 13.75638-4.41554 14.04613-3.82013 14.20818-3.4386 14.37021-3.0571 14.60278-2.42552 14.72797-2.02296 14.85316-1.6204 15.02519-.9572 15.11049-.53719 15.19579-.11716 15.29977 .57066 15.34277 1.00427 15.38576 1.43787 15.4212 2.14474 15.42038 2.58803 15.41956 3.03131 15.38284 3.75058 15.3368 4.19917 15.29079 4.64777 15.18126 5.37216 15.0886 5.82124 14.99593 6.27032 14.80875 6.99106 14.66878 7.43585 14.52881 7.88065 14.26678 8.59125 14.07983 9.02708 13.89288 9.46292 13.55515 10.15529 13.32127 10.57704 13.08739 10.99878 12.67407 11.66403 12.3941 12.0668 12.11414 12.46957 11.62784 13.10121 11.30327 13.47995 10.9787 13.8587 10.42204 14.44684 10.05473 14.79662 9.68744 15.14638 9.06346 15.68456 8.65602 16.00085 8.24855 16.31714 7.56252 16.79765 7.118 17.07626 6.67348 17.35487 5.9304 17.77255 5.45215 18.00893 4.97389 18.2453 4.17914 18.59015 3.6709 18.77992 3.16269 18.96971 2.32281 19.23698 1.78917 19.37682 1.25555 19.51665 .37909 19.70059-.17508 19.78767-.72925 19.87479-1.63531 19.97308-2.20502 20.00455-2.77473 20.03601-3.70157 20.04135-4.28123 20.01451-4.86089 19.98767-5.79909 19.89774-6.38281 19.81107-6.96654 19.72438-7.90652 19.5371-8.48839 19.38976-9.07025 19.24242-10.0029 18.95772-10.57652 18.74908-11.15018 18.54045-12.06403 18.15604-12.62291 17.88606-13.1818 17.61607-14.06673 17.1335-14.60463 16.80319-15.14252 16.47289-15.98933 15.8948-16.49976 15.50542-17.0102 15.11603-17.80716 14.44328-18.28351 13.99677-18.75984 13.55023-19.49683 12.78772-19.93292 12.28714-20.36902 11.78658-21.0366 10.9401-21.42668 10.389-21.81673 9.83794-22.40596 8.91287-22.74432 8.31528-23.08269 7.71768-23.58447 6.72116-23.86551 6.08188-24.14653 5.4426-24.55118 4.38329-24.7698 3.7077-24.98845 3.03214-25.28894 1.91849-25.44131 1.21268-25.59369 .50685-25.78638-.64961-25.86809-1.37932-25.9498-2.109-26.02274-3.29958-26.03024-4.04646-26.03778-4.79335-25.99126-6.00589-25.92232-6.76234-25.8534-7.51883-25.68033-8.74023-25.53334-9.49863-25.38635-10.25702-25.08904-11.47614-24.86281-12.22847-24.6366-12.98077-24.20923-14.1832-23.9028-14.92096-23.59637-15.65872-23.04002-16.83084-22.65428-17.54584-22.26857-18.26082-21.58604-19.38998-21.12274-20.0742-20.65945-20.75842-19.854-21.83241-19.31514-22.47722-18.77628-23.12201-17.85033-24.12471-17.2389-24.72156-16.62752-25.3184-15.5884-26.23766-14.90852-26.77885-14.22867-27.32007-13.0821-28.14389-12.33888-28.6223-11.59566-29.10068-10.35284-29.81908-9.55186-30.22696-8.75089-30.63484-7.41835-31.23184-6.56587-31.56203-5.71341-31.8922-4.30391-32.36008-3.40778-32.6066-2.51161-32.8531-1.03862-33.18095-.10692-33.33878 .82475-33.49661 2.34827-33.67987 3.30731-33.74417 4.26633-33.80849 6.80511-33.80238 6.80511-33.80238"/>
<path transform="matrix(1.00005,0,0,-1.00003,82.65637,86.358119)" stroke-width=".79701" stroke-linecap="butt" stroke-miterlimit="10" stroke-linejoin="miter" fill="none" stroke="#0000ff" d="M-4.807 4.40309C-4.807 4.40309-5.17891 4.0922-5.31438 3.9619-5.44984 3.8316-5.65962 3.60957-5.78343 3.46397-5.90726 3.31837-6.09639 3.07237-6.20673 2.91234-6.31708 2.7523-6.48364 2.48375-6.57878 2.31047-6.67395 2.13718-6.81421 1.84842-6.89265 1.66333-6.97113 1.47824-7.08391 1.17172-7.14436 .9764-7.20482 .78108-7.28723 .45929-7.32841 .25565-7.3696 .052-7.42041-.28108-7.44133-.49142-7.46223-.70178-7.4796-1.04538-7.47913-1.26044-7.47865-1.47548-7.46037-1.82393-7.43784-2.04138-7.41527-2.25883-7.3616-2.60997-7.31648-2.82777-7.27135-3.0456-7.18057-3.39548-7.11253-3.6112-7.04448-3.82693-6.91689-4.17139-6.82602-4.38272-6.73512-4.59404-6.57108-4.92989-6.45743-5.13431-6.34378-5.33873-6.1426-5.66081-6.00677-5.85606-5.87096-6.0513-5.63593-6.35779-5.47852-6.5415-5.3211-6.7252-5.0505-7.01062-4.87216-7.18018-4.69383-7.34973-4.39084-7.61024-4.19319-7.76364-3.99554-7.91705-3.66321-8.15094-3.44756-8.28592-3.2319-8.4209-2.87093-8.62224-2.63876-8.73659-2.4066-8.85094-2.02084-9.0183-1.77425-9.11014-1.52766-9.202-1.1203-9.33081-.86151-9.39865-.60272-9.46648-.17778-9.55702 .09099-9.59912 .3598-9.6412 .79958-9.68718 1.0759-9.70207 1.3522-9.71696 1.80156-9.71971 2.08264-9.70654 2.36375-9.69337 2.81871-9.64922 3.10187-9.60709 3.38503-9.56493 3.84137-9.47426 4.12357-9.40265 4.40575-9.33101 4.85768-9.19212 5.1358-9.09076 5.41393-8.98938 5.85706-8.80305 6.12814-8.67194 6.39922-8.54082 6.82884-8.30612 7.08963-8.14568 7.35043-7.98521 7.76054-7.70445 8.00787-7.51544 8.25522-7.32642 8.64146-6.99995 8.87239-6.78325 9.1033-6.56653 9.46077-6.19647 9.67224-5.95354 9.88368-5.71062 10.2073-5.2997 10.39645-5.03233 10.58562-4.76497 10.87173-4.31647 11.03564-4.02655 11.19957-3.73662 11.44194-3.25291 11.57784-2.94269 11.71373-2.63248 11.90907-2.11841 12.01508-1.79066 12.12106-1.46292 12.2681-.92282 12.34187-.58046 12.41565-.23808 12.50754 .32292 12.54681 .67697 12.58607 1.03099 12.62152 1.60898 12.62491 1.97125 12.62828 2.3335 12.6047 2.921 12.57118 3.28789 12.53764 3.65477 12.45464 4.24767 12.38316 4.61551 12.31168 4.98335 12.166 5.57431 12.05586 5.93912 11.94572 6.30392 11.7382 6.88707 11.58926 7.24484 11.44035 7.60263 11.16966 8.17093 10.98244 8.51772 10.7952 8.86452 10.46463 9.4126 10.23979 9.74435 10.01495 10.07613 9.62349 10.59631 9.36186 10.90881 9.10022 11.2213 8.65083 11.70735 8.35406 11.99666 8.05731 12.28598 7.55286 12.73152 7.22296 12.99399 6.89307 13.25644 6.33716 13.65666 5.97643 13.88834 5.61568 14.12001 5.0117 14.46648 4.62296 14.66379 4.23419 14.8611 3.58797 15.15056 3.17448 15.31044 2.76102 15.47034 2.07768 15.69664 1.64294 15.81631 1.20822 15.93597 .49323 16.09663 .04126 16.17297-.41068 16.2493-1.14944 16.33583-1.61458 16.36646-2.07973 16.3971-2.8372 16.41008-3.31128 16.39381-3.78532 16.37753-4.5534 16.31413-5.03134 16.24907-5.50926 16.18399-6.27913 16.03986-6.75589 15.92474-7.23264 15.80965-7.99704 15.58473-8.4675 15.41937-8.93796 15.25403-9.68768 14.94846-10.14676 14.73294-10.60585 14.51741-11.33372 14.13103-11.77629 13.86595-12.21887 13.60086-12.91591 13.13567-13.33669 12.82236-13.75746 12.50905-14.41553 11.96786-14.80907 11.60768-15.20258 11.2475-15.81195 10.63132-16.17297 10.22635-16.53397 9.82137-17.0873 9.13556-17.41103 8.68883-17.73477 8.24211-18.22421 7.49161-18.50635 7.00659-18.78847 6.52155-19.20872 5.71266-19.44447 5.19301-19.68022 4.67332-20.02061 3.811-20.2055 3.26105-20.3904 2.71107-20.64633 1.8044-20.77705 1.22908-20.90776 .65378-21.07399-.28978-21.14761-.88538-21.22125-1.48097-21.2942-2.45334-21.3078-3.06355-21.32138-3.6738-21.2948-4.66475-21.2456-5.28352-21.19641-5.90231-21.06624-6.90227-20.95314-7.52339-20.84003-8.14452-20.60832-9.14348-20.43034-9.76027-20.25235-10.37706-19.91376-11.36307-19.67029-11.9688-19.42682-12.57454-18.98389-13.53822-18.67548-14.1261-18.36703-14.71397-17.81975-15.64264-17.44734-16.2058-17.07494-16.76895-16.4258-17.6531-15.99141-18.18501-15.55702-18.7169-14.81047-19.54579-14.31659-20.03938-13.82272-20.53297-12.98228-21.29385-12.4319-21.74251-11.88152-22.1912-10.95256-22.87527-10.34972-23.27307-9.74687-23.67085-8.7377-24.26906-8.08696-24.60963-7.43622-24.95023-6.35298-25.4502-5.65958-25.72783-4.96619-26.00546-3.81932-26.4008-3.08942-26.61073-2.35953-26.82068-1.15883-27.10309-.39891-27.24097 .36098-27.37885 1.60454-27.54303 2.38759-27.60458 3.17062-27.66614 4.44603-27.70302 5.24472-27.68466 6.04343-27.6663 7.33786-27.57263 8.14417-27.47227 8.95045-27.37193 10.25043-27.14514 11.05605-26.96143 11.86166-26.7777 13.15436-26.41673 13.9505-26.14815 14.74666-25.87953 16.01636-25.37924 16.79422-25.02547 17.5721-24.67169 18.80608-24.03595 19.55688-23.5984 20.3077-23.16084 21.49043-22.39113 22.20563-21.87186 22.92082-21.35258 24.04121-20.45445 24.71161-19.85583 25.38202-19.2572 26.4211-18.2321 27.03754-17.55728 27.65398-16.88245 28.60014-15.73822 29.15453-14.9921 29.70892-14.24596 30.54832-12.99124 31.03326-12.1797 31.51822-11.36815 32.2422-10.01361 32.64986-9.14297 33.05753-8.27235 33.9715-5.9048 33.9715-5.9048"/>
<path transform="matrix(1.00005,0,0,-1.00003,82.65637,86.358119)" stroke-width=".79701" stroke-linecap="butt" stroke-miterlimit="10" stroke-linejoin="miter" fill="none" stroke="#0000ff" d="M-5.84612-2.88449C-5.84612-2.88449-5.6912-3.3442-5.61879-3.5177-5.5464-3.69118-5.41528-3.96689-5.32433-4.135-5.23337-4.3031-5.07237-4.5686-4.9632-4.7294-4.85402-4.89021-4.66437-5.14249-4.5374-5.29398-4.41042-5.44547-4.19197-5.68094-4.04794-5.82124-3.90393-5.96152-3.65941-6.1781-3.4993-6.3052-3.3392-6.43233-3.06903-6.62526-2.89395-6.73747-2.71887-6.8497-2.42589-7.01831-2.23737-7.11403-2.04881-7.20975-1.73563-7.34996-1.53502-7.42738-1.33438-7.50482-1.00227-7.6143-.79137-7.67213-.58046-7.72995-.23407-7.80736-.0149-7.84422 .20424-7.88107 .56273-7.92305 .78838-7.93773 1.01404-7.95242 1.38173-7.9583 1.6116-7.95018 1.84148-7.94205 2.2136-7.91084 2.44528-7.87904 2.67694-7.84726 3.05017-7.77676 3.28143-7.72087 3.51268-7.66498 3.88388-7.55634 4.1121-7.47614 4.34033-7.39594 4.70374-7.24754 4.92638-7.14287 5.149-7.0382 5.50208-6.85019 5.71678-6.72154 5.93149-6.59293 6.26991-6.36778 6.47385-6.21568 6.67778-6.06358 6.99603-5.8002 7.18665-5.62526 7.37726-5.45032 7.67274-5.15129 7.8477-4.95473 8.02264-4.75818 8.29051-4.42531 8.44759-4.20862 8.60466-3.99193 8.84312-3.62819 8.97983-3.39287 9.11655-3.15753 9.31897-2.76459 9.43297-2.51242 9.54697-2.26024 9.71205-1.84215 9.80156-1.57529 9.89107-1.30843 10.0148-.86801 10.07813-.58891 10.14148-.30984 10.22264 .14738 10.25818 .43622 10.29372 .72504 10.32802 1.19672 10.3343 1.49272 10.34058 1.7887 10.32745 2.26949 10.30345 2.56963 10.27945 2.86977 10.21632 3.3548 10.1612 3.65598 10.10605 3.95715 9.99255 4.44125 9.906 4.74036 9.81949 5.03944 9.65564 5.51807 9.53743 5.81178 9.41922 6.1055 9.20375 6.57225 9.05394 6.85735 8.90411 7.14246 8.63821 7.59346 8.45753 7.86662 8.27686 8.13977 7.96254 8.56837 7.75171 8.82613 7.54088 9.0839 7.17783 9.48532 6.93793 9.72447 6.69804 9.96361 6.28976 10.33208 6.02267 10.54968 5.75562 10.76727 5.3054 11.09993 5.01294 11.29282 4.72044 11.4857 4.23045 11.77509 3.91466 11.93994 3.59883 12.10483 3.0732 12.34679 2.73674 12.48116 2.40031 12.61551 1.84383 12.80672 1.48973 12.90843 1.13562 13.01013 .5531 13.14766 .18451 13.21432-.18405 13.28099-.78714 13.35947-1.16693 13.38892-1.5467 13.41838-2.16534 13.43597-2.5527 13.42671-2.94008 13.41747-3.56781 13.37106-3.95891 13.32227-4.35002 13.27348-4.98082 13.16434-5.37158 13.07504-5.76233 12.98575-6.38922 12.80925-6.77527 12.6786-7.16135 12.54796-7.77695 12.30528-8.1541 12.13344-8.53127 11.96161-9.12955 11.65248-9.49367 11.44005-9.85779 11.22763-10.43184 10.85458-10.77849 10.6024-11.12514 10.35023-11.66733 9.91327-11.99217 9.6225-12.31705 9.33173-12.82098 8.83426-13.11981 8.50677-13.41864 8.1793-13.87704 7.62418-14.146 7.26225-14.41493 6.90034-14.82324 6.29205-15.05826 5.89833-15.29324 5.5046-15.64246 4.847-15.83969 4.4245-16.03694 4.00198-16.32327 3.30084-16.47986 2.85315-16.63644 2.40544-16.85591 1.66663-16.96834 1.19775-17.08073 .72888-17.22475-.04033-17.29016-.52626-17.35558-1.01219-17.42346-1.80602-17.43988-2.3045-17.45628-2.803-17.44304-3.61302-17.40855-4.1191-17.37405-4.62517-17.27785-5.44354-17.19118-5.95206-17.10449-6.46056-16.92348-7.27837-16.78378-7.78403-16.6441-8.2897-16.37755-9.0993-16.1844-9.59662-15.99123-10.09393-15.63805-10.88518-15.39153-11.36842-15.145-11.85167-14.70667-12.61589-14.40762-13.07953-14.1086-13.54318-13.58612-14.2714-13.23622-14.71005-12.8863-15.14871-12.28465-15.83316-11.88574-16.2411-11.48682-16.64905-10.80684-17.2786-10.36115-17.6503-9.91545-18.022-9.16238-18.58977-8.67342-18.9202-8.18446-19.25063-7.3654-19.74744-6.83694-20.0319-6.30849-20.31638-5.42862-20.73686-4.8647-20.97055-4.30077-21.20422-3.36713-21.53796-2.77257-21.71616-2.17802-21.89435-1.19914-22.13521-.57947-22.25487 .04018-22.37454 1.05438-22.52084 1.69368-22.57869 2.33296-22.63652 3.37526-22.67915 4.02806-22.6717 4.68086-22.66426 5.73918-22.59964 6.39874-22.52498 7.05832-22.4503 8.12201-22.27649 8.78186-22.1335 9.44171-21.99051 10.50131-21.70631 11.15453-21.49431 11.80775-21.2823 12.85081-20.88678 13.4899-20.60542 14.12898-20.32407 15.14307-19.81688 15.76062-19.46635 16.37814-19.11584 17.35167-18.49693 17.94078-18.07907 18.52989-17.66118 19.45332-16.93752 20.00655-16.4545 20.55977-15.97147 21.41791-15.14322 21.92805-14.59764 22.4382-14.05208 23.22319-13.12671 23.68344-12.52243 24.14369-11.91814 24.84154-10.90082 25.24535-10.24226 25.64915-9.58372 26.25278-8.48376 26.59383-7.77608 26.93489-7.06839 27.43117-5.89279 27.70357-5.14177 27.97595-4.39076 28.35837-3.15079 28.55714-2.36319 28.75589-1.5756 29.01556-.28261 29.13612 .5347 29.25668 1.35204 29.38817 2.68822 29.42612 3.52765 29.46407 4.36707 29.45752 5.73167 29.4097 6.58478 29.36188 7.43787 29.21695 8.81787 29.0814 9.67622 28.94586 10.53455 28.65747 11.91626 28.43279 12.77115 28.20808 13.626 27.77708 14.99594 27.46182 15.8377 27.14656 16.67946 26.56638 18.0191 26.16058 18.83812 25.75479 19.65712 25.03136 20.95343 24.53702 21.74055 24.04266 22.52766 23.17801 23.76495 22.5976 24.51114 22.01718 25.25734 21.01744 26.42322 20.35374 27.1186 19.69002 27.81401 17.81395 29.5231 17.81395 29.5231"/>
<path transform="matrix(1.00005,0,0,-1.00003,82.65637,86.358119)" stroke-width=".79701" stroke-linecap="butt" stroke-miterlimit="10" stroke-linejoin="miter" fill="none" stroke="#0000ff" d="M.57-6.49425C.57-6.49425 1.0546-6.51627 1.24251-6.51164 1.43042-6.50703 1.73483-6.48477 1.92447-6.4609 2.11412-6.43704 2.42-6.38303 2.60942-6.33955 2.79886-6.29608 3.10266-6.21094 3.28989-6.14754 3.47713-6.08412 3.77597-5.96585 3.95891-5.88243 4.14186-5.799 4.43207-5.64934 4.60854-5.54617 4.785-5.44301 5.06285-5.26128 5.2308-5.13878 5.39877-5.01628 5.6617-4.80432 5.81924-4.66324 5.97679-4.52219 6.22148-4.28091 6.3664-4.12206 6.51134-3.9632 6.73352-3.69385 6.86382-3.5182 6.99413-3.34256 7.19173-3.04723 7.30553-2.85614 7.41931-2.66504 7.58847-2.34589 7.68405-2.14085 7.77962-1.93582 7.91867-1.5955 7.99446-1.37831 8.07022-1.16113 8.17607-.80287 8.23022-.57549 8.2844-.34808 8.3533 .02495 8.38492 .26064 8.41652 .4963 8.45003 .8814 8.45804 1.12314 8.46605 1.3649 8.45946 1.75758 8.44263 2.00308 8.42578 2.24857 8.37875 2.64572 8.33667 2.89244 8.29456 3.13918 8.20709 3.53612 8.13919 3.78133 8.0713 4.02654 7.94121 4.4187 7.84721 4.65977 7.75323 4.90083 7.58153 5.28452 7.46172 5.51881 7.3419 5.7531 7.12871 6.1236 6.98369 6.34851 6.8387 6.57341 6.58641 6.92725 6.41664 7.1399 6.24689 7.35252 5.95383 7.6834 5.76006 7.88103 5.56625 8.07869 5.23619 8.38437 5.0199 8.56448 4.80362 8.74461 4.43834 9.01904 4.20116 9.17928 3.96396 9.33952 3.56674 9.5816 3.31029 9.71948 3.05385 9.85736 2.6264 10.06017 2.35275 10.17313 2.0791 10.28609 1.62642 10.4475 1.33803 10.53375 1.0496 10.62001 .57468 10.73708 .27405 10.7949-.02654 10.85274-.51859 10.92279-.82869 10.9506-1.13876 10.9784-1.64423 10.99908-1.96078 10.99536-2.27736 10.99164-2.79039 10.96008-3.11034 10.92372-3.43027 10.88736-3.94673 10.80272-4.26682 10.73323-4.58688 10.66373-5.10062 10.52588-5.41733 10.42284-5.73404 10.31978-6.23965 10.12743-6.54945 9.99059-6.85927 9.85373-7.35065 9.60657-7.65024 9.43645-7.94983 9.26633-8.4231 8.96721-8.70874 8.76445-8.99438 8.56169-9.441 8.20969-9.70905 7.97504-9.9771 7.7404-10.39343 7.33804-10.6407 7.07324-10.88797 6.80844-11.2681 6.35963-11.49129 6.06647-11.71448 5.77328-12.0537 5.2798-12.24934 4.9602-12.44499 4.6406-12.73636 4.10635-12.90146 3.76294-13.06653 3.41951-13.30734 2.8494-13.43916 2.48506-13.57098 2.12073-13.75525 1.5191-13.85152 1.13705-13.9478 .755-14.07468 .12779-14.13306-.26859-14.19142-.665-14.25426-1.31287-14.27234-1.72003-14.29042-2.12723-14.28691-2.78952-14.26338-3.20334-14.23985-3.61714-14.16869-4.28627-14.10272-4.70256-14.03674-5.11884-13.89717-5.78925-13.78786-6.20375-13.67853-6.61826-13.46808-7.28188-13.31482-7.69003-13.16154-8.09819-12.88013-8.74829-12.68309-9.14548-12.48608-9.54265-12.1345-10.17088-11.89468-10.55264-11.65486-10.93443-11.23634-11.53539-10.95457-11.89717-10.67279-12.25894-10.18608-12.82314-9.86374-13.16011-9.54138-13.4971-8.99168-14.01797-8.63115-14.32607-8.27061-14.63412-7.66165-15.1059-7.26523-15.38058-6.8688-15.65526-6.2034-16.06857-5.77397-16.30577-5.34457-16.54297-4.62897-16.89421-4.1703-17.0902-3.71164-17.2862-2.95221-17.5673-2.46815-17.71844-1.9841-17.86957-1.18663-18.07616-.68144-18.17953-.17625-18.28291 .65112-18.4105 1.17288-18.46358 1.69463-18.51663 2.54543-18.56178 3.07898-18.56206 3.61255-18.56232 4.47858-18.52014 5.0184-18.46556 5.55823-18.41096 6.4293-18.27936 6.96977-18.1686 7.51022-18.05782 8.37807-17.83449 8.91367-17.6672 9.4493-17.49992 10.30544-17.18687 10.83022-16.96286 11.355-16.73885 12.18806-16.33318 12.69601-16.05258 13.20396-15.77197 14.00603-15.27632 14.49118-14.94035 14.97636-14.60442 15.73631-14.02075 16.19286-13.63115 16.64938-13.24156 17.35951-12.57338 17.7816-12.13245 18.20369-11.69151 18.8534-10.9427 19.23506-10.45317 19.6167-9.96365 20.19608-9.1385 20.53232-8.60428 20.86856-8.07004 21.37297-7.17763 21.65846-6.60266 21.94397-6.02771 22.36066-5.07156 22.59013-4.4603 22.81961-3.84904 23.14282-2.83882 23.31236-2.19705 23.48192-1.5553 23.70636-.50146 23.81229 .16512 23.9182 .83174 24.03679 1.9219 24.0759 2.60744 24.11502 3.29297 24.12508 4.40837 24.09431 5.10596 24.06354 5.80354 23.95709 6.93268 23.85405 7.63531 23.75102 8.33795 23.52757 9.46957 23.35167 10.17015 23.17575 10.8707 22.83585 11.9938 22.58615 12.68459 22.33644 13.37537 21.87569 14.47568 21.55202 15.14877 21.22835 15.82188 20.64981 16.88812 20.25327 17.53589 19.85672 18.18365 19.16132 19.20255 18.69388 19.81752 18.22644 20.43251 17.42023 21.39395 16.88425 21.96835 16.3483 22.54277 15.43219 23.4315 14.83093 23.95752 14.22969 24.48354 13.21295 25.289 12.55078 25.75967 11.88858 26.23033 10.77652 26.94133 10.05821 27.3499 9.3399 27.75845 8.14229 28.36476 7.37367 28.70436 6.60506 29.04398 5.33095 29.53308 4.51851 29.79768 3.70605 30.06227 2.36703 30.42685 1.5181 30.61145 .66914 30.79607-.72217 31.02812-1.60017 31.12827-2.47818 31.22841-3.9113 31.32204-4.81 31.33322-5.7087 31.34439-7.16708 31.29008-8.07751 31.20886-8.98796 31.12764-10.45903 30.92319-11.37189 30.74776-12.28477 30.57231-13.75116 30.21503-14.65685 29.94443-15.56252 29.67383-17.01085 29.1642-17.89949 28.7974-18.78812 28.43059-21.06157 27.30064-21.06157 27.30064"/>
<path transform="matrix(1.00005,0,0,-1.00003,82.65637,86.358119)" stroke-width=".79701" stroke-linecap="butt" stroke-miterlimit="10" stroke-linejoin="miter" fill="none" stroke="#000000" d="M-81.49663 0H80.78926"/>
<path transform="matrix(1.00005,0,0,-1.00003,163.44968,86.358119)" stroke-width=".6376" stroke-linecap="round" stroke-linejoin="round" fill="none" stroke="#000000" d="M-1.55415 2.0722C-1.42464 1.29512 0 .1295 .38852 0 0-.1295-1.42464-1.29512-1.55415-2.0722"/>
<use data-text="x" xlink:href="#font_2_1" transform="matrix(9.963098,0,0,-9.962899,167.87664,88.50318)"/>
<path transform="matrix(1.00005,0,0,-1.00003,82.65637,86.358119)" stroke-width=".79701" stroke-linecap="butt" stroke-miterlimit="10" stroke-linejoin="miter" fill="none" stroke="#000000" d="M0-81.49663V80.78926"/>
<path transform="matrix(0,-1.00003,-1.00005,-0,82.65637,5.566429)" stroke-width=".6376" stroke-linecap="round" stroke-linejoin="round" fill="none" stroke="#000000" d="M-1.55415 2.0722C-1.42464 1.29512 0 .1295 .38852 0 0-.1295-1.42464-1.29512-1.55415-2.0722"/>
<use data-text="y" xlink:href="#font_2_2" transform="matrix(9.963098,0,0,-9.962899,80.03524,-.7975006)"/>
<path transform="matrix(1.00005,0,0,-1.00003,82.65637,86.358119)" d="M2.29141 0C2.29141 1.26553 1.26553 2.29141 0 2.29141-1.26553 2.29141-2.29141 1.26553-2.29141 0-2.29141-1.26553-1.26553-2.29141 0-2.29141 1.26553-2.29141 2.29141-1.26553 2.29141 0ZM0 0"/>
</g>
</svg>
