<svg xmlns="http://www.w3.org/2000/svg" xmlns:xlink="http://www.w3.org/1999/xlink" xmlns:inkscape="http://www.inkscape.org/namespaces/inkscape" version="1.1" width="202" height="143" viewBox="0 0 202 143">
<defs>
<path id="font_1_1" d="M.33399964 .30233766C.33999635 .32835389 .36299134 .42037965 .43299867 .42037965 .43798829 .42037965 .46199037 .42037965 .48298646 .40734864 .45498658 .402359 .43499757 .37734986 .43499757 .35334779 .43499757 .33735658 .44599916 .31835938 .47299195 .31835938 .49499513 .31835938 .5269928 .3363495 .5269928 .37635804 .5269928 .42837525 .46798707 .4423828 .43399049 .4423828 .37599183 .4423828 .34098817 .38935853 .32899476 .36634828 .3039856 .43237306 .25 .4423828 .22099304 .4423828 .116989139 .4423828 .05999756 .3133545 .05999756 .28834535 .05999756 .27833558 .069992069 .27833558 .07199097 .27833558 .07998657 .27833558 .08299255 .28033448 .084991458 .28933717 .11898804 .39535523 .18499756 .42037965 .21899414 .42037965 .23799134 .42037965 .272995 .4113617 .272995 .35334779 .272995 .32235719 .2559967 .25532533 .21899414 .11528015 .20298767 .053268434 .16799927 .011245728 .12399292 .011245728 .117996219 .011245728 .09498596 .011245728 .07398987 .024276734 .09899902 .029266358 .12098694 .05027771 .12098694 .07827759 .12098694 .105270389 .09899902 .11328125 .083999637 .11328125 .053985597 .11328125 .0289917 .08728027 .0289917 .055267335 .0289917 .009246826 .07899475-.0107421879 .12298584-.0107421879 .18899536-.0107421879 .22499085 .059280397 .22799683 .0652771 .23999024 .028274537 .27598573-.0107421879 .33599855-.0107421879 .43899537-.0107421879 .49598695 .118270877 .49598695 .14328003 .49598695 .1532898 .4869995 .1532898 .48399354 .1532898 .47499085 .1532898 .47299195 .14929199 .47099305 .14228821 .43798829 .03527832 .36999513 .011245728 .33799745 .011245728 .29899598 .011245728 .2829895 .043273927 .2829895 .07727051 .2829895 .09927368 .2889862 .121276859 .2999878 .16529846L.33399964 .30233766Z"/>
<path id="font_1_2" d="M.48599244 .38136292C.48999024 .39537049 .48999024 .39736939 .48999024 .40437318 .48999024 .42237855 .47599793 .43138124 .46099855 .43138124 .45098878 .43138124 .43499757 .42536927 .42599488 .41036988 .42399598 .405365 .41600038 .37435914 .4119873 .35635377 .40499879 .33035279 .397995 .30334474 .3919983 .27633668L.34700013 .09628296C.34298707 .08126831 .2999878 .011245728 .23399353 .011245728 .18299866 .011245728 .17199707 .055267335 .17199707 .0922699 .17199707 .1382904 .18899536 .20030213 .22299195 .28833009 .23899842 .3293457 .24299622 .3403473 .24299622 .36035157 .24299622 .405365 .21099854 .4423828 .16099549 .4423828 .06599426 .4423828 .0289917 .29733277 .0289917 .28833009 .0289917 .27833558 .038986207 .27833558 .040985109 .27833558 .050994874 .27833558 .051986696 .28033448 .056991579 .29634095 .083999637 .3903656 .12399292 .42037965 .1579895 .42037965 .1659851 .42037965 .18299866 .42037965 .18299866 .3883667 .18299866 .36335755 .17298889 .3373413 .1659851 .31834413 .12599182 .21231079 .10798645 .1552887 .10798645 .10827637 .10798645 .019256592 .17098999-.0107421879 .22999573-.0107421879 .2689972-.0107421879 .30299378 .0062561037 .33099366 .03425598 .31799317-.017745972 .30599977-.06674194 .2659912-.11973572 .23999024-.15385437 .20199585-.18309021 .1559906-.18309021 .14199829-.18309021 .09700012-.18005371 .07998657-.14074707 .09599304-.14074707 .10899353-.14074707 .12298584-.1287384 .1329956-.11973572 .14299011-.10673523 .14299011-.08773804 .14299011-.056747438 .115997318-.052734376 .10598755-.052734376 .08299255-.052734376 .049987794-.068740848 .049987794-.11773682 .049987794-.16796875 .09399414-.20507813 .1559906-.20507813 .25898744-.20507813 .3619995-.11373901 .3899994-.00074768069L.48599244 .38136292Z"/>
<path id="font_2_1" d="M.6589966 .23046875C.6759949 .23046875 .69400027 .23046875 .69400027 .25045777 .69400027 .27046205 .6759949 .27046205 .6589966 .27046205H.117996219C.100997928 .27046205 .08299255 .27046205 .08299255 .25045777 .08299255 .23046875 .100997928 .23046875 .117996219 .23046875H.6589966Z"/>
<path id="font_3_4" d="M.2939911 .16503906V.07800293C.2939911 .041992189 .2919922 .0309906 .21798706 .0309906H.19699097V0C.23799134 .0029907227 .2899933 .0029907227 .33198548 .0029907227 .37399293 .0029907227 .4269867 .0029907227 .46798707 0V.0309906H.44699098C.37298585 .0309906 .37098695 .041992189 .37098695 .07800293V.16503906H.47099305V.19602967H.37098695V.65075686C.37098695 .67074587 .37098695 .6767578 .35499574 .6767578 .34599305 .6767578 .34298707 .6767578 .33499146 .66474917L.027999878 .19602967V.16503906H.2939911M.2999878 .19602967H.055999757L.2999878 .5688019V.19602967Z"/>
<path id="font_3_3" d="M.2899933 .35191346C.37199403 .37893678 .42999269 .4490509 .42999269 .52809146 .42999269 .6100464 .34199525 .6660156 .24598694 .6660156 .14498902 .6660156 .068984989 .60606387 .068984989 .53009036 .068984989 .49710084 .09098816 .47808839 .11999512 .47808839 .15098572 .47808839 .17098999 .50009158 .17098999 .5290985 .17098999 .57910159 .12399292 .57910159 .10899353 .57910159 .13999939 .62802127 .20599365 .64100649 .24198914 .64100649 .2829895 .64100649 .33799745 .6190338 .33799745 .5290985 .33799745 .51708987 .33599855 .45906068 .30999757 .4149933 .27999879 .36691285 .24598694 .36390687 .22099304 .36291505 .21299744 .36190797 .18899536 .35990907 .18199158 .35990907 .17399597 .35890199 .16699219 .35791017 .16699219 .3479004 .16699219 .33691407 .17399597 .33691407 .19099427 .33691407H.23498535C.31698609 .33691407 .35398866 .2686615 .35398866 .17037964 .35398866 .034469606 .2849884 .0055389406 .24099732 .0055389406 .19799805 .0055389406 .12298584 .022491456 .08799744 .08137512 .12298584 .07637024 .1539917 .09837341 .1539917 .1363678 .1539917 .17237854 .1269989 .19238281 .09799194 .19238281 .07398987 .19238281 .041992189 .17837525 .041992189 .1343689 .041992189 .043441774 .1349945-.022460938 .24398804-.022460938 .3659973-.022460938 .45700074 .06838989 .45700074 .17037964 .45700074 .252594 .3939972 .33088685 .2899933 .35191346Z"/>
<path id="font_3_2" d="M.1269989 .07699585 .23298645 .18003845C.3889923 .31811524 .44898988 .3721466 .44898988 .47216798 .44898988 .5860901 .35899354 .6660156 .23699951 .6660156 .12399292 .6660156 .049987794 .57411196 .049987794 .48516847 .049987794 .4291687 .099990848 .4291687 .102996829 .4291687 .11999512 .4291687 .15499878 .44117738 .15499878 .48217774 .15499878 .5081787 .13699341 .5341797 .101989749 .5341797 .09399414 .5341797 .09199524 .5341797 .08898926 .5331726 .11199951 .59806826 .1659851 .63500979 .22399903 .63500979 .31498719 .63500979 .35798646 .5541382 .35798646 .47216798 .35798646 .39215089 .30799867 .31311036 .25299073 .25108338L.06098938 .036987306C.049987794 .025985718 .049987794 .023986817 .049987794 0H.42099L.44898988 .17404175H.42399598C.4189911 .14402771 .4119873 .1000061 .4019928 .084991458 .394989 .07699585 .32899476 .07699585 .30699159 .07699585H.1269989Z"/>
<path id="font_3_1" d="M.2939911 .64004519C.2939911 .66400149 .2939911 .6660156 .2709961 .6660156 .20899964 .60227969 .12098694 .60227969 .08898926 .60227969V.57128909C.10899353 .57128909 .16799927 .57128909 .21998596 .5972748V.07902527C.21998596 .042999269 .21699524 .0309906 .1269989 .0309906H.09498596V0C.12998963 .0029907227 .21699524 .0029907227 .25698854 .0029907227 .29699708 .0029907227 .38398744 .0029907227 .4189911 0V.0309906H.3869934C.29699708 .0309906 .2939911 .041992189 .2939911 .07902527V.64004519Z"/>
</defs>
<path transform="matrix(1.00003,0,0,-1.0001,101.10849,101.29563)" stroke-width=".79701" stroke-linecap="butt" stroke-miterlimit="10" stroke-linejoin="miter" fill="none" stroke="#bfbfbf" d="M-99.2134-39.68535H99.2134M-99.2134-19.84267H99.2134M-99.2134 0H99.2134M-99.2134 19.84267H99.2134M-99.2134 39.68535H99.2134M-99.2134 59.52802H99.2134M-99.2134 79.37071H99.2134M-99.2134 99.20642H99.2134M-99.2134-39.68535V99.2134M-79.37071-39.68535V99.2134M-59.52802-39.68535V99.2134M-39.68535-39.68535V99.2134M-19.84267-39.68535V99.2134M0-39.68535V99.2134M19.84267-39.68535V99.2134M39.68535-39.68535V99.2134M59.52802-39.68535V99.2134M79.37071-39.68535V99.2134M99.20642-39.68535V99.2134M99.2134 99.2134"/>
<path transform="matrix(1.00003,0,0,-1.0001,101.10849,101.29563)" stroke-width=".29887" stroke-linecap="butt" stroke-miterlimit="10" stroke-linejoin="miter" fill="none" stroke="#333333" d="M0 0H95.89583"/>
<path transform="matrix(1.00003,0,0,-1.0001,197.0072,101.29563)" d="M3.31755 0C2.33455 .1843 .73723 .73723-.3686 1.38231V-1.38231C.73723-.73723 2.33455-.1843 3.31755 0" fill="#333333"/>
<use data-text="x" xlink:href="#font_1_1" transform="matrix(9.962899,0,0,-9.963596,192.51725,109.05641)" fill="#333333"/>
<path transform="matrix(1.00003,0,0,-1.0001,101.10849,101.29563)" stroke-width=".29887" stroke-linecap="butt" stroke-miterlimit="10" stroke-linejoin="miter" fill="none" stroke="#333333" d="M0 0H-95.89583"/>
<path transform="matrix(-1.00003,-0,0,1.0001,5.209778,101.29563)" d="M3.31755 0C2.33455 .1843 .73723 .73723-.3686 1.38231V-1.38231C.73723-.73723 2.33455-.1843 3.31755 0" fill="#333333"/>
<path transform="matrix(1.00003,0,0,-1.0001,101.10849,101.29563)" stroke-width=".29887" stroke-linecap="butt" stroke-miterlimit="10" stroke-linejoin="miter" fill="none" stroke="#333333" d="M0 0V95.89583"/>
<path transform="matrix(0,-1.0001,-1.00003,-0,101.10849,5.390213)" d="M3.31755 0C2.33455 .1843 .73723 .73723-.3686 1.38231V-1.38231C.73723-.73723 2.33455-.1843 3.31755 0" fill="#333333"/>
<use data-text="y" xlink:href="#font_1_2" transform="matrix(9.962899,0,0,-9.963596,104.5786,8.20932)" fill="#333333"/>
<path transform="matrix(1.00003,0,0,-1.0001,101.10849,101.29563)" stroke-width=".29887" stroke-linecap="butt" stroke-miterlimit="10" stroke-linejoin="miter" fill="none" stroke="#333333" d="M0 0V-36.3678"/>
<path transform="matrix(0,1.0001,1.00003,0,101.10849,137.66707)" d="M3.31755 0C2.33455 .1843 .73723 .73723-.3686 1.38231V-1.38231C.73723-.73723 2.33455-.1843 3.31755 0" fill="#333333"/>
<path transform="matrix(1.00003,0,0,-1.0001,101.10849,101.29563)" stroke-width="1.99255" stroke-linecap="butt" stroke-miterlimit="10" stroke-linejoin="miter" fill="none" stroke="#0074c8" d="M-99.2134 99.2134-95.90648 95.90648-92.59956 92.59956-89.29265 89.29265-85.98575 85.98575-82.67882 82.67882-79.3719 79.3719-76.06499 76.06499-72.75809 72.75809-69.45117 69.45117-66.14427 66.14427-62.83736 62.83736-59.53044 59.53044-56.22353 56.22353-52.91663 52.91663-49.60971 49.60971-46.3028 46.3028-42.99588 42.99588-39.68896 39.68896-36.38206 36.38206-33.07515 33.07515-29.76823 29.76823-26.46132 26.46132-23.15442 23.15442-19.84752 19.84752"/>
<path transform="matrix(1.00003,0,0,-1.0001,101.10849,101.29563)" stroke-width="1.99255" stroke-linecap="butt" stroke-miterlimit="10" stroke-linejoin="miter" fill="none" stroke="#0074c8" d="M-19.84267 19.84267-18.18921 23.14957-16.53575 26.45648-14.8823 29.7634-13.22885 33.0703-11.57538 36.37721-9.92194 39.68413-8.26846 42.99104-6.615 46.29796-4.96156 49.60486-3.30809 52.91177-1.65465 56.21869-.00119 59.5256 1.65222 62.8325 3.30568 66.13942 4.95914 69.44632 6.6126 72.75323 8.26605 76.06015 9.9195 79.36708 11.57295 82.67398 13.22641 85.9809 14.87987 89.28781 16.53333 92.59473 18.18677 95.90163 19.84024 99.20853"/>
<path transform="matrix(1.00003,0,0,-1.0001,101.10849,101.29563)" stroke-width="1.99255" stroke-linecap="butt" stroke-miterlimit="10" stroke-linejoin="miter" fill="none" stroke="#0074c8" d="M19.84267 99.2134 23.14957 97.55992 26.45648 95.90648 29.7634 94.25302 33.0703 92.59956 36.37721 90.9461 39.68413 89.29265 42.99104 87.63919 46.29796 85.98575 49.60486 84.33229 52.91177 82.67882 56.21869 81.02536 59.5256 79.3719 62.8325 77.71846 66.13942 76.06499 69.44632 74.41154 72.75323 72.75809 76.06015 71.10463 79.36708 69.45117 82.67398 67.79771 85.9809 66.14427 89.28781 64.49081 92.59473 62.83736 95.90163 61.1839 99.20853 59.53044"/>
<path transform="matrix(1.00003,0,0,-1.0001,101.10849,101.29563)" stroke-width=".79701" stroke-linecap="butt" stroke-miterlimit="10" stroke-linejoin="miter" fill="none" stroke="#000000" d="M-79.37071 2.09216V-2.09216"/>
<use data-text="&#x2212;" xlink:href="#font_2_1" transform="matrix(9.962899,0,0,-9.963596,15.369919,113.528858)"/>
<use data-text="4" xlink:href="#font_3_4" transform="matrix(9.962899,0,0,-9.963596,23.119156,113.528858)"/>
<path transform="matrix(1.00003,0,0,-1.0001,101.10849,101.29563)" stroke-width=".79701" stroke-linecap="butt" stroke-miterlimit="10" stroke-linejoin="miter" fill="none" stroke="#000000" d="M-59.52802 2.09216V-2.09216"/>
<use data-text="&#x2212;" xlink:href="#font_2_1" transform="matrix(9.962899,0,0,-9.963596,35.213518,113.528858)"/>
<use data-text="3" xlink:href="#font_3_3" transform="matrix(9.962899,0,0,-9.963596,42.962755,113.528858)"/>
<path transform="matrix(1.00003,0,0,-1.0001,101.10849,101.29563)" stroke-width=".79701" stroke-linecap="butt" stroke-miterlimit="10" stroke-linejoin="miter" fill="none" stroke="#000000" d="M-39.68535 2.09216V-2.09216"/>
<use data-text="&#x2212;" xlink:href="#font_2_1" transform="matrix(9.962899,0,0,-9.963596,55.057115,113.528858)"/>
<use data-text="2" xlink:href="#font_3_2" transform="matrix(9.962899,0,0,-9.963596,62.80635,113.528858)"/>
<path transform="matrix(1.00003,0,0,-1.0001,101.10849,101.29563)" stroke-width=".79701" stroke-linecap="butt" stroke-miterlimit="10" stroke-linejoin="miter" fill="none" stroke="#000000" d="M-19.84267 2.09216V-2.09216"/>
<use data-text="&#x2212;" xlink:href="#font_2_1" transform="matrix(9.962899,0,0,-9.963596,74.899707,113.528858)"/>
<use data-text="1" xlink:href="#font_3_1" transform="matrix(9.962899,0,0,-9.963596,82.64894,113.528858)"/>
<path transform="matrix(1.00003,0,0,-1.0001,101.10849,101.29563)" stroke-width=".79701" stroke-linecap="butt" stroke-miterlimit="10" stroke-linejoin="miter" fill="none" stroke="#000000" d="M19.84267 2.09216V-2.09216"/>
<use data-text="1" xlink:href="#font_3_1" transform="matrix(9.962899,0,0,-9.963596,118.46101,113.528858)"/>
<path transform="matrix(1.00003,0,0,-1.0001,101.10849,101.29563)" stroke-width=".79701" stroke-linecap="butt" stroke-miterlimit="10" stroke-linejoin="miter" fill="none" stroke="#000000" d="M39.68535 2.09216V-2.09216"/>
<use data-text="2" xlink:href="#font_3_2" transform="matrix(9.962899,0,0,-9.963596,138.30461,113.528858)"/>
<path transform="matrix(1.00003,0,0,-1.0001,101.10849,101.29563)" stroke-width=".79701" stroke-linecap="butt" stroke-miterlimit="10" stroke-linejoin="miter" fill="none" stroke="#000000" d="M59.52802 2.09216V-2.09216"/>
<use data-text="3" xlink:href="#font_3_3" transform="matrix(9.962899,0,0,-9.963596,158.1472,113.528858)"/>
<path transform="matrix(1.00003,0,0,-1.0001,101.10849,101.29563)" stroke-width=".79701" stroke-linecap="butt" stroke-miterlimit="10" stroke-linejoin="miter" fill="none" stroke="#000000" d="M79.37071 2.09216V-2.09216"/>
<use data-text="4" xlink:href="#font_3_4" transform="matrix(9.962899,0,0,-9.963596,177.9908,113.528858)"/>
<path transform="matrix(1.00003,0,0,-1.0001,101.10849,101.29563)" stroke-width=".79701" stroke-linecap="butt" stroke-miterlimit="10" stroke-linejoin="miter" fill="none" stroke="#000000" d="M-1.39478-19.84267H1.39478"/>
<use data-text="&#x2212;" xlink:href="#font_2_1" transform="matrix(9.962899,0,0,-9.963596,86.05304,123.9359)"/>
<use data-text="1" xlink:href="#font_3_1" transform="matrix(9.962899,0,0,-9.963596,93.80228,123.9359)"/>
<path transform="matrix(1.00003,0,0,-1.0001,101.10849,101.29563)" stroke-width=".79701" stroke-linecap="butt" stroke-miterlimit="10" stroke-linejoin="miter" fill="none" stroke="#000000" d="M-1.39478 19.84267H1.39478"/>
<use data-text="1" xlink:href="#font_3_1" transform="matrix(9.962899,0,0,-9.963596,93.80227,84.66197)"/>
<path transform="matrix(1.00003,0,0,-1.0001,101.10849,101.29563)" stroke-width=".79701" stroke-linecap="butt" stroke-miterlimit="10" stroke-linejoin="miter" fill="none" stroke="#000000" d="M-1.39478 39.68535H1.39478"/>
<use data-text="2" xlink:href="#font_3_2" transform="matrix(9.962899,0,0,-9.963596,93.80227,64.816989)"/>
<path transform="matrix(1.00003,0,0,-1.0001,101.10849,101.29563)" stroke-width=".79701" stroke-linecap="butt" stroke-miterlimit="10" stroke-linejoin="miter" fill="none" stroke="#000000" d="M-1.39478 59.52802H1.39478"/>
<use data-text="3" xlink:href="#font_3_3" transform="matrix(9.962899,0,0,-9.963596,93.80227,44.971998)"/>
<path transform="matrix(1.00003,0,0,-1.0001,101.10849,101.29563)" stroke-width=".79701" stroke-linecap="butt" stroke-miterlimit="10" stroke-linejoin="miter" fill="none" stroke="#000000" d="M-1.39478 79.37071H1.39478"/>
<use data-text="4" xlink:href="#font_3_4" transform="matrix(9.962899,0,0,-9.963596,93.80227,25.128014)"/>
</svg>
