<svg xmlns="http://www.w3.org/2000/svg" xmlns:xlink="http://www.w3.org/1999/xlink" xmlns:inkscape="http://www.inkscape.org/namespaces/inkscape" version="1.1" width="217" height="179" viewBox="0 0 217 179">
<defs>
<path id="font_1_2" d="M.33399964 .30233766C.33999635 .32835389 .36299134 .42037965 .43299867 .42037965 .43798829 .42037965 .46199037 .42037965 .48298646 .40734864 .45498658 .402359 .43499757 .37734986 .43499757 .35334779 .43499757 .33735658 .44599916 .31835938 .47299195 .31835938 .49499513 .31835938 .5269928 .3363495 .5269928 .37635804 .5269928 .42837525 .46798707 .4423828 .43399049 .4423828 .37599183 .4423828 .34098817 .38935853 .32899476 .36634828 .3039856 .43237306 .25 .4423828 .22099304 .4423828 .116989139 .4423828 .05999756 .3133545 .05999756 .28834535 .05999756 .27833558 .069992069 .27833558 .07199097 .27833558 .07998657 .27833558 .08299255 .28033448 .084991458 .28933717 .11898804 .39535523 .18499756 .42037965 .21899414 .42037965 .23799134 .42037965 .272995 .4113617 .272995 .35334779 .272995 .32235719 .2559967 .25532533 .21899414 .11528015 .20298767 .053268434 .16799927 .011245728 .12399292 .011245728 .117996219 .011245728 .09498596 .011245728 .07398987 .024276734 .09899902 .029266358 .12098694 .05027771 .12098694 .07827759 .12098694 .105270389 .09899902 .11328125 .083999637 .11328125 .053985597 .11328125 .0289917 .08728027 .0289917 .055267335 .0289917 .009246826 .07899475-.0107421879 .12298584-.0107421879 .18899536-.0107421879 .22499085 .059280397 .22799683 .0652771 .23999024 .028274537 .27598573-.0107421879 .33599855-.0107421879 .43899537-.0107421879 .49598695 .118270877 .49598695 .14328003 .49598695 .1532898 .4869995 .1532898 .48399354 .1532898 .47499085 .1532898 .47299195 .14929199 .47099305 .14228821 .43798829 .03527832 .36999513 .011245728 .33799745 .011245728 .29899598 .011245728 .2829895 .043273927 .2829895 .07727051 .2829895 .09927368 .2889862 .121276859 .2999878 .16529846L.33399964 .30233766Z"/>
<path id="font_1_3" d="M.48599244 .38136292C.48999024 .39537049 .48999024 .39736939 .48999024 .40437318 .48999024 .42237855 .47599793 .43138124 .46099855 .43138124 .45098878 .43138124 .43499757 .42536927 .42599488 .41036988 .42399598 .405365 .41600038 .37435914 .4119873 .35635377 .40499879 .33035279 .397995 .30334474 .3919983 .27633668L.34700013 .09628296C.34298707 .08126831 .2999878 .011245728 .23399353 .011245728 .18299866 .011245728 .17199707 .055267335 .17199707 .0922699 .17199707 .1382904 .18899536 .20030213 .22299195 .28833009 .23899842 .3293457 .24299622 .3403473 .24299622 .36035157 .24299622 .405365 .21099854 .4423828 .16099549 .4423828 .06599426 .4423828 .0289917 .29733277 .0289917 .28833009 .0289917 .27833558 .038986207 .27833558 .040985109 .27833558 .050994874 .27833558 .051986696 .28033448 .056991579 .29634095 .083999637 .3903656 .12399292 .42037965 .1579895 .42037965 .1659851 .42037965 .18299866 .42037965 .18299866 .3883667 .18299866 .36335755 .17298889 .3373413 .1659851 .31834413 .12599182 .21231079 .10798645 .1552887 .10798645 .10827637 .10798645 .019256592 .17098999-.0107421879 .22999573-.0107421879 .2689972-.0107421879 .30299378 .0062561037 .33099366 .03425598 .31799317-.017745972 .30599977-.06674194 .2659912-.11973572 .23999024-.15385437 .20199585-.18309021 .1559906-.18309021 .14199829-.18309021 .09700012-.18005371 .07998657-.14074707 .09599304-.14074707 .10899353-.14074707 .12298584-.1287384 .1329956-.11973572 .14299011-.10673523 .14299011-.08773804 .14299011-.056747438 .115997318-.052734376 .10598755-.052734376 .08299255-.052734376 .049987794-.068740848 .049987794-.11773682 .049987794-.16796875 .09399414-.20507813 .1559906-.20507813 .25898744-.20507813 .3619995-.11373901 .3899994-.00074768069L.48599244 .38136292Z"/>
<path id="font_1_1" d="M.36698915 .3996582H.45298768C.47299195 .3996582 .48298646 .3996582 .48298646 .41966249 .48298646 .43066407 .47299195 .43066407 .45599366 .43066407H.37298585L.3939972 .5449524C.397995 .5660095 .4119873 .6370239 .41799928 .6490326 .4269867 .66804507 .44400025 .68307498 .46499635 .68307498 .46899415 .68307498 .49499513 .68307498 .5139923 .66503909 .46998597 .661026 .45999146 .6260376 .45999146 .6110382 .45999146 .58802798 .47799684 .57603457 .49699403 .57603457 .522995 .57603457 .5519867 .5980377 .5519867 .6360321 .5519867 .6820679 .5059967 .7050781 .46499635 .7050781 .43099977 .7050781 .36799623 .68707278 .33799745 .58802798 .33198548 .56700137 .32899476 .5569763 .30499269 .43066407H.23599243C.21699524 .43066407 .20599365 .43066407 .20599365 .4116516 .20599365 .3996582 .21499634 .3996582 .23399353 .3996582H.2999878L.22499085 .0048828127C.20698548-.09207153 .18998719-.18309021 .13798523-.18309021 .13398743-.18309021 .10899353-.18309021 .08999634-.16506958 .13598633-.1620636 .14498902-.12606812 .14498902-.111068729 .14498902-.08807373 .1269989-.07606506 .10798645-.07606506 .08198547-.07606506 .052993776-.09806824 .052993776-.13606262 .052993776-.18109131 .09700012-.20507813 .13798523-.20507813 .19299317-.20507813 .23298645-.14607239 .25099183-.108062747 .2829895-.04508972 .30599977 .07583618 .30699159 .082839969L.36698915 .3996582Z"/>
<path id="font_2_1" d="M.2899933 .4720459C.2979889 .4890442 .29899598 .49705506 .29899598 .5040436 .29899598 .53504946 .2709961 .5590515 .23999024 .5590515 .20199585 .5590515 .18998719 .52804568 .18499756 .51205447L.052993776 .07901001C.051986696 .07701111 .04798889 .06401062 .04798889 .06300354 .04798889 .05101013 .07899475 .041015626 .08699036 .041015626 .09399414 .041015626 .09498596 .043014528 .101989749 .058013917L.2899933 .4720459Z"/>
<path id="font_3_1" d="M.33099366-.2400055C.33099366-.23701477 .33099366-.23500061 .31399537-.21800232 .18899536-.0920105 .15699768 .09700012 .15699768 .25 .15699768 .42399598 .19499207 .59799197 .31799317 .72299197 .33099366 .73498538 .33099366 .7369995 .33099366 .73999026 .33099366 .746994 .32699586 .75 .32099916 .75 .31098939 .75 .22099304 .6819916 .1619873 .5549927 .11099243 .44499208 .09899902 .33399964 .09899902 .25 .09899902 .17199707 .10998535 .050994874 .16499329-.06201172 .22499085-.18501282 .31098939-.25 .32099916-.25 .32699586-.25 .33099366-.24700928 .33099366-.2400055Z"/>
<path id="font_3_2" d="M.2889862 .25C.2889862 .32798768 .27799989 .44898988 .22299195 .56199648 .16299439 .68499758 .07699585 .75 .066986087 .75 .06098938 .75 .056991579 .74598696 .056991579 .73999026 .056991579 .7369995 .056991579 .73498538 .07598877 .71699526 .17399597 .6179962 .23098755 .45899964 .23098755 .25 .23098755 .07899475 .19400025-.09700012 .069992069-.2230072 .056991579-.23500061 .056991579-.23701477 .056991579-.2400055 .056991579-.2460022 .06098938-.25 .066986087-.25 .07699585-.25 .16699219-.18200684 .22599793-.055007936 .2769928 .054992677 .2889862 .16600037 .2889862 .25Z"/>
<path id="font_4_1" d="M.6589966 .23046875C.6759949 .23046875 .69400027 .23046875 .69400027 .25045777 .69400027 .27046205 .6759949 .27046205 .6589966 .27046205H.117996219C.100997928 .27046205 .08299255 .27046205 .08299255 .25045777 .08299255 .23046875 .100997928 .23046875 .117996219 .23046875H.6589966Z"/>
<path id="font_3_6" d="M.16299439 .4569702C.116989139 .486969 .11299133 .52098086 .11299133 .5379791 .11299133 .598999 .17799378 .64100649 .24899292 .64100649 .32199098 .64100649 .38598634 .58898928 .38598634 .51698306 .38598634 .45996095 .34700013 .4119568 .2869873 .37695313L.16299439 .4569702M.30899049 .36193849C.3809967 .3989563 .42999269 .45095826 .42999269 .51698306 .42999269 .6090088 .34098817 .6660156 .25 .6660156 .1499939 .6660156 .068984989 .59199526 .068984989 .49897767 .068984989 .4809723 .070999149 .43595887 .11299133 .38894654 .12399292 .37695313 .16099549 .35194398 .18598938 .33494569 .12799073 .30592347 .041992189 .24984741 .041992189 .15072632 .041992189 .04458618 .14399719-.022460938 .24899292-.022460938 .3619995-.022460938 .45700074 .06060791 .45700074 .16773987 .45700074 .20379639 .44599916 .24885559 .4079895 .2909088 .3889923 .31193543 .37298585 .3219452 .30899049 .36193849M.20899964 .3199463 .33198548 .24183655C.3600006 .2228241 .40699769 .19277954 .40699769 .13169861 .40699769 .05760193 .33198548 .0055389406 .25 .0055389406 .1639862 .0055389406 .09199524 .067611698 .09199524 .15072632 .09199524 .20880127 .12399292 .27288819 .20899964 .3199463Z"/>
<path id="font_3_5" d="M.13198853 .327713V.35173036C.13198853 .6047821 .2559967 .64100649 .30699159 .64100649 .33099366 .64100649 .37298585 .634964 .394989 .6007538 .37998963 .6007538 .33999635 .6007538 .33999635 .5557556 .33999635 .524765 .3639984 .5097656 .38598634 .5097656 .4019928 .5097656 .43199159 .51875308 .43199159 .5577545 .43199159 .6178589 .3880005 .6660156 .30499269 .6660156 .1769867 .6660156 .041992189 .5367584 .041992189 .31570436 .041992189 .048553468 .1579895-.022460938 .25099183-.022460938 .3619995-.022460938 .45700074 .07156372 .45700074 .2036438 .45700074 .33070375 .36799623 .4267578 .25698854 .4267578 .18899536 .4267578 .1519928 .37573243 .13198853 .327713M.25099183 .0055389406C.18798828 .0055389406 .1579895 .06556702 .1519928 .080566409 .13398743 .127594 .13398743 .2076416 .13398743 .22564698 .13398743 .30369569 .1659851 .40374757 .2559967 .40374757 .27198792 .40374757 .31799317 .40374757 .34899903 .34172059 .36698915 .30470277 .36698915 .2536621 .36698915 .20463562 .36698915 .15661621 .36698915 .10658264 .34999085 .0705719 .31999208 .010528564 .27398683 .0055389406 .25099183 .0055389406Z"/>
<path id="font_3_4" d="M.2939911 .16503906V.07800293C.2939911 .041992189 .2919922 .0309906 .21798706 .0309906H.19699097V0C.23799134 .0029907227 .2899933 .0029907227 .33198548 .0029907227 .37399293 .0029907227 .4269867 .0029907227 .46798707 0V.0309906H.44699098C.37298585 .0309906 .37098695 .041992189 .37098695 .07800293V.16503906H.47099305V.19602967H.37098695V.65075686C.37098695 .67074587 .37098695 .6767578 .35499574 .6767578 .34599305 .6767578 .34298707 .6767578 .33499146 .66474917L.027999878 .19602967V.16503906H.2939911M.2999878 .19602967H.055999757L.2999878 .5688019V.19602967Z"/>
<path id="font_3_3" d="M.1269989 .07699585 .23298645 .18003845C.3889923 .31811524 .44898988 .3721466 .44898988 .47216798 .44898988 .5860901 .35899354 .6660156 .23699951 .6660156 .12399292 .6660156 .049987794 .57411196 .049987794 .48516847 .049987794 .4291687 .099990848 .4291687 .102996829 .4291687 .11999512 .4291687 .15499878 .44117738 .15499878 .48217774 .15499878 .5081787 .13699341 .5341797 .101989749 .5341797 .09399414 .5341797 .09199524 .5341797 .08898926 .5331726 .11199951 .59806826 .1659851 .63500979 .22399903 .63500979 .31498719 .63500979 .35798646 .5541382 .35798646 .47216798 .35798646 .39215089 .30799867 .31311036 .25299073 .25108338L.06098938 .036987306C.049987794 .025985718 .049987794 .023986817 .049987794 0H.42099L.44898988 .17404175H.42399598C.4189911 .14402771 .4119873 .1000061 .4019928 .084991458 .394989 .07699585 .32899476 .07699585 .30699159 .07699585H.1269989Z"/>
</defs>
<path transform="matrix(1.00005,0,0,-1.00002,108.59947,113.21197)" stroke-width=".79701" stroke-linecap="butt" stroke-miterlimit="10" stroke-linejoin="miter" fill="none" stroke="#bfbfbf" d="M-106.30052-63.7803H106.30052M-106.30052-42.5202H106.30052M-106.30052-21.2601H106.30052M-106.30052 0H106.30052M-106.30052 21.2601H106.30052M-106.30052 42.5202H106.30052M-106.30052 63.7803H106.30052M-106.30052 85.04042H106.30052M-106.30052 106.29306H106.30052M-106.30052-63.7803V106.30052M-85.04042-63.7803V106.30052M-63.7803-63.7803V106.30052M-42.5202-63.7803V106.30052M-21.2601-63.7803V106.30052M0-63.7803V106.30052M21.2601-63.7803V106.30052M42.5202-63.7803V106.30052M63.7803-63.7803V106.30052M85.04042-63.7803V106.30052M106.29306-63.7803V106.30052M106.30052 106.30052"/>
<path transform="matrix(1.00005,0,0,-1.00002,108.59947,113.21197)" stroke-width=".29887" stroke-linecap="butt" stroke-miterlimit="10" stroke-linejoin="miter" fill="none" stroke="#333333" d="M0 0H102.98297"/>
<path transform="matrix(1.00005,0,0,-1.00002,211.58759,113.21197)" d="M3.31755 0C2.33455 .1843 .73723 .73723-.3686 1.38231V-1.38231C.73723-.73723 2.33455-.1843 3.31755 0" fill="#333333"/>
<use data-text="x" xlink:href="#font_1_2" transform="matrix(9.963098,0,0,-9.962799,206.74237,120.97212)" fill="#333333"/>
<path transform="matrix(1.00005,0,0,-1.00002,108.59947,113.21197)" stroke-width=".29887" stroke-linecap="butt" stroke-miterlimit="10" stroke-linejoin="miter" fill="none" stroke="#333333" d="M0 0H-102.98297"/>
<path transform="matrix(-1.00005,-0,0,1.00002,5.6113588,113.21197)" d="M3.31755 0C2.33455 .1843 .73723 .73723-.3686 1.38231V-1.38231C.73723-.73723 2.33455-.1843 3.31755 0" fill="#333333"/>
<path transform="matrix(1.00005,0,0,-1.00002,108.59947,113.21197)" stroke-width=".29887" stroke-linecap="butt" stroke-miterlimit="10" stroke-linejoin="miter" fill="none" stroke="#333333" d="M0 0V102.98297"/>
<path transform="matrix(0,-1.00002,-1.00005,-0,108.59947,10.226936)" d="M3.31755 0C2.33455 .1843 .73723 .73723-.3686 1.38231V-1.38231C.73723-.73723 2.33455-.1843 3.31755 0" fill="#333333"/>
<use data-text="y" xlink:href="#font_1_3" transform="matrix(9.963098,0,0,-9.962799,112.06965,13.40097)" fill="#333333"/>
<path transform="matrix(1.00005,0,0,-1.00002,108.59947,113.21197)" stroke-width=".29887" stroke-linecap="butt" stroke-miterlimit="10" stroke-linejoin="miter" fill="none" stroke="#333333" d="M0 0V-60.46274"/>
<path transform="matrix(0,1.00002,1.00005,0,108.59947,173.67592)" d="M3.31755 0C2.33455 .1843 .73723 .73723-.3686 1.38231V-1.38231C.73723-.73723 2.33455-.1843 3.31755 0" fill="#333333"/>
<path transform="matrix(1.00005,0,0,-1.00002,108.59947,113.21197)" stroke-width="1.49442" stroke-linecap="butt" stroke-miterlimit="10" stroke-linejoin="miter" fill="none" stroke="#ff0000" d="M-31.89014-63.7803-31.44734-62.89468-31.00452-62.00906-30.56172-61.12344-30.1189-60.23782-29.67609-59.35219-29.23328-58.46657-28.79047-57.58095-28.34766-56.69533-27.90485-55.80971-27.46204-54.92409-27.01923-54.03847-26.57642-53.15285-26.1336-52.26723-25.6908-51.3816-25.24799-50.49597-24.80516-49.61035-24.36237-48.72473-23.91954-47.83911-23.47675-46.95349-23.03392-46.06787-22.59113-45.18225-22.1483-44.29663-21.7055-43.41101-21.26268-42.52539"/>
<path transform="matrix(1.00005,0,0,-1.00002,108.59947,113.21197)" stroke-width="1.49442" stroke-linecap="butt" stroke-miterlimit="10" stroke-linejoin="miter" fill="none" stroke="#ff0000" d="M-21.2601 42.5202-19.48853 38.97707-17.71695 35.43393-15.94537 31.8908-14.17381 28.34766-12.40225 24.80452-10.63069 21.26138-8.85912 17.71825-7.08755 14.17513-5.316 10.63199-3.5444 7.08884-1.77284 3.54572-.00127 .00258 1.77025-3.54051 3.54182-7.08366 5.31339-10.62679 7.08495-14.16992 8.85652-17.71306 10.6281-21.2562 12.39966-24.79933 14.17122-28.34247 15.9428-31.8856 17.71436-35.42874 19.48592-38.97186 21.25749-42.515"/>
<path transform="matrix(1.00005,0,0,-1.00002,108.59947,113.21197)" stroke-width="1.49442" stroke-linecap="butt" stroke-miterlimit="10" stroke-linejoin="miter" fill="none" stroke="#ff0000" d="M21.2601 42.5202 22.1457 44.29143 23.03133 46.06267 23.91695 47.83391 24.80257 49.60516 25.68819 51.3764 26.5738 53.14764 27.45943 54.91888 28.34505 56.69012 29.23068 58.46138 30.1163 60.23262 31.00192 62.00386 31.88754 63.7751 32.77316 65.54634 33.65878 67.3176 34.5444 69.08884 35.43002 70.86008 36.31564 72.63132 37.20126 74.40256 38.0869 76.17381 38.97252 77.94505 39.85814 79.7163 40.74376 81.48753 41.62938 83.25877 39.58803 79.17596"/>
<path transform="matrix(.4471923,-.89437797,-.89440467,-.44717894,148.18949,34.034425)" d="M6.54549 0C4.60605 .36362 1.45454 1.45454-.72726 2.72728V-2.72728C1.45454-1.45454 4.60605-.36362 6.54549 0" fill="#ff0000"/>
<use data-text="f" xlink:href="#font_1_1" transform="matrix(9.963098,0,0,-9.962799,118.765979,42.87156)" fill="#ff0000"/>
<use data-text="&#x2032;" xlink:href="#font_2_1" transform="matrix(6.9741489,0,0,-6.97394,124.71626,39.256486)" fill="#ff0000"/>
<use data-text="(" xlink:href="#font_3_1" transform="matrix(9.963098,0,0,-9.962799,127.5114,42.87156)" fill="#ff0000"/>
<use data-text="x" xlink:href="#font_1_2" transform="matrix(9.963098,0,0,-9.962799,131.3866,42.87156)" fill="#ff0000"/>
<use data-text=")" xlink:href="#font_3_2" transform="matrix(9.963098,0,0,-9.962799,137.08089,42.87156)" fill="#ff0000"/>
<path transform="matrix(1.00005,0,0,-1.00002,108.59947,113.21197)" stroke-width=".79701" stroke-linecap="butt" stroke-miterlimit="10" stroke-linejoin="miter" fill="none" stroke="#ff0000" d="M-19.01848-42.5202C-19.01848-41.28218-20.02208-40.27858-21.2601-40.27858-22.49811-40.27858-23.50172-41.28218-23.50172-42.5202-23.50172-43.75822-22.49811-44.76183-21.2601-44.76183-20.02208-44.76183-19.01848-43.75822-19.01848-42.5202ZM-21.2601-42.5202"/>
<path transform="matrix(1.00005,0,0,-1.00002,108.59947,113.21197)" d="M-19.76569-42.5202C-19.76569-41.69485-20.43475-41.02579-21.2601-41.02579-22.08545-41.02579-22.75452-41.69485-22.75452-42.5202-22.75452-43.34555-22.08545-44.01462-21.2601-44.01462-20.43475-44.01462-19.76569-43.34555-19.76569-42.5202ZM-21.2601-42.5202" fill="#ffffff"/>
<path transform="matrix(1.00005,0,0,-1.00002,108.59947,113.21197)" stroke-width=".79701" stroke-linecap="butt" stroke-miterlimit="10" stroke-linejoin="miter" fill="none" stroke="#ff0000" d="M-19.01848 42.5202C-19.01848 43.75822-20.02208 44.76183-21.2601 44.76183-22.49811 44.76183-23.50172 43.75822-23.50172 42.5202-23.50172 41.28218-22.49811 40.27858-21.2601 40.27858-20.02208 40.27858-19.01848 41.28218-19.01848 42.5202ZM-21.2601 42.5202"/>
<path transform="matrix(1.00005,0,0,-1.00002,108.59947,113.21197)" d="M-19.76569 42.5202C-19.76569 43.34555-20.43475 44.01462-21.2601 44.01462-22.08545 44.01462-22.75452 43.34555-22.75452 42.5202-22.75452 41.69485-22.08545 41.02579-21.2601 41.02579-20.43475 41.02579-19.76569 41.69485-19.76569 42.5202ZM-21.2601 42.5202" fill="#ffffff"/>
<path transform="matrix(1.00005,0,0,-1.00002,108.59947,113.21197)" stroke-width=".79701" stroke-linecap="butt" stroke-miterlimit="10" stroke-linejoin="miter" fill="none" stroke="#ff0000" d="M23.50172-42.5202C23.50172-41.28218 22.49811-40.27858 21.2601-40.27858 20.02208-40.27858 19.01848-41.28218 19.01848-42.5202 19.01848-43.75822 20.02208-44.76183 21.2601-44.76183 22.49811-44.76183 23.50172-43.75822 23.50172-42.5202ZM21.2601-42.5202"/>
<path transform="matrix(1.00005,0,0,-1.00002,108.59947,113.21197)" d="M22.75452-42.5202C22.75452-41.69485 22.08545-41.02579 21.2601-41.02579 20.43475-41.02579 19.76569-41.69485 19.76569-42.5202 19.76569-43.34555 20.43475-44.01462 21.2601-44.01462 22.08545-44.01462 22.75452-43.34555 22.75452-42.5202ZM21.2601-42.5202" fill="#ffffff"/>
<path transform="matrix(1.00005,0,0,-1.00002,108.59947,113.21197)" stroke-width=".79701" stroke-linecap="butt" stroke-miterlimit="10" stroke-linejoin="miter" fill="none" stroke="#ff0000" d="M23.50172 42.5202C23.50172 43.75822 22.49811 44.76183 21.2601 44.76183 20.02208 44.76183 19.01848 43.75822 19.01848 42.5202 19.01848 41.28218 20.02208 40.27858 21.2601 40.27858 22.49811 40.27858 23.50172 41.28218 23.50172 42.5202ZM21.2601 42.5202"/>
<path transform="matrix(1.00005,0,0,-1.00002,108.59947,113.21197)" d="M22.75452 42.5202C22.75452 43.34555 22.08545 44.01462 21.2601 44.01462 20.43475 44.01462 19.76569 43.34555 19.76569 42.5202 19.76569 41.69485 20.43475 41.02579 21.2601 41.02579 22.08545 41.02579 22.75452 41.69485 22.75452 42.5202ZM21.2601 42.5202" fill="#ffffff"/>
<path transform="matrix(1.00005,0,0,-1.00002,108.59947,113.21197)" stroke-width="1.99255" stroke-linecap="butt" stroke-miterlimit="10" stroke-linejoin="miter" fill="none" stroke="#0074c8" d="M-21.2601 0-19.48853 6.79103-17.71695 12.9917-15.94537 18.60193-14.17381 23.62173-12.40225 28.0505-10.63069 31.88885-8.85912 35.13742-7.08755 37.79494-5.316 39.86205-3.5444 41.33871-1.77284 42.22499-.00127 42.5202 1.77025 42.22563 3.54182 41.34035 5.31339 39.8643 7.08495 37.79817 8.85652 35.14131 10.6281 31.89403 12.39966 28.05634 14.17122 23.62825 15.9428 18.60939 17.71436 13.00046 19.48592 6.80078 21.25749 .01036"/>
<path transform="matrix(1.00005,0,0,-1.00002,108.59947,113.21197)" stroke-width="1.99255" stroke-linecap="butt" stroke-miterlimit="10" stroke-linejoin="miter" fill="none" stroke="#0074c8" d="M21.2601 0 22.58884 2.74054 23.9176 5.64719 25.24635 8.71994 26.57512 11.95879 27.90388 15.36372 29.23262 18.93475 30.5614 22.67189 31.89014 26.57512 33.2189 30.64442 34.54765 34.87984 35.8764 39.28134 37.20518 43.84895 38.53392 48.58264 39.86269 53.48244 41.19144 58.54832 42.5202 63.7803 43.84895 69.17838 45.1777 74.74255 46.50647 80.47281 47.83522 86.36917 49.16399 92.43163 50.49274 98.66016 51.8215 105.05481 51.58409 103.88248"/>
<path transform="matrix(.1984999,-.9800596,-.98008897,-.19849397,160.18613,9.327423)" d="M7.89055 0C5.55257 .43835 1.75345 1.75345-.87672 3.28772V-3.28772C1.75345-1.75345 5.55257-.43835 7.89055 0" fill="#0074c8"/>
<path transform="matrix(1.00005,0,0,-1.00002,108.59947,113.21197)" stroke-width="1.99255" stroke-linecap="butt" stroke-miterlimit="10" stroke-linejoin="miter" fill="none" stroke="#0074c8" d="M-51.58409 103.88248-51.8215 105.05481-50.49274 98.66016-49.16399 92.43163-47.83522 86.36917-46.50647 80.47281-45.1777 74.74255-43.84895 69.17838-42.5202 63.7803-41.19144 58.54832-39.86269 53.48244-38.53392 48.58264-37.20518 43.84895-35.8764 39.28134-34.54765 34.87984-33.2189 30.64442-31.89014 26.57512-30.5614 22.67189-29.23262 18.93475-27.90388 15.36372-26.57512 11.95879-25.24635 8.71994-23.9176 5.64719-22.58884 2.74054-21.2601 0"/>
<path transform="matrix(-.1984999,-.9800596,-.98008897,.19849397,57.012819,9.327423)" d="M7.89055 0C5.55257 .43835 1.75345 1.75345-.87672 3.28772V-3.28772C1.75345-1.75345 5.55257-.43835 7.89055 0" fill="#0074c8"/>
<path transform="matrix(1.00005,0,0,-1.00002,108.59947,113.21197)" stroke-width=".79701" stroke-linecap="butt" stroke-miterlimit="10" stroke-linejoin="miter" fill="none" stroke="#000000" d="M-85.04042 2.24162V-2.24162"/>
<use data-text="&#x2212;" xlink:href="#font_4_1" transform="matrix(9.963098,0,0,-9.962799,17.18892,125.593219)"/>
<use data-text="8" xlink:href="#font_3_6" transform="matrix(9.963098,0,0,-9.962799,24.938294,125.593219)"/>
<path transform="matrix(1.00005,0,0,-1.00002,108.59947,113.21197)" stroke-width=".79701" stroke-linecap="butt" stroke-miterlimit="10" stroke-linejoin="miter" fill="none" stroke="#000000" d="M-63.7803 2.24162V-2.24162"/>
<use data-text="&#x2212;" xlink:href="#font_4_1" transform="matrix(9.963098,0,0,-9.962799,38.450975,125.593219)"/>
<use data-text="6" xlink:href="#font_3_5" transform="matrix(9.963098,0,0,-9.962799,46.200349,125.593219)"/>
<path transform="matrix(1.00005,0,0,-1.00002,108.59947,113.21197)" stroke-width=".79701" stroke-linecap="butt" stroke-miterlimit="10" stroke-linejoin="miter" fill="none" stroke="#000000" d="M-42.5202 2.24162V-2.24162"/>
<use data-text="&#x2212;" xlink:href="#font_4_1" transform="matrix(9.963098,0,0,-9.962799,59.712038,125.593219)"/>
<use data-text="4" xlink:href="#font_3_4" transform="matrix(9.963098,0,0,-9.962799,67.46141,125.593219)"/>
<path transform="matrix(1.00005,0,0,-1.00002,108.59947,113.21197)" stroke-width=".79701" stroke-linecap="butt" stroke-miterlimit="10" stroke-linejoin="miter" fill="none" stroke="#000000" d="M-21.2601 2.24162V-2.24162"/>
<use data-text="&#x2212;" xlink:href="#font_4_1" transform="matrix(9.963098,0,0,-9.962799,80.97309,125.593219)"/>
<use data-text="2" xlink:href="#font_3_3" transform="matrix(9.963098,0,0,-9.962799,88.722469,125.593219)"/>
<path transform="matrix(1.00005,0,0,-1.00002,108.59947,113.21197)" stroke-width=".79701" stroke-linecap="butt" stroke-miterlimit="10" stroke-linejoin="miter" fill="none" stroke="#000000" d="M21.2601 2.24162V-2.24162"/>
<use data-text="2" xlink:href="#font_3_3" transform="matrix(9.963098,0,0,-9.962799,127.36941,125.593219)"/>
<path transform="matrix(1.00005,0,0,-1.00002,108.59947,113.21197)" stroke-width=".79701" stroke-linecap="butt" stroke-miterlimit="10" stroke-linejoin="miter" fill="none" stroke="#000000" d="M42.5202 2.24162V-2.24162"/>
<use data-text="4" xlink:href="#font_3_4" transform="matrix(9.963098,0,0,-9.962799,148.63147,125.593219)"/>
<path transform="matrix(1.00005,0,0,-1.00002,108.59947,113.21197)" stroke-width=".79701" stroke-linecap="butt" stroke-miterlimit="10" stroke-linejoin="miter" fill="none" stroke="#000000" d="M63.7803 2.24162V-2.24162"/>
<use data-text="6" xlink:href="#font_3_5" transform="matrix(9.963098,0,0,-9.962799,169.89253,125.593219)"/>
<path transform="matrix(1.00005,0,0,-1.00002,108.59947,113.21197)" stroke-width=".79701" stroke-linecap="butt" stroke-miterlimit="10" stroke-linejoin="miter" fill="none" stroke="#000000" d="M85.04042 2.24162V-2.24162"/>
<use data-text="8" xlink:href="#font_3_6" transform="matrix(9.963098,0,0,-9.962799,191.1536,125.593219)"/>
<path transform="matrix(1.00005,0,0,-1.00002,108.59947,113.21197)" stroke-width=".79701" stroke-linecap="butt" stroke-miterlimit="10" stroke-linejoin="miter" fill="none" stroke="#000000" d="M-1.49442-42.5202H1.49442"/>
<use data-text="&#x2212;" xlink:href="#font_4_1" transform="matrix(9.963098,0,0,-9.962799,93.64372,158.52788)"/>
<use data-text="4" xlink:href="#font_3_4" transform="matrix(9.963098,0,0,-9.962799,101.3931,158.52788)"/>
<path transform="matrix(1.00005,0,0,-1.00002,108.59947,113.21197)" stroke-width=".79701" stroke-linecap="butt" stroke-miterlimit="10" stroke-linejoin="miter" fill="none" stroke="#000000" d="M-1.49442-21.2601H1.49442"/>
<use data-text="&#x2212;" xlink:href="#font_4_1" transform="matrix(9.963098,0,0,-9.962799,93.64372,137.26746)"/>
<use data-text="2" xlink:href="#font_3_3" transform="matrix(9.963098,0,0,-9.962799,101.3931,137.26746)"/>
<path transform="matrix(1.00005,0,0,-1.00002,108.59947,113.21197)" stroke-width=".79701" stroke-linecap="butt" stroke-miterlimit="10" stroke-linejoin="miter" fill="none" stroke="#000000" d="M-1.49442 21.2601H1.49442"/>
<use data-text="2" xlink:href="#font_3_3" transform="matrix(9.963098,0,0,-9.962799,101.39311,95.161609)"/>
<path transform="matrix(1.00005,0,0,-1.00002,108.59947,113.21197)" stroke-width=".79701" stroke-linecap="butt" stroke-miterlimit="10" stroke-linejoin="miter" fill="none" stroke="#000000" d="M-1.49442 42.5202H1.49442"/>
<use data-text="4" xlink:href="#font_3_4" transform="matrix(9.963098,0,0,-9.962799,101.39311,73.901187)"/>
<path transform="matrix(1.00005,0,0,-1.00002,108.59947,113.21197)" stroke-width=".79701" stroke-linecap="butt" stroke-miterlimit="10" stroke-linejoin="miter" fill="none" stroke="#000000" d="M-1.49442 63.7803H1.49442"/>
<use data-text="6" xlink:href="#font_3_5" transform="matrix(9.963098,0,0,-9.962799,101.39311,52.640756)"/>
<path transform="matrix(1.00005,0,0,-1.00002,108.59947,113.21197)" stroke-width=".79701" stroke-linecap="butt" stroke-miterlimit="10" stroke-linejoin="miter" fill="none" stroke="#000000" d="M-1.49442 85.04042H1.49442"/>
<use data-text="8" xlink:href="#font_3_6" transform="matrix(9.963098,0,0,-9.962799,101.39311,31.380326)"/>
</svg>
