<svg xmlns="http://www.w3.org/2000/svg" xmlns:xlink="http://www.w3.org/1999/xlink" xmlns:inkscape="http://www.inkscape.org/namespaces/inkscape" version="1.1" width="216" height="153" viewBox="0 0 216 153">
<defs>
<path id="font_1_2" d="M.33399964 .30233766C.33999635 .32835389 .36299134 .42037965 .43299867 .42037965 .43798829 .42037965 .46199037 .42037965 .48298646 .40734864 .45498658 .402359 .43499757 .37734986 .43499757 .35334779 .43499757 .33735658 .44599916 .31835938 .47299195 .31835938 .49499513 .31835938 .5269928 .3363495 .5269928 .37635804 .5269928 .42837525 .46798707 .4423828 .43399049 .4423828 .37599183 .4423828 .34098817 .38935853 .32899476 .36634828 .3039856 .43237306 .25 .4423828 .22099304 .4423828 .116989139 .4423828 .05999756 .3133545 .05999756 .28834535 .05999756 .27833558 .069992069 .27833558 .07199097 .27833558 .07998657 .27833558 .08299255 .28033448 .084991458 .28933717 .11898804 .39535523 .18499756 .42037965 .21899414 .42037965 .23799134 .42037965 .272995 .4113617 .272995 .35334779 .272995 .32235719 .2559967 .25532533 .21899414 .11528015 .20298767 .053268434 .16799927 .011245728 .12399292 .011245728 .117996219 .011245728 .09498596 .011245728 .07398987 .024276734 .09899902 .029266358 .12098694 .05027771 .12098694 .07827759 .12098694 .105270389 .09899902 .11328125 .083999637 .11328125 .053985597 .11328125 .0289917 .08728027 .0289917 .055267335 .0289917 .009246826 .07899475-.0107421879 .12298584-.0107421879 .18899536-.0107421879 .22499085 .059280397 .22799683 .0652771 .23999024 .028274537 .27598573-.0107421879 .33599855-.0107421879 .43899537-.0107421879 .49598695 .118270877 .49598695 .14328003 .49598695 .1532898 .4869995 .1532898 .48399354 .1532898 .47499085 .1532898 .47299195 .14929199 .47099305 .14228821 .43798829 .03527832 .36999513 .011245728 .33799745 .011245728 .29899598 .011245728 .2829895 .043273927 .2829895 .07727051 .2829895 .09927368 .2889862 .121276859 .2999878 .16529846L.33399964 .30233766Z"/>
<path id="font_1_3" d="M.48599244 .38136292C.48999024 .39537049 .48999024 .39736939 .48999024 .40437318 .48999024 .42237855 .47599793 .43138124 .46099855 .43138124 .45098878 .43138124 .43499757 .42536927 .42599488 .41036988 .42399598 .405365 .41600038 .37435914 .4119873 .35635377 .40499879 .33035279 .397995 .30334474 .3919983 .27633668L.34700013 .09628296C.34298707 .08126831 .2999878 .011245728 .23399353 .011245728 .18299866 .011245728 .17199707 .055267335 .17199707 .0922699 .17199707 .1382904 .18899536 .20030213 .22299195 .28833009 .23899842 .3293457 .24299622 .3403473 .24299622 .36035157 .24299622 .405365 .21099854 .4423828 .16099549 .4423828 .06599426 .4423828 .0289917 .29733277 .0289917 .28833009 .0289917 .27833558 .038986207 .27833558 .040985109 .27833558 .050994874 .27833558 .051986696 .28033448 .056991579 .29634095 .083999637 .3903656 .12399292 .42037965 .1579895 .42037965 .1659851 .42037965 .18299866 .42037965 .18299866 .3883667 .18299866 .36335755 .17298889 .3373413 .1659851 .31834413 .12599182 .21231079 .10798645 .1552887 .10798645 .10827637 .10798645 .019256592 .17098999-.0107421879 .22999573-.0107421879 .2689972-.0107421879 .30299378 .0062561037 .33099366 .03425598 .31799317-.017745972 .30599977-.06674194 .2659912-.11973572 .23999024-.15385437 .20199585-.18309021 .1559906-.18309021 .14199829-.18309021 .09700012-.18005371 .07998657-.14074707 .09599304-.14074707 .10899353-.14074707 .12298584-.1287384 .1329956-.11973572 .14299011-.10673523 .14299011-.08773804 .14299011-.056747438 .115997318-.052734376 .10598755-.052734376 .08299255-.052734376 .049987794-.068740848 .049987794-.11773682 .049987794-.16796875 .09399414-.20507813 .1559906-.20507813 .25898744-.20507813 .3619995-.11373901 .3899994-.00074768069L.48599244 .38136292Z"/>
<path id="font_1_1" d="M.36698915 .3996582H.45298768C.47299195 .3996582 .48298646 .3996582 .48298646 .41966249 .48298646 .43066407 .47299195 .43066407 .45599366 .43066407H.37298585L.3939972 .5449524C.397995 .5660095 .4119873 .6370239 .41799928 .6490326 .4269867 .66804507 .44400025 .68307498 .46499635 .68307498 .46899415 .68307498 .49499513 .68307498 .5139923 .66503909 .46998597 .661026 .45999146 .6260376 .45999146 .6110382 .45999146 .58802798 .47799684 .57603457 .49699403 .57603457 .522995 .57603457 .5519867 .5980377 .5519867 .6360321 .5519867 .6820679 .5059967 .7050781 .46499635 .7050781 .43099977 .7050781 .36799623 .68707278 .33799745 .58802798 .33198548 .56700137 .32899476 .5569763 .30499269 .43066407H.23599243C.21699524 .43066407 .20599365 .43066407 .20599365 .4116516 .20599365 .3996582 .21499634 .3996582 .23399353 .3996582H.2999878L.22499085 .0048828127C.20698548-.09207153 .18998719-.18309021 .13798523-.18309021 .13398743-.18309021 .10899353-.18309021 .08999634-.16506958 .13598633-.1620636 .14498902-.12606812 .14498902-.111068729 .14498902-.08807373 .1269989-.07606506 .10798645-.07606506 .08198547-.07606506 .052993776-.09806824 .052993776-.13606262 .052993776-.18109131 .09700012-.20507813 .13798523-.20507813 .19299317-.20507813 .23298645-.14607239 .25099183-.108062747 .2829895-.04508972 .30599977 .07583618 .30699159 .082839969L.36698915 .3996582Z"/>
<path id="font_2_1" d="M.2899933 .4720459C.2979889 .4890442 .29899598 .49705506 .29899598 .5040436 .29899598 .53504946 .2709961 .5590515 .23999024 .5590515 .20199585 .5590515 .18998719 .52804568 .18499756 .51205447L.052993776 .07901001C.051986696 .07701111 .04798889 .06401062 .04798889 .06300354 .04798889 .05101013 .07899475 .041015626 .08699036 .041015626 .09399414 .041015626 .09498596 .043014528 .101989749 .058013917L.2899933 .4720459Z"/>
<path id="font_3_1" d="M.33099366-.2400055C.33099366-.23701477 .33099366-.23500061 .31399537-.21800232 .18899536-.0920105 .15699768 .09700012 .15699768 .25 .15699768 .42399598 .19499207 .59799197 .31799317 .72299197 .33099366 .73498538 .33099366 .7369995 .33099366 .73999026 .33099366 .746994 .32699586 .75 .32099916 .75 .31098939 .75 .22099304 .6819916 .1619873 .5549927 .11099243 .44499208 .09899902 .33399964 .09899902 .25 .09899902 .17199707 .10998535 .050994874 .16499329-.06201172 .22499085-.18501282 .31098939-.25 .32099916-.25 .32699586-.25 .33099366-.24700928 .33099366-.2400055Z"/>
<path id="font_3_2" d="M.2889862 .25C.2889862 .32798768 .27799989 .44898988 .22299195 .56199648 .16299439 .68499758 .07699585 .75 .066986087 .75 .06098938 .75 .056991579 .74598696 .056991579 .73999026 .056991579 .7369995 .056991579 .73498538 .07598877 .71699526 .17399597 .6179962 .23098755 .45899964 .23098755 .25 .23098755 .07899475 .19400025-.09700012 .069992069-.2230072 .056991579-.23500061 .056991579-.23701477 .056991579-.2400055 .056991579-.2460022 .06098938-.25 .066986087-.25 .07699585-.25 .16699219-.18200684 .22599793-.055007936 .2769928 .054992677 .2889862 .16600037 .2889862 .25Z"/>
<path id="font_4_1" d="M.6589966 .23046875C.6759949 .23046875 .69400027 .23046875 .69400027 .25045777 .69400027 .27046205 .6759949 .27046205 .6589966 .27046205H.117996219C.100997928 .27046205 .08299255 .27046205 .08299255 .25045777 .08299255 .23046875 .100997928 .23046875 .117996219 .23046875H.6589966Z"/>
<path id="font_3_6" d="M.2939911 .16503906V.07800293C.2939911 .041992189 .2919922 .0309906 .21798706 .0309906H.19699097V0C.23799134 .0029907227 .2899933 .0029907227 .33198548 .0029907227 .37399293 .0029907227 .4269867 .0029907227 .46798707 0V.0309906H.44699098C.37298585 .0309906 .37098695 .041992189 .37098695 .07800293V.16503906H.47099305V.19602967H.37098695V.65075686C.37098695 .67074587 .37098695 .6767578 .35499574 .6767578 .34599305 .6767578 .34298707 .6767578 .33499146 .66474917L.027999878 .19602967V.16503906H.2939911M.2999878 .19602967H.055999757L.2999878 .5688019V.19602967Z"/>
<path id="font_3_5" d="M.2899933 .35191346C.37199403 .37893678 .42999269 .4490509 .42999269 .52809146 .42999269 .6100464 .34199525 .6660156 .24598694 .6660156 .14498902 .6660156 .068984989 .60606387 .068984989 .53009036 .068984989 .49710084 .09098816 .47808839 .11999512 .47808839 .15098572 .47808839 .17098999 .50009158 .17098999 .5290985 .17098999 .57910159 .12399292 .57910159 .10899353 .57910159 .13999939 .62802127 .20599365 .64100649 .24198914 .64100649 .2829895 .64100649 .33799745 .6190338 .33799745 .5290985 .33799745 .51708987 .33599855 .45906068 .30999757 .4149933 .27999879 .36691285 .24598694 .36390687 .22099304 .36291505 .21299744 .36190797 .18899536 .35990907 .18199158 .35990907 .17399597 .35890199 .16699219 .35791017 .16699219 .3479004 .16699219 .33691407 .17399597 .33691407 .19099427 .33691407H.23498535C.31698609 .33691407 .35398866 .2686615 .35398866 .17037964 .35398866 .034469606 .2849884 .0055389406 .24099732 .0055389406 .19799805 .0055389406 .12298584 .022491456 .08799744 .08137512 .12298584 .07637024 .1539917 .09837341 .1539917 .1363678 .1539917 .17237854 .1269989 .19238281 .09799194 .19238281 .07398987 .19238281 .041992189 .17837525 .041992189 .1343689 .041992189 .043441774 .1349945-.022460938 .24398804-.022460938 .3659973-.022460938 .45700074 .06838989 .45700074 .17037964 .45700074 .252594 .3939972 .33088685 .2899933 .35191346Z"/>
<path id="font_3_4" d="M.1269989 .07699585 .23298645 .18003845C.3889923 .31811524 .44898988 .3721466 .44898988 .47216798 .44898988 .5860901 .35899354 .6660156 .23699951 .6660156 .12399292 .6660156 .049987794 .57411196 .049987794 .48516847 .049987794 .4291687 .099990848 .4291687 .102996829 .4291687 .11999512 .4291687 .15499878 .44117738 .15499878 .48217774 .15499878 .5081787 .13699341 .5341797 .101989749 .5341797 .09399414 .5341797 .09199524 .5341797 .08898926 .5331726 .11199951 .59806826 .1659851 .63500979 .22399903 .63500979 .31498719 .63500979 .35798646 .5541382 .35798646 .47216798 .35798646 .39215089 .30799867 .31311036 .25299073 .25108338L.06098938 .036987306C.049987794 .025985718 .049987794 .023986817 .049987794 0H.42099L.44898988 .17404175H.42399598C.4189911 .14402771 .4119873 .1000061 .4019928 .084991458 .394989 .07699585 .32899476 .07699585 .30699159 .07699585H.1269989Z"/>
<path id="font_3_3" d="M.2939911 .64004519C.2939911 .66400149 .2939911 .6660156 .2709961 .6660156 .20899964 .60227969 .12098694 .60227969 .08898926 .60227969V.57128909C.10899353 .57128909 .16799927 .57128909 .21998596 .5972748V.07902527C.21998596 .042999269 .21699524 .0309906 .1269989 .0309906H.09498596V0C.12998963 .0029907227 .21699524 .0029907227 .25698854 .0029907227 .29699708 .0029907227 .38398744 .0029907227 .4189911 0V.0309906H.3869934C.29699708 .0309906 .2939911 .041992189 .2939911 .07902527V.64004519Z"/>
</defs>
<path transform="matrix(1,0,0,-1.00006,108.192,109.024578)" stroke-width=".79701" stroke-linecap="butt" stroke-miterlimit="10" stroke-linejoin="miter" fill="none" stroke="#bfbfbf" d="M-106.30052-42.5202H106.30052M-106.30052-21.2601H106.30052M-106.30052 0H106.30052M-106.30052 21.2601H106.30052M-106.30052 42.5202H106.30052M-106.30052 63.7803H106.30052M-106.30052 85.04042H106.30052M-106.30052 106.29306H106.30052M-106.30052-42.5202V106.30052M-85.04042-42.5202V106.30052M-63.7803-42.5202V106.30052M-42.5202-42.5202V106.30052M-21.2601-42.5202V106.30052M0-42.5202V106.30052M21.2601-42.5202V106.30052M42.5202-42.5202V106.30052M63.7803-42.5202V106.30052M85.04042-42.5202V106.30052M106.29306-42.5202V106.30052M106.30052 106.30052"/>
<path transform="matrix(1,0,0,-1.00006,108.192,109.024578)" stroke-width=".29887" stroke-linecap="butt" stroke-miterlimit="10" stroke-linejoin="miter" fill="none" stroke="#333333" d="M0 0H102.98297"/>
<path transform="matrix(1,0,0,-1.00006,211.17498,109.024578)" d="M3.31755 0C2.33455 .1843 .73723 .73723-.3686 1.38231V-1.38231C.73723-.73723 2.33455-.1843 3.31755 0" fill="#333333"/>
<use data-text="x" xlink:href="#font_1_2" transform="matrix(9.9626,0,0,-9.963197,206.33,116.78504)" fill="#333333"/>
<path transform="matrix(1,0,0,-1.00006,108.192,109.024578)" stroke-width=".29887" stroke-linecap="butt" stroke-miterlimit="10" stroke-linejoin="miter" fill="none" stroke="#333333" d="M0 0H-102.98297"/>
<path transform="matrix(-1,-0,0,1.00006,5.20903,109.024578)" d="M3.31755 0C2.33455 .1843 .73723 .73723-.3686 1.38231V-1.38231C.73723-.73723 2.33455-.1843 3.31755 0" fill="#333333"/>
<path transform="matrix(1,0,0,-1.00006,108.192,109.024578)" stroke-width=".29887" stroke-linecap="butt" stroke-miterlimit="10" stroke-linejoin="miter" fill="none" stroke="#333333" d="M0 0V102.98297"/>
<path transform="matrix(0,-1.00006,-1,-0,108.192,6.035431)" d="M3.31755 0C2.33455 .1843 .73723 .73723-.3686 1.38231V-1.38231C.73723-.73723 2.33455-.1843 3.31755 0" fill="#333333"/>
<use data-text="y" xlink:href="#font_1_3" transform="matrix(9.9626,0,0,-9.963197,111.662,9.209595)" fill="#333333"/>
<path transform="matrix(1,0,0,-1.00006,108.192,109.024578)" stroke-width=".29887" stroke-linecap="butt" stroke-miterlimit="10" stroke-linejoin="miter" fill="none" stroke="#333333" d="M0 0V-39.20264"/>
<path transform="matrix(0,1.00006,1,0,108.192,148.22957)" d="M3.31755 0C2.33455 .1843 .73723 .73723-.3686 1.38231V-1.38231C.73723-.73723 2.33455-.1843 3.31755 0" fill="#333333"/>
<path transform="matrix(1,0,0,-1.00006,108.192,109.024578)" stroke-width="1.99255" stroke-linecap="butt" stroke-miterlimit="10" stroke-linejoin="miter" fill="none" stroke="#0074c8" d="M-106.30052 106.30052-102.75739 102.75739-99.21425 99.21425-95.67113 95.67113-92.12798 92.12798-88.58484 88.58484-85.0417 85.0417-81.49858 81.49858-77.95544 77.95544-74.41231 74.41231-70.86917 70.86917-67.32603 67.32603-63.7829 63.7829-60.23976 60.23976-56.69662 56.69662-53.1535 53.1535-49.61035 49.61035-46.06723 46.06723-42.5241 42.5241-38.98096 38.98096-35.4378 35.4378-31.89468 31.89468-28.35155 28.35155-24.80843 24.80843-21.26527 21.26527"/>
<path transform="matrix(1,0,0,-1.00006,108.192,109.024578)" stroke-width="1.99255" stroke-linecap="butt" stroke-miterlimit="10" stroke-linejoin="miter" fill="none" stroke="#0074c8" d="M-21.2601 21.2601-19.48853 24.80322-17.71695 28.34636-15.94537 31.88948-14.17381 35.43263-12.40225 38.97577-10.63069 42.5189-8.85912 46.06203-7.08755 49.60516-5.316 53.1483-3.5444 56.69144-1.77284 60.23457-.00127 63.77771 1.77025 67.32085 3.54182 70.86398 5.31339 74.4071 7.08495 77.95026 8.85652 81.49338 10.6281 85.03651 12.39966 88.57965 14.17122 92.1228 15.9428 95.66592 17.71436 99.20906 19.48592 102.75218 21.25749 106.29533"/>
<path transform="matrix(1,0,0,-1.00006,108.192,109.024578)" stroke-width="1.99255" stroke-linecap="butt" stroke-miterlimit="10" stroke-linejoin="miter" fill="none" stroke="#0074c8" d="M21.2601 106.30052 24.80322 104.52895 28.34636 102.75739 31.88948 100.98581 35.43263 99.21425 38.97577 97.44269 42.5189 95.67113 46.06203 93.89954 49.60516 92.12798 53.1483 90.35641 56.69144 88.58484 60.23457 86.81328 63.77771 85.0417 67.32085 83.27014 70.86398 81.49858 74.4071 79.727 77.95026 77.95544 81.49338 76.18387 85.03651 74.41231 88.57965 72.64073 92.1228 70.86917 95.66592 69.0976 99.20906 67.32603 102.75218 65.55446 106.29533 63.7829"/>
<path transform="matrix(1,0,0,-1.00006,108.192,109.024578)" stroke-width="1.49442" stroke-linecap="butt" stroke-miterlimit="10" stroke-linejoin="miter" fill="none" stroke="#ff0000" d="M-106.30052-21.2601H-102.75739-99.21425-95.67113-92.12798-88.58484-85.0417-81.49858-77.95544-74.41231-70.86917-67.32603-63.7829-60.23976-56.69662-53.1535-49.61035-46.06723-42.5241-38.98096-35.4378-31.89468-28.35155-24.80843-21.26527"/>
<path transform="matrix(1,0,0,-1.00006,108.192,109.024578)" stroke-width="1.49442" stroke-linecap="butt" stroke-miterlimit="10" stroke-linejoin="miter" fill="none" stroke="#ff0000" d="M-21.2601 42.5202H-19.48853-17.71695-15.94537-14.17381-12.40225-10.63069-8.85912-7.08755-5.316-3.5444-1.77284-.00127 1.77025 3.54182 5.31339 7.08495 8.85652 10.6281 12.39966 14.17122 15.9428 17.71436 19.48592 21.25749"/>
<path transform="matrix(1,0,0,-1.00006,108.192,109.024578)" stroke-width="1.49442" stroke-linecap="butt" stroke-miterlimit="10" stroke-linejoin="miter" fill="none" stroke="#ff0000" d="M21.2601-10.63004H24.80322 28.34636 31.88948 35.43263 38.97577 42.5189 46.06203 49.60516 53.1483 56.69144 60.23457 63.77771 67.32085 70.86398 74.4071 77.95026 81.49338 85.03651 88.57965 92.1228 95.66592 99.20906 102.75218 106.29533"/>
<path transform="matrix(1,0,0,-1.00006,108.192,109.024578)" stroke-width=".79701" stroke-linecap="butt" stroke-miterlimit="10" stroke-linejoin="miter" fill="none" stroke="#ff0000" d="M-19.01848-21.2601C-19.01848-20.02208-20.02208-19.01848-21.2601-19.01848-22.49811-19.01848-23.50172-20.02208-23.50172-21.2601-23.50172-22.49811-22.49811-23.50172-21.2601-23.50172-20.02208-23.50172-19.01848-22.49811-19.01848-21.2601ZM-21.2601-21.2601"/>
<path transform="matrix(1,0,0,-1.00006,108.192,109.024578)" d="M-19.76569-21.2601C-19.76569-20.43475-20.43475-19.76569-21.2601-19.76569-22.08545-19.76569-22.75452-20.43475-22.75452-21.2601-22.75452-22.08545-22.08545-22.75452-21.2601-22.75452-20.43475-22.75452-19.76569-22.08545-19.76569-21.2601ZM-21.2601-21.2601" fill="#ffffff"/>
<path transform="matrix(1,0,0,-1.00006,108.192,109.024578)" stroke-width=".79701" stroke-linecap="butt" stroke-miterlimit="10" stroke-linejoin="miter" fill="none" stroke="#ff0000" d="M-19.01848 42.5202C-19.01848 43.75822-20.02208 44.76183-21.2601 44.76183-22.49811 44.76183-23.50172 43.75822-23.50172 42.5202-23.50172 41.28218-22.49811 40.27858-21.2601 40.27858-20.02208 40.27858-19.01848 41.28218-19.01848 42.5202ZM-21.2601 42.5202"/>
<path transform="matrix(1,0,0,-1.00006,108.192,109.024578)" d="M-19.76569 42.5202C-19.76569 43.34555-20.43475 44.01462-21.2601 44.01462-22.08545 44.01462-22.75452 43.34555-22.75452 42.5202-22.75452 41.69485-22.08545 41.02579-21.2601 41.02579-20.43475 41.02579-19.76569 41.69485-19.76569 42.5202ZM-21.2601 42.5202" fill="#ffffff"/>
<path transform="matrix(1,0,0,-1.00006,108.192,109.024578)" stroke-width=".79701" stroke-linecap="butt" stroke-miterlimit="10" stroke-linejoin="miter" fill="none" stroke="#ff0000" d="M23.50172-10.63004C23.50172-9.39201 22.49811-8.38841 21.2601-8.38841 20.02208-8.38841 19.01848-9.39201 19.01848-10.63004 19.01848-11.86806 20.02208-12.87166 21.2601-12.87166 22.49811-12.87166 23.50172-11.86806 23.50172-10.63004ZM21.2601-10.63004"/>
<path transform="matrix(1,0,0,-1.00006,108.192,109.024578)" d="M22.75452-10.63004C22.75452-9.80469 22.08545-9.13562 21.2601-9.13562 20.43475-9.13562 19.76569-9.80469 19.76569-10.63004 19.76569-11.45538 20.43475-12.12445 21.2601-12.12445 22.08545-12.12445 22.75452-11.45538 22.75452-10.63004ZM21.2601-10.63004" fill="#ffffff"/>
<path transform="matrix(1,0,0,-1.00006,108.192,109.024578)" stroke-width=".79701" stroke-linecap="butt" stroke-miterlimit="10" stroke-linejoin="miter" fill="none" stroke="#ff0000" d="M23.50172 42.5202C23.50172 43.75822 22.49811 44.76183 21.2601 44.76183 20.02208 44.76183 19.01848 43.75822 19.01848 42.5202 19.01848 41.28218 20.02208 40.27858 21.2601 40.27858 22.49811 40.27858 23.50172 41.28218 23.50172 42.5202ZM21.2601 42.5202"/>
<use data-text="f" xlink:href="#font_1_1" transform="matrix(9.9626,0,0,-9.963197,171.508,130.86489)" fill="#ff0000"/>
<use data-text="&#x2032;" xlink:href="#font_2_1" transform="matrix(6.9738,0,0,-6.9742186,177.45801,127.24967)" fill="#ff0000"/>
<use data-text="(" xlink:href="#font_3_1" transform="matrix(9.9626,0,0,-9.963197,180.25299,130.86489)" fill="#ff0000"/>
<use data-text="x" xlink:href="#font_1_2" transform="matrix(9.9626,0,0,-9.963197,184.12699,130.86489)" fill="#ff0000"/>
<use data-text=")" xlink:href="#font_3_2" transform="matrix(9.9626,0,0,-9.963197,189.82099,130.86489)" fill="#ff0000"/>
<path transform="matrix(1,0,0,-1.00006,108.192,109.024578)" d="M22.75452 42.5202C22.75452 43.34555 22.08545 44.01462 21.2601 44.01462 20.43475 44.01462 19.76569 43.34555 19.76569 42.5202 19.76569 41.69485 20.43475 41.02579 21.2601 41.02579 22.08545 41.02579 22.75452 41.69485 22.75452 42.5202ZM21.2601 42.5202" fill="#ffffff"/>
<path transform="matrix(1,0,0,-1.00006,108.192,109.024578)" stroke-width=".79701" stroke-linecap="butt" stroke-miterlimit="10" stroke-linejoin="miter" fill="none" stroke="#000000" d="M-85.04042 2.24162V-2.24162"/>
<use data-text="&#x2212;" xlink:href="#font_4_1" transform="matrix(9.9626,0,0,-9.963197,16.785996,121.40631)"/>
<use data-text="4" xlink:href="#font_3_6" transform="matrix(9.9626,0,0,-9.963197,24.534989,121.40631)"/>
<path transform="matrix(1,0,0,-1.00006,108.192,109.024578)" stroke-width=".79701" stroke-linecap="butt" stroke-miterlimit="10" stroke-linejoin="miter" fill="none" stroke="#000000" d="M-63.7803 2.24162V-2.24162"/>
<use data-text="&#x2212;" xlink:href="#font_4_1" transform="matrix(9.9626,0,0,-9.963197,38.047014,121.40631)"/>
<use data-text="3" xlink:href="#font_3_5" transform="matrix(9.9626,0,0,-9.963197,45.796007,121.40631)"/>
<path transform="matrix(1,0,0,-1.00006,108.192,109.024578)" stroke-width=".79701" stroke-linecap="butt" stroke-miterlimit="10" stroke-linejoin="miter" fill="none" stroke="#000000" d="M-42.5202 2.24162V-2.24162"/>
<use data-text="&#x2212;" xlink:href="#font_4_1" transform="matrix(9.9626,0,0,-9.963197,59.307008,121.40631)"/>
<use data-text="2" xlink:href="#font_3_4" transform="matrix(9.9626,0,0,-9.963197,67.056,121.40631)"/>
<path transform="matrix(1,0,0,-1.00006,108.192,109.024578)" stroke-width=".79701" stroke-linecap="butt" stroke-miterlimit="10" stroke-linejoin="miter" fill="none" stroke="#000000" d="M-21.2601 2.24162V-2.24162"/>
<use data-text="&#x2212;" xlink:href="#font_4_1" transform="matrix(9.9626,0,0,-9.963197,80.567,121.40631)"/>
<use data-text="1" xlink:href="#font_3_3" transform="matrix(9.9626,0,0,-9.963197,88.315998,121.40631)"/>
<path transform="matrix(1,0,0,-1.00006,108.192,109.024578)" stroke-width=".79701" stroke-linecap="butt" stroke-miterlimit="10" stroke-linejoin="miter" fill="none" stroke="#000000" d="M21.2601 2.24162V-2.24162"/>
<use data-text="1" xlink:href="#font_3_3" transform="matrix(9.9626,0,0,-9.963197,126.961,121.40631)"/>
<path transform="matrix(1,0,0,-1.00006,108.192,109.024578)" stroke-width=".79701" stroke-linecap="butt" stroke-miterlimit="10" stroke-linejoin="miter" fill="none" stroke="#000000" d="M42.5202 2.24162V-2.24162"/>
<use data-text="2" xlink:href="#font_3_4" transform="matrix(9.9626,0,0,-9.963197,148.222,121.40631)"/>
<path transform="matrix(1,0,0,-1.00006,108.192,109.024578)" stroke-width=".79701" stroke-linecap="butt" stroke-miterlimit="10" stroke-linejoin="miter" fill="none" stroke="#000000" d="M63.7803 2.24162V-2.24162"/>
<use data-text="3" xlink:href="#font_3_5" transform="matrix(9.9626,0,0,-9.963197,169.482,121.40631)"/>
<path transform="matrix(1,0,0,-1.00006,108.192,109.024578)" stroke-width=".79701" stroke-linecap="butt" stroke-miterlimit="10" stroke-linejoin="miter" fill="none" stroke="#000000" d="M85.04042 2.24162V-2.24162"/>
<use data-text="4" xlink:href="#font_3_6" transform="matrix(9.9626,0,0,-9.963197,190.742,121.40631)"/>
<path transform="matrix(1,0,0,-1.00006,108.192,109.024578)" stroke-width=".79701" stroke-linecap="butt" stroke-miterlimit="10" stroke-linejoin="miter" fill="none" stroke="#000000" d="M-1.49442-21.2601H1.49442"/>
<use data-text="&#x2212;" xlink:href="#font_4_1" transform="matrix(9.9626,0,0,-9.963197,93.237,133.08103)"/>
<use data-text="1" xlink:href="#font_3_3" transform="matrix(9.9626,0,0,-9.963197,100.98599,133.08103)"/>
<path transform="matrix(1,0,0,-1.00006,108.192,109.024578)" stroke-width=".79701" stroke-linecap="butt" stroke-miterlimit="10" stroke-linejoin="miter" fill="none" stroke="#000000" d="M-1.49442 21.2601H1.49442"/>
<use data-text="1" xlink:href="#font_3_3" transform="matrix(9.9626,0,0,-9.963197,100.986,90.973499)"/>
<path transform="matrix(1,0,0,-1.00006,108.192,109.024578)" stroke-width=".79701" stroke-linecap="butt" stroke-miterlimit="10" stroke-linejoin="miter" fill="none" stroke="#000000" d="M-1.49442 42.5202H1.49442"/>
<use data-text="2" xlink:href="#font_3_4" transform="matrix(9.9626,0,0,-9.963197,100.986,69.71222)"/>
<path transform="matrix(1,0,0,-1.00006,108.192,109.024578)" stroke-width=".79701" stroke-linecap="butt" stroke-miterlimit="10" stroke-linejoin="miter" fill="none" stroke="#000000" d="M-1.49442 63.7803H1.49442"/>
<use data-text="3" xlink:href="#font_3_5" transform="matrix(9.9626,0,0,-9.963197,100.986,48.450944)"/>
<path transform="matrix(1,0,0,-1.00006,108.192,109.024578)" stroke-width=".79701" stroke-linecap="butt" stroke-miterlimit="10" stroke-linejoin="miter" fill="none" stroke="#000000" d="M-1.49442 85.04042H1.49442"/>
<use data-text="4" xlink:href="#font_3_6" transform="matrix(9.9626,0,0,-9.963197,100.986,27.189667)"/>
</svg>
