<svg xmlns="http://www.w3.org/2000/svg" xmlns:xlink="http://www.w3.org/1999/xlink" xmlns:inkscape="http://www.inkscape.org/namespaces/inkscape" version="1.1" width="238" height="214" viewBox="0 0 238 214">
<defs>
<path id="font_1_1" d="M.20599365 .3996582H.2999878C.31999208 .3996582 .32998658 .3996582 .32998658 .41966249 .32998658 .43066407 .31999208 .43066407 .3019867 .43066407H.21398926C.25 .5724945 .25498963 .59246829 .25498963 .59846499 .25498963 .61546328 .24299622 .62545779 .22599793 .62545779 .22299195 .62545779 .19499207 .62446597 .18598938 .58947756L.14698792 .43066407H.052993776C.032989503 .43066407 .022994996 .43066407 .022994996 .4116516 .022994996 .3996582 .0309906 .3996582 .050994874 .3996582H.13899231C.066986087 .11608887 .06298828 .099121097 .06298828 .08114624 .06298828 .02722168 .100997928-.0107421879 .15499878-.0107421879 .25698854-.0107421879 .31399537 .13505554 .31399537 .14305115 .31399537 .1530304 .30599977 .1530304 .3019867 .1530304 .29299928 .1530304 .2919922 .15003968 .2869873 .13905335 .24398804 .035217287 .19099427 .011245728 .15699768 .011245728 .13598633 .011245728 .12599182 .024230957 .12599182 .057174684 .12599182 .08114624 .12799073 .088134769 .13198853 .10510254L.20599365 .3996582Z"/>
<path id="font_1_2" d="M.46798707 .37236024C.46798707 .42637635 .44198609 .4423828 .42399598 .4423828 .39898683 .4423828 .375 .41636659 .375 .3943634 .375 .38136292 .37998963 .3753662 .3909912 .36434938 .4119873 .3443451 .4249878 .31834413 .4249878 .28233338 .4249878 .24032593 .3639984 .011245728 .24699402 .011245728 .19599915 .011245728 .17298889 .04626465 .17298889 .09828186 .17298889 .15429688 .19999695 .22731018 .23098755 .31033326 .23799134 .3273468 .24299622 .34135438 .24299622 .36035157 .24299622 .405365 .21099854 .4423828 .16099549 .4423828 .066986087 .4423828 .0289917 .29733277 .0289917 .28833009 .0289917 .27833558 .038986207 .27833558 .040985109 .27833558 .050994874 .27833558 .051986696 .28033448 .056991579 .29634095 .085998538 .39736939 .1289978 .42037965 .1579895 .42037965 .1659851 .42037965 .18299866 .42037965 .18299866 .3883667 .18299866 .36335755 .17298889 .3363495 .1659851 .31834413 .12199402 .20230103 .10899353 .15629578 .10899353 .11328125 .10899353 .0052490236 .19699097-.0107421879 .24299622-.0107421879 .41099549-.0107421879 .46798707 .32034303 .46798707 .37236024Z"/>
<path id="font_2_2" d="M.2939911 .64004519C.2939911 .66400149 .2939911 .6660156 .2709961 .6660156 .20899964 .60227969 .12098694 .60227969 .08898926 .60227969V.57128909C.10899353 .57128909 .16799927 .57128909 .21998596 .5972748V.07902527C.21998596 .042999269 .21699524 .0309906 .1269989 .0309906H.09498596V0C.12998963 .0029907227 .21699524 .0029907227 .25698854 .0029907227 .29699708 .0029907227 .38398744 .0029907227 .4189911 0V.0309906H.3869934C.29699708 .0309906 .2939911 .041992189 .2939911 .07902527V.64004519Z"/>
<path id="font_2_3" d="M.1269989 .07699585 .23298645 .18003845C.3889923 .31811524 .44898988 .3721466 .44898988 .47216798 .44898988 .5860901 .35899354 .6660156 .23699951 .6660156 .12399292 .6660156 .049987794 .57411196 .049987794 .48516847 .049987794 .4291687 .099990848 .4291687 .102996829 .4291687 .11999512 .4291687 .15499878 .44117738 .15499878 .48217774 .15499878 .5081787 .13699341 .5341797 .101989749 .5341797 .09399414 .5341797 .09199524 .5341797 .08898926 .5331726 .11199951 .59806826 .1659851 .63500979 .22399903 .63500979 .31498719 .63500979 .35798646 .5541382 .35798646 .47216798 .35798646 .39215089 .30799867 .31311036 .25299073 .25108338L.06098938 .036987306C.049987794 .025985718 .049987794 .023986817 .049987794 0H.42099L.44898988 .17404175H.42399598C.4189911 .14402771 .4119873 .1000061 .4019928 .084991458 .394989 .07699585 .32899476 .07699585 .30699159 .07699585H.1269989Z"/>
<path id="font_2_4" d="M.2899933 .35191346C.37199403 .37893678 .42999269 .4490509 .42999269 .52809146 .42999269 .6100464 .34199525 .6660156 .24598694 .6660156 .14498902 .6660156 .068984989 .60606387 .068984989 .53009036 .068984989 .49710084 .09098816 .47808839 .11999512 .47808839 .15098572 .47808839 .17098999 .50009158 .17098999 .5290985 .17098999 .57910159 .12399292 .57910159 .10899353 .57910159 .13999939 .62802127 .20599365 .64100649 .24198914 .64100649 .2829895 .64100649 .33799745 .6190338 .33799745 .5290985 .33799745 .51708987 .33599855 .45906068 .30999757 .4149933 .27999879 .36691285 .24598694 .36390687 .22099304 .36291505 .21299744 .36190797 .18899536 .35990907 .18199158 .35990907 .17399597 .35890199 .16699219 .35791017 .16699219 .3479004 .16699219 .33691407 .17399597 .33691407 .19099427 .33691407H.23498535C.31698609 .33691407 .35398866 .2686615 .35398866 .17037964 .35398866 .034469606 .2849884 .0055389406 .24099732 .0055389406 .19799805 .0055389406 .12298584 .022491456 .08799744 .08137512 .12298584 .07637024 .1539917 .09837341 .1539917 .1363678 .1539917 .17237854 .1269989 .19238281 .09799194 .19238281 .07398987 .19238281 .041992189 .17837525 .041992189 .1343689 .041992189 .043441774 .1349945-.022460938 .24398804-.022460938 .3659973-.022460938 .45700074 .06838989 .45700074 .17037964 .45700074 .252594 .3939972 .33088685 .2899933 .35191346Z"/>
<path id="font_2_5" d="M.2939911 .16503906V.07800293C.2939911 .041992189 .2919922 .0309906 .21798706 .0309906H.19699097V0C.23799134 .0029907227 .2899933 .0029907227 .33198548 .0029907227 .37399293 .0029907227 .4269867 .0029907227 .46798707 0V.0309906H.44699098C.37298585 .0309906 .37098695 .041992189 .37098695 .07800293V.16503906H.47099305V.19602967H.37098695V.65075686C.37098695 .67074587 .37098695 .6767578 .35499574 .6767578 .34599305 .6767578 .34298707 .6767578 .33499146 .66474917L.027999878 .19602967V.16503906H.2939911M.2999878 .19602967H.055999757L.2999878 .5688019V.19602967Z"/>
<path id="font_2_6" d="M.44898988 .20022583C.44898988 .3193512 .36698915 .41944886 .25898744 .41944886 .21099854 .41944886 .16799927 .40345765 .13198853 .36842347V.5637665C.1519928 .5577698 .18499756 .55078127 .21699524 .55078127 .33999635 .55078127 .4099884 .6417694 .4099884 .6547699 .4099884 .6607666 .40699769 .6657715 .3999939 .6657715 .39898683 .6657715 .39698792 .6657715 .3919983 .66278079 .37199403 .6537781 .32299806 .6337738 .2559967 .6337738 .21598816 .6337738 .16999817 .6407776 .12298584 .6617737 .114990238 .66477969 .11299133 .66477969 .11099243 .66477969 .100997928 .66477969 .100997928 .6567688 .100997928 .6407776V.34439088C.100997928 .32637025 .100997928 .31835938 .114990238 .31835938 .12199402 .31835938 .12399292 .32136537 .12799073 .32736207 .13899231 .3433838 .17599488 .39746095 .25698854 .39746095 .30899049 .39746095 .33399964 .35139466 .34199525 .33337403 .35798646 .29632569 .3600006 .25727845 .3600006 .20722962 .3600006 .17222595 .3600006 .11222839 .33599855 .07035828 .31199647 .031463624 .2749939 .0055389406 .22898865 .0055389406 .1559906 .0055389406 .09899902 .058380128 .08198547 .11723328 .084991458 .1162262 .08799744 .115234378 .09899902 .115234378 .13198853 .115234378 .14898682 .14022827 .14898682 .16423035 .14898682 .18823242 .13198853 .21322632 .09899902 .21322632 .084991458 .21322632 .049987794 .20622254 .049987794 .16023255 .049987794 .07434082 .11898804-.022460938 .23098755-.022460938 .34700013-.022460938 .44898988 .073349 .44898988 .20022583Z"/>
<path id="font_2_7" d="M.13198853 .327713V.35173036C.13198853 .6047821 .2559967 .64100649 .30699159 .64100649 .33099366 .64100649 .37298585 .634964 .394989 .6007538 .37998963 .6007538 .33999635 .6007538 .33999635 .5557556 .33999635 .524765 .3639984 .5097656 .38598634 .5097656 .4019928 .5097656 .43199159 .51875308 .43199159 .5577545 .43199159 .6178589 .3880005 .6660156 .30499269 .6660156 .1769867 .6660156 .041992189 .5367584 .041992189 .31570436 .041992189 .048553468 .1579895-.022460938 .25099183-.022460938 .3619995-.022460938 .45700074 .07156372 .45700074 .2036438 .45700074 .33070375 .36799623 .4267578 .25698854 .4267578 .18899536 .4267578 .1519928 .37573243 .13198853 .327713M.25099183 .0055389406C.18798828 .0055389406 .1579895 .06556702 .1519928 .080566409 .13398743 .127594 .13398743 .2076416 .13398743 .22564698 .13398743 .30369569 .1659851 .40374757 .2559967 .40374757 .27198792 .40374757 .31799317 .40374757 .34899903 .34172059 .36698915 .30470277 .36698915 .2536621 .36698915 .20463562 .36698915 .15661621 .36698915 .10658264 .34999085 .0705719 .31999208 .010528564 .27398683 .0055389406 .25099183 .0055389406Z"/>
<path id="font_2_8" d="M.47599793 .609375C.4850006 .6213684 .4850006 .62338259 .4850006 .64437869H.24198914C.11999512 .64437869 .117996219 .65737918 .11399841 .67637637H.08898926L.055999757 .4702301H.08099365C.083999637 .48625184 .09298706 .5493469 .10598755 .56137087 .11299133 .5673828 .19099427 .5673828 .20399475 .5673828H.41099549C.3999939 .5513611 .32099916 .4421997 .29899598 .40914918 .20899964 .27394105 .17599488 .1347351 .17599488 .032577516 .17599488 .022567749 .17599488-.022460938 .22200012-.022460938 .2679901-.022460938 .2679901 .022567749 .2679901 .032577516V.08366394C.2679901 .13873291 .2709961 .19381714 .2789917 .24790955 .2829895 .27093507 .29699708 .35707093 .34098817 .41915895L.47599793 .609375Z"/>
<path id="font_2_9" d="M.16299439 .4569702C.116989139 .486969 .11299133 .52098086 .11299133 .5379791 .11299133 .598999 .17799378 .64100649 .24899292 .64100649 .32199098 .64100649 .38598634 .58898928 .38598634 .51698306 .38598634 .45996095 .34700013 .4119568 .2869873 .37695313L.16299439 .4569702M.30899049 .36193849C.3809967 .3989563 .42999269 .45095826 .42999269 .51698306 .42999269 .6090088 .34098817 .6660156 .25 .6660156 .1499939 .6660156 .068984989 .59199526 .068984989 .49897767 .068984989 .4809723 .070999149 .43595887 .11299133 .38894654 .12399292 .37695313 .16099549 .35194398 .18598938 .33494569 .12799073 .30592347 .041992189 .24984741 .041992189 .15072632 .041992189 .04458618 .14399719-.022460938 .24899292-.022460938 .3619995-.022460938 .45700074 .06060791 .45700074 .16773987 .45700074 .20379639 .44599916 .24885559 .4079895 .2909088 .3889923 .31193543 .37298585 .3219452 .30899049 .36193849M.20899964 .3199463 .33198548 .24183655C.3600006 .2228241 .40699769 .19277954 .40699769 .13169861 .40699769 .05760193 .33198548 .0055389406 .25 .0055389406 .1639862 .0055389406 .09199524 .067611698 .09199524 .15072632 .09199524 .20880127 .12399292 .27288819 .20899964 .3199463Z"/>
<path id="font_2_10" d="M.36698915 .31781007V.28579713C.36698915 .05178833 .2630005 .0055389406 .20498657 .0055389406 .18798828 .0055389406 .13398743 .007537842 .10699463 .041778566 .15098572 .041778566 .15899658 .07078552 .15899658 .08778381 .15899658 .118774417 .1349945 .13378906 .11299133 .13378906 .09700012 .13378906 .066986087 .12478638 .066986087 .08578491 .066986087 .018615723 .12098694-.022460938 .20599365-.022460938 .33499146-.022460938 .45700074 .11378479 .45700074 .32881166 .45700074 .5979767 .34199525 .6660156 .25299073 .6660156 .19799805 .6660156 .14898682 .64801028 .10598755 .60298159 .06498718 .5579529 .041992189 .5159302 .041992189 .44088746 .041992189 .31581117 .12998963 .21777344 .24198914 .21777344 .30299378 .21777344 .34399415 .25978089 .36698915 .31781007M.24299622 .24076844C.22698975 .24076844 .18099976 .24076844 .1499939 .3038025 .13198853 .3408203 .13198853 .39085389 .13198853 .43988038 .13198853 .49391175 .13198853 .54093936 .15299988 .5779724 .17999268 .6279907 .21798706 .64100649 .25299073 .64100649 .29899598 .64100649 .33198548 .60697939 .34899903 .5619507 .36099244 .52993777 .36499024 .4669037 .36499024 .42086793 .36499024 .3378296 .33099366 .24076844 .24299622 .24076844Z"/>
<path id="font_2_1" d="M.45999146 .31976319C.45999146 .39982606 .45498658 .47988893 .41999818 .5539398 .37399293 .65000918 .2919922 .6660156 .25 .6660156 .18998719 .6660156 .116989139 .64001467 .07598877 .54693606 .04399109 .47789 .038986207 .39982606 .038986207 .31976319 .038986207 .24472046 .042999269 .15464783 .083999637 .07859802 .1269989-.0024719239 .19999695-.022460938 .24899292-.022460938 .30299378-.022460938 .3789978-.0014648438 .4229889 .09359741 .45498658 .16265869 .45999146 .2407074 .45999146 .31976319M.24899292-.00047302247C.20999146-.00047302247 .15098572 .024551392 .1329956 .12062073 .12199402 .18066406 .12199402 .2727356 .12199402 .3317871 .12199402 .39582826 .12199402 .46188355 .12998963 .5159149 .14898682 .63500979 .22399903 .64401248 .24899292 .64401248 .28199769 .64401248 .34799195 .6259918 .36698915 .52693179 .3769989 .47088624 .3769989 .39482118 .3769989 .3317871 .3769989 .25672914 .3769989 .18867493 .3659973 .12461853 .35099793 .029556275 .2939911-.00047302247 .24899292-.00047302247Z"/>
</defs>
<path transform="matrix(1.00005,0,0,-1.00003,18.486176,200.17954)" d="M0 0V59.52802H19.84267V0H0" fill="#e6f1f9"/>
<path transform="matrix(1.00005,0,0,-1.00003,18.486176,200.17954)" d="M19.84267 0V78.57713H39.68535V0H19.84267" fill="#e6f1f9"/>
<path transform="matrix(1.00005,0,0,-1.00003,18.486176,200.17954)" d="M39.68535 0V99.2134H59.52802V0H39.68535" fill="#e6f1f9"/>
<path transform="matrix(1.00005,0,0,-1.00003,18.486176,200.17954)" d="M59.52802 0V111.11911H79.37071V0H59.52802" fill="#e6f1f9"/>
<path transform="matrix(1.00005,0,0,-1.00003,18.486176,200.17954)" d="M79.37071 0V128.58046H99.2134V0H79.37071" fill="#e6f1f9"/>
<path transform="matrix(1.00005,0,0,-1.00003,18.486176,200.17954)" d="M99.2134 0V136.12079H119.05606V0H99.2134" fill="#e6f1f9"/>
<path transform="matrix(1.00005,0,0,-1.00003,18.486176,200.17954)" d="M119.05606 0V144.45467H138.89876V0H119.05606" fill="#e6f1f9"/>
<path transform="matrix(1.00005,0,0,-1.00003,18.486176,200.17954)" d="M138.89876 0V157.15398H158.74143V0H138.89876" fill="#e6f1f9"/>
<path transform="matrix(1.00005,0,0,-1.00003,18.486176,200.17954)" d="M158.74143 0V170.64716H178.5841V0H158.74143" fill="#e6f1f9"/>
<path transform="matrix(1.00005,0,0,-1.00003,18.486176,200.17954)" d="M178.5841 0V175.72682H198.42679V0H178.5841" fill="#e6f1f9"/>
<path transform="matrix(1.00005,0,0,-1.00003,18.486176,200.17954)" stroke-width=".79701" stroke-linecap="butt" stroke-miterlimit="10" stroke-linejoin="miter" fill="none" stroke="#bfbfbf" d="M0 0H198.42679M0 19.84267H198.42679M0 39.68535H198.42679M0 59.52802H198.42679M0 79.37071H198.42679M0 99.2134H198.42679M0 119.05606H198.42679M0 138.89876H198.42679M0 158.74143H198.42679M0 178.57714H198.42679M0 0V178.5841M19.84267 0V178.5841M39.68535 0V178.5841M59.52802 0V178.5841M79.37071 0V178.5841M99.2134 0V178.5841M119.05606 0V178.5841M138.89876 0V178.5841M158.74143 0V178.5841M178.5841 0V178.5841M198.41982 0V178.5841M198.42679 178.5841"/>
<path transform="matrix(1.00005,0,0,-1.00003,18.486176,200.17954)" stroke-width=".29887" stroke-linecap="butt" stroke-miterlimit="10" stroke-linejoin="miter" fill="none" stroke="#333333" d="M0 0H214.9519"/>
<path transform="matrix(1.00005,0,0,-1.00003,233.44882,200.17954)" d="M3.31755 0C2.33455 .1843 .73723 .73723-.3686 1.38231V-1.38231C.73723-.73723 2.33455-.1843 3.31755 0" fill="#333333"/>
<path transform="matrix(1.00005,0,0,-1.00003,18.486176,200.17954)" stroke-width=".79701" stroke-linecap="butt" stroke-miterlimit="10" stroke-linejoin="miter" fill="none" stroke="#000000" d=""/>
<use data-text="t" xlink:href="#font_1_1" transform="matrix(9.963098,0,0,-9.962899,225.04549,210.02683)"/>
<path transform="matrix(1.00005,0,0,-1.00003,18.486176,200.17954)" stroke-width=".29887" stroke-linecap="butt" stroke-miterlimit="10" stroke-linejoin="miter" fill="none" stroke="#333333" d="M0 0V195.10924"/>
<path transform="matrix(0,-1.00003,-1.00005,-0,18.486176,5.064438)" d="M3.31755 0C2.33455 .1843 .73723 .73723-.3686 1.38231V-1.38231C.73723-.73723 2.33455-.1843 3.31755 0" fill="#333333"/>
<path transform="matrix(1.00005,0,0,-1.00003,18.486176,200.17954)" stroke-width=".79701" stroke-linecap="butt" stroke-miterlimit="10" stroke-linejoin="miter" fill="none" stroke="#000000" d=""/>
<use data-text="v" xlink:href="#font_1_2" transform="matrix(9.963098,0,0,-9.962899,22.20536,13.8129429)"/>
<path transform="matrix(1.00005,0,0,-1.00003,18.486176,200.17954)" d="M2.09216 0C2.09216 1.15549 1.15549 2.09216 0 2.09216-1.15549 2.09216-2.09216 1.15549-2.09216 0-2.09216-1.15549-1.15549-2.09216 0-2.09216 1.15549-2.09216 2.09216-1.15549 2.09216 0ZM0 0"/>
<path transform="matrix(1.00005,0,0,-1.00003,18.486176,200.17954)" d="M21.93483 59.52802C21.93483 60.6835 20.99815 61.6202 19.84267 61.6202 18.68718 61.6202 17.75049 60.6835 17.75049 59.52802 17.75049 58.37253 18.68718 57.43585 19.84267 57.43585 20.99815 57.43585 21.93483 58.37253 21.93483 59.52802ZM19.84267 59.52802"/>
<path transform="matrix(1.00005,0,0,-1.00003,18.486176,200.17954)" d="M41.77753 78.57713C41.77753 79.73262 40.84084 80.66931 39.68535 80.66931 38.52986 80.66931 37.59317 79.73262 37.59317 78.57713 37.59317 77.42165 38.52986 76.48495 39.68535 76.48495 40.84084 76.48495 41.77753 77.42165 41.77753 78.57713ZM39.68535 78.57713"/>
<path transform="matrix(1.00005,0,0,-1.00003,18.486176,200.17954)" d="M61.6202 99.2134C61.6202 100.36888 60.6835 101.30557 59.52802 101.30557 58.37253 101.30557 57.43585 100.36888 57.43585 99.2134 57.43585 98.0579 58.37253 97.12122 59.52802 97.12122 60.6835 97.12122 61.6202 98.0579 61.6202 99.2134ZM59.52802 99.2134"/>
<path transform="matrix(1.00005,0,0,-1.00003,18.486176,200.17954)" d="M81.46288 111.11911C81.46288 112.2746 80.5262 113.21129 79.37071 113.21129 78.21523 113.21129 77.27853 112.2746 77.27853 111.11911 77.27853 109.96362 78.21523 109.02695 79.37071 109.02695 80.5262 109.02695 81.46288 109.96362 81.46288 111.11911ZM79.37071 111.11911"/>
<path transform="matrix(1.00005,0,0,-1.00003,18.486176,200.17954)" d="M101.30557 128.58046C101.30557 129.73595 100.36888 130.67263 99.2134 130.67263 98.0579 130.67263 97.12122 129.73595 97.12122 128.58046 97.12122 127.42497 98.0579 126.48828 99.2134 126.48828 100.36888 126.48828 101.30557 127.42497 101.30557 128.58046ZM99.2134 128.58046"/>
<path transform="matrix(1.00005,0,0,-1.00003,18.486176,200.17954)" d="M121.14824 136.12079C121.14824 137.27628 120.21155 138.21297 119.05606 138.21297 117.90057 138.21297 116.9639 137.27628 116.9639 136.12079 116.9639 134.9653 117.90057 134.02861 119.05606 134.02861 120.21155 134.02861 121.14824 134.9653 121.14824 136.12079ZM119.05606 136.12079"/>
<path transform="matrix(1.00005,0,0,-1.00003,18.486176,200.17954)" d="M140.99092 144.45467C140.99092 145.61016 140.05425 146.54683 138.89876 146.54683 137.74327 146.54683 136.80658 145.61016 136.80658 144.45467 136.80658 143.29918 137.74327 142.36249 138.89876 142.36249 140.05425 142.36249 140.99092 143.29918 140.99092 144.45467ZM138.89876 144.45467"/>
<path transform="matrix(1.00005,0,0,-1.00003,18.486176,200.17954)" d="M160.83359 157.15398C160.83359 158.30947 159.89691 159.24614 158.74143 159.24614 157.58594 159.24614 156.64925 158.30947 156.64925 157.15398 156.64925 155.99849 157.58594 155.0618 158.74143 155.0618 159.89691 155.0618 160.83359 155.99849 160.83359 157.15398ZM158.74143 157.15398"/>
<path transform="matrix(1.00005,0,0,-1.00003,18.486176,200.17954)" d="M180.67629 170.64716C180.67629 171.80265 179.7396 172.73934 178.5841 172.73934 177.42862 172.73934 176.49195 171.80265 176.49195 170.64716 176.49195 169.49167 177.42862 168.55498 178.5841 168.55498 179.7396 168.55498 180.67629 169.49167 180.67629 170.64716ZM178.5841 170.64716"/>
<path transform="matrix(1.00005,0,0,-1.00003,18.486176,200.17954)" d="M200.51897 175.72682C200.51897 176.88231 199.58228 177.819 198.42679 177.819 197.2713 177.819 196.33463 176.88231 196.33463 175.72682 196.33463 174.57134 197.2713 173.63465 198.42679 173.63465 199.58228 173.63465 200.51897 174.57134 200.51897 175.72682ZM198.42679 175.72682"/>
<path transform="matrix(1.00005,0,0,-1.00003,18.486176,200.17954)" stroke-width=".79701" stroke-linecap="butt" stroke-miterlimit="10" stroke-linejoin="miter" fill="none" stroke="#000000" d="M19.84267 2.09216V-2.09216"/>
<use data-text="1" xlink:href="#font_2_2" transform="matrix(9.963098,0,0,-9.962899,35.839044,212.4119)"/>
<path transform="matrix(1.00005,0,0,-1.00003,18.486176,200.17954)" stroke-width=".79701" stroke-linecap="butt" stroke-miterlimit="10" stroke-linejoin="miter" fill="none" stroke="#000000" d="M39.68535 2.09216V-2.09216"/>
<use data-text="2" xlink:href="#font_2_3" transform="matrix(9.963098,0,0,-9.962899,55.683034,212.4119)"/>
<path transform="matrix(1.00005,0,0,-1.00003,18.486176,200.17954)" stroke-width=".79701" stroke-linecap="butt" stroke-miterlimit="10" stroke-linejoin="miter" fill="none" stroke="#000000" d="M59.52802 2.09216V-2.09216"/>
<use data-text="3" xlink:href="#font_2_4" transform="matrix(9.963098,0,0,-9.962899,75.526027,212.4119)"/>
<path transform="matrix(1.00005,0,0,-1.00003,18.486176,200.17954)" stroke-width=".79701" stroke-linecap="butt" stroke-miterlimit="10" stroke-linejoin="miter" fill="none" stroke="#000000" d="M79.37071 2.09216V-2.09216"/>
<use data-text="4" xlink:href="#font_2_5" transform="matrix(9.963098,0,0,-9.962899,95.37001,212.4119)"/>
<path transform="matrix(1.00005,0,0,-1.00003,18.486176,200.17954)" stroke-width=".79701" stroke-linecap="butt" stroke-miterlimit="10" stroke-linejoin="miter" fill="none" stroke="#000000" d="M99.2134 2.09216V-2.09216"/>
<use data-text="5" xlink:href="#font_2_6" transform="matrix(9.963098,0,0,-9.962899,115.214008,212.4119)"/>
<path transform="matrix(1.00005,0,0,-1.00003,18.486176,200.17954)" stroke-width=".79701" stroke-linecap="butt" stroke-miterlimit="10" stroke-linejoin="miter" fill="none" stroke="#000000" d="M119.05606 2.09216V-2.09216"/>
<use data-text="6" xlink:href="#font_2_7" transform="matrix(9.963098,0,0,-9.962899,135.057,212.4119)"/>
<path transform="matrix(1.00005,0,0,-1.00003,18.486176,200.17954)" stroke-width=".79701" stroke-linecap="butt" stroke-miterlimit="10" stroke-linejoin="miter" fill="none" stroke="#000000" d="M138.89876 2.09216V-2.09216"/>
<use data-text="7" xlink:href="#font_2_8" transform="matrix(9.963098,0,0,-9.962899,154.901,212.4119)"/>
<path transform="matrix(1.00005,0,0,-1.00003,18.486176,200.17954)" stroke-width=".79701" stroke-linecap="butt" stroke-miterlimit="10" stroke-linejoin="miter" fill="none" stroke="#000000" d="M158.74143 2.09216V-2.09216"/>
<use data-text="8" xlink:href="#font_2_9" transform="matrix(9.963098,0,0,-9.962899,174.74498,212.4119)"/>
<path transform="matrix(1.00005,0,0,-1.00003,18.486176,200.17954)" stroke-width=".79701" stroke-linecap="butt" stroke-miterlimit="10" stroke-linejoin="miter" fill="none" stroke="#000000" d="M178.5841 2.09216V-2.09216"/>
<use data-text="9" xlink:href="#font_2_10" transform="matrix(9.963098,0,0,-9.962899,194.58797,212.4119)"/>
<path transform="matrix(1.00005,0,0,-1.00003,18.486176,200.17954)" stroke-width=".79701" stroke-linecap="butt" stroke-miterlimit="10" stroke-linejoin="miter" fill="none" stroke="#000000" d="M198.42679 2.09216V-2.09216"/>
<use data-text="1" xlink:href="#font_2_2" transform="matrix(9.963098,0,0,-9.962899,211.94084,212.4119)"/>
<use data-text="0" xlink:href="#font_2_1" transform="matrix(9.963098,0,0,-9.962899,216.9224,212.4119)"/>
<path transform="matrix(1.00005,0,0,-1.00003,18.486176,200.17954)" stroke-width=".79701" stroke-linecap="butt" stroke-miterlimit="10" stroke-linejoin="miter" fill="none" stroke="#000000" d="M-1.39478 19.84267H1.39478"/>
<use data-text="2" xlink:href="#font_2_3" transform="matrix(9.963098,0,0,-9.962899,6.1985628,183.54703)"/>
<use data-text="5" xlink:href="#font_2_6" transform="matrix(9.963098,0,0,-9.962899,11.180107,183.54703)"/>
<path transform="matrix(1.00005,0,0,-1.00003,18.486176,200.17954)" stroke-width=".79701" stroke-linecap="butt" stroke-miterlimit="10" stroke-linejoin="miter" fill="none" stroke="#000000" d="M-1.39478 39.68535H1.39478"/>
<use data-text="5" xlink:href="#font_2_6" transform="matrix(9.963098,0,0,-9.962899,6.1985628,163.70345)"/>
<use data-text="0" xlink:href="#font_2_1" transform="matrix(9.963098,0,0,-9.962899,11.180107,163.70345)"/>
<path transform="matrix(1.00005,0,0,-1.00003,18.486176,200.17954)" stroke-width=".79701" stroke-linecap="butt" stroke-miterlimit="10" stroke-linejoin="miter" fill="none" stroke="#000000" d="M-1.39478 59.52802H1.39478"/>
<use data-text="7" xlink:href="#font_2_8" transform="matrix(9.963098,0,0,-9.962899,6.1985628,143.85984)"/>
<use data-text="5" xlink:href="#font_2_6" transform="matrix(9.963098,0,0,-9.962899,11.180107,143.85984)"/>
<path transform="matrix(1.00005,0,0,-1.00003,18.486176,200.17954)" stroke-width=".79701" stroke-linecap="butt" stroke-miterlimit="10" stroke-linejoin="miter" fill="none" stroke="#000000" d="M-1.39478 79.37071H1.39478"/>
<use data-text="1" xlink:href="#font_2_2" transform="matrix(9.963098,0,0,-9.962899,1.2173157,124.01724)"/>
<use data-text="0" xlink:href="#font_2_1" transform="matrix(9.963098,0,0,-9.962899,6.19886,124.01724)"/>
<use data-text="0" xlink:href="#font_2_1" transform="matrix(9.963098,0,0,-9.962899,11.180412,124.01724)"/>
<path transform="matrix(1.00005,0,0,-1.00003,18.486176,200.17954)" stroke-width=".79701" stroke-linecap="butt" stroke-miterlimit="10" stroke-linejoin="miter" fill="none" stroke="#000000" d="M-1.39478 99.2134H1.39478"/>
<use data-text="1" xlink:href="#font_2_2" transform="matrix(9.963098,0,0,-9.962899,1.2173157,104.17365)"/>
<use data-text="2" xlink:href="#font_2_3" transform="matrix(9.963098,0,0,-9.962899,6.19886,104.17365)"/>
<use data-text="5" xlink:href="#font_2_6" transform="matrix(9.963098,0,0,-9.962899,11.180412,104.17365)"/>
<path transform="matrix(1.00005,0,0,-1.00003,18.486176,200.17954)" stroke-width=".79701" stroke-linecap="butt" stroke-miterlimit="10" stroke-linejoin="miter" fill="none" stroke="#000000" d="M-1.39478 119.05606H1.39478"/>
<use data-text="1" xlink:href="#font_2_2" transform="matrix(9.963098,0,0,-9.962899,1.2173157,84.330059)"/>
<use data-text="5" xlink:href="#font_2_6" transform="matrix(9.963098,0,0,-9.962899,6.19886,84.330059)"/>
<use data-text="0" xlink:href="#font_2_1" transform="matrix(9.963098,0,0,-9.962899,11.180412,84.330059)"/>
<path transform="matrix(1.00005,0,0,-1.00003,18.486176,200.17954)" stroke-width=".79701" stroke-linecap="butt" stroke-miterlimit="10" stroke-linejoin="miter" fill="none" stroke="#000000" d="M-1.39478 138.89876H1.39478"/>
<use data-text="1" xlink:href="#font_2_2" transform="matrix(9.963098,0,0,-9.962899,1.2173157,64.486469)"/>
<use data-text="7" xlink:href="#font_2_8" transform="matrix(9.963098,0,0,-9.962899,6.19886,64.486469)"/>
<use data-text="5" xlink:href="#font_2_6" transform="matrix(9.963098,0,0,-9.962899,11.180412,64.486469)"/>
<path transform="matrix(1.00005,0,0,-1.00003,18.486176,200.17954)" stroke-width=".79701" stroke-linecap="butt" stroke-miterlimit="10" stroke-linejoin="miter" fill="none" stroke="#000000" d="M-1.39478 158.74143H1.39478"/>
<use data-text="2" xlink:href="#font_2_3" transform="matrix(9.963098,0,0,-9.962899,1.2173157,44.64386)"/>
<use data-text="0" xlink:href="#font_2_1" transform="matrix(9.963098,0,0,-9.962899,6.19886,44.64386)"/>
<use data-text="0" xlink:href="#font_2_1" transform="matrix(9.963098,0,0,-9.962899,11.180412,44.64386)"/>
<path transform="matrix(1.00005,0,0,-1.00003,18.486176,200.17954)" stroke-width=".79701" stroke-linecap="butt" stroke-miterlimit="10" stroke-linejoin="miter" fill="none" stroke="#000000" d="M-1.39478 178.5841H1.39478"/>
<use data-text="2" xlink:href="#font_2_3" transform="matrix(9.963098,0,0,-9.962899,1.2173157,24.800278)"/>
<use data-text="2" xlink:href="#font_2_3" transform="matrix(9.963098,0,0,-9.962899,6.19886,24.800278)"/>
<use data-text="5" xlink:href="#font_2_6" transform="matrix(9.963098,0,0,-9.962899,11.180412,24.800278)"/>
</svg>
