<svg xmlns="http://www.w3.org/2000/svg" xmlns:xlink="http://www.w3.org/1999/xlink" xmlns:inkscape="http://www.inkscape.org/namespaces/inkscape" version="1.1" width="269" height="243" viewBox="0 0 269 243">
<defs>
<path id="font_1_1" d="M.20599365 .3996582H.2999878C.31999208 .3996582 .32998658 .3996582 .32998658 .41966249 .32998658 .43066407 .31999208 .43066407 .3019867 .43066407H.21398926C.25 .5724945 .25498963 .59246829 .25498963 .59846499 .25498963 .61546328 .24299622 .62545779 .22599793 .62545779 .22299195 .62545779 .19499207 .62446597 .18598938 .58947756L.14698792 .43066407H.052993776C.032989503 .43066407 .022994996 .43066407 .022994996 .4116516 .022994996 .3996582 .0309906 .3996582 .050994874 .3996582H.13899231C.066986087 .11608887 .06298828 .099121097 .06298828 .08114624 .06298828 .02722168 .100997928-.0107421879 .15499878-.0107421879 .25698854-.0107421879 .31399537 .13505554 .31399537 .14305115 .31399537 .1530304 .30599977 .1530304 .3019867 .1530304 .29299928 .1530304 .2919922 .15003968 .2869873 .13905335 .24398804 .035217287 .19099427 .011245728 .15699768 .011245728 .13598633 .011245728 .12599182 .024230957 .12599182 .057174684 .12599182 .08114624 .12799073 .088134769 .13198853 .10510254L.20599365 .3996582Z"/>
<path id="font_1_2" d="M.46798707 .37236024C.46798707 .42637635 .44198609 .4423828 .42399598 .4423828 .39898683 .4423828 .375 .41636659 .375 .3943634 .375 .38136292 .37998963 .3753662 .3909912 .36434938 .4119873 .3443451 .4249878 .31834413 .4249878 .28233338 .4249878 .24032593 .3639984 .011245728 .24699402 .011245728 .19599915 .011245728 .17298889 .04626465 .17298889 .09828186 .17298889 .15429688 .19999695 .22731018 .23098755 .31033326 .23799134 .3273468 .24299622 .34135438 .24299622 .36035157 .24299622 .405365 .21099854 .4423828 .16099549 .4423828 .066986087 .4423828 .0289917 .29733277 .0289917 .28833009 .0289917 .27833558 .038986207 .27833558 .040985109 .27833558 .050994874 .27833558 .051986696 .28033448 .056991579 .29634095 .085998538 .39736939 .1289978 .42037965 .1579895 .42037965 .1659851 .42037965 .18299866 .42037965 .18299866 .3883667 .18299866 .36335755 .17298889 .3363495 .1659851 .31834413 .12199402 .20230103 .10899353 .15629578 .10899353 .11328125 .10899353 .0052490236 .19699097-.0107421879 .24299622-.0107421879 .41099549-.0107421879 .46798707 .32034303 .46798707 .37236024Z"/>
<path id="font_2_2" d="M.2939911 .64004519C.2939911 .66400149 .2939911 .6660156 .2709961 .6660156 .20899964 .60227969 .12098694 .60227969 .08898926 .60227969V.57128909C.10899353 .57128909 .16799927 .57128909 .21998596 .5972748V.07902527C.21998596 .042999269 .21699524 .0309906 .1269989 .0309906H.09498596V0C.12998963 .0029907227 .21699524 .0029907227 .25698854 .0029907227 .29699708 .0029907227 .38398744 .0029907227 .4189911 0V.0309906H.3869934C.29699708 .0309906 .2939911 .041992189 .2939911 .07902527V.64004519Z"/>
<path id="font_2_3" d="M.1269989 .07699585 .23298645 .18003845C.3889923 .31811524 .44898988 .3721466 .44898988 .47216798 .44898988 .5860901 .35899354 .6660156 .23699951 .6660156 .12399292 .6660156 .049987794 .57411196 .049987794 .48516847 .049987794 .4291687 .099990848 .4291687 .102996829 .4291687 .11999512 .4291687 .15499878 .44117738 .15499878 .48217774 .15499878 .5081787 .13699341 .5341797 .101989749 .5341797 .09399414 .5341797 .09199524 .5341797 .08898926 .5331726 .11199951 .59806826 .1659851 .63500979 .22399903 .63500979 .31498719 .63500979 .35798646 .5541382 .35798646 .47216798 .35798646 .39215089 .30799867 .31311036 .25299073 .25108338L.06098938 .036987306C.049987794 .025985718 .049987794 .023986817 .049987794 0H.42099L.44898988 .17404175H.42399598C.4189911 .14402771 .4119873 .1000061 .4019928 .084991458 .394989 .07699585 .32899476 .07699585 .30699159 .07699585H.1269989Z"/>
<path id="font_2_4" d="M.2899933 .35191346C.37199403 .37893678 .42999269 .4490509 .42999269 .52809146 .42999269 .6100464 .34199525 .6660156 .24598694 .6660156 .14498902 .6660156 .068984989 .60606387 .068984989 .53009036 .068984989 .49710084 .09098816 .47808839 .11999512 .47808839 .15098572 .47808839 .17098999 .50009158 .17098999 .5290985 .17098999 .57910159 .12399292 .57910159 .10899353 .57910159 .13999939 .62802127 .20599365 .64100649 .24198914 .64100649 .2829895 .64100649 .33799745 .6190338 .33799745 .5290985 .33799745 .51708987 .33599855 .45906068 .30999757 .4149933 .27999879 .36691285 .24598694 .36390687 .22099304 .36291505 .21299744 .36190797 .18899536 .35990907 .18199158 .35990907 .17399597 .35890199 .16699219 .35791017 .16699219 .3479004 .16699219 .33691407 .17399597 .33691407 .19099427 .33691407H.23498535C.31698609 .33691407 .35398866 .2686615 .35398866 .17037964 .35398866 .034469606 .2849884 .0055389406 .24099732 .0055389406 .19799805 .0055389406 .12298584 .022491456 .08799744 .08137512 .12298584 .07637024 .1539917 .09837341 .1539917 .1363678 .1539917 .17237854 .1269989 .19238281 .09799194 .19238281 .07398987 .19238281 .041992189 .17837525 .041992189 .1343689 .041992189 .043441774 .1349945-.022460938 .24398804-.022460938 .3659973-.022460938 .45700074 .06838989 .45700074 .17037964 .45700074 .252594 .3939972 .33088685 .2899933 .35191346Z"/>
<path id="font_2_5" d="M.2939911 .16503906V.07800293C.2939911 .041992189 .2919922 .0309906 .21798706 .0309906H.19699097V0C.23799134 .0029907227 .2899933 .0029907227 .33198548 .0029907227 .37399293 .0029907227 .4269867 .0029907227 .46798707 0V.0309906H.44699098C.37298585 .0309906 .37098695 .041992189 .37098695 .07800293V.16503906H.47099305V.19602967H.37098695V.65075686C.37098695 .67074587 .37098695 .6767578 .35499574 .6767578 .34599305 .6767578 .34298707 .6767578 .33499146 .66474917L.027999878 .19602967V.16503906H.2939911M.2999878 .19602967H.055999757L.2999878 .5688019V.19602967Z"/>
<path id="font_2_6" d="M.44898988 .20022583C.44898988 .3193512 .36698915 .41944886 .25898744 .41944886 .21099854 .41944886 .16799927 .40345765 .13198853 .36842347V.5637665C.1519928 .5577698 .18499756 .55078127 .21699524 .55078127 .33999635 .55078127 .4099884 .6417694 .4099884 .6547699 .4099884 .6607666 .40699769 .6657715 .3999939 .6657715 .39898683 .6657715 .39698792 .6657715 .3919983 .66278079 .37199403 .6537781 .32299806 .6337738 .2559967 .6337738 .21598816 .6337738 .16999817 .6407776 .12298584 .6617737 .114990238 .66477969 .11299133 .66477969 .11099243 .66477969 .100997928 .66477969 .100997928 .6567688 .100997928 .6407776V.34439088C.100997928 .32637025 .100997928 .31835938 .114990238 .31835938 .12199402 .31835938 .12399292 .32136537 .12799073 .32736207 .13899231 .3433838 .17599488 .39746095 .25698854 .39746095 .30899049 .39746095 .33399964 .35139466 .34199525 .33337403 .35798646 .29632569 .3600006 .25727845 .3600006 .20722962 .3600006 .17222595 .3600006 .11222839 .33599855 .07035828 .31199647 .031463624 .2749939 .0055389406 .22898865 .0055389406 .1559906 .0055389406 .09899902 .058380128 .08198547 .11723328 .084991458 .1162262 .08799744 .115234378 .09899902 .115234378 .13198853 .115234378 .14898682 .14022827 .14898682 .16423035 .14898682 .18823242 .13198853 .21322632 .09899902 .21322632 .084991458 .21322632 .049987794 .20622254 .049987794 .16023255 .049987794 .07434082 .11898804-.022460938 .23098755-.022460938 .34700013-.022460938 .44898988 .073349 .44898988 .20022583Z"/>
<path id="font_2_7" d="M.13198853 .327713V.35173036C.13198853 .6047821 .2559967 .64100649 .30699159 .64100649 .33099366 .64100649 .37298585 .634964 .394989 .6007538 .37998963 .6007538 .33999635 .6007538 .33999635 .5557556 .33999635 .524765 .3639984 .5097656 .38598634 .5097656 .4019928 .5097656 .43199159 .51875308 .43199159 .5577545 .43199159 .6178589 .3880005 .6660156 .30499269 .6660156 .1769867 .6660156 .041992189 .5367584 .041992189 .31570436 .041992189 .048553468 .1579895-.022460938 .25099183-.022460938 .3619995-.022460938 .45700074 .07156372 .45700074 .2036438 .45700074 .33070375 .36799623 .4267578 .25698854 .4267578 .18899536 .4267578 .1519928 .37573243 .13198853 .327713M.25099183 .0055389406C.18798828 .0055389406 .1579895 .06556702 .1519928 .080566409 .13398743 .127594 .13398743 .2076416 .13398743 .22564698 .13398743 .30369569 .1659851 .40374757 .2559967 .40374757 .27198792 .40374757 .31799317 .40374757 .34899903 .34172059 .36698915 .30470277 .36698915 .2536621 .36698915 .20463562 .36698915 .15661621 .36698915 .10658264 .34999085 .0705719 .31999208 .010528564 .27398683 .0055389406 .25099183 .0055389406Z"/>
<path id="font_2_8" d="M.47599793 .609375C.4850006 .6213684 .4850006 .62338259 .4850006 .64437869H.24198914C.11999512 .64437869 .117996219 .65737918 .11399841 .67637637H.08898926L.055999757 .4702301H.08099365C.083999637 .48625184 .09298706 .5493469 .10598755 .56137087 .11299133 .5673828 .19099427 .5673828 .20399475 .5673828H.41099549C.3999939 .5513611 .32099916 .4421997 .29899598 .40914918 .20899964 .27394105 .17599488 .1347351 .17599488 .032577516 .17599488 .022567749 .17599488-.022460938 .22200012-.022460938 .2679901-.022460938 .2679901 .022567749 .2679901 .032577516V.08366394C.2679901 .13873291 .2709961 .19381714 .2789917 .24790955 .2829895 .27093507 .29699708 .35707093 .34098817 .41915895L.47599793 .609375Z"/>
<path id="font_2_9" d="M.16299439 .4569702C.116989139 .486969 .11299133 .52098086 .11299133 .5379791 .11299133 .598999 .17799378 .64100649 .24899292 .64100649 .32199098 .64100649 .38598634 .58898928 .38598634 .51698306 .38598634 .45996095 .34700013 .4119568 .2869873 .37695313L.16299439 .4569702M.30899049 .36193849C.3809967 .3989563 .42999269 .45095826 .42999269 .51698306 .42999269 .6090088 .34098817 .6660156 .25 .6660156 .1499939 .6660156 .068984989 .59199526 .068984989 .49897767 .068984989 .4809723 .070999149 .43595887 .11299133 .38894654 .12399292 .37695313 .16099549 .35194398 .18598938 .33494569 .12799073 .30592347 .041992189 .24984741 .041992189 .15072632 .041992189 .04458618 .14399719-.022460938 .24899292-.022460938 .3619995-.022460938 .45700074 .06060791 .45700074 .16773987 .45700074 .20379639 .44599916 .24885559 .4079895 .2909088 .3889923 .31193543 .37298585 .3219452 .30899049 .36193849M.20899964 .3199463 .33198548 .24183655C.3600006 .2228241 .40699769 .19277954 .40699769 .13169861 .40699769 .05760193 .33198548 .0055389406 .25 .0055389406 .1639862 .0055389406 .09199524 .067611698 .09199524 .15072632 .09199524 .20880127 .12399292 .27288819 .20899964 .3199463Z"/>
<path id="font_2_10" d="M.36698915 .31781007V.28579713C.36698915 .05178833 .2630005 .0055389406 .20498657 .0055389406 .18798828 .0055389406 .13398743 .007537842 .10699463 .041778566 .15098572 .041778566 .15899658 .07078552 .15899658 .08778381 .15899658 .118774417 .1349945 .13378906 .11299133 .13378906 .09700012 .13378906 .066986087 .12478638 .066986087 .08578491 .066986087 .018615723 .12098694-.022460938 .20599365-.022460938 .33499146-.022460938 .45700074 .11378479 .45700074 .32881166 .45700074 .5979767 .34199525 .6660156 .25299073 .6660156 .19799805 .6660156 .14898682 .64801028 .10598755 .60298159 .06498718 .5579529 .041992189 .5159302 .041992189 .44088746 .041992189 .31581117 .12998963 .21777344 .24198914 .21777344 .30299378 .21777344 .34399415 .25978089 .36698915 .31781007M.24299622 .24076844C.22698975 .24076844 .18099976 .24076844 .1499939 .3038025 .13198853 .3408203 .13198853 .39085389 .13198853 .43988038 .13198853 .49391175 .13198853 .54093936 .15299988 .5779724 .17999268 .6279907 .21798706 .64100649 .25299073 .64100649 .29899598 .64100649 .33198548 .60697939 .34899903 .5619507 .36099244 .52993777 .36499024 .4669037 .36499024 .42086793 .36499024 .3378296 .33099366 .24076844 .24299622 .24076844Z"/>
<path id="font_2_1" d="M.45999146 .31976319C.45999146 .39982606 .45498658 .47988893 .41999818 .5539398 .37399293 .65000918 .2919922 .6660156 .25 .6660156 .18998719 .6660156 .116989139 .64001467 .07598877 .54693606 .04399109 .47789 .038986207 .39982606 .038986207 .31976319 .038986207 .24472046 .042999269 .15464783 .083999637 .07859802 .1269989-.0024719239 .19999695-.022460938 .24899292-.022460938 .30299378-.022460938 .3789978-.0014648438 .4229889 .09359741 .45498658 .16265869 .45999146 .2407074 .45999146 .31976319M.24899292-.00047302247C.20999146-.00047302247 .15098572 .024551392 .1329956 .12062073 .12199402 .18066406 .12199402 .2727356 .12199402 .3317871 .12199402 .39582826 .12199402 .46188355 .12998963 .5159149 .14898682 .63500979 .22399903 .64401248 .24899292 .64401248 .28199769 .64401248 .34799195 .6259918 .36698915 .52693179 .3769989 .47088624 .3769989 .39482118 .3769989 .3317871 .3769989 .25672914 .3769989 .18867493 .3659973 .12461853 .35099793 .029556275 .2939911-.00047302247 .24899292-.00047302247Z"/>
</defs>
<path transform="matrix(1.00006,0,0,-1.00005,18.2872,228.53263)" stroke-width=".79701" stroke-linecap="butt" stroke-miterlimit="10" stroke-linejoin="miter" fill="none" stroke="#bfbfbf" d="M0 0H226.77533M0 22.67752H226.77533M0 45.35506H226.77533M0 68.0326H226.77533M0 90.71013H226.77533M0 113.38766H226.77533M0 136.0652H226.77533M0 158.74274H226.77533M0 181.42028H226.77533M0 204.08983H226.77533M0 0V204.09781M22.67752 0V204.09781M45.35506 0V204.09781M68.0326 0V204.09781M90.71013 0V204.09781M113.38766 0V204.09781M136.0652 0V204.09781M158.74274 0V204.09781M181.42028 0V204.09781M204.09781 0V204.09781M226.76735 0V204.09781M226.77533 204.09781"/>
<path transform="matrix(1.00006,0,0,-1.00005,18.2872,228.53263)" stroke-width=".29887" stroke-linecap="butt" stroke-miterlimit="10" stroke-linejoin="miter" fill="none" stroke="#333333" d="M0 0H246.1353"/>
<path transform="matrix(1.00006,0,0,-1.00005,264.43727,228.53263)" d="M3.31755 0C2.33455 .1843 .73723 .73723-.3686 1.38231V-1.38231C.73723-.73723 2.33455-.1843 3.31755 0" fill="#333333"/>
<path transform="matrix(1.00006,0,0,-1.00005,18.2872,228.53263)" stroke-width=".79701" stroke-linecap="butt" stroke-miterlimit="10" stroke-linejoin="miter" fill="none" stroke="#000000" d=""/>
<use data-text="t" xlink:href="#font_1_1" transform="matrix(9.963197,0,0,-9.963098,254.6164,238.38011)"/>
<path transform="matrix(1.00006,0,0,-1.00005,18.2872,228.53263)" stroke-width=".29887" stroke-linecap="butt" stroke-miterlimit="10" stroke-linejoin="miter" fill="none" stroke="#333333" d="M0 0V223.45777"/>
<path transform="matrix(0,-1.00005,-1.00006,-0,18.2872,5.0637056)" d="M3.31755 0C2.33455 .1843 .73723 .73723-.3686 1.38231V-1.38231C.73723-.73723 2.33455-.1843 3.31755 0" fill="#333333"/>
<path transform="matrix(1.00006,0,0,-1.00005,18.2872,228.53263)" stroke-width=".79701" stroke-linecap="butt" stroke-miterlimit="10" stroke-linejoin="miter" fill="none" stroke="#000000" d=""/>
<use data-text="v" xlink:href="#font_1_2" transform="matrix(9.963197,0,0,-9.963098,22.006424,15.229965)"/>
<path transform="matrix(1.00006,0,0,-1.00005,18.2872,228.53263)" d="M2.39107 0C2.39107 1.32056 1.32056 2.39107 0 2.39107-1.32056 2.39107-2.39107 1.32056-2.39107 0-2.39107-1.32056-1.32056-2.39107 0-2.39107 1.32056-2.39107 2.39107-1.32056 2.39107 0ZM0 0"/>
<path transform="matrix(1.00006,0,0,-1.00005,18.2872,228.53263)" d="M25.06859 68.0326C25.06859 69.35315 23.99808 70.42366 22.67752 70.42366 21.35695 70.42366 20.28644 69.35315 20.28644 68.0326 20.28644 66.71202 21.35695 65.64151 22.67752 65.64151 23.99808 65.64151 25.06859 66.71202 25.06859 68.0326ZM22.67752 68.0326"/>
<path transform="matrix(1.00006,0,0,-1.00005,18.2872,228.53263)" d="M47.74612 89.80318C47.74612 91.12373 46.67561 92.19424 45.35506 92.19424 44.03448 92.19424 42.96397 91.12373 42.96397 89.80318 42.96397 88.4826 44.03448 87.4121 45.35506 87.4121 46.67561 87.4121 47.74612 88.4826 47.74612 89.80318ZM45.35506 89.80318"/>
<path transform="matrix(1.00006,0,0,-1.00005,18.2872,228.53263)" d="M70.42366 113.38766C70.42366 114.70822 69.35315 115.77873 68.0326 115.77873 66.71202 115.77873 65.64151 114.70822 65.64151 113.38766 65.64151 112.0671 66.71202 110.99658 68.0326 110.99658 69.35315 110.99658 70.42366 112.0671 70.42366 113.38766ZM68.0326 113.38766"/>
<path transform="matrix(1.00006,0,0,-1.00005,18.2872,228.53263)" d="M93.1012 126.99431C93.1012 128.31488 92.03069 129.38538 90.71013 129.38538 89.38956 129.38538 88.31905 128.31488 88.31905 126.99431 88.31905 125.67375 89.38956 124.60324 90.71013 124.60324 92.03069 124.60324 93.1012 125.67375 93.1012 126.99431ZM90.71013 126.99431"/>
<path transform="matrix(1.00006,0,0,-1.00005,18.2872,228.53263)" d="M115.77873 146.9503C115.77873 148.27086 114.70822 149.34137 113.38766 149.34137 112.0671 149.34137 110.99658 148.27086 110.99658 146.9503 110.99658 145.62973 112.0671 144.55922 113.38766 144.55922 114.70822 144.55922 115.77873 145.62973 115.77873 146.9503ZM113.38766 146.9503"/>
<path transform="matrix(1.00006,0,0,-1.00005,18.2872,228.53263)" d="M138.45627 155.56789C138.45627 156.88846 137.38576 157.95896 136.0652 157.95896 134.74463 157.95896 133.67412 156.88846 133.67412 155.56789 133.67412 154.24733 134.74463 153.17682 136.0652 153.17682 137.38576 153.17682 138.45627 154.24733 138.45627 155.56789ZM136.0652 155.56789"/>
<path transform="matrix(1.00006,0,0,-1.00005,18.2872,228.53263)" d="M161.1338 165.09239C161.1338 166.41297 160.0633 167.48348 158.74274 167.48348 157.42217 167.48348 156.35166 166.41297 156.35166 165.09239 156.35166 163.77184 157.42217 162.70133 158.74274 162.70133 160.0633 162.70133 161.1338 163.77184 161.1338 165.09239ZM158.74274 165.09239"/>
<path transform="matrix(1.00006,0,0,-1.00005,18.2872,228.53263)" d="M183.81134 179.60602C183.81134 180.92658 182.74083 181.99709 181.42028 181.99709 180.0997 181.99709 179.02919 180.92658 179.02919 179.60602 179.02919 178.28545 180.0997 177.21494 181.42028 177.21494 182.74083 177.21494 183.81134 178.28545 183.81134 179.60602ZM181.42028 179.60602"/>
<path transform="matrix(1.00006,0,0,-1.00005,18.2872,228.53263)" d="M206.48888 195.0269C206.48888 196.34748 205.41837 197.41797 204.09781 197.41797 202.77724 197.41797 201.70673 196.34748 201.70673 195.0269 201.70673 193.70635 202.77724 192.63584 204.09781 192.63584 205.41837 192.63584 206.48888 193.70635 206.48888 195.0269ZM204.09781 195.0269"/>
<path transform="matrix(1.00006,0,0,-1.00005,18.2872,228.53263)" d="M229.1664 200.83228C229.1664 202.15285 228.09589 203.22336 226.77533 203.22336 225.45476 203.22336 224.38425 202.15285 224.38425 200.83228 224.38425 199.51172 225.45476 198.44121 226.77533 198.44121 228.09589 198.44121 229.1664 199.51172 229.1664 200.83228ZM226.77533 200.83228"/>
<path transform="matrix(1.00006,0,0,-1.00005,18.2872,228.53263)" stroke-width=".79701" stroke-linecap="butt" stroke-miterlimit="10" stroke-linejoin="miter" fill="none" stroke="#000000" d="M22.67752 2.39107V-2.39107"/>
<use data-text="1" xlink:href="#font_2_2" transform="matrix(9.963197,0,0,-9.963098,38.47541,241.06426)"/>
<path transform="matrix(1.00006,0,0,-1.00005,18.2872,228.53263)" stroke-width=".79701" stroke-linecap="butt" stroke-miterlimit="10" stroke-linejoin="miter" fill="none" stroke="#000000" d="M45.35506 2.39107V-2.39107"/>
<use data-text="2" xlink:href="#font_2_3" transform="matrix(9.963197,0,0,-9.963098,61.15377,241.06426)"/>
<path transform="matrix(1.00006,0,0,-1.00005,18.2872,228.53263)" stroke-width=".79701" stroke-linecap="butt" stroke-miterlimit="10" stroke-linejoin="miter" fill="none" stroke="#000000" d="M68.0326 2.39107V-2.39107"/>
<use data-text="3" xlink:href="#font_2_4" transform="matrix(9.963197,0,0,-9.963098,83.83313,241.06426)"/>
<path transform="matrix(1.00006,0,0,-1.00005,18.2872,228.53263)" stroke-width=".79701" stroke-linecap="butt" stroke-miterlimit="10" stroke-linejoin="miter" fill="none" stroke="#000000" d="M90.71013 2.39107V-2.39107"/>
<use data-text="4" xlink:href="#font_2_5" transform="matrix(9.963197,0,0,-9.963098,106.51149,241.06426)"/>
<path transform="matrix(1.00006,0,0,-1.00005,18.2872,228.53263)" stroke-width=".79701" stroke-linecap="butt" stroke-miterlimit="10" stroke-linejoin="miter" fill="none" stroke="#000000" d="M113.38766 2.39107V-2.39107"/>
<use data-text="5" xlink:href="#font_2_6" transform="matrix(9.963197,0,0,-9.963098,129.19086,241.06426)"/>
<path transform="matrix(1.00006,0,0,-1.00005,18.2872,228.53263)" stroke-width=".79701" stroke-linecap="butt" stroke-miterlimit="10" stroke-linejoin="miter" fill="none" stroke="#000000" d="M136.0652 2.39107V-2.39107"/>
<use data-text="6" xlink:href="#font_2_7" transform="matrix(9.963197,0,0,-9.963098,151.87021,241.06426)"/>
<path transform="matrix(1.00006,0,0,-1.00005,18.2872,228.53263)" stroke-width=".79701" stroke-linecap="butt" stroke-miterlimit="10" stroke-linejoin="miter" fill="none" stroke="#000000" d="M158.74274 2.39107V-2.39107"/>
<use data-text="7" xlink:href="#font_2_8" transform="matrix(9.963197,0,0,-9.963098,174.54857,241.06426)"/>
<path transform="matrix(1.00006,0,0,-1.00005,18.2872,228.53263)" stroke-width=".79701" stroke-linecap="butt" stroke-miterlimit="10" stroke-linejoin="miter" fill="none" stroke="#000000" d="M181.42028 2.39107V-2.39107"/>
<use data-text="8" xlink:href="#font_2_9" transform="matrix(9.963197,0,0,-9.963098,197.22792,241.06426)"/>
<path transform="matrix(1.00006,0,0,-1.00005,18.2872,228.53263)" stroke-width=".79701" stroke-linecap="butt" stroke-miterlimit="10" stroke-linejoin="miter" fill="none" stroke="#000000" d="M204.09781 2.39107V-2.39107"/>
<use data-text="9" xlink:href="#font_2_10" transform="matrix(9.963197,0,0,-9.963098,219.90628,241.06426)"/>
<path transform="matrix(1.00006,0,0,-1.00005,18.2872,228.53263)" stroke-width=".79701" stroke-linecap="butt" stroke-miterlimit="10" stroke-linejoin="miter" fill="none" stroke="#000000" d="M226.77533 2.39107V-2.39107"/>
<use data-text="1" xlink:href="#font_2_2" transform="matrix(9.963197,0,0,-9.963098,240.09452,241.06426)"/>
<use data-text="0" xlink:href="#font_2_1" transform="matrix(9.963197,0,0,-9.963098,245.07611,241.06426)"/>
<path transform="matrix(1.00006,0,0,-1.00005,18.2872,228.53263)" stroke-width=".79701" stroke-linecap="butt" stroke-miterlimit="10" stroke-linejoin="miter" fill="none" stroke="#000000" d="M-1.59404 22.67752H1.59404"/>
<use data-text="2" xlink:href="#font_2_3" transform="matrix(9.963197,0,0,-9.963098,6.1984789,209.06465)"/>
<use data-text="5" xlink:href="#font_2_6" transform="matrix(9.963197,0,0,-9.963098,11.180077,209.06465)"/>
<path transform="matrix(1.00006,0,0,-1.00005,18.2872,228.53263)" stroke-width=".79701" stroke-linecap="butt" stroke-miterlimit="10" stroke-linejoin="miter" fill="none" stroke="#000000" d="M-1.59404 45.35506H1.59404"/>
<use data-text="5" xlink:href="#font_2_6" transform="matrix(9.963197,0,0,-9.963098,6.1984789,186.38552)"/>
<use data-text="0" xlink:href="#font_2_1" transform="matrix(9.963197,0,0,-9.963098,11.180077,186.38552)"/>
<path transform="matrix(1.00006,0,0,-1.00005,18.2872,228.53263)" stroke-width=".79701" stroke-linecap="butt" stroke-miterlimit="10" stroke-linejoin="miter" fill="none" stroke="#000000" d="M-1.59404 68.0326H1.59404"/>
<use data-text="7" xlink:href="#font_2_8" transform="matrix(9.963197,0,0,-9.963098,6.1984789,163.7074)"/>
<use data-text="5" xlink:href="#font_2_6" transform="matrix(9.963197,0,0,-9.963098,11.180077,163.7074)"/>
<path transform="matrix(1.00006,0,0,-1.00005,18.2872,228.53263)" stroke-width=".79701" stroke-linecap="butt" stroke-miterlimit="10" stroke-linejoin="miter" fill="none" stroke="#000000" d="M-1.59404 90.71013H1.59404"/>
<use data-text="1" xlink:href="#font_2_2" transform="matrix(9.963197,0,0,-9.963098,1.2171784,141.02826)"/>
<use data-text="0" xlink:href="#font_2_1" transform="matrix(9.963197,0,0,-9.963098,6.1987764,141.02826)"/>
<use data-text="0" xlink:href="#font_2_1" transform="matrix(9.963197,0,0,-9.963098,11.180374,141.02826)"/>
<path transform="matrix(1.00006,0,0,-1.00005,18.2872,228.53263)" stroke-width=".79701" stroke-linecap="butt" stroke-miterlimit="10" stroke-linejoin="miter" fill="none" stroke="#000000" d="M-1.59404 113.38766H1.59404"/>
<use data-text="1" xlink:href="#font_2_2" transform="matrix(9.963197,0,0,-9.963098,1.2171784,118.35012)"/>
<use data-text="2" xlink:href="#font_2_3" transform="matrix(9.963197,0,0,-9.963098,6.1987764,118.35012)"/>
<use data-text="5" xlink:href="#font_2_6" transform="matrix(9.963197,0,0,-9.963098,11.180374,118.35012)"/>
<path transform="matrix(1.00006,0,0,-1.00005,18.2872,228.53263)" stroke-width=".79701" stroke-linecap="butt" stroke-miterlimit="10" stroke-linejoin="miter" fill="none" stroke="#000000" d="M-1.59404 136.0652H1.59404"/>
<use data-text="1" xlink:href="#font_2_2" transform="matrix(9.963197,0,0,-9.963098,1.2171784,95.67099)"/>
<use data-text="5" xlink:href="#font_2_6" transform="matrix(9.963197,0,0,-9.963098,6.1987764,95.67099)"/>
<use data-text="0" xlink:href="#font_2_1" transform="matrix(9.963197,0,0,-9.963098,11.180374,95.67099)"/>
<path transform="matrix(1.00006,0,0,-1.00005,18.2872,228.53263)" stroke-width=".79701" stroke-linecap="butt" stroke-miterlimit="10" stroke-linejoin="miter" fill="none" stroke="#000000" d="M-1.59404 158.74274H1.59404"/>
<use data-text="1" xlink:href="#font_2_2" transform="matrix(9.963197,0,0,-9.963098,1.2171784,72.99185)"/>
<use data-text="7" xlink:href="#font_2_8" transform="matrix(9.963197,0,0,-9.963098,6.1987764,72.99185)"/>
<use data-text="5" xlink:href="#font_2_6" transform="matrix(9.963197,0,0,-9.963098,11.180374,72.99185)"/>
<path transform="matrix(1.00006,0,0,-1.00005,18.2872,228.53263)" stroke-width=".79701" stroke-linecap="butt" stroke-miterlimit="10" stroke-linejoin="miter" fill="none" stroke="#000000" d="M-1.59404 181.42028H1.59404"/>
<use data-text="2" xlink:href="#font_2_3" transform="matrix(9.963197,0,0,-9.963098,1.2171784,50.31372)"/>
<use data-text="0" xlink:href="#font_2_1" transform="matrix(9.963197,0,0,-9.963098,6.1987764,50.31372)"/>
<use data-text="0" xlink:href="#font_2_1" transform="matrix(9.963197,0,0,-9.963098,11.180374,50.31372)"/>
<path transform="matrix(1.00006,0,0,-1.00005,18.2872,228.53263)" stroke-width=".79701" stroke-linecap="butt" stroke-miterlimit="10" stroke-linejoin="miter" fill="none" stroke="#000000" d="M-1.59404 204.09781H1.59404"/>
<use data-text="2" xlink:href="#font_2_3" transform="matrix(9.963197,0,0,-9.963098,1.2171784,27.634583)"/>
<use data-text="2" xlink:href="#font_2_3" transform="matrix(9.963197,0,0,-9.963098,6.1987764,27.634583)"/>
<use data-text="5" xlink:href="#font_2_6" transform="matrix(9.963197,0,0,-9.963098,11.180374,27.634583)"/>
</svg>
