<svg xmlns="http://www.w3.org/2000/svg" xmlns:xlink="http://www.w3.org/1999/xlink" xmlns:inkscape="http://www.inkscape.org/namespaces/inkscape" version="1.1" width="92" height="230" viewBox="0 0 92 230">
<defs>
<path id="font_1_1" d="M.20599365 .3996582H.2999878C.31999208 .3996582 .32998658 .3996582 .32998658 .41966249 .32998658 .43066407 .31999208 .43066407 .3019867 .43066407H.21398926C.25 .5724945 .25498963 .59246829 .25498963 .59846499 .25498963 .61546328 .24299622 .62545779 .22599793 .62545779 .22299195 .62545779 .19499207 .62446597 .18598938 .58947756L.14698792 .43066407H.052993776C.032989503 .43066407 .022994996 .43066407 .022994996 .4116516 .022994996 .3996582 .0309906 .3996582 .050994874 .3996582H.13899231C.066986087 .11608887 .06298828 .099121097 .06298828 .08114624 .06298828 .02722168 .100997928-.0107421879 .15499878-.0107421879 .25698854-.0107421879 .31399537 .13505554 .31399537 .14305115 .31399537 .1530304 .30599977 .1530304 .3019867 .1530304 .29299928 .1530304 .2919922 .15003968 .2869873 .13905335 .24398804 .035217287 .19099427 .011245728 .15699768 .011245728 .13598633 .011245728 .12599182 .024230957 .12599182 .057174684 .12599182 .08114624 .12799073 .088134769 .13198853 .10510254L.20599365 .3996582Z"/>
<path id="font_1_2" d="M.46798707 .37236024C.46798707 .42637635 .44198609 .4423828 .42399598 .4423828 .39898683 .4423828 .375 .41636659 .375 .3943634 .375 .38136292 .37998963 .3753662 .3909912 .36434938 .4119873 .3443451 .4249878 .31834413 .4249878 .28233338 .4249878 .24032593 .3639984 .011245728 .24699402 .011245728 .19599915 .011245728 .17298889 .04626465 .17298889 .09828186 .17298889 .15429688 .19999695 .22731018 .23098755 .31033326 .23799134 .3273468 .24299622 .34135438 .24299622 .36035157 .24299622 .405365 .21099854 .4423828 .16099549 .4423828 .066986087 .4423828 .0289917 .29733277 .0289917 .28833009 .0289917 .27833558 .038986207 .27833558 .040985109 .27833558 .050994874 .27833558 .051986696 .28033448 .056991579 .29634095 .085998538 .39736939 .1289978 .42037965 .1579895 .42037965 .1659851 .42037965 .18299866 .42037965 .18299866 .3883667 .18299866 .36335755 .17298889 .3363495 .1659851 .31834413 .12199402 .20230103 .10899353 .15629578 .10899353 .11328125 .10899353 .0052490236 .19699097-.0107421879 .24299622-.0107421879 .41099549-.0107421879 .46798707 .32034303 .46798707 .37236024Z"/>
<path id="font_2_1" d="M.33099366-.2400055C.33099366-.23701477 .33099366-.23500061 .31399537-.21800232 .18899536-.0920105 .15699768 .09700012 .15699768 .25 .15699768 .42399598 .19499207 .59799197 .31799317 .72299197 .33099366 .73498538 .33099366 .7369995 .33099366 .73999026 .33099366 .746994 .32699586 .75 .32099916 .75 .31098939 .75 .22099304 .6819916 .1619873 .5549927 .11099243 .44499208 .09899902 .33399964 .09899902 .25 .09899902 .17199707 .10998535 .050994874 .16499329-.06201172 .22499085-.18501282 .31098939-.25 .32099916-.25 .32699586-.25 .33099366-.24700928 .33099366-.2400055Z"/>
<path id="font_2_2" d="M.2889862 .25C.2889862 .32798768 .27799989 .44898988 .22299195 .56199648 .16299439 .68499758 .07699585 .75 .066986087 .75 .06098938 .75 .056991579 .74598696 .056991579 .73999026 .056991579 .7369995 .056991579 .73498538 .07598877 .71699526 .17399597 .6179962 .23098755 .45899964 .23098755 .25 .23098755 .07899475 .19400025-.09700012 .069992069-.2230072 .056991579-.23500061 .056991579-.23701477 .056991579-.2400055 .056991579-.2460022 .06098938-.25 .066986087-.25 .07699585-.25 .16699219-.18200684 .22599793-.055007936 .2769928 .054992677 .2889862 .16600037 .2889862 .25Z"/>
<path id="font_2_4" d="M.2939911 .64004519C.2939911 .66400149 .2939911 .6660156 .2709961 .6660156 .20899964 .60227969 .12098694 .60227969 .08898926 .60227969V.57128909C.10899353 .57128909 .16799927 .57128909 .21998596 .5972748V.07902527C.21998596 .042999269 .21699524 .0309906 .1269989 .0309906H.09498596V0C.12998963 .0029907227 .21699524 .0029907227 .25698854 .0029907227 .29699708 .0029907227 .38398744 .0029907227 .4189911 0V.0309906H.3869934C.29699708 .0309906 .2939911 .041992189 .2939911 .07902527V.64004519Z"/>
<path id="font_2_5" d="M.1269989 .07699585 .23298645 .18003845C.3889923 .31811524 .44898988 .3721466 .44898988 .47216798 .44898988 .5860901 .35899354 .6660156 .23699951 .6660156 .12399292 .6660156 .049987794 .57411196 .049987794 .48516847 .049987794 .4291687 .099990848 .4291687 .102996829 .4291687 .11999512 .4291687 .15499878 .44117738 .15499878 .48217774 .15499878 .5081787 .13699341 .5341797 .101989749 .5341797 .09399414 .5341797 .09199524 .5341797 .08898926 .5331726 .11199951 .59806826 .1659851 .63500979 .22399903 .63500979 .31498719 .63500979 .35798646 .5541382 .35798646 .47216798 .35798646 .39215089 .30799867 .31311036 .25299073 .25108338L.06098938 .036987306C.049987794 .025985718 .049987794 .023986817 .049987794 0H.42099L.44898988 .17404175H.42399598C.4189911 .14402771 .4119873 .1000061 .4019928 .084991458 .394989 .07699585 .32899476 .07699585 .30699159 .07699585H.1269989Z"/>
<path id="font_3_1" d="M.6589966 .23046875C.6759949 .23046875 .69400027 .23046875 .69400027 .25045777 .69400027 .27046205 .6759949 .27046205 .6589966 .27046205H.117996219C.100997928 .27046205 .08299255 .27046205 .08299255 .25045777 .08299255 .23046875 .100997928 .23046875 .117996219 .23046875H.6589966Z"/>
<path id="font_2_8" d="M.44898988 .20022583C.44898988 .3193512 .36698915 .41944886 .25898744 .41944886 .21099854 .41944886 .16799927 .40345765 .13198853 .36842347V.5637665C.1519928 .5577698 .18499756 .55078127 .21699524 .55078127 .33999635 .55078127 .4099884 .6417694 .4099884 .6547699 .4099884 .6607666 .40699769 .6657715 .3999939 .6657715 .39898683 .6657715 .39698792 .6657715 .3919983 .66278079 .37199403 .6537781 .32299806 .6337738 .2559967 .6337738 .21598816 .6337738 .16999817 .6407776 .12298584 .6617737 .114990238 .66477969 .11299133 .66477969 .11099243 .66477969 .100997928 .66477969 .100997928 .6567688 .100997928 .6407776V.34439088C.100997928 .32637025 .100997928 .31835938 .114990238 .31835938 .12199402 .31835938 .12399292 .32136537 .12799073 .32736207 .13899231 .3433838 .17599488 .39746095 .25698854 .39746095 .30899049 .39746095 .33399964 .35139466 .34199525 .33337403 .35798646 .29632569 .3600006 .25727845 .3600006 .20722962 .3600006 .17222595 .3600006 .11222839 .33599855 .07035828 .31199647 .031463624 .2749939 .0055389406 .22898865 .0055389406 .1559906 .0055389406 .09899902 .058380128 .08198547 .11723328 .084991458 .1162262 .08799744 .115234378 .09899902 .115234378 .13198853 .115234378 .14898682 .14022827 .14898682 .16423035 .14898682 .18823242 .13198853 .21322632 .09899902 .21322632 .084991458 .21322632 .049987794 .20622254 .049987794 .16023255 .049987794 .07434082 .11898804-.022460938 .23098755-.022460938 .34700013-.022460938 .44898988 .073349 .44898988 .20022583Z"/>
<path id="font_2_3" d="M.45999146 .31976319C.45999146 .39982606 .45498658 .47988893 .41999818 .5539398 .37399293 .65000918 .2919922 .6660156 .25 .6660156 .18998719 .6660156 .116989139 .64001467 .07598877 .54693606 .04399109 .47789 .038986207 .39982606 .038986207 .31976319 .038986207 .24472046 .042999269 .15464783 .083999637 .07859802 .1269989-.0024719239 .19999695-.022460938 .24899292-.022460938 .30299378-.022460938 .3789978-.0014648438 .4229889 .09359741 .45498658 .16265869 .45999146 .2407074 .45999146 .31976319M.24899292-.00047302247C.20999146-.00047302247 .15098572 .024551392 .1329956 .12062073 .12199402 .18066406 .12199402 .2727356 .12199402 .3317871 .12199402 .39582826 .12199402 .46188355 .12998963 .5159149 .14898682 .63500979 .22399903 .64401248 .24899292 .64401248 .28199769 .64401248 .34799195 .6259918 .36698915 .52693179 .3769989 .47088624 .3769989 .39482118 .3769989 .3317871 .3769989 .25672914 .3769989 .18867493 .3659973 .12461853 .35099793 .029556275 .2939911-.00047302247 .24899292-.00047302247Z"/>
<path id="font_2_7" d="M.2939911 .16503906V.07800293C.2939911 .041992189 .2919922 .0309906 .21798706 .0309906H.19699097V0C.23799134 .0029907227 .2899933 .0029907227 .33198548 .0029907227 .37399293 .0029907227 .4269867 .0029907227 .46798707 0V.0309906H.44699098C.37298585 .0309906 .37098695 .041992189 .37098695 .07800293V.16503906H.47099305V.19602967H.37098695V.65075686C.37098695 .67074587 .37098695 .6767578 .35499574 .6767578 .34599305 .6767578 .34298707 .6767578 .33499146 .66474917L.027999878 .19602967V.16503906H.2939911M.2999878 .19602967H.055999757L.2999878 .5688019V.19602967Z"/>
<path id="font_2_6" d="M.2899933 .35191346C.37199403 .37893678 .42999269 .4490509 .42999269 .52809146 .42999269 .6100464 .34199525 .6660156 .24598694 .6660156 .14498902 .6660156 .068984989 .60606387 .068984989 .53009036 .068984989 .49710084 .09098816 .47808839 .11999512 .47808839 .15098572 .47808839 .17098999 .50009158 .17098999 .5290985 .17098999 .57910159 .12399292 .57910159 .10899353 .57910159 .13999939 .62802127 .20599365 .64100649 .24198914 .64100649 .2829895 .64100649 .33799745 .6190338 .33799745 .5290985 .33799745 .51708987 .33599855 .45906068 .30999757 .4149933 .27999879 .36691285 .24598694 .36390687 .22099304 .36291505 .21299744 .36190797 .18899536 .35990907 .18199158 .35990907 .17399597 .35890199 .16699219 .35791017 .16699219 .3479004 .16699219 .33691407 .17399597 .33691407 .19099427 .33691407H.23498535C.31698609 .33691407 .35398866 .2686615 .35398866 .17037964 .35398866 .034469606 .2849884 .0055389406 .24099732 .0055389406 .19799805 .0055389406 .12298584 .022491456 .08799744 .08137512 .12298584 .07637024 .1539917 .09837341 .1539917 .1363678 .1539917 .17237854 .1269989 .19238281 .09799194 .19238281 .07398987 .19238281 .041992189 .17837525 .041992189 .1343689 .041992189 .043441774 .1349945-.022460938 .24398804-.022460938 .3659973-.022460938 .45700074 .06838989 .45700074 .17037964 .45700074 .252594 .3939972 .33088685 .2899933 .35191346Z"/>
</defs>
<path transform="matrix(1.00002,0,0,-1,19.655114,72.616)" d="M0 0H14.17339L0 45.35506V0" fill="#cce3f4"/>
<path transform="matrix(1.00002,0,0,-1,19.655114,72.616)" d="M14.17339 0H56.69362V-136.06476L14.17339 0" fill="#ffcccc"/>
<path transform="matrix(1.00002,0,0,-1,19.655114,72.616)" stroke-width=".29887" stroke-linecap="butt" stroke-miterlimit="10" stroke-linejoin="miter" fill="none" stroke="#333333" d="M0 0H67.54945"/>
<path transform="matrix(1.00002,0,0,-1,87.20592,72.616)" d="M3.31755 0C2.33455 .1843 .73723 .73723-.3686 1.38231V-1.38231C.73723-.73723 2.33455-.1843 3.31755 0" fill="#333333"/>
<use data-text="t" xlink:href="#font_1_1" transform="matrix(9.962799,0,0,-9.9626,81.63735,82.214)" fill="#333333"/>
<path transform="matrix(1.00002,0,0,-1,19.655114,72.616)" stroke-width=".29887" stroke-linecap="butt" stroke-miterlimit="10" stroke-linejoin="miter" fill="none" stroke="#333333" d="M0 0H-10.85583"/>
<path transform="matrix(-1.00002,-0,0,1,8.799066,72.616)" d="M3.31755 0C2.33455 .1843 .73723 .73723-.3686 1.38231V-1.38231C.73723-.73723 2.33455-.1843 3.31755 0" fill="#333333"/>
<path transform="matrix(1.00002,0,0,-1,19.655114,72.616)" stroke-width=".29887" stroke-linecap="butt" stroke-miterlimit="10" stroke-linejoin="miter" fill="none" stroke="#333333" d="M0 0V67.54945"/>
<path transform="matrix(0,-1,-1.00002,-0,19.655114,5.0665438)" d="M3.31755 0C2.33455 .1843 .73723 .73723-.3686 1.38231V-1.38231C.73723-.73723 2.33455-.1843 3.31755 0" fill="#333333"/>
<use data-text="v" xlink:href="#font_1_2" transform="matrix(9.962799,0,0,-9.9626,23.125184,10.979996)" fill="#333333"/>
<path transform="matrix(1.00002,0,0,-1,19.655114,72.616)" stroke-width=".29887" stroke-linecap="butt" stroke-miterlimit="10" stroke-linejoin="miter" fill="none" stroke="#333333" d="M0 0V-152.58988"/>
<path transform="matrix(0,1,1.00002,0,19.655114,225.20587)" d="M3.31755 0C2.33455 .1843 .73723 .73723-.3686 1.38231V-1.38231C.73723-.73723 2.33455-.1843 3.31755 0" fill="#333333"/>
<path transform="matrix(1.00002,0,0,-1,19.655114,72.616)" stroke-width=".99628" stroke-linecap="butt" stroke-miterlimit="10" stroke-linejoin="miter" fill="none" stroke="#0074c8" d="M0 45.35506 2.36208 37.79646 4.72415 30.23785 7.08626 22.67924 9.44833 15.12065 11.81044 7.56204 14.17252 .00302 16.53462-7.55556 18.8967-15.11417 21.25879-22.67276 23.62088-30.23135 25.98297-37.79039 28.34506-45.349 30.70715-52.90761 33.06924-60.4662 35.43134-68.0248 37.79341-75.5834 40.15552-83.14244 42.5176-90.70105 44.8797-98.25964 47.24178-105.81824 49.60388-113.37685 51.96596-120.93588 54.32805-128.49448 56.69014-136.05307"/>
<use data-text="v" xlink:href="#font_1_2" transform="matrix(9.962799,0,0,-9.9626,68.083087,151.347)" fill="#0074c8"/>
<use data-text="(" xlink:href="#font_2_1" transform="matrix(9.962799,0,0,-9.9626,73.27019,151.347)" fill="#0074c8"/>
<use data-text="t" xlink:href="#font_1_1" transform="matrix(9.962799,0,0,-9.9626,77.14426,151.347)" fill="#0074c8"/>
<use data-text=")" xlink:href="#font_2_2" transform="matrix(9.962799,0,0,-9.9626,80.74234,151.347)" fill="#0074c8"/>
<path transform="matrix(1.00002,0,0,-1,19.655114,72.616)" stroke-width=".79701" stroke-linecap="butt" stroke-miterlimit="10" stroke-linejoin="miter" fill="none" stroke="#000000" d="M28.3468 2.98883V-2.98883"/>
<use data-text="1" xlink:href="#font_2_4" transform="matrix(9.962799,0,0,-9.9626,45.51163,85.743999)"/>
<path transform="matrix(1.00002,0,0,-1,19.655114,72.616)" stroke-width=".79701" stroke-linecap="butt" stroke-miterlimit="10" stroke-linejoin="miter" fill="none" stroke="#000000" d="M56.69362 2.98883V-2.98883"/>
<use data-text="2" xlink:href="#font_2_5" transform="matrix(9.962799,0,0,-9.9626,73.8592,85.743999)"/>
<path transform="matrix(1.00002,0,0,-1,19.655114,72.616)" stroke-width=".79701" stroke-linecap="butt" stroke-miterlimit="10" stroke-linejoin="miter" fill="none" stroke="#000000" d="M28.3468 1.49442V-1.49442"/>
<path transform="matrix(1.00002,0,0,-1,19.655114,72.616)" stroke-width=".79701" stroke-linecap="butt" stroke-miterlimit="10" stroke-linejoin="miter" fill="none" stroke="#000000" d="M56.69362 1.49442V-1.49442"/>
<path transform="matrix(1.00002,0,0,-1,19.655114,72.616)" stroke-width=".79701" stroke-linecap="butt" stroke-miterlimit="10" stroke-linejoin="miter" fill="none" stroke="#000000" d="M-1.99255-141.73404H1.99255"/>
<use data-text="&#x2212;" xlink:href="#font_3_1" transform="matrix(9.962799,0,0,-9.9626,.21672821,217.145)"/>
<use data-text="5" xlink:href="#font_2_8" transform="matrix(9.962799,0,0,-9.9626,7.965889,217.145)"/>
<use data-text="0" xlink:href="#font_2_3" transform="matrix(9.962799,0,0,-9.9626,12.9472889,217.145)"/>
<path transform="matrix(1.00002,0,0,-1,19.655114,72.616)" stroke-width=".79701" stroke-linecap="butt" stroke-miterlimit="10" stroke-linejoin="miter" fill="none" stroke="#000000" d="M-1.99255-113.38724H1.99255"/>
<use data-text="&#x2212;" xlink:href="#font_3_1" transform="matrix(9.962799,0,0,-9.9626,.21672821,188.79799)"/>
<use data-text="4" xlink:href="#font_2_7" transform="matrix(9.962799,0,0,-9.9626,7.965889,188.79799)"/>
<use data-text="0" xlink:href="#font_2_3" transform="matrix(9.962799,0,0,-9.9626,12.9472889,188.79799)"/>
<path transform="matrix(1.00002,0,0,-1,19.655114,72.616)" stroke-width=".79701" stroke-linecap="butt" stroke-miterlimit="10" stroke-linejoin="miter" fill="none" stroke="#000000" d="M-1.99255-85.04042H1.99255"/>
<use data-text="&#x2212;" xlink:href="#font_3_1" transform="matrix(9.962799,0,0,-9.9626,.21672821,160.452)"/>
<use data-text="3" xlink:href="#font_2_6" transform="matrix(9.962799,0,0,-9.9626,7.965889,160.452)"/>
<use data-text="0" xlink:href="#font_2_3" transform="matrix(9.962799,0,0,-9.9626,12.9472889,160.452)"/>
<path transform="matrix(1.00002,0,0,-1,19.655114,72.616)" stroke-width=".79701" stroke-linecap="butt" stroke-miterlimit="10" stroke-linejoin="miter" fill="none" stroke="#000000" d="M-1.99255-56.69362H1.99255"/>
<use data-text="&#x2212;" xlink:href="#font_3_1" transform="matrix(9.962799,0,0,-9.9626,.21672821,132.105)"/>
<use data-text="2" xlink:href="#font_2_5" transform="matrix(9.962799,0,0,-9.9626,7.965889,132.105)"/>
<use data-text="0" xlink:href="#font_2_3" transform="matrix(9.962799,0,0,-9.9626,12.9472889,132.105)"/>
<path transform="matrix(1.00002,0,0,-1,19.655114,72.616)" stroke-width=".79701" stroke-linecap="butt" stroke-miterlimit="10" stroke-linejoin="miter" fill="none" stroke="#000000" d="M-1.99255-28.3468H1.99255"/>
<use data-text="&#x2212;" xlink:href="#font_3_1" transform="matrix(9.962799,0,0,-9.9626,.21672821,103.757999)"/>
<use data-text="1" xlink:href="#font_2_4" transform="matrix(9.962799,0,0,-9.9626,7.965889,103.757999)"/>
<use data-text="0" xlink:href="#font_2_3" transform="matrix(9.962799,0,0,-9.9626,12.9472889,103.757999)"/>
<path transform="matrix(1.00002,0,0,-1,19.655114,72.616)" stroke-width=".79701" stroke-linecap="butt" stroke-miterlimit="10" stroke-linejoin="miter" fill="none" stroke="#000000" d="M-1.99255 28.3468H1.99255"/>
<use data-text="1" xlink:href="#font_2_4" transform="matrix(9.962799,0,0,-9.9626,7.9658815,47.478998)"/>
<use data-text="0" xlink:href="#font_2_3" transform="matrix(9.962799,0,0,-9.9626,12.947281,47.478998)"/>
<path transform="matrix(1.00002,0,0,-1,19.655114,72.616)" stroke-width=".79701" stroke-linecap="butt" stroke-miterlimit="10" stroke-linejoin="miter" fill="none" stroke="#000000" d="M-1.99255 56.69362H1.99255"/>
<use data-text="2" xlink:href="#font_2_5" transform="matrix(9.962799,0,0,-9.9626,7.9658815,19.132996)"/>
<use data-text="0" xlink:href="#font_2_3" transform="matrix(9.962799,0,0,-9.9626,12.947281,19.132996)"/>
</svg>
