<svg xmlns="http://www.w3.org/2000/svg" xmlns:xlink="http://www.w3.org/1999/xlink" xmlns:inkscape="http://www.inkscape.org/namespaces/inkscape" version="1.1" width="231" height="117" viewBox="0 0 231 117">
<defs>
<path id="font_1_1" d="M.33399964 .30233766C.33999635 .32835389 .36299134 .42037965 .43299867 .42037965 .43798829 .42037965 .46199037 .42037965 .48298646 .40734864 .45498658 .402359 .43499757 .37734986 .43499757 .35334779 .43499757 .33735658 .44599916 .31835938 .47299195 .31835938 .49499513 .31835938 .5269928 .3363495 .5269928 .37635804 .5269928 .42837525 .46798707 .4423828 .43399049 .4423828 .37599183 .4423828 .34098817 .38935853 .32899476 .36634828 .3039856 .43237306 .25 .4423828 .22099304 .4423828 .116989139 .4423828 .05999756 .3133545 .05999756 .28834535 .05999756 .27833558 .069992069 .27833558 .07199097 .27833558 .07998657 .27833558 .08299255 .28033448 .084991458 .28933717 .11898804 .39535523 .18499756 .42037965 .21899414 .42037965 .23799134 .42037965 .272995 .4113617 .272995 .35334779 .272995 .32235719 .2559967 .25532533 .21899414 .11528015 .20298767 .053268434 .16799927 .011245728 .12399292 .011245728 .117996219 .011245728 .09498596 .011245728 .07398987 .024276734 .09899902 .029266358 .12098694 .05027771 .12098694 .07827759 .12098694 .105270389 .09899902 .11328125 .083999637 .11328125 .053985597 .11328125 .0289917 .08728027 .0289917 .055267335 .0289917 .009246826 .07899475-.0107421879 .12298584-.0107421879 .18899536-.0107421879 .22499085 .059280397 .22799683 .0652771 .23999024 .028274537 .27598573-.0107421879 .33599855-.0107421879 .43899537-.0107421879 .49598695 .118270877 .49598695 .14328003 .49598695 .1532898 .4869995 .1532898 .48399354 .1532898 .47499085 .1532898 .47299195 .14929199 .47099305 .14228821 .43798829 .03527832 .36999513 .011245728 .33799745 .011245728 .29899598 .011245728 .2829895 .043273927 .2829895 .07727051 .2829895 .09927368 .2889862 .121276859 .2999878 .16529846L.33399964 .30233766Z"/>
<path id="font_1_2" d="M.48599244 .38136292C.48999024 .39537049 .48999024 .39736939 .48999024 .40437318 .48999024 .42237855 .47599793 .43138124 .46099855 .43138124 .45098878 .43138124 .43499757 .42536927 .42599488 .41036988 .42399598 .405365 .41600038 .37435914 .4119873 .35635377 .40499879 .33035279 .397995 .30334474 .3919983 .27633668L.34700013 .09628296C.34298707 .08126831 .2999878 .011245728 .23399353 .011245728 .18299866 .011245728 .17199707 .055267335 .17199707 .0922699 .17199707 .1382904 .18899536 .20030213 .22299195 .28833009 .23899842 .3293457 .24299622 .3403473 .24299622 .36035157 .24299622 .405365 .21099854 .4423828 .16099549 .4423828 .06599426 .4423828 .0289917 .29733277 .0289917 .28833009 .0289917 .27833558 .038986207 .27833558 .040985109 .27833558 .050994874 .27833558 .051986696 .28033448 .056991579 .29634095 .083999637 .3903656 .12399292 .42037965 .1579895 .42037965 .1659851 .42037965 .18299866 .42037965 .18299866 .3883667 .18299866 .36335755 .17298889 .3373413 .1659851 .31834413 .12599182 .21231079 .10798645 .1552887 .10798645 .10827637 .10798645 .019256592 .17098999-.0107421879 .22999573-.0107421879 .2689972-.0107421879 .30299378 .0062561037 .33099366 .03425598 .31799317-.017745972 .30599977-.06674194 .2659912-.11973572 .23999024-.15385437 .20199585-.18309021 .1559906-.18309021 .14199829-.18309021 .09700012-.18005371 .07998657-.14074707 .09599304-.14074707 .10899353-.14074707 .12298584-.1287384 .1329956-.11973572 .14299011-.10673523 .14299011-.08773804 .14299011-.056747438 .115997318-.052734376 .10598755-.052734376 .08299255-.052734376 .049987794-.068740848 .049987794-.11773682 .049987794-.16796875 .09399414-.20507813 .1559906-.20507813 .25898744-.20507813 .3619995-.11373901 .3899994-.00074768069L.48599244 .38136292Z"/>
<path id="font_2_1" d="M.6589966 .23046875C.6759949 .23046875 .69400027 .23046875 .69400027 .25045777 .69400027 .27046205 .6759949 .27046205 .6589966 .27046205H.117996219C.100997928 .27046205 .08299255 .27046205 .08299255 .25045777 .08299255 .23046875 .100997928 .23046875 .117996219 .23046875H.6589966Z"/>
<path id="font_3_3" d="M.2899933 .35191346C.37199403 .37893678 .42999269 .4490509 .42999269 .52809146 .42999269 .6100464 .34199525 .6660156 .24598694 .6660156 .14498902 .6660156 .068984989 .60606387 .068984989 .53009036 .068984989 .49710084 .09098816 .47808839 .11999512 .47808839 .15098572 .47808839 .17098999 .50009158 .17098999 .5290985 .17098999 .57910159 .12399292 .57910159 .10899353 .57910159 .13999939 .62802127 .20599365 .64100649 .24198914 .64100649 .2829895 .64100649 .33799745 .6190338 .33799745 .5290985 .33799745 .51708987 .33599855 .45906068 .30999757 .4149933 .27999879 .36691285 .24598694 .36390687 .22099304 .36291505 .21299744 .36190797 .18899536 .35990907 .18199158 .35990907 .17399597 .35890199 .16699219 .35791017 .16699219 .3479004 .16699219 .33691407 .17399597 .33691407 .19099427 .33691407H.23498535C.31698609 .33691407 .35398866 .2686615 .35398866 .17037964 .35398866 .034469606 .2849884 .0055389406 .24099732 .0055389406 .19799805 .0055389406 .12298584 .022491456 .08799744 .08137512 .12298584 .07637024 .1539917 .09837341 .1539917 .1363678 .1539917 .17237854 .1269989 .19238281 .09799194 .19238281 .07398987 .19238281 .041992189 .17837525 .041992189 .1343689 .041992189 .043441774 .1349945-.022460938 .24398804-.022460938 .3659973-.022460938 .45700074 .06838989 .45700074 .17037964 .45700074 .252594 .3939972 .33088685 .2899933 .35191346Z"/>
<path id="font_3_2" d="M.1269989 .07699585 .23298645 .18003845C.3889923 .31811524 .44898988 .3721466 .44898988 .47216798 .44898988 .5860901 .35899354 .6660156 .23699951 .6660156 .12399292 .6660156 .049987794 .57411196 .049987794 .48516847 .049987794 .4291687 .099990848 .4291687 .102996829 .4291687 .11999512 .4291687 .15499878 .44117738 .15499878 .48217774 .15499878 .5081787 .13699341 .5341797 .101989749 .5341797 .09399414 .5341797 .09199524 .5341797 .08898926 .5331726 .11199951 .59806826 .1659851 .63500979 .22399903 .63500979 .31498719 .63500979 .35798646 .5541382 .35798646 .47216798 .35798646 .39215089 .30799867 .31311036 .25299073 .25108338L.06098938 .036987306C.049987794 .025985718 .049987794 .023986817 .049987794 0H.42099L.44898988 .17404175H.42399598C.4189911 .14402771 .4119873 .1000061 .4019928 .084991458 .394989 .07699585 .32899476 .07699585 .30699159 .07699585H.1269989Z"/>
<path id="font_3_1" d="M.2939911 .64004519C.2939911 .66400149 .2939911 .6660156 .2709961 .6660156 .20899964 .60227969 .12098694 .60227969 .08898926 .60227969V.57128909C.10899353 .57128909 .16799927 .57128909 .21998596 .5972748V.07902527C.21998596 .042999269 .21699524 .0309906 .1269989 .0309906H.09498596V0C.12998963 .0029907227 .21699524 .0029907227 .25698854 .0029907227 .29699708 .0029907227 .38398744 .0029907227 .4189911 0V.0309906H.3869934C.29699708 .0309906 .2939911 .041992189 .2939911 .07902527V.64004519Z"/>
</defs>
<path transform="matrix(1.00005,0,0,-1,115.786838,87.038)" stroke-width=".79701" stroke-linecap="butt" stroke-miterlimit="10" stroke-linejoin="miter" fill="none" stroke="#bfbfbf" d="M-113.38724-28.3468H113.38724M-113.38724 0H113.38724M-113.38724 28.3468H113.38724M-113.38724 56.69362H113.38724M-113.38724 85.03047H113.38724M-113.38724-28.3468V85.04042M-85.04042-28.3468V85.04042M-56.69362-28.3468V85.04042M-28.3468-28.3468V85.04042M0-28.3468V85.04042M28.3468-28.3468V85.04042M56.69362-28.3468V85.04042M85.04042-28.3468V85.04042M113.37727-28.3468V85.04042M113.38724 85.04042"/>
<path transform="matrix(1.00005,0,0,-1,115.786838,87.038)" stroke-width=".29887" stroke-linecap="butt" stroke-miterlimit="10" stroke-linejoin="miter" fill="none" stroke="#333333" d="M0 0H110.06967"/>
<path transform="matrix(1.00005,0,0,-1,225.862,87.038)" d="M3.31755 0C2.33455 .1843 .73723 .73723-.3686 1.38231V-1.38231C.73723-.73723 2.33455-.1843 3.31755 0" fill="#333333"/>
<use data-text="x" xlink:href="#font_1_1" transform="matrix(9.963098,0,0,-9.9626,219.246,94.798007)" fill="#333333"/>
<path transform="matrix(1.00005,0,0,-1,115.786838,87.038)" stroke-width=".29887" stroke-linecap="butt" stroke-miterlimit="10" stroke-linejoin="miter" fill="none" stroke="#333333" d="M0 0H-110.06967"/>
<path transform="matrix(-1.00005,-0,0,1,5.7116625,87.038)" d="M3.31755 0C2.33455 .1843 .73723 .73723-.3686 1.38231V-1.38231C.73723-.73723 2.33455-.1843 3.31755 0" fill="#333333"/>
<path transform="matrix(1.00005,0,0,-1,115.786838,87.038)" stroke-width=".29887" stroke-linecap="butt" stroke-miterlimit="10" stroke-linejoin="miter" fill="none" stroke="#333333" d="M0 0V81.72287"/>
<path transform="matrix(0,-1,-1.00005,-0,115.786838,5.315132)" d="M3.31755 0C2.33455 .1843 .73723 .73723-.3686 1.38231V-1.38231C.73723-.73723 2.33455-.1843 3.31755 0" fill="#333333"/>
<use data-text="y" xlink:href="#font_1_2" transform="matrix(9.963098,0,0,-9.9626,119.25701,10.260002)" fill="#333333"/>
<path transform="matrix(1.00005,0,0,-1,115.786838,87.038)" stroke-width=".29887" stroke-linecap="butt" stroke-miterlimit="10" stroke-linejoin="miter" fill="none" stroke="#333333" d="M0 0V-25.02925"/>
<path transform="matrix(0,1,1.00005,0,115.786838,112.06725)" d="M3.31755 0C2.33455 .1843 .73723 .73723-.3686 1.38231V-1.38231C.73723-.73723 2.33455-.1843 3.31755 0" fill="#333333"/>
<path transform="matrix(1.00005,0,0,-1,115.786838,87.038)" stroke-width=".99628" stroke-linecap="butt" stroke-miterlimit="10" stroke-linejoin="miter" fill="none" stroke="#0074c8" d="M0 0C0 0 .42656 3.2882 .5904 4.09094 .75423 4.89368 1.01697 5.37013 1.1808 5.78561 1.34464 6.20108 1.60739 6.75293 1.77122 7.08539 1.93506 7.41786 2.1978 7.89581 2.36163 8.18188 2.52547 8.46796 2.78822 8.89214 2.95206 9.1473 3.11588 9.40247 3.37863 9.78842 3.54247 10.02103 3.7063 10.25363 3.96904 10.60873 4.13287 10.82382 4.2967 11.0389 4.55946 11.3702 4.7233 11.57124 4.88713 11.77228 5.14987 12.08336 5.3137 12.27283 5.47754 12.46228 5.7403 12.75703 5.90413 12.93677 6.06795 13.1165 6.3307 13.397 6.49454 13.56827 6.65837 13.73955 6.92111 14.00722 7.08495 14.17123 7.24878 14.33525 7.51154 14.59282 7.67537 14.7504 7.8392 14.90797 8.10194 15.15532 8.26578 15.30708 8.42961 15.45883 8.69237 15.69768 8.8562 15.84428 9.02002 15.99089 9.28278 16.22179 9.44661 16.36377 9.61044 16.50575 9.87318 16.72993 10.03702 16.86766 10.20085 17.0054 10.46361 17.22261 10.62744 17.35645 10.79128 17.49026 11.05402 17.70195 11.21785 17.83223 11.38168 17.96251 11.64444 18.1685 11.80827 18.29549 11.97209 18.42247 12.23485 18.62361 12.39868 18.74748 12.56252 18.87135 12.82526 19.06726 12.98909 19.18823 13.15292 19.3092 13.41568 19.50107 13.57951 19.61946 13.74335 19.73785 14.16992 20.04163 14.16992 20.04163"/>
<path transform="matrix(1.00005,0,0,-1,115.786838,87.038)" stroke-width=".99628" stroke-linecap="butt" stroke-miterlimit="10" stroke-linejoin="miter" fill="none" stroke="#0074c8" d="M14.17339 20.04422C14.17339 20.04422 17.16006 22.0621 18.30716 22.78046 19.45425 23.49881 21.29382 24.57434 22.44092 25.2217 23.58803 25.86906 25.4276 26.85211 26.57469 27.44626 27.72179 28.04039 29.56136 28.95154 30.70845 29.50385 31.85555 30.05614 33.69511 30.90863 34.84221 31.4269 35.9893 31.94516 37.82889 32.7494 38.97598 33.23923 40.12308 33.72905 41.96265 34.49164 43.10974 34.95728 44.25684 35.42291 46.09642 36.1506 47.24352 36.59529 48.39061 37.03998 50.2302 37.73604 51.37729 38.16238 52.52438 38.58873 54.36395 39.25792 55.51105 39.66805 56.65814 40.07819 58.49773 40.72275 59.64482 41.11835 60.79192 41.51395 62.63147 42.13676 63.77856 42.51933 64.92566 42.9019 66.76524 43.50508 67.91234 43.87578 69.05943 44.24648 70.899 44.83124 72.04611 45.19113 73.1932 45.55103 75.03278 46.11964 76.17987 46.46971 77.32697 46.81976 79.16655 47.37325 80.31364 47.71413 81.46074 48.055 83.30031 48.59412 84.4474 48.92653 85.5945 49.25893 87.43408 49.78539 88.58118 50.10994 89.72827 50.43448 91.56784 50.94853 92.71495 51.26569 93.86205 51.58284 95.7016 52.08553 96.8487 52.3959 97.99579 52.70628 99.83537 53.1988 100.98247 53.50278 102.12956 53.80675 103.96913 54.28888 105.11623 54.58672 106.26332 54.88455 108.1029 55.35733 109.25 55.64946 110.3971 55.9416 113.38376 56.6923 113.38376 56.6923"/>
<path transform="matrix(1.00005,0,0,-1,115.786838,87.038)" stroke-width=".99628" stroke-linecap="butt" stroke-miterlimit="10" stroke-linejoin="miter" fill="none" stroke="#0074c8" d="M-14.17339 20.04422C-14.17339 20.04422-13.74681 19.74046-13.58298 19.62207-13.41914 19.50368-13.15639 19.31181-12.99255 19.19083-12.82874 19.06985-12.56598 18.87393-12.40215 18.75006-12.23831 18.6262-11.97557 18.42505-11.81174 18.29807-11.6479 18.17108-11.38515 17.96504-11.22131 17.83482-11.05748 17.70459-10.79474 17.49329-10.6309 17.35947-10.46707 17.22565-10.20432 17.008-10.04048 16.87027-9.87666 16.73254-9.6139 16.50865-9.45007 16.36679-9.28624 16.22493-9.0235 15.9943-8.85966 15.84775-8.69583 15.7012-8.43307 15.4623-8.26924 15.31053-8.10541 15.15877-7.84267 14.91145-7.67883 14.75386-7.515 14.59628-7.25224 14.3387-7.08841 14.17468-6.92459 14.01067-6.66183 13.743-6.498 13.57173-6.33417 13.40047-6.07143 13.11983-5.9076 12.94022-5.74376 12.7606-5.481 12.46648-5.31717 12.27715-5.15334 12.0878-4.8906 11.77661-4.72676 11.57558-4.56293 11.37453-4.30017 11.04315-4.13634 10.82814-3.97252 10.61311-3.70976 10.25821-3.54593 10.02579-3.3821 9.79337-3.11935 9.40791-2.95552 9.15292-2.79169 8.89792-2.52893 8.47389-2.3651 8.18793-2.20126 7.90196-1.93852 7.424-1.77469 7.09189-1.61086 6.75977-1.3481 6.20895-1.18427 5.79425-1.02045 5.37956-.75769 4.86388-.59386 4.10304-.43002 3.3422-.00345 .31055-.00345 .31055"/>
<path transform="matrix(1.00005,0,0,-1,115.786838,87.038)" stroke-width=".99628" stroke-linecap="butt" stroke-miterlimit="10" stroke-linejoin="miter" fill="none" stroke="#0074c8" d="M-113.38724 56.69362C-113.38724 56.69362-110.40056 55.94252-109.25346 55.65031-108.10637 55.35812-106.2668 54.8854-105.11969 54.58757-103.9726 54.28973-102.13303 53.8076-100.98593 53.50365-99.83884 53.19968-97.99925 52.70715-96.85216 52.39677-95.70506 52.0864-93.8655 51.58371-92.7184 51.26656-91.5713 50.94939-89.73172 50.43535-88.58463 50.11081-87.43753 49.78625-85.59796 49.25978-84.45085 48.92738-83.30376 48.59497-81.4642 48.05579-80.31711 47.71498-79.17001 47.37416-77.33043 46.82098-76.18333 46.471-75.03624 46.121-73.19667 45.5523-72.04958 45.19241-70.90248 44.83252-69.0629 44.24777-67.9158 43.87706-66.7687 43.50636-64.92914 42.9032-63.78204 42.52063-62.63493 42.13805-60.79536 41.5153-59.64827 41.11964-58.50117 40.72398-56.66159 40.07906-55.5145 39.66891-54.3674 39.25879-52.52783 38.59001-51.38074 38.16368-50.23364 37.73734-48.39407 37.04085-47.24698 36.59616-46.09988 36.15147-44.26031 35.42415-43.11322 34.95857-41.96611 34.493-40.12654 33.73036-38.97945 33.24052-37.83235 32.7507-35.99277 31.94641-34.84567 31.42819-33.69858 30.90997-31.85901 30.0578-30.71191 29.50555-29.56482 28.95331-27.72523 28.04211-26.57814 27.44798-25.43105 26.85387-23.59148 25.87073-22.44438 25.22343-21.29729 24.57614-19.4577 23.50092-18.31061 22.78262-17.16351 22.06433-14.17685 20.04639-14.17685 20.04639"/>
<path transform="matrix(1.00005,0,0,-1,115.786838,87.038)" stroke-width=".79701" stroke-linecap="butt" stroke-miterlimit="10" stroke-linejoin="miter" fill="none" stroke="#000000" d="M-85.04042 2.98883V-2.98883"/>
<use data-text="&#x2212;" xlink:href="#font_2_1" transform="matrix(9.963098,0,0,-9.9626,24.376282,100.166)"/>
<use data-text="3" xlink:href="#font_3_3" transform="matrix(9.963098,0,0,-9.9626,32.12468,100.166)"/>
<path transform="matrix(1.00005,0,0,-1,115.786838,87.038)" stroke-width=".79701" stroke-linecap="butt" stroke-miterlimit="10" stroke-linejoin="miter" fill="none" stroke="#000000" d="M-56.69362 2.98883V-2.98883"/>
<use data-text="&#x2212;" xlink:href="#font_2_1" transform="matrix(9.963098,0,0,-9.9626,52.724687,100.166)"/>
<use data-text="2" xlink:href="#font_3_2" transform="matrix(9.963098,0,0,-9.9626,60.473085,100.166)"/>
<path transform="matrix(1.00005,0,0,-1,115.786838,87.038)" stroke-width=".79701" stroke-linecap="butt" stroke-miterlimit="10" stroke-linejoin="miter" fill="none" stroke="#000000" d="M-28.3468 2.98883V-2.98883"/>
<use data-text="&#x2212;" xlink:href="#font_2_1" transform="matrix(9.963098,0,0,-9.9626,81.0731,100.166)"/>
<use data-text="1" xlink:href="#font_3_1" transform="matrix(9.963098,0,0,-9.9626,88.821498,100.166)"/>
<path transform="matrix(1.00005,0,0,-1,115.786838,87.038)" stroke-width=".79701" stroke-linecap="butt" stroke-miterlimit="10" stroke-linejoin="miter" fill="none" stroke="#000000" d="M28.3468 2.98883V-2.98883"/>
<use data-text="1" xlink:href="#font_3_1" transform="matrix(9.963098,0,0,-9.9626,141.64414,100.166)"/>
<path transform="matrix(1.00005,0,0,-1,115.786838,87.038)" stroke-width=".79701" stroke-linecap="butt" stroke-miterlimit="10" stroke-linejoin="miter" fill="none" stroke="#000000" d="M56.69362 2.98883V-2.98883"/>
<use data-text="2" xlink:href="#font_3_2" transform="matrix(9.963098,0,0,-9.9626,169.99254,100.166)"/>
<path transform="matrix(1.00005,0,0,-1,115.786838,87.038)" stroke-width=".79701" stroke-linecap="butt" stroke-miterlimit="10" stroke-linejoin="miter" fill="none" stroke="#000000" d="M-1.99255 28.3468H1.99255"/>
<use data-text="1" xlink:href="#font_3_1" transform="matrix(9.963098,0,0,-9.9626,109.0785,61.901)"/>
<path transform="matrix(1.00005,0,0,-1,115.786838,87.038)" stroke-width=".79701" stroke-linecap="butt" stroke-miterlimit="10" stroke-linejoin="miter" fill="none" stroke="#000000" d="M-1.99255 56.69362H1.99255"/>
<use data-text="2" xlink:href="#font_3_2" transform="matrix(9.963098,0,0,-9.9626,109.0785,33.555)"/>
</svg>
