<svg xmlns="http://www.w3.org/2000/svg" xmlns:xlink="http://www.w3.org/1999/xlink" xmlns:inkscape="http://www.inkscape.org/namespaces/inkscape" version="1.1" width="260" height="275" viewBox="0 0 260 275">
<defs>
<path id="font_1_1" d="M.33399964 .30233766C.33999635 .32835389 .36299134 .42037965 .43299867 .42037965 .43798829 .42037965 .46199037 .42037965 .48298646 .40734864 .45498658 .402359 .43499757 .37734986 .43499757 .35334779 .43499757 .33735658 .44599916 .31835938 .47299195 .31835938 .49499513 .31835938 .5269928 .3363495 .5269928 .37635804 .5269928 .42837525 .46798707 .4423828 .43399049 .4423828 .37599183 .4423828 .34098817 .38935853 .32899476 .36634828 .3039856 .43237306 .25 .4423828 .22099304 .4423828 .116989139 .4423828 .05999756 .3133545 .05999756 .28834535 .05999756 .27833558 .069992069 .27833558 .07199097 .27833558 .07998657 .27833558 .08299255 .28033448 .084991458 .28933717 .11898804 .39535523 .18499756 .42037965 .21899414 .42037965 .23799134 .42037965 .272995 .4113617 .272995 .35334779 .272995 .32235719 .2559967 .25532533 .21899414 .11528015 .20298767 .053268434 .16799927 .011245728 .12399292 .011245728 .117996219 .011245728 .09498596 .011245728 .07398987 .024276734 .09899902 .029266358 .12098694 .05027771 .12098694 .07827759 .12098694 .105270389 .09899902 .11328125 .083999637 .11328125 .053985597 .11328125 .0289917 .08728027 .0289917 .055267335 .0289917 .009246826 .07899475-.0107421879 .12298584-.0107421879 .18899536-.0107421879 .22499085 .059280397 .22799683 .0652771 .23999024 .028274537 .27598573-.0107421879 .33599855-.0107421879 .43899537-.0107421879 .49598695 .118270877 .49598695 .14328003 .49598695 .1532898 .4869995 .1532898 .48399354 .1532898 .47499085 .1532898 .47299195 .14929199 .47099305 .14228821 .43798829 .03527832 .36999513 .011245728 .33799745 .011245728 .29899598 .011245728 .2829895 .043273927 .2829895 .07727051 .2829895 .09927368 .2889862 .121276859 .2999878 .16529846L.33399964 .30233766Z"/>
<path id="font_1_2" d="M.48599244 .38136292C.48999024 .39537049 .48999024 .39736939 .48999024 .40437318 .48999024 .42237855 .47599793 .43138124 .46099855 .43138124 .45098878 .43138124 .43499757 .42536927 .42599488 .41036988 .42399598 .405365 .41600038 .37435914 .4119873 .35635377 .40499879 .33035279 .397995 .30334474 .3919983 .27633668L.34700013 .09628296C.34298707 .08126831 .2999878 .011245728 .23399353 .011245728 .18299866 .011245728 .17199707 .055267335 .17199707 .0922699 .17199707 .1382904 .18899536 .20030213 .22299195 .28833009 .23899842 .3293457 .24299622 .3403473 .24299622 .36035157 .24299622 .405365 .21099854 .4423828 .16099549 .4423828 .06599426 .4423828 .0289917 .29733277 .0289917 .28833009 .0289917 .27833558 .038986207 .27833558 .040985109 .27833558 .050994874 .27833558 .051986696 .28033448 .056991579 .29634095 .083999637 .3903656 .12399292 .42037965 .1579895 .42037965 .1659851 .42037965 .18299866 .42037965 .18299866 .3883667 .18299866 .36335755 .17298889 .3373413 .1659851 .31834413 .12599182 .21231079 .10798645 .1552887 .10798645 .10827637 .10798645 .019256592 .17098999-.0107421879 .22999573-.0107421879 .2689972-.0107421879 .30299378 .0062561037 .33099366 .03425598 .31799317-.017745972 .30599977-.06674194 .2659912-.11973572 .23999024-.15385437 .20199585-.18309021 .1559906-.18309021 .14199829-.18309021 .09700012-.18005371 .07998657-.14074707 .09599304-.14074707 .10899353-.14074707 .12298584-.1287384 .1329956-.11973572 .14299011-.10673523 .14299011-.08773804 .14299011-.056747438 .115997318-.052734376 .10598755-.052734376 .08299255-.052734376 .049987794-.068740848 .049987794-.11773682 .049987794-.16796875 .09399414-.20507813 .1559906-.20507813 .25898744-.20507813 .3619995-.11373901 .3899994-.00074768069L.48599244 .38136292Z"/>
<path id="font_2_1" d="M.6589966 .23046875C.6759949 .23046875 .69400027 .23046875 .69400027 .25045777 .69400027 .27046205 .6759949 .27046205 .6589966 .27046205H.117996219C.100997928 .27046205 .08299255 .27046205 .08299255 .25045777 .08299255 .23046875 .100997928 .23046875 .117996219 .23046875H.6589966Z"/>
<path id="font_3_3" d="M.44898988 .20022583C.44898988 .3193512 .36698915 .41944886 .25898744 .41944886 .21099854 .41944886 .16799927 .40345765 .13198853 .36842347V.5637665C.1519928 .5577698 .18499756 .55078127 .21699524 .55078127 .33999635 .55078127 .4099884 .6417694 .4099884 .6547699 .4099884 .6607666 .40699769 .6657715 .3999939 .6657715 .39898683 .6657715 .39698792 .6657715 .3919983 .66278079 .37199403 .6537781 .32299806 .6337738 .2559967 .6337738 .21598816 .6337738 .16999817 .6407776 .12298584 .6617737 .114990238 .66477969 .11299133 .66477969 .11099243 .66477969 .100997928 .66477969 .100997928 .6567688 .100997928 .6407776V.34439088C.100997928 .32637025 .100997928 .31835938 .114990238 .31835938 .12199402 .31835938 .12399292 .32136537 .12799073 .32736207 .13899231 .3433838 .17599488 .39746095 .25698854 .39746095 .30899049 .39746095 .33399964 .35139466 .34199525 .33337403 .35798646 .29632569 .3600006 .25727845 .3600006 .20722962 .3600006 .17222595 .3600006 .11222839 .33599855 .07035828 .31199647 .031463624 .2749939 .0055389406 .22898865 .0055389406 .1559906 .0055389406 .09899902 .058380128 .08198547 .11723328 .084991458 .1162262 .08799744 .115234378 .09899902 .115234378 .13198853 .115234378 .14898682 .14022827 .14898682 .16423035 .14898682 .18823242 .13198853 .21322632 .09899902 .21322632 .084991458 .21322632 .049987794 .20622254 .049987794 .16023255 .049987794 .07434082 .11898804-.022460938 .23098755-.022460938 .34700013-.022460938 .44898988 .073349 .44898988 .20022583Z"/>
<path id="font_3_2" d="M.2899933 .35191346C.37199403 .37893678 .42999269 .4490509 .42999269 .52809146 .42999269 .6100464 .34199525 .6660156 .24598694 .6660156 .14498902 .6660156 .068984989 .60606387 .068984989 .53009036 .068984989 .49710084 .09098816 .47808839 .11999512 .47808839 .15098572 .47808839 .17098999 .50009158 .17098999 .5290985 .17098999 .57910159 .12399292 .57910159 .10899353 .57910159 .13999939 .62802127 .20599365 .64100649 .24198914 .64100649 .2829895 .64100649 .33799745 .6190338 .33799745 .5290985 .33799745 .51708987 .33599855 .45906068 .30999757 .4149933 .27999879 .36691285 .24598694 .36390687 .22099304 .36291505 .21299744 .36190797 .18899536 .35990907 .18199158 .35990907 .17399597 .35890199 .16699219 .35791017 .16699219 .3479004 .16699219 .33691407 .17399597 .33691407 .19099427 .33691407H.23498535C.31698609 .33691407 .35398866 .2686615 .35398866 .17037964 .35398866 .034469606 .2849884 .0055389406 .24099732 .0055389406 .19799805 .0055389406 .12298584 .022491456 .08799744 .08137512 .12298584 .07637024 .1539917 .09837341 .1539917 .1363678 .1539917 .17237854 .1269989 .19238281 .09799194 .19238281 .07398987 .19238281 .041992189 .17837525 .041992189 .1343689 .041992189 .043441774 .1349945-.022460938 .24398804-.022460938 .3659973-.022460938 .45700074 .06838989 .45700074 .17037964 .45700074 .252594 .3939972 .33088685 .2899933 .35191346Z"/>
<path id="font_3_1" d="M.2939911 .64004519C.2939911 .66400149 .2939911 .6660156 .2709961 .6660156 .20899964 .60227969 .12098694 .60227969 .08898926 .60227969V.57128909C.10899353 .57128909 .16799927 .57128909 .21998596 .5972748V.07902527C.21998596 .042999269 .21699524 .0309906 .1269989 .0309906H.09498596V0C.12998963 .0029907227 .21699524 .0029907227 .25698854 .0029907227 .29699708 .0029907227 .38398744 .0029907227 .4189911 0V.0309906H.3869934C.29699708 .0309906 .2939911 .041992189 .2939911 .07902527V.64004519Z"/>
</defs>
<path transform="matrix(1.00006,0,0,-1,130.02973,137.353)" stroke-width=".79701" stroke-linecap="butt" stroke-miterlimit="10" stroke-linejoin="miter" fill="none" stroke="#bfbfbf" d="M-119.05606-119.05606H119.05606M-119.05606-99.2134H119.05606M-119.05606-79.37071H119.05606M-119.05606-59.52802H119.05606M-119.05606-39.68535H119.05606M-119.05606-19.84267H119.05606M-119.05606 0H119.05606M-119.05606 19.84267H119.05606M-119.05606 39.68535H119.05606M-119.05606 59.52802H119.05606M-119.05606 79.37071H119.05606M-119.05606 99.2134H119.05606M-119.05606 119.0491H119.05606M-119.05606-119.05606V119.05606M-99.2134-119.05606V119.05606M-79.37071-119.05606V119.05606M-59.52802-119.05606V119.05606M-39.68535-119.05606V119.05606M-19.84267-119.05606V119.05606M0-119.05606V119.05606M19.84267-119.05606V119.05606M39.68535-119.05606V119.05606M59.52802-119.05606V119.05606M79.37071-119.05606V119.05606M99.2134-119.05606V119.05606M119.0491-119.05606V119.05606M119.05606 119.05606"/>
<path transform="matrix(1.00006,0,0,-1,130.02973,137.353)" stroke-width=".29887" stroke-linecap="butt" stroke-miterlimit="10" stroke-linejoin="miter" fill="none" stroke="#333333" d="M-119.05606 0H125.65985"/>
<path transform="matrix(1.00006,0,0,-1,255.69712,137.353)" d="M3.31755 0C2.33455 .1843 .73723 .73723-.3686 1.38231V-1.38231C.73723-.73723 2.33455-.1843 3.31755 0" fill="#333333"/>
<use data-text="x" xlink:href="#font_1_1" transform="matrix(9.963197,0,0,-9.9626,251.20699,145.11299)" fill="#333333"/>
<path transform="matrix(1.00006,0,0,-1,130.02973,137.353)" stroke-width=".29887" stroke-linecap="butt" stroke-miterlimit="10" stroke-linejoin="miter" fill="none" stroke="#333333" d="M0 0H-125.65985"/>
<path transform="matrix(-1.00006,-0,0,1,4.362335,137.353)" d="M3.31755 0C2.33455 .1843 .73723 .73723-.3686 1.38231V-1.38231C.73723-.73723 2.33455-.1843 3.31755 0" fill="#333333"/>
<path transform="matrix(1.00006,0,0,-1,130.02973,137.353)" stroke-width=".29887" stroke-linecap="butt" stroke-miterlimit="10" stroke-linejoin="miter" fill="none" stroke="#333333" d="M0 0V125.65985"/>
<path transform="matrix(0,-1,-1.00006,-0,130.02973,11.693146)" d="M3.31755 0C2.33455 .1843 .73723 .73723-.3686 1.38231V-1.38231C.73723-.73723 2.33455-.1843 3.31755 0" fill="#333333"/>
<use data-text="y" xlink:href="#font_1_2" transform="matrix(9.963197,0,0,-9.9626,133.49994,14.511993)" fill="#333333"/>
<path transform="matrix(1.00006,0,0,-1,130.02973,137.353)" stroke-width=".29887" stroke-linecap="butt" stroke-miterlimit="10" stroke-linejoin="miter" fill="none" stroke="#333333" d="M0 0V-125.65985"/>
<path transform="matrix(0,1,1.00006,0,130.02973,263.01286)" d="M3.31755 0C2.33455 .1843 .73723 .73723-.3686 1.38231V-1.38231C.73723-.73723 2.33455-.1843 3.31755 0" fill="#333333"/>
<path transform="matrix(1.00006,0,0,-1,130.02973,137.353)" stroke-width=".99628" stroke-linecap="butt" stroke-miterlimit="10" stroke-linejoin="miter" fill="none" stroke="#0074c8" d="M-119.05606 4.7487C-119.05606 4.7487-111.88785 22.59572-109.13472 31.79836-106.38159 41.00099-101.96652 60.48639-99.2134 71.07495-96.46025 81.66354-92.04518 99.7642-89.29204 108.11346-86.53891 116.4627-82.12383 127.59207-79.37071 131.25064-76.61758 134.90921-72.20248 136.25676-69.44937 134.48186-66.69624 132.70696-62.28116 124.7207-59.52802 118.45839-56.7749 112.19608-52.3598 97.98587-49.60667 89.34744-46.85356 80.70903-42.43848 64.75793-39.68535 56.1987-36.93222 47.63948-32.51714 34.1903-29.764 27.65851-27.01086 21.1267-22.5958 12.79099-19.84267 9.122-17.08954 5.45302-12.67444 2.48067-9.92133 1.21501-7.1682-.05061-2.75311 .33714 0 0 2.75311-.33714 7.1682 .05061 9.92133-1.21501 12.67444-2.48067 17.08954-5.45302 19.84267-9.122 22.5958-12.79099 27.01086-21.1267 29.764-27.65851 32.51714-34.1903 36.93222-47.63948 39.68535-56.1987 42.43848-64.75793 46.85356-80.70903 49.60667-89.34744 52.3598-97.98587 56.7749-112.19608 59.52802-118.45839 62.28116-124.7207 66.69624-132.70696 69.44937-134.48186 72.20248-136.25676 76.61758-134.90921 79.37071-131.25064 82.12383-127.59207 86.53891-116.4627 89.29204-108.11346 92.04518-99.7642 96.46025-81.66354 99.2134-71.07495 101.96652-60.48639 106.38159-41.00099 109.13472-31.79836 111.88785-22.59572 119.05606-4.7487 119.05606-4.7487"/>
<path transform="matrix(1.00006,0,0,-1,130.02973,137.353)" stroke-width=".99628" stroke-linecap="butt" stroke-dasharray="2.98883,2.98883" stroke-miterlimit="10" stroke-linejoin="miter" fill="none" stroke="#000000" d="M-119.05606 32.47505C-119.05606 32.47505-111.88785 64.49393-109.13472 71.21513-106.38159 77.93636-101.96652 82.02116-99.2134 80.91698-96.46025 79.81279-92.04518 70.70293-89.29204 63.25699-86.53891 55.81108-82.12383 37.98001-79.37071 27.25188-76.61758 16.52376-72.20248-3.6386-69.44937-14.06389-66.69624-24.48918-62.28116-40.75983-59.52802-47.88632-56.7749-55.0128-52.3598-63.16557-49.60667-65.4267-46.85356-67.6878-42.43848-66.5831-39.68535-64.18288-36.93222-61.78268-32.51714-53.45064-29.764-48.12761-27.01086-42.8046-22.5958-31.4988-19.84267-25.81822-17.08954-20.13768-12.67444-10.76826-9.92133-7.18605-7.1682-3.60382-2.75311 0 0 0 2.75311 0 7.1682-3.60382 9.92133-7.18605 12.67444-10.76826 17.08954-20.13768 19.84267-25.81822 22.5958-31.4988 27.01086-42.8046 29.764-48.12761 32.51714-53.45064 36.93222-61.78268 39.68535-64.18288 42.43848-66.5831 46.85356-67.6878 49.60667-65.4267 52.3598-63.16557 56.7749-55.0128 59.52802-47.88632 62.28116-40.75983 66.69624-24.48918 69.44937-14.06389 72.20248-3.6386 76.61758 16.52376 79.37071 27.25188 82.12383 37.98001 86.53891 55.81108 89.29204 63.25699 92.04518 70.70293 96.46025 79.81279 99.2134 80.91698 101.96652 82.02116 106.38159 77.93636 109.13472 71.21513 111.88785 64.49393 119.05606 32.47505 119.05606 32.47505"/>
<path transform="matrix(1.00006,0,0,-1,130.02973,137.353)" stroke-width=".99628" stroke-linecap="butt" stroke-dasharray=".99628,1.99255" stroke-miterlimit="10" stroke-linejoin="miter" fill="none" stroke="#ff0000" d="M-119.05606 103.21849C-119.05606 103.21849-111.88785 65.0345-109.13472 49.33751-106.38159 33.64055-101.96652 4.92488-99.2134-9.91435-96.46025-24.75363-92.04518-47.62401-89.29204-57.61357-86.53891-67.60315-82.12383-78.95149-79.37071-81.9122-76.61758-84.8729-72.20248-82.91797-69.44937-78.95227-66.69624-74.98656-62.28116-62.06606-59.52802-53.33022-56.7749-44.59438-52.3598-26.10524-49.60667-15.99045-46.85356-5.87564-42.43848 11.56708-39.68535 19.57018-36.93222 27.57324-32.51714 38.28503-29.764 41.69032-27.01086 45.0956-22.5958 46.04987-19.84267 44.11313-17.08954 42.17636-12.67444 33.85208-9.92133 27.73148-7.1682 21.61087-2.75311 7.69537 0 0 2.75311-7.69537 7.1682-21.61087 9.92133-27.73148 12.67444-33.85208 17.08954-42.17636 19.84267-44.11313 22.5958-46.04987 27.01086-45.0956 29.764-41.69032 32.51714-38.28503 36.93222-27.57324 39.68535-19.57018 42.43848-11.56708 46.85356 5.87564 49.60667 15.99045 52.3598 26.10524 56.7749 44.59438 59.52802 53.33022 62.28116 62.06606 66.69624 74.98656 69.44937 78.95227 72.20248 82.91797 76.61758 84.8729 79.37071 81.9122 82.12383 78.95149 86.53891 67.60315 89.29204 57.61357 92.04518 47.62401 96.46025 24.75363 99.2134 9.91435 101.96652-4.92488 106.38159-33.64055 109.13472-49.33751 111.88785-65.0345 119.05606-103.21849 119.05606-103.21849"/>
<path transform="matrix(1.00006,0,0,-1,130.02973,137.353)" stroke-width=".79701" stroke-linecap="butt" stroke-miterlimit="10" stroke-linejoin="miter" fill="none" stroke="#000000" d="M-99.2134 2.09216V-2.09216"/>
<use data-text="&#x2212;" xlink:href="#font_2_1" transform="matrix(9.963197,0,0,-9.9626,24.444382,149.58499)"/>
<use data-text="5" xlink:href="#font_3_3" transform="matrix(9.963197,0,0,-9.9626,32.193849,149.58499)"/>
<path transform="matrix(1.00006,0,0,-1,130.02973,137.353)" stroke-width=".79701" stroke-linecap="butt" stroke-miterlimit="10" stroke-linejoin="miter" fill="none" stroke="#000000" d="M-59.52802 2.09216V-2.09216"/>
<use data-text="&#x2212;" xlink:href="#font_2_1" transform="matrix(9.963197,0,0,-9.9626,64.13277,149.58499)"/>
<use data-text="3" xlink:href="#font_3_2" transform="matrix(9.963197,0,0,-9.9626,71.88223,149.58499)"/>
<path transform="matrix(1.00006,0,0,-1,130.02973,137.353)" stroke-width=".79701" stroke-linecap="butt" stroke-miterlimit="10" stroke-linejoin="miter" fill="none" stroke="#000000" d="M-19.84267 2.09216V-2.09216"/>
<use data-text="&#x2212;" xlink:href="#font_2_1" transform="matrix(9.963197,0,0,-9.9626,103.82015,149.58499)"/>
<use data-text="1" xlink:href="#font_3_1" transform="matrix(9.963197,0,0,-9.9626,111.56962,149.58499)"/>
<path transform="matrix(1.00006,0,0,-1,130.02973,137.353)" stroke-width=".79701" stroke-linecap="butt" stroke-miterlimit="10" stroke-linejoin="miter" fill="none" stroke="#000000" d="M19.84267 2.09216V-2.09216"/>
<use data-text="1" xlink:href="#font_3_1" transform="matrix(9.963197,0,0,-9.9626,147.38277,149.58499)"/>
<path transform="matrix(1.00006,0,0,-1,130.02973,137.353)" stroke-width=".79701" stroke-linecap="butt" stroke-miterlimit="10" stroke-linejoin="miter" fill="none" stroke="#000000" d="M59.52802 2.09216V-2.09216"/>
<use data-text="3" xlink:href="#font_3_2" transform="matrix(9.963197,0,0,-9.9626,187.07015,149.58499)"/>
<path transform="matrix(1.00006,0,0,-1,130.02973,137.353)" stroke-width=".79701" stroke-linecap="butt" stroke-miterlimit="10" stroke-linejoin="miter" fill="none" stroke="#000000" d="M99.2134 2.09216V-2.09216"/>
<use data-text="5" xlink:href="#font_3_3" transform="matrix(9.963197,0,0,-9.9626,226.75852,149.58499)"/>
<path transform="matrix(1.00006,0,0,-1,130.02973,137.353)" stroke-width=".79701" stroke-linecap="butt" stroke-miterlimit="10" stroke-linejoin="miter" fill="none" stroke="#000000" d="M-1.39478-99.2134H1.39478"/>
<use data-text="&#x2212;" xlink:href="#font_2_1" transform="matrix(9.963197,0,0,-9.9626,114.97382,239.361)"/>
<use data-text="5" xlink:href="#font_3_3" transform="matrix(9.963197,0,0,-9.9626,122.72329,239.361)"/>
<path transform="matrix(1.00006,0,0,-1,130.02973,137.353)" stroke-width=".79701" stroke-linecap="butt" stroke-miterlimit="10" stroke-linejoin="miter" fill="none" stroke="#000000" d="M-1.39478-59.52802H1.39478"/>
<use data-text="&#x2212;" xlink:href="#font_2_1" transform="matrix(9.963197,0,0,-9.9626,114.97382,199.676)"/>
<use data-text="3" xlink:href="#font_3_2" transform="matrix(9.963197,0,0,-9.9626,122.72329,199.676)"/>
<path transform="matrix(1.00006,0,0,-1,130.02973,137.353)" stroke-width=".79701" stroke-linecap="butt" stroke-miterlimit="10" stroke-linejoin="miter" fill="none" stroke="#000000" d="M-1.39478-19.84267H1.39478"/>
<use data-text="&#x2212;" xlink:href="#font_2_1" transform="matrix(9.963197,0,0,-9.9626,114.97382,159.991)"/>
<use data-text="1" xlink:href="#font_3_1" transform="matrix(9.963197,0,0,-9.9626,122.72329,159.991)"/>
<path transform="matrix(1.00006,0,0,-1,130.02973,137.353)" stroke-width=".79701" stroke-linecap="butt" stroke-miterlimit="10" stroke-linejoin="miter" fill="none" stroke="#000000" d="M-1.39478 19.84267H1.39478"/>
<use data-text="1" xlink:href="#font_3_1" transform="matrix(9.963197,0,0,-9.9626,122.72328,120.72099)"/>
<path transform="matrix(1.00006,0,0,-1,130.02973,137.353)" stroke-width=".79701" stroke-linecap="butt" stroke-miterlimit="10" stroke-linejoin="miter" fill="none" stroke="#000000" d="M-1.39478 59.52802H1.39478"/>
<use data-text="3" xlink:href="#font_3_2" transform="matrix(9.963197,0,0,-9.9626,122.72328,81.034999)"/>
<path transform="matrix(1.00006,0,0,-1,130.02973,137.353)" stroke-width=".79701" stroke-linecap="butt" stroke-miterlimit="10" stroke-linejoin="miter" fill="none" stroke="#000000" d="M-1.39478 99.2134H1.39478"/>
<use data-text="5" xlink:href="#font_3_3" transform="matrix(9.963197,0,0,-9.9626,122.72328,41.35)"/>
</svg>
